<svg width="236" height="157" viewBox="0 0 236 157" fill="none" xmlns="http://www.w3.org/2000/svg">
<g clip-path="url(#clip0_2001_4705)">
<path d="M54.0448 88.5996H67.7998L96.7609 134.26H83.0113L54.0448 88.5996Z" fill="#37474F"/>
<path d="M128.306 62.8574H142.055L171.022 108.523H157.267L128.306 62.8574Z" fill="#37474F"/>
<path d="M67.7782 88.5996H54.0286L16 148.548H29.755L67.7782 88.5996Z" fill="#455A64"/>
<path d="M142.077 62.8574H128.327L83.0328 134.26H96.7825L142.077 62.8574Z" fill="#455A64"/>
<path d="M216.241 37.1152H202.491L157.197 108.523H170.952L216.241 37.1152Z" fill="#455A64"/>
<path d="M199.298 37.1158H219.493L214.31 27.5742L199.298 37.1158Z" fill="#455A64"/>
<path d="M59.0991 148.547H27.8239V199.994H59.0991V148.547Z" fill="#FFB64C"/>
<path opacity="0.6" d="M59.0991 148.547H27.8239V199.994H59.0991V148.547Z" fill="white"/>
<path d="M16 200H27.8239L27.8239 148.553H16L16 200Z" fill="#FFB64C"/>
<path opacity="0.4" d="M16 200H27.8239L27.8239 148.553H16L16 200Z" fill="white"/>
<path d="M112.549 78.168H81.2743V199.994H112.549V78.168Z" fill="#FFB64C"/>
<path opacity="0.6" d="M112.549 78.168H81.2743V199.994H112.549V78.168Z" fill="white"/>
<path d="M69.445 199.994H81.2689L81.2689 78.1684H69.445L69.445 199.994Z" fill="#FFB64C"/>
<path opacity="0.4" d="M69.445 199.994H81.2689L81.2689 78.1684H69.445L69.445 199.994Z" fill="white"/>
<path d="M165.994 108.119H134.719V200H165.994V108.119Z" fill="#FFB64C"/>
<path opacity="0.6" d="M165.994 108.119H134.719V200H165.994V108.119Z" fill="white"/>
<path d="M122.901 199.994H134.725V108.113H122.901L122.901 199.994Z" fill="#FFB64C"/>
<path opacity="0.4" d="M122.901 199.994H134.725V108.113H122.901L122.901 199.994Z" fill="white"/>
<path d="M219.445 97.1016H188.17V199.995H219.445V97.1016Z" fill="#FFB64C"/>
<path opacity="0.6" d="M219.445 97.1016H188.17V199.995H219.445V97.1016Z" fill="white"/>
<path d="M176.346 200H188.17V97.1065H176.346V200Z" fill="#FFB64C"/>
<path opacity="0.4" d="M176.346 200H188.17V97.1065H176.346V200Z" fill="white"/>
<path d="M107.371 22.7729C107.727 29.1358 107.981 35.7033 107.371 42.0338C106.886 46.9743 104.803 51.0474 99.6575 52.2704C94.8837 53.3964 88.0871 53.3102 84.0523 50.153C82.1697 48.6768 81.517 46.5972 81.6411 44.2697C81.8137 41.0371 84.3867 23.2901 85.1527 17.757C85.6166 14.3897 86.0643 10.9739 87.1269 7.7198C89.3439 0.888249 92.7584 0.758947 93.2277 0.624255C93.6322 0.365647 96.1998 -0.609518 99.8948 0.570379C100.861 0.874768 101.751 1.37964 102.508 2.05187C103.264 2.7241 103.87 3.54852 104.286 4.47104C106.934 9.96107 107.037 16.8196 107.371 22.7729Z" fill="#263238"/>
<path d="M92.1219 1.74441C88.0493 3.64086 87.0838 8.08029 86.0967 12.0564C84.7266 17.5949 83.4481 23.1604 82.4394 28.7581C81.954 31.4627 81.5368 34.1745 81.188 36.8935C80.8644 39.5011 80.3519 42.2812 80.5299 44.9103C80.8212 49.2636 84.8075 51.2462 88.6697 51.8658C88.7083 51.8729 88.7482 51.8645 88.7805 51.8422C88.8129 51.82 88.8351 51.7859 88.8423 51.7473C88.8494 51.7087 88.8409 51.6689 88.8187 51.6365C88.7964 51.6042 88.7622 51.582 88.7236 51.5749C86.5228 51.1385 84.2788 50.5297 82.6444 48.881C80.5407 46.7906 80.7888 44.0645 81.0262 41.3383C81.4469 36.7157 82.105 32.12 82.9843 27.5567C83.8635 22.9933 84.8506 18.4462 85.9348 13.9259C86.9651 9.61578 87.7149 3.95874 92.1381 1.77135C92.1866 1.7929 92.1651 1.72285 92.1219 1.74441Z" fill="#263238"/>
<path d="M106.136 9.11011C105.365 5.78053 103.633 2.54255 100.127 1.56738C104.658 3.02744 105.764 7.97331 106.395 12.1164C107.031 16.4643 107.474 20.8337 107.813 25.2192C108.116 29.4324 108.353 33.6832 108.245 37.9071C108.159 42.4705 107.333 46.7429 104.636 50.5035C104.628 50.5106 104.621 50.5194 104.617 50.5292C104.612 50.5391 104.61 50.5499 104.61 50.5608C104.61 50.5717 104.612 50.5825 104.617 50.5924C104.621 50.6023 104.628 50.6111 104.636 50.6182C104.644 50.6253 104.654 50.6305 104.665 50.6335C104.675 50.6364 104.686 50.6371 104.697 50.6354C104.708 50.6337 104.718 50.6297 104.727 50.6237C104.736 50.6177 104.744 50.6097 104.75 50.6005C107.404 47.5618 108.283 43.3702 108.499 39.448C108.688 34.2535 108.535 29.0521 108.04 23.8777C107.63 18.9695 107.252 13.8997 106.136 9.11011Z" fill="#263238"/>
<path d="M168.201 130.645C167.003 131.345 130.124 139.044 128.532 138.451C127.928 138.23 126.493 132.929 124.94 126.48C124.6 125.084 124.266 123.646 123.931 122.17C121.741 112.661 119.643 102.516 119.643 102.516L144.299 97.2949L147.93 117.095L148.728 121.437C148.728 121.437 164.166 124.799 165.843 125.639C167.521 126.48 169.398 129.939 168.201 130.645Z" fill="#FFC4C0"/>
<path d="M125.539 128.936C126.849 134.227 128.004 138.251 128.532 138.445C130.124 139.043 167.003 131.339 168.201 130.639C169.398 129.938 167.483 126.479 165.816 125.633C164.781 125.122 158.507 123.645 153.852 122.584C157.919 123.559 165.504 126.312 149.817 127.433C136.845 128.386 128.29 128.812 125.539 128.936Z" fill="#263238"/>
<path d="M135.167 148.327C133.829 148.699 96.2053 146.754 94.8136 145.779C94.5115 145.564 94.8568 140.515 95.2829 135.968C95.6011 132.59 103.822 109.148 103.822 109.148L128.991 110.377L118.656 134.465C118.656 134.465 132.729 141.641 134.137 142.881C135.545 144.12 136.499 147.956 135.167 148.327Z" fill="#FFC4C0"/>
<path d="M94.8136 145.773C96.2053 146.759 133.824 148.699 135.167 148.327C136.51 147.955 135.534 144.119 134.137 142.88C133.479 142.304 130.075 140.445 126.634 138.618C130.949 141.048 137.805 146.474 95.2074 136.803C94.819 141.107 94.5277 145.579 94.8136 145.773Z" fill="#263238"/>
<path d="M76.549 75.1508C84.0469 83.4963 109.243 76.9072 110.748 80.226C112.075 83.1569 94.8837 130.18 94.8837 130.18L122.394 133.144C122.394 133.144 146.128 81.2066 137.659 66.2019C133.069 58.1204 112.846 61.353 100.672 59.8445C96.9928 59.3973 95.2775 51.8223 95.2775 51.8223H73.4906C73.4906 51.8223 67.9778 65.6147 76.549 75.1508Z" fill="#263238"/>
<path d="M130.01 61.5524L106.902 79.2131C99.2313 79.0515 82.434 81.7076 76.549 75.1508C67.9778 65.6147 73.4744 51.8223 73.4744 51.8223H95.2613C95.2613 51.8223 96.9928 59.4027 100.655 59.8499C109.227 60.8843 121.725 59.6074 130.01 61.5524Z" fill="#37474F"/>
<path d="M123.446 127.013C122.685 126.776 115.554 125.984 113.979 125.812C110.829 125.472 100.914 124.545 99.1181 124.551C99.1067 124.551 99.0957 124.555 99.0876 124.563C99.0795 124.572 99.075 124.582 99.075 124.594C99.075 124.605 99.0795 124.616 99.0876 124.624C99.0957 124.632 99.1067 124.637 99.1181 124.637C100.682 124.96 107.01 125.715 108.579 125.86C111.735 126.183 122.566 127.234 123.446 127.148C123.46 127.143 123.473 127.135 123.482 127.122C123.492 127.11 123.496 127.096 123.496 127.08C123.496 127.065 123.492 127.05 123.482 127.038C123.473 127.026 123.46 127.017 123.446 127.013Z" fill="#37474F"/>
<path d="M114.087 77.4739C112.318 76.5957 98.9077 77.0321 89.2738 76.1324C86.1398 75.8361 82.9951 75.168 80.6001 73.1153C78.5141 71.2366 77.0251 68.7885 76.3171 66.0736C75.3947 62.7872 75.4864 59.3606 75.6483 55.9987C75.686 55.169 75.74 54.3447 75.7939 53.515C75.7939 53.4719 75.713 53.4611 75.7076 53.515C74.974 59.5384 74.413 66.2676 78.3399 71.4882C80.0813 73.7772 82.5568 75.3996 85.3523 76.0839C91.1564 77.614 112.976 77.2315 113.742 77.8187C114.664 78.5191 100.553 121.416 100.256 122.235C100.202 122.385 100.472 122.488 100.537 122.337C101.961 119.04 115.624 78.239 114.087 77.4739Z" fill="#37474F"/>
<path d="M138.646 67.6575C137.346 64.3656 134.385 62.3183 130.016 61.5371C129.946 61.5371 129.951 61.6287 130.016 61.6503C133.792 62.7601 136.532 64.2848 138.021 67.4851C138.722 68.9829 139.099 71.084 139.261 73.8964C140.162 87.942 127.896 119.821 127.648 120.376C127.642 120.38 127.638 120.386 127.636 120.392C127.633 120.398 127.632 120.405 127.633 120.412C127.633 120.419 127.636 120.425 127.639 120.431C127.643 120.437 127.648 120.441 127.653 120.445C127.659 120.449 127.666 120.451 127.672 120.451C127.679 120.452 127.686 120.451 127.692 120.448C127.698 120.446 127.704 120.442 127.708 120.437C127.713 120.431 127.716 120.425 127.718 120.419C129.471 117.51 143.997 81.229 138.646 67.6575Z" fill="#37474F"/>
<path d="M148.593 115.833L127.756 120.262C127.756 120.262 144.191 71.2341 136.472 64.9414C134.315 63.1904 129.67 62.5762 124.125 64.9414C115.845 68.5134 106.265 75.7921 97.2302 78.459C88.7722 80.9481 78.7283 78.6583 75.2761 74.86C68.0156 66.8755 73.4744 51.7901 73.4744 51.7901L103.439 50.6641C103.439 50.6641 102.991 51.0304 104.421 52.2804C104.421 52.2804 122.032 48.2935 129.681 52.9592C143.485 61.4286 148.593 115.833 148.593 115.833Z" fill="#263238"/>
<path d="M86.4365 53.5695C86.4365 53.5552 86.4308 53.5415 86.4207 53.5314C86.4106 53.5213 86.3969 53.5156 86.3826 53.5156C86.3683 53.5156 86.3545 53.5213 86.3444 53.5314C86.3343 53.5415 86.3286 53.5552 86.3286 53.5695C86.3557 54.6942 86.269 55.8187 86.0697 56.926C85.837 57.9761 85.3158 58.9407 84.5647 59.7114C82.9195 61.3708 80.5623 61.9365 78.41 62.6154C78.2968 62.6531 78.3184 62.8524 78.4478 62.8309C80.8374 62.4645 83.3457 61.8611 85.0934 60.067C85.8971 59.243 86.4362 58.1981 86.6415 57.0661C86.8629 55.9015 86.7925 54.7003 86.4365 53.5695Z" fill="#37474F"/>
<path d="M135.955 64.0051C132.756 62.0009 127.745 63.5256 125.35 64.4415C125.301 64.4415 125.323 64.5439 125.35 64.5223C127.556 63.7303 133.047 62.5343 135.976 64.6085C142.757 69.4035 133.684 102.209 127.734 120.263C127.642 120.543 127.869 120.468 127.993 120.198C128.975 118.043 136.623 95.2427 138.641 80.1519C138.97 77.846 140.577 66.9036 135.955 64.0051Z" fill="#37474F"/>
<path d="M146.214 110.301C145.588 110.301 140.189 111.475 138.997 111.745C136.618 112.283 131.105 113.706 129.827 114.196C129.794 114.196 129.827 114.277 129.854 114.277C131.089 114.158 133.964 113.528 135.151 113.253C137.524 112.714 145.669 110.748 146.263 110.43C146.311 110.403 146.279 110.306 146.214 110.301Z" fill="#37474F"/>
<path d="M134.935 63.1534C132.777 61.9789 130.215 61.7849 127.826 62.0759C125.299 62.4676 122.846 63.2434 120.554 64.3764C115.7 66.6069 111.039 69.3223 106.157 71.5366C101.276 73.7509 96.1297 75.4642 90.7787 75.6258C86.2099 75.7659 80.4274 74.9632 77.4876 70.8578C72.9566 64.5273 75.5943 53.6172 75.6482 52.9115C75.6482 52.8576 75.5781 52.863 75.5673 52.9115C72.0503 66.3213 76.5706 71.5258 79.6237 73.7186C82.0457 75.4534 85.5249 75.8737 87.8228 76.0892C93.1414 76.5364 98.4762 75.2379 103.406 73.2768C108.461 71.2618 113.197 68.5572 118.041 66.0843C122.68 63.7137 127.853 61.2677 133.144 62.6254C133.746 62.7836 134.336 62.9853 134.908 63.2288C134.946 63.2181 134.984 63.1696 134.935 63.1534Z" fill="#37474F"/>
<path d="M91.2912 25.4884C94.4198 34.308 99.9866 44.6739 102.031 46.2255C104.62 48.1866 118.639 49.7814 119.416 49.776C121.342 49.749 122.782 36.8779 120.722 36.8187C117.582 36.7271 108.952 36.8833 108.202 36.2799C107.452 35.6765 101.999 30.2242 96.3347 24.0445C92.4348 19.7667 89.3278 20.0146 91.2912 25.4884Z" fill="#FFC4C0"/>
<path d="M118.661 49.782C120.419 50.4465 122.221 50.9866 124.055 51.3983C125.512 51.6408 129.73 52.2388 130.161 50.6602C130.453 49.5827 128.004 48.9469 126.305 48.4513C125.398 48.1927 124.233 47.4168 124.427 46.835C124.756 45.8167 127.087 46.5333 128.64 47.2067C131.65 48.5213 135.75 51.0374 137.303 49.4103C137.891 48.7907 137.023 47.8963 135.809 47.0613C137.729 47.9772 139.752 48.6776 140.432 48.0203C140.608 47.8526 140.712 47.6238 140.724 47.3813C140.737 47.1387 140.655 46.9007 140.496 46.7165C140.735 46.7945 140.991 46.8003 141.233 46.7332C141.475 46.6661 141.692 46.529 141.856 46.3393C142.395 45.6605 141.98 44.7931 141.235 43.9472C141.343 43.9208 141.443 43.8701 141.528 43.7992C141.613 43.7282 141.681 43.6388 141.726 43.5377C142.74 41.512 135.938 36.8247 133.738 36.5661C129.389 36.1325 125.005 36.2229 120.678 36.8355C118.456 39.0552 118.656 49.7766 118.661 49.782Z" fill="#FFC4C0"/>
<path d="M127.243 42.9343C128.768 42.9956 130.263 43.3794 131.629 44.0603C133.344 44.9277 134.541 46.0376 136.025 47.1259C136.062 47.1528 136.025 47.2121 135.982 47.1852C135.275 46.6464 132.378 44.7607 131.639 44.3351C130.298 43.548 128.794 43.0763 127.243 42.9559C127.243 42.9559 127.227 42.9289 127.243 42.9343Z" fill="#263238"/>
<path d="M128.106 40.1328C129.834 40.3337 131.537 40.711 133.187 41.2588C134.962 41.9215 136.424 43.1607 137.886 44.3567C138.754 45.0733 139.612 45.806 140.442 46.5603C140.48 46.5926 140.442 46.6519 140.399 46.6196C138.932 45.3876 137.425 44.1987 135.879 43.0529C134.454 41.98 132.829 41.2016 131.1 40.7632C130.113 40.5099 129.109 40.3375 128.106 40.1598C128.085 40.1598 128.09 40.1328 128.106 40.1328Z" fill="#263238"/>
<path d="M129.59 37.5938C131.235 37.7392 132.67 37.8578 134.191 38.5528C135.908 39.4297 137.509 40.5155 138.959 41.7854C139.752 42.4588 140.518 43.1538 141.279 43.8596C141.311 43.8919 141.279 43.9458 141.23 43.9135C139.502 42.371 137.677 40.9404 135.766 39.6303C134.864 38.9958 133.871 38.5017 132.821 38.1648C131.759 37.8869 130.677 37.6976 129.584 37.5991L129.59 37.5938Z" fill="#263238"/>
<path d="M120.657 35.8546L117.647 51.3926C117.647 51.3926 104.399 49.2106 101.761 46.9532C99.1235 44.6958 93.2978 32.1587 91.2912 25.9844C89.2846 19.8102 92.5103 19.5947 95.9086 23.2421C99.3069 26.8896 107.743 35.7038 108.18 35.8708C108.617 36.0378 120.657 35.8546 120.657 35.8546Z" fill="#FFB64C"/>
<path d="M115.651 44.8739C116.018 43.0367 116.406 41.2049 116.73 39.3623C116.897 38.3117 117.075 37.2611 117.237 36.2105C117.237 36.1674 117.178 36.1512 117.167 36.2105C116.725 38.0369 116.282 39.8687 115.921 41.7113C115.559 43.5539 115.187 45.3857 114.842 47.2229C114.653 48.3004 114.491 49.3187 114.367 50.38H114.405C114.901 48.559 115.279 46.7218 115.651 44.8739Z" fill="#263238"/>
<path opacity="0.1" d="M117.949 49.8293L117.652 51.3755C117.652 51.3755 104.399 49.1935 101.761 46.9415C99.1235 44.6894 93.2924 32.1577 91.2912 25.9835C89.8294 21.4686 91.1564 20.1379 93.3032 21.1777C99.5065 28.2786 111.201 41.6777 117.949 49.8293Z" fill="black"/>
<path d="M72.7894 51.7475L104.183 52.2863L101.723 42.8956C102.55 41.7165 103.107 40.3703 103.355 38.9523C103.603 37.5344 103.536 36.0794 103.158 34.6902C102.409 31.9263 98.843 27.7832 96.6422 25.154C91.3074 18.7481 86.6739 21.6467 85.1959 23.2899C79.5266 29.5827 72.7894 51.7475 72.7894 51.7475Z" fill="#EBEBEB"/>
<path d="M87.5962 21.4902C87.5962 21.4902 90.6763 29.6579 91.8792 31.5221C93.0821 33.3862 96.6206 36.7265 96.6206 36.7265C96.6206 36.7265 97.0306 31.91 96.6206 29.1569C96.2107 26.4038 93.8696 22.4816 93.8696 22.4816C94.4964 22.8097 95.0576 23.2498 95.5256 23.78C98.1849 26.4738 102.808 31.8076 103.504 35.4497C103.767 36.712 103.777 38.0141 103.533 39.2803C103.288 40.5465 102.794 41.7515 102.079 42.8254L105.618 54.1017L100.661 55.6372L98.2227 52.7494L95.7036 55.9551L70.5886 52.4585L74.7636 44.5925C74.7636 44.5925 80.7403 29.0868 83.1137 25.6926C85.8162 21.8135 87.5962 21.4902 87.5962 21.4902Z" fill="#FFB64C"/>
<path d="M93.3248 42.3195C94.6681 42.1984 96.0185 42.1768 97.365 42.2549C98.0339 42.3034 98.692 42.3788 99.3554 42.4704C99.6845 42.5189 100.019 42.5512 100.348 42.5889C100.696 42.6293 101.047 42.6293 101.394 42.5889C101.427 42.5889 101.432 42.6266 101.394 42.6374C101.072 42.7087 100.746 42.7608 100.418 42.7937C100.1 42.8152 99.7812 42.8152 99.4633 42.7937C98.7837 42.7506 98.104 42.6805 97.4297 42.632C96.0596 42.5297 94.6949 42.4327 93.3248 42.4327C93.2655 42.4327 93.2601 42.3249 93.3248 42.3195Z" fill="#263238"/>
<path d="M90.2717 44.0811C91.3354 43.7703 92.416 43.5203 93.5082 43.3322C94.0476 43.2406 94.587 43.176 95.1642 43.1329C95.4285 43.1329 95.7036 43.0898 95.9571 43.079C96.2107 43.0682 96.5451 43.079 96.8364 43.079C96.8364 43.079 96.8741 43.1221 96.8364 43.1221C96.5613 43.149 96.297 43.2245 96.0219 43.2676L95.1966 43.3915L93.5783 43.6501C92.4995 43.8117 91.3883 43.9841 90.2933 44.1889C90.2124 44.1835 90.2124 44.0973 90.2717 44.0811Z" fill="#263238"/>
<path d="M87.4614 21.6797C87.1485 23.8348 86.7871 26.0221 86.4203 28.188L86.3071 28.0102C87.5855 28.3442 88.8585 28.7106 90.1315 29.0608L90.3473 29.12L90.2556 29.3248C89.878 30.1599 89.5004 31.0003 89.1066 31.83L89.0581 31.5984C90.4066 32.7729 91.7551 33.9258 93.1037 35.1219C94.4522 36.318 95.8007 37.4979 97.0899 38.7209C95.6821 37.6433 94.2958 36.485 92.9149 35.3482C91.534 34.2114 90.1747 33.0477 88.7992 31.9001L88.6859 31.8031L88.7506 31.6684C89.1228 30.8279 89.5166 29.9982 89.9049 29.1631L90.029 29.4271C88.7614 29.0554 87.4884 28.6998 86.2208 28.3119L86.0805 28.2688V28.1287C86.539 25.979 86.9759 23.824 87.4614 21.6797Z" fill="#263238"/>
<path d="M94.5277 22.9609C95.2397 23.699 95.736 24.227 96.421 24.9813C97.1061 25.7356 97.8127 26.4791 98.4816 27.2495L98.6219 27.4111L98.4385 27.5189L97.1115 28.3432L97.1493 28.0469C97.6887 28.5857 98.2281 29.1244 98.7675 29.6901L98.8376 29.7656V29.8625C98.5571 31.3388 98.2982 32.8257 98.0069 34.2966C97.7156 35.7674 97.419 37.249 97.0845 38.7198C97.2679 37.2221 97.4891 35.7351 97.721 34.2481C97.953 32.7611 98.2065 31.2795 98.4438 29.7979L98.4978 29.9703C97.9584 29.4315 97.419 28.8928 96.8795 28.3163L96.7069 28.1439L96.9119 28.0199L98.2551 27.2172L98.2119 27.4866C97.543 26.7161 96.9011 25.9188 96.243 25.1376C95.585 24.3563 95.1642 23.7691 94.5277 22.9609Z" fill="#263238"/>
<path d="M97.0899 38.7207C97.2787 39.4373 97.4729 40.1538 97.6293 40.8758C97.7857 41.5977 97.9691 42.3143 98.1256 43.0308C98.1795 44.6471 98.1903 46.2634 98.2173 47.8797C98.2442 49.496 98.2173 51.1123 98.2173 52.7286C98.1202 51.1123 98.0555 49.496 98.0015 47.8797C97.9476 46.2634 97.9044 44.6471 97.8882 43.0308V43.0578C97.7372 42.3304 97.5916 41.6031 97.4621 40.8758C97.3326 40.1484 97.2248 39.448 97.0899 38.7207Z" fill="#263238"/>
<path d="M96.6854 40.6709C96.6884 40.7954 96.6482 40.9172 96.5714 41.0154C96.4947 41.1137 96.3863 41.1823 96.2646 41.2097C96.1869 41.2223 96.1074 41.2177 96.0316 41.1963C95.9559 41.1749 95.8857 41.1373 95.8261 41.0859C95.7664 41.0346 95.7188 40.9708 95.6864 40.8991C95.6541 40.8274 95.6379 40.7495 95.6389 40.6709C95.6385 40.5891 95.6567 40.5082 95.6922 40.4345C95.7277 40.3607 95.7796 40.296 95.8439 40.2453C95.9031 40.2001 95.9711 40.1677 96.0435 40.1501C96.1159 40.1325 96.1912 40.13 96.2646 40.1429C96.3845 40.1699 96.4915 40.237 96.568 40.333C96.6445 40.429 96.6859 40.5482 96.6854 40.6709ZM96.6854 40.6709C96.6862 40.6164 96.6739 40.5625 96.6495 40.5137C96.6251 40.4649 96.5893 40.4228 96.5451 40.3907C96.5038 40.3647 96.4576 40.3475 96.4094 40.3401C96.3611 40.3327 96.3118 40.3352 96.2646 40.3476C96.1989 40.3716 96.1426 40.4159 96.1038 40.474C96.065 40.5321 96.0458 40.6011 96.0489 40.6709C96.0461 40.74 96.0655 40.8081 96.1044 40.8653C96.1432 40.9225 96.1994 40.9658 96.2646 40.9888C96.3117 41.0026 96.3612 41.0059 96.4097 40.9984C96.4581 40.991 96.5044 40.973 96.5451 40.9457C96.5886 40.9142 96.6239 40.8729 96.6483 40.8251C96.6727 40.7774 96.6854 40.7245 96.6854 40.6709Z" fill="#263238"/>
<path d="M97.2949 45.309C97.2979 45.4336 97.2577 45.5553 97.181 45.6536C97.1043 45.7518 96.9958 45.8204 96.8742 45.8478C96.8008 45.8607 96.7255 45.8583 96.653 45.8406C96.5806 45.823 96.5127 45.7906 96.4534 45.7454C96.3894 45.695 96.3377 45.6308 96.3022 45.5575C96.2666 45.4843 96.2482 45.4039 96.2482 45.3225C96.2482 45.2411 96.2666 45.1608 96.3022 45.0875C96.3377 45.0143 96.3894 44.95 96.4534 44.8996C96.5127 44.8544 96.5806 44.822 96.653 44.8044C96.7255 44.7868 96.8008 44.7843 96.8742 44.7972C96.9913 44.8236 97.0963 44.8882 97.1726 44.9809C97.2488 45.0736 97.2918 45.1891 97.2949 45.309ZM97.2949 45.309C97.2956 45.254 97.2827 45.1996 97.2573 45.1507C97.2319 45.1018 97.1948 45.06 97.1493 45.0289C97.1091 45.0027 97.0637 44.9853 97.0163 44.9779C96.9689 44.9705 96.9205 44.9731 96.8742 44.9858C96.8088 45.0109 96.7527 45.0553 96.7132 45.113C96.6737 45.1707 96.6527 45.2391 96.653 45.309C96.6488 45.3684 96.6616 45.4278 96.69 45.4801C96.7184 45.5325 96.7612 45.5756 96.8134 45.6045C96.8655 45.6334 96.9248 45.6468 96.9843 45.6431C97.0439 45.6394 97.1011 45.6189 97.1493 45.5838C97.1944 45.5536 97.2313 45.5127 97.2567 45.4647C97.2821 45.4168 97.2952 45.3633 97.2949 45.309Z" fill="#263238"/>
<path d="M97.5161 49.5825C97.5188 49.7078 97.4778 49.8301 97.4 49.9284C97.3223 50.0268 97.2126 50.095 97.0899 50.1212C97.0165 50.1341 96.9412 50.1317 96.8688 50.1141C96.7964 50.0965 96.7284 50.064 96.6692 50.0189C96.6052 49.9685 96.5535 49.9042 96.5179 49.8309C96.4824 49.7577 96.4639 49.6773 96.4639 49.5959C96.4639 49.5145 96.4824 49.4342 96.5179 49.3609C96.5535 49.2877 96.6052 49.2234 96.6692 49.173C96.7284 49.1278 96.7964 49.0954 96.8688 49.0778C96.9412 49.0602 97.0165 49.0577 97.0899 49.0706C97.2081 49.0959 97.3143 49.1602 97.3916 49.253C97.4689 49.3458 97.5127 49.4618 97.5161 49.5825ZM97.5161 49.5825C97.5146 49.5278 97.5008 49.4742 97.4755 49.4256C97.4503 49.3771 97.4144 49.3349 97.3704 49.3023C97.3293 49.276 97.283 49.2586 97.2347 49.2512C97.1864 49.2437 97.1371 49.2465 97.0899 49.2592C97.0242 49.2832 96.9679 49.3275 96.9291 49.3856C96.8903 49.4437 96.8711 49.5127 96.8742 49.5825C96.8714 49.6515 96.8908 49.7197 96.9297 49.7769C96.9685 49.8341 97.0247 49.8774 97.0899 49.9004C97.1369 49.9145 97.1865 49.918 97.2351 49.9106C97.2836 49.9031 97.3298 49.8849 97.3704 49.8572C97.4137 49.8252 97.4492 49.7839 97.4744 49.7363C97.4996 49.6888 97.5138 49.6362 97.5161 49.5825Z" fill="#263238"/>
<path d="M88.907 21.867C88.907 22.4489 90.5252 26.7159 93.0928 27.2547C93.9235 27.4324 95.1048 22.9445 95.1048 22.9445L95.2721 22.632L97.5484 18.2896L93.0497 13.3491L92.37 12.7188C92.37 12.7188 91.8306 13.9471 91.1617 15.4826C91.1294 15.5527 91.097 15.6227 91.0646 15.7035C91.0323 15.7843 90.9891 15.8705 90.9568 15.9513C90.8543 16.1776 90.7464 16.4093 90.6493 16.6464C90.5522 16.8834 90.5036 16.9966 90.4281 17.1851C90.3526 17.3737 90.2825 17.5569 90.2016 17.7239C89.6797 19.0751 89.2473 20.4592 88.907 21.867Z" fill="#FFC4C0"/>
<path d="M91.1833 15.4826C91.3006 16.9055 91.7272 18.2857 92.4334 19.527C93.1395 20.7683 94.1083 21.8408 95.2721 22.6698L97.5484 18.3273L93.0497 13.3868L92.3701 12.7188C92.3701 12.7188 91.8306 13.9471 91.1833 15.4826Z" fill="#263238"/>
<path d="M105.974 12.5529C105.003 21.0977 99.7708 21.4856 97.926 21.2755C96.2484 21.0869 90.5684 20.198 90.6493 11.6208C90.7302 3.04365 95.0077 0.76467 98.843 1.00173C102.678 1.23878 106.934 4.00265 105.974 12.5529Z" fill="#FFC4C0"/>
<path d="M104.933 10.9425C104.733 10.8886 104.561 10.8132 104.394 10.7432C104.185 10.6992 103.996 10.5897 103.854 10.4307C103.82 10.3721 103.806 10.3038 103.815 10.2366C103.824 10.1693 103.855 10.1069 103.903 10.0589C104.013 9.97846 104.142 9.92899 104.278 9.91572C104.414 9.90245 104.55 9.92587 104.674 9.98351C104.938 10.0619 105.165 10.2344 105.311 10.4684C105.345 10.5249 105.361 10.5904 105.356 10.6562C105.352 10.7219 105.328 10.7848 105.287 10.8364C105.246 10.888 105.19 10.9258 105.126 10.9448C105.063 10.9637 104.996 10.9629 104.933 10.9425Z" fill="#263238"/>
<path d="M99.0803 9.86861C99.2788 9.86515 99.4768 9.85076 99.6737 9.8255C99.885 9.84004 100.095 9.78517 100.272 9.66926C100.32 9.62135 100.351 9.55889 100.36 9.49164C100.369 9.42439 100.355 9.35613 100.321 9.29751C100.237 9.19133 100.126 9.10974 100 9.06136C99.8739 9.01299 99.7368 8.99965 99.6036 9.02274C99.3247 9.02101 99.056 9.1272 98.8538 9.31906C98.8094 9.36424 98.7793 9.42144 98.7672 9.48355C98.7551 9.54565 98.7615 9.60995 98.7856 9.66846C98.8097 9.72697 98.8505 9.77712 98.9029 9.8127C98.9553 9.84828 99.017 9.86772 99.0803 9.86861Z" fill="#263238"/>
<path d="M100.148 12.4073C100.148 12.3803 100.1 12.4073 100.1 12.4504C100.051 13.0376 99.9002 13.6949 99.35 13.8296V13.8673C100.008 13.8458 100.202 12.9676 100.148 12.4073Z" fill="#263238"/>
<path d="M99.6953 11.7385C98.7675 11.5607 98.487 13.4302 99.3447 13.5972C100.202 13.7642 100.461 11.8839 99.6953 11.7385Z" fill="#263238"/>
<path d="M99.3177 11.7824C99.1343 11.8632 98.9455 12.0248 98.7459 12.0141C98.5463 12.0033 98.3737 11.7824 98.2551 11.5723C98.2551 11.5723 98.2227 11.5723 98.2173 11.5723C98.1621 11.739 98.1727 11.9204 98.2469 12.0796C98.3211 12.2388 98.4532 12.3637 98.6165 12.4289C98.9617 12.5313 99.2584 12.2511 99.404 11.8901C99.431 11.8578 99.3824 11.7501 99.3177 11.7824Z" fill="#263238"/>
<path d="M103.39 12.7676C103.39 12.7676 103.433 12.8053 103.428 12.8268C103.32 13.4033 103.288 14.0822 103.779 14.3569C103.779 14.3569 103.779 14.3947 103.779 14.3893C103.158 14.1953 103.196 13.2956 103.39 12.7676Z" fill="#263238"/>
<path d="M104.005 12.25C104.949 12.3254 104.723 14.2003 103.849 14.1302C102.975 14.0602 103.218 12.1799 104.005 12.25Z" fill="#263238"/>
<path d="M104.383 12.4174C104.518 12.5359 104.647 12.7352 104.82 12.7676C104.992 12.7999 105.203 12.6221 105.359 12.4389C105.359 12.4389 105.391 12.4389 105.386 12.4659C105.354 12.8268 105.192 13.1824 104.847 13.2094C104.501 13.2363 104.334 12.9023 104.307 12.5359C104.264 12.4659 104.329 12.3689 104.383 12.4174Z" fill="#263238"/>
<path d="M102.079 15.3925C102.081 15.8224 102.061 16.2522 102.02 16.6801C102.02 16.7232 101.912 16.7232 101.772 16.7125C101.412 16.7274 101.055 16.6427 100.74 16.4678C100.425 16.2929 100.164 16.0345 99.9866 15.7211C99.9866 15.678 100.019 15.6457 100.057 15.678C100.529 16.1059 101.127 16.3704 101.761 16.4323C101.804 16.3246 101.713 14.9184 101.761 14.9238C102.075 14.996 102.378 15.1101 102.662 15.2632C102.716 13.4206 102.473 11.5888 102.56 9.757C102.56 9.74272 102.565 9.72901 102.575 9.71891C102.585 9.7088 102.599 9.70313 102.614 9.70312C102.628 9.70313 102.642 9.7088 102.652 9.71891C102.662 9.72901 102.667 9.74272 102.667 9.757C102.986 11.7154 103.107 13.7009 103.029 15.6834C103.04 15.8882 102.236 15.4841 102.079 15.3925Z" fill="#263238"/>
<path d="M101.745 16.5074C101.475 16.816 101.129 17.0498 100.742 17.1862C100.53 17.2561 100.301 17.2561 100.089 17.1862C99.6251 17.0354 99.6413 16.599 99.7546 16.238C99.8145 16.0488 99.8979 15.8678 100.003 15.6992C100.482 16.1479 101.093 16.4311 101.745 16.5074Z" fill="#263238"/>
<path d="M100.742 17.1865C100.53 17.2564 100.301 17.2564 100.089 17.1865C99.6251 17.0357 99.6413 16.5993 99.7546 16.2383C100.004 16.2578 100.238 16.363 100.418 16.5359C100.598 16.7088 100.713 16.9388 100.742 17.1865Z" fill="#FF9BBC"/>
<path d="M90.6709 12.6548C91.2651 12.4841 91.8049 12.1626 92.2378 11.7217C92.6708 11.2808 92.9821 10.7355 93.1414 10.1388C94.7446 9.75014 96.2165 8.94537 97.4082 7.80593C97.3165 7.97295 96.6853 9.16901 96.3293 9.77243C101.923 9.70239 104.323 5.8556 104.323 5.8556C105.193 6.98647 105.795 8.30001 106.082 9.697C106.082 9.697 106.702 6.38359 105.381 3.86756C104.964 2.99913 104.323 2.25735 103.523 1.71854C102.724 1.17973 101.796 0.863354 100.833 0.801977C99.5529 0.244046 98.1453 0.0416449 96.7592 0.216122C95.3731 0.390599 94.0599 0.935484 92.958 1.7933C88.7722 4.99357 90.6709 12.6548 90.6709 12.6548Z" fill="#263238"/>
<path d="M100.612 9.57872C99.6588 9.90239 98.6628 10.0839 97.6563 10.1175C99.2647 9.96987 100.798 9.37025 102.079 8.38805C102.623 7.97522 103.112 7.49552 103.536 6.96032C104.019 6.39278 104.386 5.73549 104.615 5.02615C104.618 5.0179 104.623 5.01079 104.631 5.00576C104.638 5.00074 104.646 4.99805 104.655 4.99805C104.664 4.99805 104.673 5.00074 104.68 5.00576C104.687 5.01079 104.693 5.0179 104.696 5.02615C104.546 5.75252 104.274 6.44836 103.892 7.08424C103.489 7.6998 102.975 8.23511 102.376 8.66282C101.843 9.04192 101.258 9.34308 100.639 9.55717L100.612 9.57872Z" fill="#263238"/>
<path d="M90.1369 14.5244C90.2525 14.5999 90.3776 14.6597 90.5091 14.7022C90.6351 14.7518 90.7678 14.7827 90.9028 14.7938C91.0848 14.8175 91.2698 14.7972 91.4422 14.7345C91.573 14.6922 91.6967 14.6304 91.809 14.5513C91.9736 14.4422 92.1163 14.3033 92.2298 14.1419V11.7982C92.2298 11.7982 90.919 8.79192 89.5921 9.21216C88.2651 9.63239 88.8369 13.7324 90.1369 14.5244Z" fill="#FFC4C0"/>
<path d="M89.7593 10.375C89.7593 10.375 89.7269 10.375 89.7593 10.4127C90.6601 11.0107 90.9945 12.029 91.1671 13.0419C91.1297 12.9323 91.0691 12.8322 90.9893 12.7482C90.9095 12.6643 90.8125 12.5986 90.7049 12.5556C90.5973 12.5126 90.4817 12.4933 90.3659 12.4992C90.2502 12.505 90.1371 12.5358 90.0344 12.5893C90.0286 12.5918 90.0237 12.596 90.0202 12.6013C90.0168 12.6065 90.0149 12.6127 90.0149 12.619C90.0149 12.6253 90.0168 12.6314 90.0202 12.6367C90.0237 12.6419 90.0286 12.6461 90.0344 12.6486C90.218 12.6284 90.4034 12.6658 90.5648 12.7556C90.7262 12.8453 90.8557 12.9831 90.9352 13.1496C91.0695 13.4284 91.1726 13.7211 91.2426 14.0224C91.2696 14.1194 91.4368 14.1033 91.426 13.9955C91.7011 12.724 91.0808 10.7737 89.7593 10.375Z" fill="#263238"/>
<path d="M82.693 24.4322C77.5901 28.8986 64.5255 46.4624 67.735 50.2229C70.9446 53.9835 91.1078 51.3759 96.9065 49.2963C98.6326 48.6767 93.4057 37.799 91.5124 37.368C89.9211 37.007 81.3067 39.9433 81.1125 39.4476C80.9183 38.952 82.6066 35.0675 85.3037 28.1335C88.3999 20.1059 84.9423 22.4603 82.693 24.4322Z" fill="#FFC4C0"/>
<path d="M100.008 34.8742C104.065 34.7234 105.133 35.3053 108.488 33.3549C110.688 32.078 112.452 32.9347 111.044 35.1706C108.741 38.8396 103.547 40.138 101.616 40.0679L100.008 34.8742Z" fill="#FFC4C0"/>
<path d="M88.9933 37.66C91.9001 36.4402 94.9369 35.5562 98.0447 35.0254C101.028 34.6105 107.608 34.4435 113.181 41.4906C114.502 43.1554 115.203 46.4688 112.053 44.5292C109.815 43.15 108.817 41.6037 107.366 41.038C107.366 41.038 107.76 45.3481 106.033 46.6142C104.527 47.7144 102.944 48.7064 101.297 49.5828C101.068 49.3178 100.856 49.0389 100.661 48.7478C100.661 48.7478 98.9401 49.766 95.9518 49.1788L88.9933 37.66Z" fill="#FFC4C0"/>
<path d="M100.952 35.084C102.268 35.946 105.035 37.8263 106.756 40.143C108.677 42.7237 111.67 48.2245 109.75 49.5983C108.342 50.6166 107.015 48.6232 107.015 48.6232C107.015 48.6232 107.776 51.15 106.303 51.7965C104.96 52.3838 104.021 50.7836 104.021 50.7836C104.021 50.7836 104.221 52.3999 102.818 52.7124C101.13 53.0895 100.995 49.6522 98.9509 48.5639C98.4924 48.3215 100.952 35.084 100.952 35.084Z" fill="#FFC4C0"/>
<path d="M103.698 41.7105C105.485 43.6023 106.653 45.9926 107.047 48.5637C107.047 48.6283 107.01 48.6714 106.988 48.6121C106.173 46.1998 105.068 43.895 103.698 41.7483C103.698 41.7483 103.698 41.6998 103.698 41.7105Z" fill="#263238"/>
<path d="M101.146 43.7193C102.009 44.6945 103.843 47.8193 104.081 50.761C104.081 50.8257 104.038 50.8634 104.016 50.8041C103.321 48.3462 102.349 45.9748 101.119 43.7355C101.119 43.7355 101.136 43.7086 101.146 43.7193Z" fill="#263238"/>
<path d="M107.371 40.9889C108.51 41.5103 109.551 42.2248 110.446 43.1008C110.945 43.5435 111.471 43.9555 112.021 44.3346C112.522 44.674 113.261 45.1859 113.871 44.7926C114.017 44.6665 114.127 44.5035 114.189 44.3206C114.25 44.1376 114.262 43.9415 114.222 43.7527C114.112 43.2092 113.919 42.6858 113.65 42.2011C113.65 42.2011 113.65 42.1634 113.682 42.2011C113.949 42.6438 114.167 43.1133 114.335 43.6019C114.44 43.9369 114.44 44.296 114.335 44.6309C114.071 45.3259 113.213 45.3367 112.63 45.0781C112.285 44.9132 111.958 44.7127 111.654 44.4801C111.357 44.27 111.071 44.0437 110.786 43.8066C110.208 43.3271 109.658 42.8153 109.086 42.325C108.529 41.8658 107.943 41.4412 107.333 41.0535C107.323 41.0158 107.344 40.9835 107.371 40.9889Z" fill="#263238"/>
<path d="M88.9933 37.6594L93.9883 51.5434C93.9883 51.5434 68.7654 54.6036 67.0662 50.1049C65.3671 45.6062 76.6354 29.7718 81.4416 25.3216C87.0137 20.1549 87.4614 22.1483 85.8539 27.0618C84.171 32.2017 81.1826 39.5828 81.1826 39.5828L88.9933 37.6594Z" fill="#FFB64C"/>
<path d="M73.3072 42.3521C75.743 41.0005 78.3689 40.0234 81.0963 39.4535C81.8677 39.2811 82.6444 39.1464 83.4212 39.0117C83.4212 39.0117 83.4482 39.044 83.4212 39.044C82.0617 39.3399 80.72 39.7123 79.4026 40.1593C78.0918 40.5957 76.7918 41.0483 75.4972 41.5331C74.7636 41.8025 74.0462 42.1096 73.3396 42.4059C73.3324 42.4102 73.3238 42.4115 73.3158 42.4095C73.3077 42.4075 73.3007 42.4023 73.2964 42.3952C73.2921 42.388 73.2908 42.3795 73.2929 42.3714C73.2949 42.3633 73.3 42.3564 73.3072 42.3521Z" fill="#263238"/>
<path d="M88.9286 37.6169C88.8045 37.6169 81.8299 39.1847 81.6034 39.2655C81.6411 39.1631 83.2216 35.7043 83.4428 35.1978C83.4629 35.1461 83.4863 35.0957 83.5129 35.047C83.6585 34.8207 83.8042 34.5998 83.9444 34.3735C84.0847 34.1472 84.295 33.7916 84.4838 33.4953L83.9175 34.3466C83.8311 34.4759 83.7502 34.6106 83.6693 34.7453C83.8257 34.3897 83.9768 34.0287 84.1278 33.6677C84.3706 33.0913 84.5917 32.504 84.8129 31.9221C84.8129 31.9221 84.8129 31.8952 84.7859 31.9221C84.322 32.9296 83.8258 33.9263 83.3619 34.9338C82.898 35.9413 81.1233 39.648 81.1341 39.6426C81.1449 39.6373 88.8261 37.7731 88.9771 37.7246C88.9842 37.7215 88.9906 37.7169 88.9959 37.7113C89.0013 37.7056 89.0054 37.699 89.0082 37.6917C89.0109 37.6845 89.0122 37.6767 89.012 37.669C89.0118 37.6612 89.01 37.6536 89.0068 37.6465C89.0036 37.6394 88.9991 37.6331 88.9934 37.6277C88.9878 37.6224 88.9811 37.6183 88.9738 37.6155C88.9666 37.6128 88.9589 37.6115 88.9511 37.6117C88.9433 37.6119 88.9357 37.6137 88.9286 37.6169Z" fill="#263238"/>
<path d="M88.5186 46.3066C87.9792 44.755 87.4398 43.2033 86.8356 41.6732C86.4904 40.8058 86.156 39.933 85.8 39.071C85.8 39.0387 85.7298 39.071 85.7406 39.071C86.2261 40.6496 86.717 42.2282 87.278 43.7798C87.8389 45.3315 88.3568 46.8777 88.9501 48.4186C89.2792 49.2914 89.6298 50.1534 90.029 51.0101H90.0613C89.6082 49.4207 89.0688 47.8637 88.5186 46.3066Z" fill="#263238"/>
<path d="M94.2634 51.7802C94.0584 51.3492 93.8049 50.7027 93.5837 50.3094C93.5244 50.1962 93.4381 50.207 93.4866 50.3094C93.6377 50.6973 93.7509 51.1283 93.8966 51.527L92.8178 51.6294L91.5933 51.7587C90.7896 51.8395 89.975 51.9149 89.1875 51.9796C87.5657 52.116 85.9474 52.2166 84.3328 52.2813C81.0687 52.4312 77.7991 52.4115 74.5371 52.222C73.6254 52.1627 72.7138 52.0873 71.8076 51.9849C70.9014 51.8826 69.8927 51.7587 69.1375 51.5863C69.1106 51.5863 69.1052 51.6186 69.1375 51.6294C69.8897 51.8699 70.6599 52.05 71.4408 52.1681C72.2607 52.292 73.0591 52.3944 73.9059 52.4644C75.5512 52.6099 77.1964 52.6692 78.847 52.6853C82.1158 52.7141 85.381 52.6027 88.6427 52.3513C89.5543 52.2866 90.4659 52.2058 91.3775 52.1143C91.8414 52.0711 92.2999 52.0227 92.7584 51.9688C93.2647 51.9506 93.7683 51.8875 94.2634 51.7802Z" fill="#263238"/>
<path d="M128.327 53.25H96.5667V54.6723H128.327V53.25Z" fill="#C7C7C7"/>
<path d="M128.327 53.25V54.6723H106.735L107.824 53.25H128.327Z" fill="#A6A6A6"/>
<path d="M111.104 54.6735H138.9L142.924 35.084H115.128L111.104 54.6735Z" fill="#A6A6A6"/>
<path d="M112.404 54.6735H140.2L144.224 35.084H116.422L112.404 54.6735Z" fill="#C7C7C7"/>
<path d="M130.819 44.1506C130.842 44.5867 130.718 45.0177 130.466 45.3751C130.215 45.7324 129.851 45.9955 129.433 46.1225C128.64 46.2895 127.971 45.6753 127.944 44.7486C127.92 44.3115 128.043 43.8787 128.294 43.52C128.546 43.1614 128.911 42.8977 129.331 42.7713C130.129 42.6043 130.787 43.2239 130.819 44.1506Z" fill="white"/>
<path d="M94.5386 154.312H59.9893V161.936H94.5386V154.312Z" fill="#FFB64C"/>
<g opacity="0.1">
<path d="M61.4133 155.014C61.7729 157.031 61.7729 159.095 61.4133 161.112C61.0538 159.095 61.0538 157.031 61.4133 155.014Z" fill="black"/>
<path d="M63.9863 155.014C64.1779 156.019 64.2683 157.04 64.2561 158.063C64.2705 159.086 64.1801 160.108 63.9863 161.112C63.6268 159.095 63.6268 157.031 63.9863 155.014Z" fill="black"/>
<path d="M65.2432 155.014C65.6027 157.031 65.6027 159.095 65.2432 161.112C64.8836 159.095 64.8836 157.031 65.2432 155.014Z" fill="black"/>
<path d="M72.1423 155.014C72.5018 157.031 72.5018 159.095 72.1423 161.112C71.7827 159.095 71.7827 157.031 72.1423 155.014Z" fill="black"/>
<path d="M74.0302 155.014C74.3898 157.031 74.3898 159.095 74.0302 161.112C73.6707 159.095 73.6707 157.031 74.0302 155.014Z" fill="black"/>
<path d="M81.7276 155.014C82.0872 157.031 82.0872 159.095 81.7276 161.112C81.3681 159.095 81.3681 157.031 81.7276 155.014Z" fill="black"/>
<path d="M83.5131 155.014C83.702 156.019 83.7924 157.04 83.7828 158.063C83.7946 159.086 83.7042 160.107 83.5131 161.112C83.3193 160.108 83.2289 159.086 83.2434 158.063C83.2311 157.04 83.3215 156.019 83.5131 155.014Z" fill="black"/>
<path d="M86.7873 155.014C86.9763 156.019 87.0666 157.04 87.057 158.063C87.0688 159.086 86.9784 160.107 86.7873 161.112C86.5935 160.108 86.5032 159.086 86.5176 158.063C86.508 157.04 86.5984 156.019 86.7873 155.014Z" fill="black"/>
<path d="M80.2389 155.014C80.4278 156.019 80.5181 157.04 80.5086 158.063C80.5203 159.086 80.43 160.107 80.2389 161.112C80.0451 160.108 79.9547 159.086 79.9691 158.063C79.9569 157.04 80.0473 156.019 80.2389 155.014Z" fill="black"/>
<path d="M67.5249 155.014C67.7138 156.019 67.8041 157.04 67.7946 158.063C67.809 159.086 67.7187 160.108 67.5249 161.112C67.3337 160.107 67.2434 159.086 67.2552 158.063C67.2456 157.04 67.3359 156.019 67.5249 155.014Z" fill="black"/>
<path d="M76.4683 155.014C76.8279 157.031 76.8279 159.095 76.4683 161.112C76.1088 159.095 76.1088 157.031 76.4683 155.014Z" fill="black"/>
<path d="M77.7522 155.014C77.9437 156.019 78.0341 157.04 78.0219 158.063C78.0363 159.086 77.9459 160.108 77.7522 161.112C77.3926 159.095 77.3926 157.031 77.7522 155.014Z" fill="black"/>
<path d="M91.0541 155.014C91.4137 157.031 91.4137 159.095 91.0541 161.112C90.6945 159.095 90.6945 157.031 91.0541 155.014Z" fill="black"/>
<path d="M92.9852 155.014C93.1741 156.019 93.2645 157.04 93.2549 158.063C93.2667 159.086 93.1763 160.107 92.9852 161.112C92.7914 160.108 92.701 159.086 92.7155 158.063C92.7059 157.04 92.7963 156.019 92.9852 155.014Z" fill="black"/>
<path d="M88.3084 155.014C88.668 157.031 88.668 159.095 88.3084 161.112C88.1146 160.108 88.0243 159.086 88.0387 158.063C88.0265 157.04 88.1168 156.019 88.3084 155.014Z" fill="black"/>
<path d="M70.6535 155.014C70.8424 156.019 70.9327 157.04 70.9232 158.063C70.9349 159.086 70.8446 160.107 70.6535 161.112C70.4597 160.108 70.3693 159.086 70.3838 158.063C70.3742 157.04 70.4645 156.019 70.6535 155.014Z" fill="black"/>
</g>
<path opacity="0.1" d="M94.5332 154.312V155.934L59.9893 157.022V154.312H94.5332Z" fill="black"/>
</g>
<defs>
<clipPath id="clip0_2001_4705">
<rect width="236" height="157" fill="white"/>
</clipPath>
</defs>
</svg>
