<svg width="236" height="157" viewBox="0 0 236 157" fill="none" xmlns="http://www.w3.org/2000/svg">
<g clip-path="url(#clip0_415_69629)">
<path d="M10.356 75.1525C10.5579 75.1345 10.7519 75.0657 10.92 74.9525C11.1178 74.8091 11.2593 74.6011 11.32 74.3645C11.3531 74.2108 11.3652 74.0534 11.356 73.8965C11.356 73.7285 11.356 73.5485 11.356 73.3565C11.356 71.8125 11.392 69.5965 11.416 66.8645C11.416 66.1791 11.424 65.4631 11.44 64.7165C11.44 64.3405 11.44 63.9605 11.44 63.5725C11.4563 63.3835 11.4563 63.1934 11.44 63.0045C11.4036 62.8236 11.3162 62.6571 11.188 62.5245C11.0593 62.3895 10.8913 62.2986 10.708 62.2645C10.5069 62.2501 10.3051 62.2501 10.104 62.2645H8.84H6.192H-5.592C-5.82875 62.2697 -6.05515 62.3625 -6.22733 62.5251C-6.39951 62.6877 -6.50523 62.9084 -6.524 63.1445L-6.548 64.6725C-6.548 65.6925 -6.58 66.6725 -6.596 67.6805C-6.624 69.6525 -6.652 71.5525 -6.68 73.3645V74.0405C-6.6944 74.2454 -6.64403 74.4497 -6.536 74.6245C-6.43293 74.7964 -6.27519 74.9288 -6.088 75.0005C-5.89145 75.0613 -5.6849 75.083 -5.48 75.0645H-2.984H1.5L7.988 75.0965L9.752 75.1165H10.212H10.368C10.3161 75.1217 10.2639 75.1217 10.212 75.1165H9.752H7.988L1.5 75.1525H-2.984H-5.492C-5.71828 75.1726 -5.94633 75.1495 -6.164 75.0845C-6.38954 74.9968 -6.58047 74.8381 -6.708 74.6325C-6.835 74.4264 -6.89509 74.1861 -6.88 73.9445C-6.88 73.7205 -6.88 73.4965 -6.88 73.2685C-6.856 71.4565 -6.832 69.5565 -6.808 67.5845C-6.808 66.6005 -6.78 65.5845 -6.764 64.5765C-6.764 64.0645 -6.764 63.5525 -6.74 63.0325C-6.6949 62.7618 -6.55594 62.5156 -6.34749 62.3371C-6.13903 62.1587 -5.8744 62.0593 -5.6 62.0565H6.184H10.1C10.3123 62.0508 10.5247 62.0588 10.736 62.0805C10.9549 62.1213 11.1552 62.2305 11.308 62.3925C11.4577 62.5489 11.5603 62.7444 11.604 62.9565C11.6217 63.1574 11.6217 63.3595 11.604 63.5605C11.604 63.9605 11.604 64.3325 11.604 64.7045C11.604 65.4525 11.58 66.1725 11.568 66.8565C11.512 69.5885 11.472 71.8005 11.44 73.3445C11.44 73.5365 11.44 73.7165 11.44 73.8885C11.4449 74.0499 11.4287 74.2112 11.392 74.3685C11.3196 74.6157 11.1642 74.8304 10.952 74.9765C10.8225 75.0628 10.6745 75.1176 10.52 75.1365C10.4667 75.1516 10.4112 75.157 10.356 75.1525Z" fill="#455A64"/>
<path d="M3.064 67.5526L5.248 68.8766L3.016 70.1886L0.783997 71.4966L0.831998 68.8606L0.879996 66.2246L3.064 67.5526Z" fill="#455A64"/>
<path d="M123.774 15.0585L101.438 17.1777L102.867 32.2341L125.203 30.1149L123.774 15.0585Z" fill="white"/>
<path d="M125.2 30.1002C125.2 30.1002 125.2 30.0042 125.164 29.8202L125.08 29.0202C125.008 28.3122 124.904 27.2922 124.772 25.9842C124.512 23.3682 124.14 19.6162 123.692 15.0482L123.78 15.1242L101.452 17.3002L101.544 17.1882V17.3002V17.4282L101.568 17.6762L101.616 18.1802L101.712 19.1762L101.896 21.1482C102.019 22.4522 102.14 23.7349 102.26 24.9962C102.496 27.5162 102.724 29.9402 102.94 32.2322L102.836 32.1482L118.916 30.6682L123.52 30.2682L124.748 30.1602L125.068 30.1362H125.2H125.1L124.792 30.1682L123.592 30.2962L119.016 30.7562L102.884 32.3322H102.788V32.2362C102.568 29.9402 102.336 27.5202 102.092 25.0002C101.972 23.7415 101.851 22.4589 101.728 21.1522C101.664 20.5002 101.6 19.8402 101.54 19.1802L101.444 18.1842L101.384 17.7002L101.36 17.4522V17.3242V17.2082L101.456 17.0922L123.792 14.9922H123.876V15.0762C124.276 19.6682 124.636 23.4402 124.876 26.0762C124.988 27.3722 125.08 28.3882 125.14 29.0922C125.168 29.4282 125.188 29.6922 125.204 29.8922C125.22 30.0922 125.2 30.1002 125.2 30.1002Z" fill="#455A64"/>
<path d="M123.776 15.0605C123.727 15.1474 123.668 15.228 123.6 15.3005L123.072 15.9125C122.596 16.4565 121.928 17.2165 121.104 18.1485L114.496 25.5405L114.436 25.6045L114.364 25.5565L113.768 25.1765L105.024 19.5765L102.4 17.8325L101.688 17.3565C101.603 17.3049 101.523 17.246 101.448 17.1805C101.54 17.2184 101.629 17.2653 101.712 17.3205L102.444 17.7645L105.116 19.4285L113.892 24.9845L114.488 25.3845H114.352L121 18.0365L123.02 15.8445L123.572 15.2565C123.636 15.1868 123.704 15.1213 123.776 15.0605Z" fill="#455A64"/>
<path d="M74.12 33.028C74.0769 32.5407 74.0007 32.0569 73.892 31.58C73.7502 31.0264 73.5249 30.4977 73.224 30.012C72.8351 29.3641 72.3243 28.7977 71.72 28.344C70.9363 27.7507 70.016 27.3639 69.0438 27.2192C68.0715 27.0746 67.0785 27.1766 66.156 27.516C65.0689 27.9165 64.1231 28.6272 63.436 29.56C62.6954 30.5631 62.2958 31.7771 62.2958 33.024C62.2958 34.2708 62.6954 35.4849 63.436 36.488C64.1214 37.4234 65.0676 38.1359 66.156 38.536C67.4407 39.0049 68.8485 39.0123 70.1381 38.5569C71.4277 38.1015 72.5186 37.2117 73.224 36.04C73.5249 35.5542 73.7502 35.0255 73.892 34.472C74.0002 33.9963 74.0763 33.5139 74.12 33.028C74.1244 33.0598 74.1244 33.0921 74.12 33.124V33.408C74.1199 33.562 74.1078 33.7158 74.084 33.868C74.062 34.0784 74.0246 34.287 73.972 34.492C73.8394 35.0548 73.6223 35.5942 73.328 36.092C72.6197 37.3069 71.5071 38.2344 70.1845 38.7126C68.862 39.1907 67.4135 39.1891 66.092 38.708C65.5416 38.5226 65.0234 38.2527 64.556 37.908C64.0618 37.5518 63.6282 37.1182 63.272 36.624C62.5033 35.5864 62.0884 34.3293 62.0884 33.038C62.0884 31.7467 62.5033 30.4895 63.272 29.452C63.6282 28.9577 64.0618 28.5242 64.556 28.168C65.0234 27.8233 65.5416 27.5534 66.092 27.368C67.0427 27.0228 68.0653 26.9236 69.0646 27.0796C70.064 27.2355 71.0076 27.6416 71.808 28.26C72.4206 28.7306 72.9356 29.3162 73.324 29.984C73.621 30.4808 73.8396 31.0205 73.972 31.584C74.0246 31.789 74.062 31.9975 74.084 32.208C74.1078 32.3602 74.1199 32.5139 74.12 32.668V32.952C74.1224 32.9773 74.1224 33.0027 74.12 33.028Z" fill="#263238"/>
<path d="M82.132 42.9808C82.1 43.0288 79.988 41.6688 77.42 39.9448C74.852 38.2208 72.792 36.7808 72.824 36.7448C72.856 36.7088 74.964 38.0568 77.536 39.7848C80.108 41.5128 82.164 42.9328 82.132 42.9808Z" fill="#263238"/>
<path d="M230.884 49.1683H231.108H231.388L231.788 49.2203C232.642 49.3592 233.447 49.7114 234.128 50.2443C235.22 51.105 235.926 52.3637 236.092 53.7443C236.132 54.1443 236.132 54.5643 236.132 54.9883C236.132 55.4123 236.132 55.8563 236.132 56.3123C236.132 57.2203 236.132 58.1843 236.132 59.1923C236.132 60.2003 236.132 61.2683 236.132 62.3923C236.132 62.9443 236.132 63.5123 236.132 64.0883C236.16 64.6844 236.101 65.2814 235.956 65.8603C235.711 66.7958 235.213 67.6456 234.517 68.316C233.82 68.9865 232.952 69.4517 232.008 69.6603C231.348 69.7742 230.677 69.8158 230.008 69.7844H212.152L212.224 69.7563L208.196 73.7844L208.016 73.9643V69.7003L208.12 69.8043C207.678 69.8201 207.236 69.8041 206.796 69.7563C206.356 69.7001 205.924 69.5886 205.512 69.4243C204.7 69.0979 203.983 68.5744 203.424 67.9012C202.865 67.228 202.483 66.4262 202.312 65.5683C202.238 65.1499 202.203 64.7253 202.208 64.3003V63.0563C202.208 61.4083 202.208 59.7843 202.208 58.2003V55.8483C202.184 55.0783 202.208 54.3074 202.28 53.5403C202.4 52.7866 202.681 52.0677 203.104 51.4323C203.512 50.8271 204.04 50.3128 204.656 49.9218C205.272 49.5308 205.963 49.2715 206.684 49.1603C207.369 49.0956 208.057 49.0742 208.744 49.0963H216.2L226.968 49.1323L216.2 49.1683H208.744C208.066 49.147 207.387 49.1698 206.712 49.2363C205.646 49.3976 204.659 49.8951 203.896 50.6564C203.133 51.4176 202.632 52.4028 202.468 53.4683C202.398 54.2262 202.377 54.9878 202.404 55.7483V58.1003C202.404 59.7003 202.404 61.3003 202.404 62.9563C202.369 63.7817 202.402 64.6085 202.504 65.4284C202.677 66.245 203.041 67.0087 203.568 67.6563C204.386 68.6463 205.55 69.2882 206.824 69.4524C207.254 69.4973 207.687 69.512 208.12 69.4964H208.224V73.7003L208.048 73.6243L212.08 69.5963L212.108 69.5683H212.152H230.008C230.67 69.6017 231.334 69.5614 231.988 69.4483C232.616 69.3129 233.211 69.059 233.744 68.7003C234.766 68.0098 235.504 66.9726 235.82 65.7803C235.959 65.2316 236.02 64.666 236 64.1003C236 63.5243 236 62.9563 236 62.4043C236 61.2963 236 60.2323 236 59.2043C236 58.1763 236 57.2323 236 56.3243C236 55.8683 236 55.4283 236 55.0003C236 54.5723 236 54.1603 235.972 53.7683C235.817 52.4108 235.131 51.1698 234.064 50.3163C233.397 49.7811 232.606 49.4221 231.764 49.2723L231.384 49.2083H231.108L230.884 49.1683Z" fill="#263238"/>
<path d="M215.02 60.101C215.02 60.101 214.996 60.001 214.944 59.829C214.869 59.5938 214.72 59.389 214.52 59.245C214.376 59.142 214.208 59.076 214.032 59.053C213.857 59.03 213.678 59.0506 213.512 59.113C213.309 59.1871 213.135 59.3216 213.011 59.4983C212.888 59.675 212.821 59.8854 212.821 60.101C212.821 60.3166 212.888 60.527 213.011 60.7037C213.135 60.8805 213.309 61.0149 213.512 61.089C213.678 61.1514 213.857 61.172 214.032 61.149C214.208 61.126 214.376 61.0601 214.52 60.957C214.72 60.813 214.869 60.6082 214.944 60.373C214.996 60.205 215 60.101 215.02 60.101C215.046 60.1966 215.046 60.2974 215.02 60.393C214.975 60.6612 214.833 60.9033 214.62 61.073C214.46 61.2039 214.268 61.2911 214.064 61.3261C213.86 61.3612 213.651 61.3429 213.456 61.273C213.214 61.1879 213.004 61.0296 212.855 60.82C212.707 60.6105 212.627 60.3599 212.627 60.103C212.627 59.8461 212.707 59.5956 212.855 59.386C213.004 59.1764 213.214 59.0181 213.456 58.933C213.65 58.8626 213.86 58.8436 214.064 58.878C214.268 58.9123 214.459 58.9988 214.62 59.129C214.833 59.2999 214.976 59.5435 215.02 59.813C215.046 59.9073 215.046 60.0067 215.02 60.101Z" fill="#263238"/>
<path d="M220.32 60.06C220.291 59.9722 220.267 59.8827 220.248 59.792C220.173 59.5558 220.024 59.3499 219.824 59.204C219.679 59.1006 219.511 59.0345 219.334 59.0114C219.158 58.9884 218.979 59.0092 218.812 59.072C218.612 59.1487 218.439 59.2844 218.318 59.4611C218.196 59.6379 218.131 59.8474 218.131 60.062C218.131 60.2766 218.196 60.4861 218.318 60.6628C218.439 60.8396 218.612 60.9753 218.812 61.052C218.979 61.1132 219.158 61.1327 219.335 61.109C219.511 61.0853 219.679 61.0191 219.824 60.916C220.023 60.7708 220.172 60.5664 220.248 60.332C220.267 60.2401 220.291 60.1493 220.32 60.06C220.32 60.06 220.356 60.164 220.32 60.352C220.272 60.619 220.13 60.8601 219.92 61.032C219.76 61.1629 219.568 61.2501 219.364 61.2851C219.16 61.3201 218.951 61.3018 218.756 61.232C218.514 61.1469 218.304 60.9886 218.155 60.779C218.007 60.5694 217.927 60.3189 217.927 60.062C217.927 59.8051 218.007 59.5545 218.155 59.3449C218.304 59.1354 218.514 58.9771 218.756 58.892C218.95 58.8216 219.16 58.8026 219.364 58.837C219.568 58.8713 219.759 58.9578 219.92 59.088C220.13 59.2613 220.272 59.5037 220.32 59.772C220.356 59.956 220.332 60.06 220.32 60.06Z" fill="#263238"/>
<path d="M225.624 60.06C225.594 59.972 225.569 59.8825 225.548 59.792C225.48 59.5587 225.34 59.3529 225.148 59.204C225.003 59.1006 224.835 59.0345 224.658 59.0114C224.482 58.9884 224.303 59.0092 224.136 59.072C223.936 59.1487 223.763 59.2844 223.642 59.4611C223.52 59.6379 223.455 59.8474 223.455 60.062C223.455 60.2766 223.52 60.4861 223.642 60.6628C223.763 60.8396 223.936 60.9753 224.136 61.052C224.303 61.1132 224.482 61.1327 224.659 61.109C224.835 61.0853 225.003 61.0191 225.148 60.916C225.339 60.7677 225.479 60.5636 225.548 60.332C225.604 60.164 225.608 60.06 225.624 60.06C225.64 60.06 225.66 60.164 225.624 60.352C225.576 60.619 225.434 60.8601 225.224 61.032C225.064 61.1629 224.872 61.2501 224.668 61.2851C224.464 61.3201 224.255 61.3018 224.06 61.232C223.818 61.1469 223.608 60.9886 223.459 60.779C223.311 60.5694 223.231 60.3189 223.231 60.062C223.231 59.8051 223.311 59.5545 223.459 59.3449C223.608 59.1354 223.818 58.9771 224.06 58.892C224.254 58.8216 224.464 58.8026 224.668 58.837C224.872 58.8713 225.063 58.9578 225.224 59.088C225.434 59.2613 225.576 59.5037 225.624 59.772C225.66 59.956 225.636 60.06 225.624 60.06Z" fill="#263238"/>
<path d="M167.08 53.6607C165.124 54.1167 163.88 56.0967 163.452 58.0607C163.024 60.0247 163.24 62.0607 163.052 64.0607C162.864 66.0607 162.164 68.1847 160.48 69.2607L162.156 69.7487C161.825 70.7982 161.126 71.693 160.188 72.2687C160.843 72.7754 161.648 73.0498 162.476 73.0487C161.492 73.3087 161.22 74.7167 161.764 75.5767C162.308 76.4367 163.344 76.8447 164.332 77.0967C165.487 77.4517 166.717 77.489 167.892 77.2047C169.492 76.7207 170.724 75.2967 171.344 73.7207C171.964 72.1447 172.08 70.4247 172.144 68.7327C172.264 64.4967 172.016 60.2167 170.944 56.1167C170.68 55.1247 170.32 54.0727 169.476 53.4887C168.632 52.9047 167.192 53.1407 166.936 54.1327" fill="#FFB64C"/>
<path d="M211.292 114.805C210.828 113.037 208.124 103.077 205.692 96.5733C203.008 89.3533 197.472 87.8613 197.472 87.8613C185.012 83.6093 173.816 83.5853 161.872 87.7293C161.472 87.8493 161.116 87.9773 160.76 88.1293H160.724C151.856 91.6093 150.94 100.977 150.94 100.977L147.2 123.701C147.161 123.881 147.132 124.062 147.112 124.245L147.076 124.461C147.013 125.523 147.269 126.58 147.812 127.495C148.356 128.41 149.161 129.141 150.124 129.593C155.324 131.993 160.3 131.421 164.572 129.657L161.468 134.177H198.424L196 128.213L196.8 124.613L202.524 131.501C203.21 132.326 204.129 132.924 205.16 133.217C211.76 133.985 212.828 124.157 211.588 118.437" fill="#455A64"/>
<path d="M187.88 85.3844C187.88 85.3844 181.916 115.384 179.816 115.152C177.716 114.92 167.864 85.9524 167.864 85.9524C167.864 85.9524 180.456 82.5924 187.88 85.3844Z" fill="#FFBE9D"/>
<path d="M170.968 87.5961C170.936 84.1441 170.84 80.5081 170.84 80.5081C170.84 80.5081 166.388 79.8001 165.428 74.0001C164.516 68.4721 165.352 55.6841 165.352 55.6841C168.501 54.3976 171.968 54.1048 175.288 54.8447C178.609 55.5847 181.623 57.3222 183.928 59.8241L183.724 87.8721C183.7 91.1281 180.88 93.7001 177.396 93.6481C173.872 93.5961 170.996 90.9001 170.968 87.5961Z" fill="#FFBE9D"/>
<path d="M166.828 65.3616C166.827 65.5555 166.901 65.7422 167.036 65.8819C167.17 66.0216 167.354 66.1033 167.548 66.1096C167.643 66.1166 167.738 66.1046 167.828 66.0742C167.918 66.0439 168.001 65.9958 168.073 65.9327C168.144 65.8697 168.202 65.7931 168.243 65.7074C168.284 65.6216 168.307 65.5285 168.312 65.4336C168.313 65.2396 168.239 65.0529 168.104 64.9132C167.97 64.7735 167.786 64.6918 167.592 64.6856C167.497 64.6785 167.402 64.6905 167.312 64.7209C167.222 64.7512 167.139 64.7993 167.067 64.8624C166.996 64.9254 166.938 65.002 166.897 65.0877C166.856 65.1735 166.833 65.2666 166.828 65.3616Z" fill="#263238"/>
<path d="M165.848 64.8334C165.94 64.9294 166.5 64.5094 167.3 64.5054C168.1 64.5014 168.692 64.9054 168.78 64.8014C168.868 64.6974 168.724 64.5854 168.468 64.4014C168.115 64.1604 167.695 64.036 167.268 64.0454C166.85 64.0548 166.446 64.1946 166.112 64.4454C165.884 64.6134 165.8 64.7894 165.848 64.8334Z" fill="#263238"/>
<path d="M174.928 65.7494C174.927 65.9434 175.001 66.1301 175.136 66.2698C175.27 66.4095 175.454 66.4912 175.648 66.4974C175.742 66.5028 175.836 66.4896 175.925 66.4585C176.013 66.4273 176.095 66.379 176.165 66.3161C176.235 66.2533 176.292 66.1772 176.332 66.0923C176.372 66.0074 176.395 65.9153 176.4 65.8214C176.401 65.6275 176.327 65.4408 176.192 65.3011C176.058 65.1614 175.874 65.0797 175.68 65.0734C175.586 65.068 175.492 65.0813 175.403 65.1124C175.315 65.1435 175.233 65.1919 175.163 65.2548C175.093 65.3176 175.036 65.3937 174.996 65.4786C174.956 65.5635 174.933 65.6555 174.928 65.7494Z" fill="#263238"/>
<path d="M174.204 65.0717C174.3 65.1677 174.86 64.7477 175.66 64.7437C176.46 64.7397 177.052 65.1437 177.136 65.0397C177.22 64.9357 177.084 64.8237 176.828 64.6397C176.475 64.3987 176.055 64.2742 175.628 64.2837C175.21 64.2897 174.805 64.43 174.472 64.6837C174.244 64.8517 174.16 65.0277 174.204 65.0717Z" fill="#263238"/>
<path d="M171.336 71.0281C170.912 70.8999 170.474 70.8247 170.032 70.8041C169.828 70.8041 169.632 70.7441 169.6 70.6041C169.58 70.3927 169.626 70.1804 169.732 69.9961L170.328 68.4361C171.152 66.2121 171.752 64.3881 171.66 64.3521C171.568 64.3161 170.828 66.0961 170 68.3201C169.804 68.8681 169.6 69.3881 169.432 69.8881C169.305 70.1347 169.27 70.418 169.332 70.6881C169.361 70.76 169.407 70.8241 169.465 70.8755C169.524 70.9268 169.593 70.964 169.668 70.9841C169.782 71.0137 169.899 71.0298 170.016 71.0321C170.454 71.0868 170.898 71.0855 171.336 71.0281Z" fill="#263238"/>
<path d="M170.84 80.5009C173.573 80.5257 176.259 79.7918 178.6 78.3809C178.6 78.3809 176.736 82.3809 170.924 81.8729L170.84 80.5009Z" fill="#EB996E"/>
<path d="M171.684 72.9557C171.837 72.7642 172.035 72.6141 172.261 72.519C172.486 72.424 172.732 72.3871 172.976 72.4117C173.153 72.4272 173.324 72.478 173.481 72.5612C173.638 72.6443 173.776 72.7581 173.888 72.8957C173.996 73.0289 174.06 73.192 174.073 73.363C174.085 73.534 174.044 73.7046 173.956 73.8517C173.828 73.9961 173.66 74.0988 173.473 74.1466C173.286 74.1943 173.089 74.185 172.908 74.1197C172.53 73.9887 172.182 73.7833 171.884 73.5157C171.792 73.4527 171.713 73.3725 171.652 73.2797C171.622 73.2362 171.606 73.1846 171.606 73.1317C171.606 73.0788 171.622 73.0272 171.652 72.9837" fill="#EB996E"/>
<path d="M173.696 71.5684C173.564 71.5684 173.568 72.4324 172.828 73.0524C172.088 73.6724 171.16 73.5844 171.156 73.7044C171.156 73.7604 171.364 73.8724 171.756 73.8804C172.265 73.8845 172.76 73.7088 173.152 73.3844C173.53 73.0742 173.77 72.627 173.82 72.1404C173.852 71.7804 173.756 71.5644 173.696 71.5684Z" fill="#263238"/>
<path d="M180.8 55.1487C178.732 58.2127 173.164 61.4287 169.152 62.2207C169.612 61.5927 172.06 60.0247 172.516 59.4007C170.716 60.7927 168.116 62.6607 165.716 62.8287C165.432 62.8727 165.141 62.8323 164.88 62.7127C164.742 62.6065 164.63 62.4695 164.553 62.3126C164.477 62.1557 164.438 61.9832 164.44 61.8087C164.275 60.0577 164.301 58.2941 164.516 56.5487C164.684 55.0734 165.409 53.7182 166.544 52.7607C168.076 51.5327 170.288 51.2007 172.38 51.1127C174.132 51.0407 175.94 51.1127 177.556 51.7167C179.172 52.3207 180.564 53.5487 180.824 55.0447" fill="#FFB64C"/>
<path d="M187.66 69.1849C187.91 67.9005 188.08 66.6021 188.172 65.2969C188.292 62.2969 189.188 51.4809 178.88 52.5529L179.464 55.4609C179.464 55.4609 177.54 62.1969 181.968 66.7409C181.968 66.7409 180.708 76.2289 183.788 79.2929C183.788 79.2929 187.092 72.4209 187.66 69.1849Z" fill="#FFB64C"/>
<path d="M181.836 66.2358C182.457 66.1008 183.103 66.1382 183.704 66.3438C184.308 66.5574 184.803 67.0019 185.08 67.5798C185.325 68.171 185.335 68.8334 185.108 69.4318C184.88 70.026 184.522 70.5617 184.06 70.9998C183.75 71.3362 183.365 71.5951 182.936 71.7558C182.721 71.8312 182.491 71.8532 182.266 71.8197C182.041 71.7863 181.828 71.6984 181.644 71.5638" fill="#FFBE9D"/>
<path d="M182.2 69.9974C182.132 70.0214 182.404 70.3974 182.968 70.2414C183.273 70.1361 183.525 69.9148 183.668 69.6254C183.835 69.3045 183.937 68.9538 183.968 68.5934C184.014 68.209 183.919 67.821 183.7 67.5014C183.611 67.3668 183.493 67.2541 183.355 67.1716C183.216 67.0892 183.061 67.0392 182.9 67.0254C182.316 67.0254 182.136 67.4254 182.204 67.4254C182.272 67.4254 182.476 67.2614 182.856 67.3494C183.091 67.437 183.287 67.6066 183.408 67.827C183.528 68.0474 183.565 68.3039 183.512 68.5494C183.448 69.1894 183.204 69.7734 182.864 69.9214C182.524 70.0694 182.24 69.9454 182.2 69.9974Z" fill="#EB996E"/>
<path d="M161.5 115.536C161.444 115.536 161.396 113.18 161.396 110.272C161.396 107.364 161.444 105.012 161.5 105.012C161.556 105.012 161.604 107.368 161.604 110.272C161.604 113.176 161.556 115.536 161.5 115.536Z" fill="#263238"/>
<path d="M176.52 104.793C176.52 104.793 171.32 104.853 171.004 105.993C170.46 107.897 171.432 118.349 171.432 118.349L176.212 119.949C176.212 119.949 178.516 119.417 177.452 114.981C176.757 112.194 175.695 109.512 174.292 107.005C174.292 107.005 180.644 107.181 180.468 105.761C180.292 104.341 176.52 104.793 176.52 104.793Z" fill="#FFBE9D"/>
<path d="M174.456 107.876C174.74 107.82 181.088 107.296 180.692 108.312C180.296 109.328 174.456 109.58 174.456 109.58V107.876Z" fill="#FFBE9D"/>
<path d="M194.852 92.5078L194.068 112.332L191.172 119.944L173.38 120.312L172.66 95.7558L194.852 92.5078Z" fill="#263238"/>
<path d="M170.592 111.781C170.525 111.827 170.452 111.865 170.376 111.893L169.736 112.181L167.364 113.193L159.516 116.469L155.2 118.249C154.01 118.696 152.854 119.23 151.744 119.849C151 120.271 150.343 120.83 149.808 121.497C149.44 121.977 149.308 122.297 149.288 122.297C149.309 122.217 149.341 122.14 149.384 122.069C149.483 121.856 149.604 121.654 149.744 121.465C150.261 120.767 150.914 120.18 151.664 119.741C152.773 119.102 153.931 118.552 155.128 118.097L159.452 116.305L167.324 113.085L169.724 112.133L170.38 111.885C170.446 111.842 170.517 111.807 170.592 111.781Z" fill="#263238"/>
<path d="M176.476 119.549C176.358 119.72 176.224 119.879 176.076 120.025C175.816 120.325 175.428 120.745 174.928 121.245C173.932 122.253 172.492 123.581 170.836 124.965C169.18 126.349 167.636 127.541 166.484 128.373C165.912 128.773 165.444 129.117 165.116 129.341C164.953 129.464 164.779 129.572 164.596 129.665C164.741 129.517 164.899 129.383 165.068 129.265L166.396 128.245C167.516 127.385 169.048 126.181 170.704 124.797C172.36 123.413 173.808 122.113 174.824 121.133C175.336 120.649 175.74 120.241 176.024 119.965C176.162 119.813 176.314 119.674 176.476 119.549Z" fill="#263238"/>
<path d="M203.272 132.236C203.228 132.276 200.62 129.284 197.444 125.556C194.268 121.828 191.728 118.78 191.772 118.756C191.816 118.732 194.424 121.7 197.6 125.42C200.776 129.14 203.316 132.2 203.272 132.236Z" fill="#263238"/>
<path d="M208.3 117.833C208.103 117.781 207.91 117.712 207.724 117.629C207.356 117.485 206.828 117.261 206.184 116.973C204.896 116.393 203.144 115.529 201.28 114.449C199.416 113.369 197.788 112.285 196.644 111.457C196.072 111.057 195.616 110.697 195.308 110.449C195.141 110.33 194.986 110.196 194.844 110.049C195.024 110.144 195.196 110.255 195.356 110.381C195.712 110.625 196.176 110.945 196.728 111.333C197.892 112.133 199.528 113.189 201.384 114.265C203.24 115.341 204.984 116.225 206.248 116.833L207.756 117.549C207.945 117.627 208.128 117.722 208.3 117.833Z" fill="#263238"/>
<path d="M199.092 113.48C199.036 113.48 198.724 111.372 198.396 108.756C198.068 106.14 197.848 104.008 197.904 104.004C197.96 104 198.276 106.112 198.604 108.728C198.932 111.344 199.152 113.476 199.092 113.48Z" fill="#263238"/>
<path d="M184.044 69.9615C183.998 70.0508 183.943 70.1353 183.88 70.2135L183.372 70.8935L181.528 73.2935V73.1655L184.532 75.5255L184.8 75.7415H184.656L187.256 72.4855V72.6055L185.3 71.0055L184.764 70.5535C184.697 70.502 184.637 70.443 184.584 70.3775C184.584 70.3775 184.664 70.4175 184.796 70.5135L185.36 70.9135L187.36 72.4495L187.428 72.5015L187.372 72.5695C186.632 73.5215 185.752 74.6415 184.804 75.8495L184.74 75.9335L184.656 75.8695L184.4 75.7015C183.316 74.8375 182.296 74.0215 181.412 73.3215L181.34 73.2615L181.396 73.1935L183.3 70.8495L183.844 70.1975C183.964 70.0295 184.036 69.9535 184.044 69.9615Z" fill="#263238"/>
<path d="M191.676 118.444C188.796 118.312 185.927 118.005 183.084 117.524C179.72 116.988 179.756 116.68 179.884 116.296C180.204 115.264 185.836 117.016 184.824 115.932C183.812 114.848 177.712 114.592 178.092 113.532C178.588 112.144 184.452 114.088 184.96 114.216C185.468 114.344 185.648 113.612 185.184 113.52C184.52 113.388 177.548 111.848 178.02 110.48C178.284 109.72 179.596 110.356 179.596 110.356C179.596 110.356 186.024 112.284 186.228 111.628C186.432 110.972 182.696 109.704 181.404 109.372C180.112 109.04 179.756 108.296 180.356 107.848C180.756 107.544 184.756 108.476 186 108.84C187.244 109.204 190.728 110.252 189.408 108.34L189.352 108.248C188 106.4 187.572 104.528 187.816 103.9C187.883 103.769 187.985 103.659 188.111 103.582C188.236 103.505 188.381 103.465 188.528 103.465C188.675 103.465 188.82 103.505 188.945 103.582C189.071 103.659 189.173 103.769 189.24 103.9C189.305 103.993 189.349 104.097 189.372 104.208C189.385 104.264 189.401 104.318 189.42 104.372C189.738 105.089 190.13 105.771 190.588 106.408C190.984 106.99 191.477 107.5 192.044 107.916C192.7 108.392 194.36 110.144 194.844 110.456" fill="#FFBE9D"/>
<path d="M72.636 94.8644C70.8346 94.8314 69.1149 94.107 67.8327 92.8413C66.5506 91.5755 65.8042 89.8652 65.748 88.0644C65.652 84.9484 65.58 81.9444 65.58 81.9444C65.58 81.9444 59.856 81.4124 59.436 75.7484C59.016 70.0844 59.196 57.0084 59.196 57.0084C62.3335 55.4248 65.8369 54.7075 69.3444 54.9304C72.8518 55.1533 76.2362 56.3084 79.148 58.2764L80.028 58.8724L79.784 87.9124C79.7752 88.8394 79.5828 89.7555 79.2181 90.6077C78.8533 91.46 78.3233 92.2316 77.6587 92.8779C76.9942 93.5243 76.2081 94.0326 75.3461 94.3736C74.484 94.7145 73.5629 94.8813 72.636 94.8644Z" fill="#B78876"/>
<path d="M65.44 72.2518C65.44 72.1878 64.952 72.1198 64.16 72.0598C63.952 72.0598 63.792 72.0158 63.76 71.9078C63.7426 71.7026 63.7813 71.4966 63.872 71.3118L64.4 69.6998C65.112 67.3878 65.6 65.4838 65.476 65.4478C65.352 65.4118 64.676 67.2558 63.972 69.5678C63.804 70.1318 63.644 70.6718 63.488 71.2038C63.3714 71.474 63.3502 71.7759 63.428 72.0598C63.4626 72.1356 63.5141 72.2024 63.5786 72.2551C63.6431 72.3078 63.7189 72.345 63.8 72.3638C63.9159 72.3866 64.0341 72.3946 64.152 72.3878C64.944 72.3558 65.436 72.3118 65.44 72.2518Z" fill="#263238"/>
<path d="M68.028 72.957C66.8259 73.5381 65.5655 73.9899 64.268 74.305C64.558 74.699 64.9729 74.983 65.4451 75.1109C65.9173 75.2387 66.4189 75.2028 66.868 75.009C68.524 74.281 68.028 72.957 68.028 72.957Z" fill="white"/>
<path d="M65.568 81.8568C68.1882 81.7449 70.7156 80.8551 72.828 79.3008C72.828 79.3008 71.332 83.4888 65.628 83.3248L65.568 81.8568Z" fill="#A36957"/>
<path d="M79.712 65.869C79.7105 65.6507 79.7925 65.4401 79.9412 65.2802C80.0899 65.1203 80.2941 65.0233 80.512 65.009C81.572 64.981 83.312 65.409 83.464 68.317C83.696 72.489 79.684 71.449 79.672 71.3291C79.66 71.2091 79.7 67.489 79.712 65.869Z" fill="#B78876"/>
<path d="M80.608 69.701C80.608 69.701 80.68 69.749 80.808 69.797C80.9826 69.8669 81.1774 69.8669 81.352 69.797C81.784 69.609 82.116 68.889 82.092 68.137C82.0847 67.779 81.9958 67.4274 81.832 67.109C81.7863 66.9808 81.7099 66.8656 81.6095 66.7736C81.5091 66.6816 81.3878 66.6155 81.256 66.581C81.1709 66.5634 81.0822 66.5762 81.0055 66.6171C80.9288 66.658 80.8688 66.7245 80.836 66.805C80.788 66.925 80.836 67.005 80.796 67.013C80.756 67.021 80.704 66.949 80.728 66.773C80.7459 66.6696 80.798 66.5753 80.876 66.505C80.9309 66.4583 80.9945 66.4229 81.0632 66.4009C81.1318 66.3789 81.2042 66.3708 81.276 66.377C81.4499 66.4007 81.6149 66.4687 81.755 66.5745C81.8951 66.6802 82.0056 66.8202 82.076 66.981C82.2721 67.3231 82.3832 67.7072 82.4 68.101C82.42 68.941 82.032 69.753 81.44 69.961C81.3301 69.9996 81.213 70.0127 81.0973 69.9996C80.9816 69.9864 80.8704 69.9473 80.772 69.885C80.62 69.789 80.592 69.701 80.608 69.701Z" fill="#A36957"/>
<path d="M60.972 66.6043C60.9854 66.8048 61.0764 66.9922 61.2258 67.1267C61.3752 67.2611 61.5712 67.332 61.772 67.3243C61.8702 67.3254 61.9675 67.3067 62.0583 67.2694C62.1491 67.2321 62.2315 67.1769 62.3005 67.1071C62.3696 67.0374 62.4239 66.9544 62.4602 66.8632C62.4965 66.772 62.5141 66.6744 62.512 66.5763C62.5006 66.3747 62.4103 66.1856 62.2606 66.0501C62.1108 65.9146 61.9137 65.8435 61.712 65.8523C61.6136 65.8517 61.5162 65.8709 61.4254 65.9086C61.3345 65.9464 61.2522 66.0019 61.1832 66.072C61.1142 66.1421 61.06 66.2254 61.0237 66.3168C60.9874 66.4082 60.9699 66.5059 60.972 66.6043Z" fill="#263238"/>
<path d="M59.664 65.8329C59.768 65.9249 60.32 65.4329 61.144 65.3969C61.968 65.3609 62.608 65.7089 62.688 65.6049C62.768 65.5009 62.62 65.3809 62.344 65.2049C61.9676 64.9827 61.5317 64.8822 61.096 64.9169C60.6665 64.9431 60.2569 65.1073 59.928 65.3849C59.688 65.6049 59.6 65.7889 59.664 65.8329Z" fill="#263238"/>
<path d="M69.2 66.4595C69.2124 66.6604 69.3032 66.8484 69.4528 66.9831C69.6024 67.1177 69.7989 67.1883 70 67.1795C70.0983 67.1806 70.1959 67.162 70.2869 67.1247C70.3779 67.0874 70.4606 67.0323 70.5299 66.9626C70.5993 66.8929 70.6539 66.8099 70.6907 66.7187C70.7275 66.6275 70.7456 66.5298 70.744 66.4315C70.7306 66.231 70.6395 66.0436 70.4902 65.9091C70.3408 65.7747 70.1448 65.7038 69.944 65.7115C69.8458 65.711 69.7485 65.73 69.6577 65.7674C69.5669 65.8049 69.4845 65.86 69.4153 65.9296C69.346 65.9993 69.2913 66.082 69.2544 66.1729C69.2174 66.2639 69.1989 66.3613 69.2 66.4595Z" fill="#263238"/>
<path d="M68.052 65.833C68.156 65.925 68.708 65.433 69.532 65.397C70.356 65.361 70.992 65.709 71.076 65.605C71.16 65.501 71.008 65.381 70.728 65.205C70.3532 64.9825 69.9185 64.8818 69.484 64.917C69.0545 64.9433 68.6448 65.1074 68.316 65.385C68.076 65.605 68 65.789 68.052 65.833Z" fill="#263238"/>
<path d="M73.52 55.0433C73.1457 55.9263 73.0357 56.8989 73.2033 57.8432C73.3708 58.7875 73.8088 59.6629 74.464 60.3633C75.02 60.9393 75.724 61.3793 76.208 62.0233C77.208 63.3553 77.044 65.1873 77.204 66.8433C77.276 67.6113 77.456 68.4433 78.004 68.9513C78.552 69.4593 79.624 69.5113 80.004 68.8513C80.1108 68.6421 80.1812 68.4161 80.212 68.1833C80.5613 66.3353 80.908 64.4886 81.252 62.6433C81.512 61.2553 81.776 59.8433 81.536 58.4433C81.3959 57.629 81.0868 56.8531 80.6288 56.1654C80.1707 55.4778 79.5738 54.8936 78.8764 54.4505C78.179 54.0075 77.3966 53.7153 76.5795 53.5928C75.7624 53.4703 74.9287 53.5202 74.132 53.7393" fill="#263238"/>
<path d="M74.4 53.8721C72.476 53.5041 71.396 52.8881 70.036 52.2721C68.6929 51.6052 67.1583 51.4311 65.7 51.7801C64.732 52.0521 63.816 52.6361 62.82 52.6241C61.824 52.6121 60.94 52.0281 59.996 51.7281C59.3498 51.5287 58.6701 51.4613 57.9973 51.53C57.3246 51.5987 56.6725 51.8021 56.08 52.1281C55.148 52.6401 54.312 53.5561 54.232 54.6761C54.152 55.7961 55.152 56.9521 56.156 56.6321C55.108 56.9961 54.684 58.5401 55.204 59.5681C55.4758 60.0514 55.8903 60.4388 56.3909 60.6773C56.8914 60.9157 57.4535 60.9936 58 60.9001C59.107 60.6558 60.1008 60.0491 60.824 59.1761C60.848 60.4241 62.1 61.3001 63.26 61.2641C64.42 61.2281 65.468 60.5321 66.424 59.8161C67.38 59.1001 68.348 58.3201 69.484 58.0681C70.284 57.8921 71.084 57.9881 71.884 57.8921C72.684 57.7961 73.544 57.4481 73.932 56.6921C74.32 55.9361 75.856 55.0481 75.052 55.0241" fill="#263238"/>
<path d="M63 60.0124C63.1386 60.0959 63.2814 60.172 63.428 60.2404C63.8448 60.3789 64.2952 60.3789 64.712 60.2404C65.0015 60.1559 65.2786 60.0335 65.536 59.8764C65.816 59.7084 66.1 59.4764 66.404 59.2724C66.7204 59.0317 67.0562 58.8176 67.408 58.6324C67.7974 58.4333 68.2268 58.3253 68.664 58.3164C69.556 58.3164 70.36 58.5404 71.088 58.4764C71.4085 58.4569 71.7207 58.3673 72.0027 58.2139C72.2847 58.0604 72.5296 57.8469 72.72 57.5884C72.9896 57.2407 73.1584 56.8256 73.208 56.3884C73.24 56.0764 73.208 55.9004 73.228 55.9004C73.248 55.9004 73.248 55.9404 73.264 56.0244C73.2849 56.1459 73.2929 56.2692 73.288 56.3924C73.27 56.8542 73.1139 57.3001 72.84 57.6724C72.656 57.9356 72.4206 58.1587 72.148 58.3284C71.8328 58.5212 71.4764 58.6364 71.108 58.6644C70.332 58.7404 69.508 58.5044 68.672 58.5204C67.836 58.5364 67.116 58.9964 66.516 59.4244C66.208 59.6404 65.92 59.8524 65.624 60.0204C65.3505 60.1803 65.0555 60.3002 64.748 60.3764C64.3038 60.5118 63.8265 60.4906 63.396 60.3164C63.2822 60.2631 63.177 60.1929 63.084 60.1084C63.0253 60.0497 62.9973 60.0177 63 60.0124Z" fill="#263238"/>
<path d="M73.804 51.8965C73.8079 52.3415 73.8467 52.7855 73.92 53.2245C74.06 53.6478 74.2353 54.0585 74.444 54.4525C74.0878 54.1437 73.8354 53.7327 73.7209 53.2754C73.6064 52.8181 73.6354 52.3367 73.804 51.8965Z" fill="#263238"/>
<path d="M75.936 51.8086C75.98 51.8526 75.464 52.3406 75.08 53.1086C74.696 53.8766 74.588 54.5726 74.528 54.5606C74.4844 54.0192 74.6117 53.4778 74.892 53.0126C75.1092 52.5143 75.4735 52.0942 75.936 51.8086Z" fill="#263238"/>
<path d="M102.684 111.119L111.392 133.523H98.064L91.852 117.571L102.684 111.119Z" fill="#B78876"/>
<path d="M55.484 92.9277C55.484 92.9277 44 104.748 39.04 104.748C37.416 104.748 36.144 85.0597 36.124 79.3837C36.3872 78.6508 36.7637 77.9637 37.24 77.3476C37.6597 76.7618 38.1441 76.2251 38.684 75.7476C39.3654 75.1638 40.123 74.6754 40.936 74.2957C41.712 74.0237 41.776 72.9637 41.068 72.7517C40.36 72.5397 38.208 73.2396 36.268 75.0676C34.328 76.8956 34.916 72.8036 35.1 71.3117C35.284 69.8197 35.632 65.1676 35.216 64.7596C34.608 64.1596 33.836 64.7157 33.684 66.2117C33.532 67.7077 32.8 72.1797 32 72.0637C31.2 71.9477 32.264 64.3517 32.264 64.3517C32.264 64.3517 32.748 62.7516 31.864 62.5916C30.232 62.2996 29.724 70.4437 29.696 71.2197C29.696 71.7597 28.816 71.6677 28.868 71.0877C28.92 70.5077 30.068 63.5276 28.424 63.2116C27.156 62.9716 27.944 69.9117 26.9 71.2437C25.856 72.5757 26.84 65.9036 25.616 65.7236C25.16 65.6596 24.816 65.6716 24.816 69.5676C24.816 71.6636 25.616 74.8276 25.304 78.8596C25.832 90.7636 25.248 124.192 38.504 120.232C53.068 115.872 63.02 106.332 63.02 106.332L55.484 92.9277Z" fill="#B78876"/>
<path d="M87.636 103.52C87.6951 103.672 87.738 103.83 87.764 103.992C87.836 104.296 87.928 104.74 88.032 105.292C88.236 106.396 88.48 107.928 88.668 109.628C88.856 111.328 88.952 112.876 88.992 113.996C88.992 114.556 89.02 115.012 89.016 115.324C89.0286 115.487 89.0205 115.651 88.992 115.812C88.9579 115.652 88.9392 115.49 88.936 115.328C88.912 114.972 88.88 114.528 88.844 114.004C88.768 112.888 88.648 111.348 88.444 109.652C88.24 107.956 88.044 106.424 87.868 105.316C87.788 104.796 87.724 104.36 87.668 104.008C87.6384 103.847 87.6276 103.683 87.636 103.52Z" fill="#263238"/>
<path d="M53.54 133.523L90.228 133.707L88.992 125.963C89.3159 122.288 89.2984 118.591 88.94 114.919L90.8 119.955L105.964 112.355C105.964 112.355 100.452 97.6594 95.836 92.6794C90.008 86.3874 79.516 87.0154 79.516 87.0154L72.428 91.8154L65.904 87.2194C62.4044 87.6299 58.9977 88.6208 55.824 90.1514L55.488 90.2474V90.3194C51.64 92.3194 46.148 97.2274 40.92 101.983L46.956 107.859L53.64 114.087C54.0186 114.031 54.402 114.015 54.784 114.039C54.896 114.727 53.54 133.523 53.54 133.523Z" fill="#455A64"/>
<path opacity="0.2" d="M87.812 101.172L92.8 118.956L90.8 119.956L88.944 114.92C88.944 114.92 87.132 104.376 87.812 101.172Z" fill="black"/>
<path d="M65.496 87.1673V85.2473C65.496 85.2473 71.224 84.8033 72.384 91.5713C72.384 91.5713 74.252 85.2473 79.812 84.6113L80.612 87.5673C80.612 87.5673 77.976 95.8033 77.596 95.8753C77.216 95.9473 72.396 97.3513 72.396 97.3513L69.596 96.7193L66.496 93.1873L65.496 87.1673Z" fill="#455A64"/>
<path d="M80.736 87.3438C80.6413 87.4654 80.534 87.5766 80.416 87.6758C80.208 87.8878 79.904 88.1838 79.544 88.5718C78.6094 89.5744 77.7773 90.6678 77.06 91.8358C76.884 92.1238 76.724 92.4078 76.572 92.6838L76.48 92.8518L76.392 92.6838C75.756 91.4838 75.192 90.4438 74.76 89.6318C74.6669 89.4752 74.5431 89.3391 74.396 89.2318C74.2777 89.15 74.1395 89.1016 73.996 89.0918C73.8773 89.0901 73.7593 89.1104 73.648 89.1518C73.648 89.1518 73.74 89.0238 74 89.0198C74.1556 89.0174 74.3085 89.0605 74.44 89.1438C74.6109 89.2554 74.7556 89.4028 74.864 89.5758C75.316 90.3318 75.892 91.3918 76.56 92.6038H76.4C76.552 92.3238 76.712 92.0318 76.892 91.7438C77.6115 90.5594 78.4696 89.4651 79.448 88.4838C79.824 88.1078 80.144 87.8238 80.372 87.6318C80.4789 87.5188 80.6015 87.4218 80.736 87.3438Z" fill="#263238"/>
<path d="M65.124 87.6992C65.2268 87.783 65.3182 87.8798 65.396 87.9872C65.564 88.1832 65.796 88.4672 66.08 88.8232C66.652 89.5312 67.428 90.5192 68.276 91.6232L68.412 91.7992H68.236C68.544 91.2352 68.568 90.5992 68.708 90.0152C68.797 89.4851 69.0827 89.008 69.508 88.6792C69.6584 88.5795 69.8296 88.5158 70.0086 88.4929C70.1876 88.47 70.3694 88.4886 70.54 88.5472C70.6296 88.585 70.7121 88.6377 70.784 88.7032C70.828 88.7552 70.844 88.7832 70.84 88.7872C70.7383 88.7208 70.6297 88.6658 70.516 88.6232C70.3578 88.5837 70.1929 88.579 70.0327 88.6094C69.8725 88.6398 69.7208 88.7046 69.588 88.7992C69.2136 89.1215 68.9703 89.5697 68.904 90.0592C68.8298 90.6914 68.6697 91.3104 68.428 91.8992L68.352 92.0392L68.256 91.9112L68.12 91.7352C67.272 90.6352 66.52 89.6312 65.972 88.8992C65.704 88.5352 65.488 88.2352 65.34 88.0272C65.2543 87.9276 65.1817 87.8173 65.124 87.6992Z" fill="#263238"/>
<path d="M69.2 133.525C69.1947 133.488 69.1947 133.45 69.2 133.413C69.2 133.333 69.2 133.225 69.2 133.097C69.2 132.801 69.236 132.393 69.264 131.873C69.332 130.797 69.432 129.265 69.548 127.381C69.812 123.573 70.172 118.341 70.568 112.561L71.644 97.7609C71.792 95.8769 71.912 94.3489 71.996 93.2729C72.04 92.7529 72.076 92.3449 72.104 92.0529C72.104 91.9209 72.128 91.8169 72.136 91.7329C72.1315 91.6984 72.1315 91.6634 72.136 91.6289C72.143 91.6646 72.143 91.7012 72.136 91.7369V92.0529C72.136 92.3489 72.096 92.7569 72.068 93.2769C72 94.3529 71.904 95.8849 71.784 97.7689C71.524 101.577 71.164 106.809 70.768 112.589C70.372 118.369 69.968 123.601 69.688 127.389C69.54 129.273 69.424 130.801 69.34 131.877C69.292 132.397 69.256 132.805 69.232 133.101C69.232 133.229 69.208 133.333 69.2 133.417C69.2058 133.453 69.2058 133.489 69.2 133.525Z" fill="#263238"/>
<path d="M56.028 97.9395C56.0348 98.1521 56.0228 98.3649 55.992 98.5755C55.96 99.0195 55.912 99.5995 55.856 100.303C55.748 101.759 55.636 103.779 55.512 106.011C55.388 108.243 55.252 110.259 55.112 111.719C55.04 112.447 54.968 113.039 54.908 113.443C54.8885 113.656 54.8497 113.866 54.792 114.071C54.7852 113.859 54.7972 113.646 54.828 113.435C54.864 112.991 54.908 112.407 54.964 111.707C55.076 110.247 55.184 108.227 55.312 105.999C55.44 103.771 55.568 101.747 55.712 100.287C55.784 99.5595 55.856 98.9715 55.916 98.5635C55.9357 98.3527 55.9732 98.1439 56.028 97.9395Z" fill="#263238"/>
<path d="M72 90.6035C72 90.6035 70.032 93.1755 70.32 93.5595L72 95.8035H73.2C73.2 95.8035 74.32 92.6595 74.032 92.2595C73.744 91.8595 72 90.6035 72 90.6035Z" fill="#FFB64C"/>
<path d="M75 89.9121L72.828 91.6081L73.66 93.2041L75.892 91.5561L75 89.9121Z" fill="#FFB64C"/>
<path d="M68.62 90.984L70.6 92.636L71.696 90.984L69.196 89.084L68.62 90.984Z" fill="#FFB64C"/>
<path d="M71.976 95.8005L68.956 122.864L71.928 132.272L75.892 122.948L73.284 95.4805L71.976 95.8005Z" fill="#FFB64C"/>
<path d="M93.108 90.7725C92.9831 90.6712 92.8492 90.5815 92.708 90.5045C92.3175 90.3236 91.8728 90.2978 91.464 90.4325C90.8652 90.6621 90.3332 91.0375 89.916 91.5245C89.3655 92.0924 88.8896 92.7282 88.5 93.4165C87.7971 94.6757 87.387 96.0771 87.3 97.5165C87.236 98.6245 87.376 99.3085 87.332 99.3125C87.2824 99.1575 87.2476 98.9981 87.228 98.8365C87.1666 98.398 87.1425 97.9551 87.156 97.5125C87.1984 96.039 87.5978 94.5977 88.32 93.3125C88.7174 92.6081 89.2086 91.9609 89.78 91.3885C90.2232 90.8862 90.7899 90.5084 91.424 90.2925C91.6428 90.226 91.8728 90.2042 92.1002 90.2282C92.3276 90.2523 92.5479 90.3217 92.748 90.4325C92.8544 90.4943 92.9503 90.5726 93.032 90.6645C93.092 90.7285 93.112 90.7685 93.108 90.7725Z" fill="#263238"/>
<path d="M121.696 57.3008C119.132 58.8728 117.352 61.5008 116.296 64.3128C115.24 67.1248 114.84 70.1408 114.528 73.1128C113.702 81.0134 113.425 88.9618 113.7 96.9008C123.392 98.1248 133.16 99.3568 142.9 98.6928C141.208 87.5608 140.136 76.4408 141.492 65.2608" fill="#263238"/>
<path d="M143.468 149.809L136.4 135.537L139.096 125.097C139.412 127.309 139.692 129.229 139.692 129.229L154.832 128.429C154.965 128.422 155.096 128.387 155.215 128.327C155.334 128.267 155.439 128.183 155.524 128.079C155.608 127.976 155.671 127.857 155.707 127.728C155.742 127.6 155.751 127.465 155.732 127.333L152.8 106.453C152.8 106.453 151.852 96.765 142.68 93.165H142.636C142.268 93.021 141.884 92.893 141.488 92.765C129.124 88.477 117.544 88.505 104.66 92.901C104.66 92.901 98.936 94.441 96.16 101.909C93.384 109.377 90.56 120.353 90.56 120.353L103.4 124.901L103.484 122.729L106.324 133.593L100.096 149.417L121.836 149.953L143.468 149.809Z" fill="#FFB64C"/>
<path d="M90.572 120.213L89.128 127.013C87.888 132.873 92.228 138.889 98.18 139.565L129.824 142.813C131.491 143.001 133.18 142.853 134.789 142.379C136.399 141.904 137.897 141.113 139.196 140.05C140.495 138.988 141.568 137.677 142.353 136.193C143.137 134.71 143.617 133.084 143.764 131.413L103.868 127.613L104.116 123.781L90.572 120.213Z" fill="#FFB64C"/>
<path d="M130.144 127.168L132.6 126.712C132.6 126.712 138.424 120.34 139.516 120.252C140.416 120.176 145.372 120.224 147.116 120.252C147.274 120.254 147.424 120.318 147.535 120.43C147.646 120.543 147.708 120.694 147.708 120.852C147.708 121.008 147.648 121.157 147.539 121.269C147.431 121.381 147.284 121.447 147.128 121.452L141.276 121.68L141.248 122.152L147.108 122.228C147.708 122.276 148.088 123.22 146.18 123.392L141.276 123.564V123.868L146.248 124.564C146.5 124.6 147.16 124.728 147.164 124.984C147.164 124.984 147.468 125.604 146.048 125.784C145.564 125.844 141.248 125.7 141.248 125.7L141.412 126.1L145.884 127.064C146.04 127.098 146.178 127.19 146.269 127.321C146.361 127.452 146.399 127.613 146.376 127.772C146.354 127.934 146.27 128.081 146.142 128.183C146.013 128.284 145.851 128.332 145.688 128.316L140.916 127.876L136.228 131.616H129.948L130.144 127.168Z" fill="#FFBE9D"/>
<path d="M114.592 89.8209C114.592 89.8209 120.756 121.341 122.928 121.113C125.1 120.885 135.288 90.9009 135.288 90.9009C135.288 90.9009 122.268 86.9369 114.592 89.8209Z" fill="#FAFAFA"/>
<path d="M141.868 120.333C141.812 120.333 141.764 118.157 141.764 115.477C141.764 112.797 141.812 110.625 141.868 110.625C141.924 110.625 141.972 112.797 141.972 115.477C141.972 118.157 141.928 120.333 141.868 120.333Z" fill="#263238"/>
<path d="M104.028 120.537C104.037 120.069 104.08 119.602 104.156 119.141C104.264 118.277 104.424 117.093 104.616 115.785C104.808 114.477 104.988 113.289 105.132 112.437C105.19 111.97 105.282 111.509 105.408 111.057C105.399 111.526 105.356 111.994 105.28 112.457C105.172 113.317 105.012 114.505 104.82 115.813C104.628 117.121 104.448 118.301 104.304 119.157C104.246 119.623 104.154 120.084 104.028 120.537Z" fill="#263238"/>
<path d="M121.836 149.933C121.825 149.836 121.825 149.738 121.836 149.641C121.836 149.429 121.836 149.153 121.836 148.805C121.836 148.077 121.836 147.025 121.864 145.725C121.912 143.125 122.052 139.537 122.232 135.577C122.412 131.617 122.572 128.029 122.66 125.429C122.696 124.149 122.728 123.105 122.752 122.353C122.752 122.009 122.752 121.729 122.776 121.517C122.774 121.419 122.782 121.321 122.8 121.225C122.809 121.322 122.809 121.419 122.8 121.517C122.8 121.727 122.8 122.007 122.8 122.357C122.8 123.081 122.8 124.133 122.776 125.433C122.728 128.033 122.584 131.621 122.408 135.585C122.232 139.549 122.064 143.133 121.98 145.729C121.94 147.013 121.908 148.057 121.888 148.805C121.888 149.153 121.888 149.433 121.86 149.641C121.858 149.738 121.85 149.836 121.836 149.933Z" fill="#263238"/>
<path d="M135.236 90.8496C135.236 90.8496 135.256 90.9856 135.304 91.2496C135.373 91.6219 135.479 91.9864 135.62 92.3376C135.845 92.8906 136.113 93.4255 136.42 93.9376C136.834 94.6212 137.212 95.3262 137.552 96.0496C137.987 96.9374 138.154 97.9326 138.032 98.9136C137.933 99.4582 137.713 99.9736 137.388 100.422C137.05 100.888 136.673 101.324 136.26 101.726C135.379 102.569 134.576 103.49 133.86 104.478C133.097 105.536 132.666 106.798 132.624 108.102C132.625 108.757 132.769 109.404 133.048 109.998C133.341 110.581 133.6 111.181 133.824 111.794C133.925 112.106 133.967 112.434 133.948 112.762C133.925 113.088 133.822 113.404 133.648 113.682C133.285 114.176 132.833 114.599 132.316 114.93L127.304 118.626L123.916 121.098L122.988 121.766L122.744 121.934L122.656 121.986C122.656 121.986 122.68 121.958 122.732 121.914L122.964 121.73L123.868 121.034L127.2 118.502L132.184 114.774C132.68 114.456 133.113 114.049 133.46 113.574C133.618 113.324 133.711 113.04 133.732 112.746C133.747 112.441 133.706 112.136 133.612 111.846C133.39 111.242 133.132 110.651 132.84 110.078C132.55 109.459 132.399 108.785 132.4 108.102C132.442 106.757 132.886 105.455 133.676 104.366C134.399 103.367 135.213 102.438 136.108 101.59C136.928 100.79 137.684 99.9056 137.844 98.8816C137.969 97.9341 137.815 96.9706 137.4 96.1096C137.071 95.3851 136.704 94.6788 136.3 93.9936C136.001 93.469 135.743 92.922 135.528 92.3576C135.393 91.9988 135.299 91.6257 135.248 91.2456C135.233 91.1475 135.224 91.0487 135.22 90.9496C135.22 90.9156 135.225 90.8818 135.236 90.8496Z" fill="#263238"/>
<path d="M122.904 120.789H122.808L122.524 120.737C122.162 120.662 121.806 120.564 121.456 120.445C120.167 120.009 118.974 119.33 117.94 118.445C116.395 117.116 115.273 115.364 114.712 113.405C114.381 112.254 114.246 111.056 114.312 109.861C114.345 109.231 114.429 108.605 114.564 107.989C114.717 107.376 114.735 106.737 114.616 106.117C114.533 105.823 114.364 105.56 114.132 105.361C113.883 105.179 113.604 105.044 113.308 104.961C113.012 104.861 112.704 104.781 112.404 104.657C112.106 104.534 111.835 104.355 111.604 104.129C111.171 103.673 110.884 103.098 110.78 102.477C110.669 101.899 110.637 101.308 110.684 100.721C110.871 98.7122 111.312 96.7351 111.996 94.837C112.453 93.5594 113.015 92.3218 113.676 91.137C113.912 90.737 114.104 90.4011 114.244 90.1931L114.4 89.9531C114.416 89.9234 114.436 89.8964 114.46 89.873C114.46 89.873 114.46 89.905 114.42 89.961L114.28 90.213C114.152 90.429 113.972 90.7571 113.744 91.1771C113.118 92.3711 112.583 93.6106 112.144 94.885C111.491 96.7768 111.068 98.7403 110.884 100.733C110.845 101.303 110.88 101.876 110.988 102.437C111.087 103.017 111.354 103.555 111.756 103.985C111.973 104.19 112.227 104.353 112.504 104.465C112.784 104.581 113.088 104.661 113.396 104.765C113.717 104.858 114.018 105.01 114.284 105.213C114.55 105.438 114.742 105.738 114.836 106.073C114.965 106.723 114.948 107.394 114.788 108.037C114.656 108.646 114.572 109.263 114.536 109.885C114.477 111.059 114.612 112.235 114.936 113.365C115.479 115.294 116.57 117.023 118.076 118.345C119.09 119.234 120.259 119.93 121.524 120.397C121.972 120.557 122.324 120.661 122.576 120.725L122.852 120.797C122.869 120.794 122.887 120.791 122.904 120.789Z" fill="#263238"/>
<path d="M139.552 127.213L113.044 126.357L113.084 135.157L130.636 139.013L142.984 140.985C150.656 140.985 156.796 133.941 155.608 126.361H155.576L139.552 127.213Z" fill="#FFB64C"/>
<path d="M146.848 127.044C146.734 127.063 146.619 127.071 146.504 127.068L145.52 127.096L141.896 127.16C138.836 127.208 134.608 127.26 129.936 127.212C125.264 127.164 121.036 127 117.98 126.812C116.452 126.708 115.22 126.612 114.38 126.524L113.4 126.424C113.284 126.418 113.169 126.402 113.056 126.376C113.17 126.367 113.286 126.367 113.4 126.376L114.384 126.436C115.24 126.496 116.476 126.572 117.984 126.656C121.04 126.824 125.264 126.972 129.936 127.016C134.608 127.06 138.828 127.016 141.888 127.016H145.516H146.5C146.617 127.017 146.733 127.026 146.848 127.044Z" fill="#263238"/>
<path d="M112.82 127.168L110.364 126.712C110.364 126.712 104.54 120.34 103.444 120.252C102.548 120.176 97.592 120.224 95.864 120.252C95.7063 120.254 95.5557 120.318 95.4449 120.43C95.3341 120.543 95.272 120.694 95.272 120.852C95.2719 121.007 95.3318 121.156 95.4392 121.268C95.5466 121.38 95.6931 121.446 95.848 121.452L101.704 121.68L101.732 122.152L95.868 122.228C95.272 122.276 94.888 123.22 96.8 123.392L101.704 123.564V123.868L96.732 124.564C96.48 124.6 95.82 124.728 95.812 124.984C95.812 124.984 95.512 125.604 96.928 125.784C97.416 125.844 101.728 125.7 101.728 125.7L101.56 126.1L97.092 127.064C96.9358 127.098 96.7982 127.19 96.7064 127.321C96.6146 127.452 96.5752 127.613 96.596 127.772C96.6189 127.933 96.7032 128.08 96.8312 128.181C96.9593 128.283 97.1214 128.331 97.284 128.316L102.06 127.876L106.748 131.616H113.012L112.82 127.168Z" fill="#FFBE9D"/>
<path d="M142.512 140.842C142.412 140.853 142.312 140.853 142.212 140.842L141.356 140.75C140.608 140.666 139.536 140.53 138.208 140.35C135.552 139.982 131.896 139.402 127.884 138.618C123.872 137.834 120.284 136.986 117.668 136.322C116.372 135.994 115.324 135.714 114.604 135.522L113.776 135.282C113.678 135.257 113.582 135.225 113.488 135.186C113.588 135.194 113.688 135.213 113.784 135.242L114.624 135.442L117.704 136.194C120.308 136.818 123.916 137.638 127.924 138.426C131.932 139.214 135.584 139.814 138.228 140.218L141.364 140.686L142.216 140.818C142.315 140.82 142.414 140.828 142.512 140.842Z" fill="#263238"/>
<path d="M113.324 135.193C113.207 134.784 113.13 134.365 113.092 133.941C112.988 133.141 112.876 132.077 112.812 130.881C112.748 129.685 112.752 128.593 112.776 127.805C112.77 127.38 112.804 126.956 112.876 126.537C112.923 126.959 112.939 127.385 112.924 127.809C112.924 128.609 112.96 129.673 113.02 130.869C113.08 132.065 113.172 133.141 113.24 133.921C113.296 134.343 113.324 134.768 113.324 135.193Z" fill="#263238"/>
<path d="M116.22 135.536C116.167 135.43 116.128 135.317 116.104 135.2C116.044 134.984 115.964 134.664 115.884 134.268C115.458 132.193 115.323 130.069 115.484 127.956C115.516 127.556 115.556 127.224 115.592 127C115.599 126.883 115.623 126.767 115.664 126.656C115.679 127.093 115.668 127.529 115.632 127.964C115.6 128.764 115.588 129.884 115.664 131.112C115.74 132.34 115.884 133.444 116.012 134.24C116.108 134.668 116.178 135.1 116.22 135.536Z" fill="#263238"/>
<path d="M113.772 127.946C113.796 127.97 113.644 128.078 113.648 128.346C113.648 128.414 113.662 128.481 113.69 128.543C113.717 128.605 113.758 128.66 113.808 128.706C113.874 128.75 113.951 128.773 114.03 128.773C114.109 128.773 114.186 128.75 114.252 128.706C114.324 128.668 114.382 128.61 114.42 128.539C114.458 128.467 114.473 128.386 114.464 128.306C114.451 128.239 114.424 128.176 114.384 128.121C114.345 128.066 114.294 128.02 114.236 127.986C114.024 127.858 113.836 127.934 113.836 127.902C113.836 127.87 114 127.73 114.3 127.858C114.386 127.893 114.462 127.947 114.523 128.016C114.584 128.086 114.628 128.168 114.652 128.258C114.666 128.376 114.645 128.496 114.591 128.603C114.538 128.71 114.454 128.798 114.35 128.858C114.247 128.917 114.128 128.944 114.008 128.937C113.889 128.929 113.775 128.886 113.68 128.814C113.611 128.749 113.559 128.67 113.527 128.582C113.495 128.493 113.484 128.399 113.496 128.306C113.544 127.998 113.772 127.918 113.772 127.946Z" fill="#263238"/>
<path d="M118.592 136.836C118.502 136.847 118.41 136.847 118.32 136.836C118.14 136.836 117.88 136.836 117.54 136.836C116.587 136.861 115.637 136.951 114.696 137.104C113.301 137.341 111.92 137.648 110.556 138.024C109.008 138.424 107.32 138.924 105.508 139.32C103.804 139.717 102.058 139.907 100.308 139.884C98.8778 139.847 97.4632 139.577 96.12 139.084C95.2188 138.743 94.3746 138.267 93.616 137.672C93.412 137.51 93.2183 137.335 93.036 137.148C92.9673 137.089 92.9056 137.021 92.852 136.948C92.852 136.948 93.128 137.204 93.652 137.608C94.418 138.172 95.2614 138.622 96.156 138.944C97.4955 139.419 98.903 139.675 100.324 139.7C102.054 139.711 103.779 139.517 105.464 139.124C107.264 138.724 108.956 138.244 110.508 137.844C111.881 137.476 113.272 137.182 114.676 136.964C115.624 136.825 116.582 136.758 117.54 136.764C117.88 136.764 118.144 136.764 118.32 136.8C118.412 136.803 118.503 136.816 118.592 136.836Z" fill="#263238"/>
<path d="M130.252 93.5324C130.88 90.0204 131.608 86.3324 131.608 86.3324C131.608 86.3324 136.272 86.3764 138.252 80.6324C140.14 75.1524 141.504 61.9684 141.504 61.9684C138.516 60.1113 135.032 59.2121 131.519 59.3916C128.005 59.5711 124.631 60.8205 121.848 62.9724L117.2 91.6044C116.66 94.9284 119.088 98.0404 122.652 98.5884C126.248 99.1444 129.652 96.9004 130.252 93.5324Z" fill="#FFBE9D"/>
<path d="M138.036 71.8411C138.003 72.0389 137.895 72.2161 137.733 72.335C137.572 72.4538 137.371 72.5048 137.172 72.4771C137.074 72.4687 136.978 72.4406 136.891 72.3944C136.804 72.3482 136.727 72.285 136.665 72.2084C136.603 72.1318 136.558 72.0435 136.531 71.9488C136.503 71.8541 136.496 71.7549 136.508 71.6571C136.541 71.459 136.651 71.2817 136.813 71.1629C136.975 71.0442 137.177 70.9933 137.376 71.0211C137.474 71.0305 137.568 71.0594 137.655 71.1059C137.741 71.1525 137.817 71.2158 137.879 71.2922C137.94 71.3686 137.986 71.4565 138.013 71.5508C138.04 71.645 138.048 71.7437 138.036 71.8411Z" fill="#263238"/>
<path d="M139.416 71.2088C139.304 71.2928 138.804 70.7648 137.988 70.6248C137.172 70.4848 136.504 70.7848 136.432 70.6688C136.396 70.6208 136.524 70.4568 136.832 70.3128C137.228 70.1316 137.671 70.0758 138.1 70.1528C138.525 70.2279 138.916 70.4351 139.216 70.7448C139.416 70.9808 139.468 71.1728 139.416 71.2088Z" fill="#263238"/>
<path d="M129.66 70.5003C129.627 70.6976 129.518 70.8742 129.357 70.9929C129.195 71.1116 128.994 71.163 128.796 71.1363C128.602 71.118 128.423 71.0236 128.299 70.8736C128.174 70.7236 128.114 70.5304 128.132 70.3363C128.165 70.1379 128.275 69.9603 128.437 69.8409C128.599 69.7215 128.801 69.6696 129 69.6963C129.194 69.7165 129.372 69.8123 129.495 69.9628C129.619 70.1133 129.678 70.3064 129.66 70.5003Z" fill="#263238"/>
<path d="M130.852 70.008C130.74 70.088 130.24 69.564 129.424 69.42C128.608 69.276 127.94 69.584 127.868 69.468C127.832 69.416 127.956 69.252 128.268 69.108C128.664 68.9263 129.107 68.8718 129.536 68.952C129.961 69.0241 130.352 69.2301 130.652 69.54C130.852 69.776 130.904 69.972 130.852 70.008Z" fill="#263238"/>
<path d="M132.744 76.5771C133.198 76.5226 133.658 76.5226 134.112 76.5771C134.324 76.5771 134.512 76.5771 134.588 76.4491C134.644 76.2379 134.634 76.0147 134.56 75.8091C134.452 75.2691 134.34 74.7051 134.224 74.1131C133.764 71.7131 133.472 69.7371 133.572 69.7131C133.672 69.6891 134.116 71.6331 134.576 74.0411C134.684 74.6371 134.788 75.2011 134.884 75.7411C134.97 76.0155 134.957 76.3111 134.848 76.5771C134.805 76.646 134.746 76.704 134.677 76.7463C134.607 76.7887 134.529 76.8143 134.448 76.8211C134.327 76.8378 134.205 76.8378 134.084 76.8211C133.629 76.7979 133.178 76.7159 132.744 76.5771Z" fill="#263238"/>
<path d="M131.6 86.3322C128.81 85.8818 126.199 84.6676 124.056 82.8242C124.056 82.8242 125.256 87.2242 131.256 87.7122L131.6 86.3322Z" fill="#EB996E"/>
<path d="M132.056 78.5002C131.937 78.2737 131.762 78.0814 131.548 77.9414C131.334 77.8014 131.087 77.7184 130.832 77.7002C130.649 77.6846 130.465 77.7064 130.291 77.7642C130.118 77.8219 129.957 77.9145 129.82 78.0362C129.686 78.1521 129.592 78.3067 129.549 78.4787C129.507 78.6506 129.519 78.8314 129.584 78.9962C129.689 79.1654 129.842 79.2995 130.024 79.3814C130.206 79.4633 130.408 79.4894 130.604 79.4562C131.013 79.3863 131.404 79.2368 131.756 79.0162C131.86 78.9672 131.953 78.8994 132.032 78.8162C132.07 78.7767 132.096 78.7265 132.105 78.6723C132.115 78.618 132.107 78.5621 132.084 78.5122" fill="#EB996E"/>
<path d="M130.248 76.7216C130.38 76.7216 130.224 77.6216 130.872 78.3856C131.52 79.1496 132.472 79.2136 132.472 79.3416C132.472 79.3976 132.232 79.4736 131.832 79.4136C131.313 79.3313 130.839 79.0677 130.496 78.6696C130.161 78.2941 129.984 77.8044 130 77.3016C130.048 76.9016 130.188 76.7056 130.248 76.7216Z" fill="#263238"/>
<path d="M125.844 58.7487C127.424 62.2327 132.544 66.4727 136.496 67.9767C136.136 67.2567 133.916 65.2327 133.556 64.5167C135.156 66.2487 137.456 68.6007 139.892 69.1887C140.174 69.2835 140.477 69.2933 140.764 69.2167C140.923 69.1316 141.059 69.0113 141.164 68.865C141.269 68.7186 141.339 68.5502 141.368 68.3727C141.839 66.6147 142.118 64.8108 142.2 62.9927C142.289 61.4614 141.788 59.9542 140.8 58.7807C139.452 57.2647 137.252 56.5407 135.136 56.0887C133.36 55.7127 131.504 55.4727 129.752 55.8087C128 56.1447 126.368 57.1527 125.844 58.6367" fill="#263238"/>
<path d="M116.42 71.8683C116.388 70.5158 116.439 69.1627 116.572 67.8163C116.972 64.7403 117.928 53.5523 128.252 56.4323L127.156 59.3003C127.156 59.3003 127.956 66.5003 122.648 70.3643C122.648 70.3643 122.672 77.5643 119 80.1443C119 80.1443 116.44 75.2723 116.42 71.8723" fill="#263238"/>
<path d="M122.868 69.8727C122.258 69.6277 121.593 69.5544 120.944 69.6607C120.297 69.7772 119.723 70.1436 119.344 70.6807C118.993 71.2418 118.869 71.9153 118.996 72.5647C119.126 73.2104 119.399 73.8187 119.796 74.3447C120.051 74.7374 120.395 75.0648 120.8 75.3007C121.006 75.4164 121.237 75.4794 121.472 75.4843C121.708 75.4892 121.942 75.4357 122.152 75.3287" fill="#FFBE9D"/>
<path d="M121.844 73.6455C121.912 73.6815 121.572 74.0175 121.02 73.7575C120.875 73.6785 120.747 73.5719 120.644 73.4435C120.54 73.3152 120.463 73.1677 120.416 73.0095C120.299 72.6539 120.255 72.2783 120.288 71.9054C120.309 71.506 120.472 71.1271 120.748 70.8374C120.865 70.714 121.009 70.6188 121.168 70.5592C121.328 70.4996 121.499 70.4771 121.668 70.4934C122.264 70.5854 122.376 71.0295 122.304 71.0295C122.232 71.0295 122.056 70.8175 121.652 70.8415C121.398 70.8901 121.17 71.0283 121.009 71.2309C120.848 71.4335 120.766 71.687 120.776 71.9455C120.732 72.6095 120.876 73.2495 121.196 73.4575C121.516 73.6655 121.816 73.5855 121.844 73.6455Z" fill="#EB996E"/>
<path d="M121.836 75.3242C120.236 84.8882 121.536 94.6642 121.836 104.36C121.864 105.288 121.872 106.26 121.436 107.088C120.8 108.34 119.312 108.952 117.908 109.036C116.504 109.12 115.108 108.796 113.712 108.68C113.56 107.752 113.412 106.82 113.26 105.88C112.792 106.952 112.324 108.02 111.86 109.08C112.476 102.28 113.151 95.4802 113.884 88.6802" fill="#263238"/>
</g>
<defs>
<clipPath id="clip0_415_69629">
<rect width="236" height="157" fill="white"/>
</clipPath>
</defs>
</svg>
