<svg width="48" height="48" viewBox="0 0 48 48" fill="none" xmlns="http://www.w3.org/2000/svg">
<rect x="47.5" y="47.5" width="47" height="47" rx="23.5" transform="rotate(-180 47.5 47.5)" stroke="#000D14" stroke-opacity="0.156863"/>
<path d="M23.9973 25.1543L28.3071 20.6713C28.4255 20.5479 28.5838 20.48 28.7526 20.48C28.9214 20.48 29.0796 20.5479 29.1982 20.6713L29.5756 21.0642C29.6944 21.1874 29.7598 21.3521 29.7598 21.5277C29.7598 21.7033 29.6944 21.8678 29.5756 21.9912L24.4445 27.3288C24.3255 27.4527 24.1666 27.5205 23.9976 27.52C23.8279 27.5205 23.6692 27.4528 23.5501 27.3288L18.4239 21.9961C18.3051 21.8728 18.2398 21.7082 18.2398 21.5326C18.2398 21.357 18.3051 21.1925 18.4239 21.069L18.8013 20.6763C19.047 20.4208 19.4469 20.4208 19.6925 20.6763L23.9973 25.1543Z" fill="#000506" fill-opacity="0.890196"/>
</svg>
