<svg width="407" height="272" viewBox="0 0 407 272" fill="none" xmlns="http://www.w3.org/2000/svg">
<path d="M381.776 249.595C381.776 251.438 303.614 252.931 207.196 252.931C110.778 252.931 32.6152 251.438 32.6152 249.595C32.6152 247.753 110.778 246.26 207.196 246.26C303.614 246.26 381.776 247.753 381.776 249.595Z" fill="#F5F5F5"/>
<path d="M240.369 151.868L243.092 165.052L248.821 164.999L247.771 150.749L240.369 151.868Z" fill="#263238"/>
<path d="M243.776 163.99C244.544 164.685 246.194 164.559 246.93 163.968L246.938 162.888C247.061 161.976 247.381 161.542 248.359 161.653C248.838 161.707 249.447 162.281 249.854 163.146C250.585 164.696 251.423 165.315 251.423 165.315C251.423 165.315 255.808 167.429 257.378 167.889C258.315 168.163 259.567 168.578 260.249 169.57C260.443 169.854 260.62 170.19 260.775 170.589C260.902 170.915 260.909 171.658 260.909 171.674L249.868 171.814C249.868 171.814 248.733 171.171 248.255 171.194C247.404 171.236 247.032 171.985 247.032 171.985L243.018 172.066C243.018 172.066 242.933 171.446 242.81 170.543L242.809 170.543C242.754 170.136 242.691 169.673 242.624 169.183C242.338 167.082 242.57 164.571 242.493 163.976C242.36 162.934 243.776 163.99 243.776 163.99Z" fill="#263238"/>
<path d="M253.786 166.353C253.735 166.309 253.659 166.306 253.602 166.343C253.341 166.512 253.124 166.747 252.98 167.04C252.903 167.194 253.145 167.337 253.222 167.181C253.351 166.921 253.541 166.713 253.769 166.565C253.845 166.515 253.855 166.414 253.788 166.355L253.786 166.353Z" fill="#FFB64C"/>
<path d="M252.926 165.905C252.876 165.86 252.8 165.857 252.743 165.894C252.482 166.063 252.265 166.299 252.12 166.591C252.044 166.746 252.286 166.888 252.363 166.732C252.492 166.472 252.682 166.264 252.909 166.116C252.985 166.066 252.996 165.966 252.928 165.906L252.926 165.905Z" fill="#FFB64C"/>
<path d="M252.044 165.487C251.993 165.443 251.917 165.44 251.86 165.477C251.599 165.645 251.382 165.881 251.237 166.174C251.161 166.328 251.403 166.471 251.48 166.315C251.609 166.055 251.799 165.846 252.027 165.698C252.103 165.649 252.113 165.548 252.046 165.489L252.044 165.487Z" fill="#FFB64C"/>
<path d="M251.832 165.885L251.806 165.63L251.942 165.616L251.806 165.624C251.768 165.242 251.729 164.847 251.759 164.452C251.793 163.994 251.918 163.606 252.13 163.297C252.287 163.07 252.483 162.959 252.679 162.958C252.938 162.971 253.115 163.197 253.194 163.404C253.328 163.754 253.3 164.178 253.117 164.566C252.94 164.942 252.239 165.545 252.029 165.721L251.832 165.885ZM252.657 163.23C252.52 163.23 252.4 163.384 252.354 163.451C252.169 163.72 252.06 164.063 252.029 164.473C252.007 164.759 252.025 165.053 252.051 165.343C252.399 165.036 252.769 164.666 252.872 164.449C253.023 164.128 253.048 163.783 252.941 163.501C252.894 163.38 252.794 163.236 252.666 163.23L252.657 163.23Z" fill="#FFB64C"/>
<path d="M252.119 165.787L251.872 165.751C251.602 165.702 250.697 165.525 250.356 165.284C250.006 165.037 249.772 164.683 249.717 164.312C249.684 164.092 249.727 163.808 249.946 163.67C250.114 163.564 250.336 163.571 250.589 163.694C250.925 163.856 251.225 164.133 251.481 164.514C251.7 164.841 251.86 165.203 252.015 165.553L252.119 165.787ZM250.214 163.868C250.17 163.868 250.128 163.877 250.091 163.9C249.982 163.969 249.966 164.143 249.985 164.271C250.03 164.569 250.222 164.857 250.512 165.062C250.709 165.201 251.212 165.339 251.665 165.434C251.545 165.169 251.416 164.904 251.256 164.666C251.027 164.325 250.763 164.08 250.471 163.938C250.408 163.908 250.308 163.868 250.214 163.868Z" fill="#FFB64C"/>
<path d="M185.388 164.152L180.359 176.636L185.155 179.778L192.166 167.336L185.388 164.152Z" fill="#263238"/>
<path d="M181.356 176.52C182.124 177.215 183.774 177.089 184.51 176.497L184.518 175.418C184.641 174.506 184.961 174.072 185.939 174.183C186.418 174.237 187.027 174.811 187.434 175.675C188.165 177.226 189.003 177.845 189.003 177.845C189.003 177.845 193.388 179.959 194.958 180.418C195.895 180.693 197.147 181.108 197.829 182.1C198.024 182.384 198.2 182.72 198.355 183.118C198.482 183.445 198.489 184.188 198.489 184.204L187.448 184.344C187.448 184.344 186.313 183.701 185.835 183.724C184.984 183.766 184.612 184.514 184.612 184.514L180.598 184.595C180.598 184.595 180.513 183.975 180.39 183.073L180.389 183.073C180.334 182.666 180.272 182.203 180.204 181.713C179.918 179.612 180.15 177.101 180.074 176.506C179.94 175.464 181.356 176.52 181.356 176.52Z" fill="#263238"/>
<path d="M191.366 178.883C191.315 178.839 191.239 178.836 191.182 178.873C190.921 179.041 190.704 179.277 190.56 179.57C190.483 179.724 190.726 179.867 190.803 179.711C190.931 179.451 191.121 179.242 191.349 179.094C191.425 179.045 191.435 178.944 191.368 178.885L191.366 178.883Z" fill="#FFB64C"/>
<path d="M190.506 178.434C190.456 178.39 190.38 178.387 190.323 178.424C190.062 178.593 189.845 178.828 189.7 179.121C189.624 179.275 189.866 179.418 189.943 179.262C190.072 179.002 190.262 178.794 190.489 178.646C190.565 178.596 190.576 178.495 190.509 178.436L190.506 178.434Z" fill="#FFB64C"/>
<path d="M189.624 178.017C189.573 177.973 189.497 177.969 189.44 178.006C189.179 178.175 188.962 178.411 188.817 178.704C188.741 178.858 188.983 179.001 189.06 178.845C189.189 178.584 189.379 178.376 189.607 178.228C189.683 178.179 189.693 178.078 189.626 178.019L189.624 178.017Z" fill="#FFB64C"/>
<path d="M189.412 178.414L189.387 178.16C189.348 177.776 189.309 177.381 189.339 176.983C189.374 176.524 189.499 176.135 189.71 175.827C189.867 175.6 190.054 175.487 190.259 175.488C190.518 175.502 190.695 175.727 190.774 175.933C190.908 176.284 190.88 176.708 190.697 177.095C190.519 177.473 189.819 178.075 189.609 178.251L189.412 178.414ZM190.237 175.76C190.106 175.76 189.991 175.898 189.934 175.981C189.75 176.25 189.64 176.593 189.609 177.003C189.587 177.29 189.605 177.584 189.631 177.873C189.979 177.567 190.349 177.197 190.452 176.979C190.603 176.658 190.628 176.312 190.52 176.031C190.474 175.91 190.374 175.767 190.245 175.76L190.237 175.76Z" fill="#FFB64C"/>
<path d="M189.703 178.327L189.451 178.281C189.181 178.231 188.274 178.053 187.936 177.814C187.586 177.567 187.353 177.213 187.297 176.842C187.264 176.623 187.307 176.339 187.526 176.2C187.693 176.094 187.922 176.102 188.169 176.223C188.505 176.386 188.805 176.663 189.061 177.044C189.284 177.376 189.444 177.74 189.599 178.092L189.703 178.327ZM187.794 176.397C187.75 176.397 187.708 176.406 187.671 176.429C187.562 176.499 187.546 176.673 187.565 176.801C187.61 177.099 187.802 177.387 188.092 177.592C188.287 177.729 188.791 177.868 189.245 177.963C189.126 177.699 188.997 177.435 188.836 177.196C188.607 176.855 188.343 176.61 188.051 176.468C187.988 176.437 187.888 176.397 187.794 176.397Z" fill="#FFB64C"/>
<path d="M196.099 95.9486C196.077 96.683 191.606 138.416 191.606 138.416L180.609 174.1L189.32 176.329L205.866 138.416C207.048 130.173 210.365 110.677 211.722 101.86L216.479 92.3043L199.109 87.9297L196.099 95.9486Z" fill="#263238"/>
<path opacity="0.2" d="M196.099 95.9486C196.077 96.683 191.606 138.416 191.606 138.416L180.609 174.1L189.32 176.329L205.866 138.416C207.048 130.173 210.365 110.677 211.722 101.86L216.479 92.3043L199.109 87.9297L196.099 95.9486Z" fill="white"/>
<path d="M219.173 96.4394C219.75 97.0914 241.121 117.697 243.81 121.934C246.5 126.171 250.679 162.184 250.679 162.184L240.498 165.056L232.429 127.289C232.429 127.289 205.726 104.217 206.302 103.832C206.879 103.447 215.845 92.4795 215.845 92.4795L219.173 96.4394Z" fill="#263238"/>
<path opacity="0.2" d="M219.173 96.4394C219.75 97.0914 241.121 117.697 243.81 121.934C246.5 126.171 250.679 162.184 250.679 162.184L240.498 165.056L232.429 127.289C232.429 127.289 205.726 104.217 206.302 103.832C206.879 103.447 215.845 92.4795 215.845 92.4795L219.173 96.4394Z" fill="white"/>
<path d="M240.681 38.7828C240.681 38.7828 240.968 38.5534 241.766 38.6302C242.564 38.707 242.435 39.6862 242.542 39.6346C242.65 39.583 243.173 39.6386 243.642 39.7199C244.111 39.8012 244.283 40.3001 244.168 41.2415C244.054 42.1829 242.971 45.819 242.626 46.137C242.626 46.137 242.503 46.9908 242.512 47.0784C242.52 47.166 238.749 48.422 238.749 48.422L238.184 45.358L236.852 43.6719C236.852 43.6719 235.829 41.9141 235.904 40.9606C235.918 40.794 236.003 40.6172 236.025 40.4733C236.103 39.9406 236.586 40.0878 237.055 40.352L237.668 40.5727C237.668 40.5727 237.88 39.2654 237.968 38.7732C238.026 38.4526 238.267 38.1705 238.596 38.0726C238.664 38.0524 238.732 38.038 238.796 38.0336C239.222 38.0047 239.266 38.4287 239.266 38.4287C239.266 38.4287 239.942 38.0433 240.472 38.6193C240.667 38.8317 240.681 38.7828 240.681 38.7828Z" fill="#E9B376"/>
<path d="M223.096 41.3192C223.096 42.1576 223.339 42.8349 223.65 42.8349H232.539C232.838 42.8349 233.093 42.1576 233.093 41.3192C233.093 40.4808 232.855 39.7979 232.539 39.7979H223.65C223.362 39.7979 223.096 40.4808 223.096 41.3192Z" fill="#FFB64C"/>
<path d="M231.969 41.3191C231.969 42.3851 232.295 43.2513 232.694 43.2513H243.301C243.7 43.2513 244.021 42.3906 244.021 41.3191C244.021 40.2475 243.7 39.3813 243.301 39.3813H232.672C232.273 39.3813 231.969 40.2531 231.969 41.3191Z" fill="#FFB64C"/>
<path d="M242.26 41.3191C242.26 42.6017 242.653 43.64 243.129 43.64H254.207C254.689 43.64 255.076 42.6072 255.076 41.3191C255.076 40.031 254.689 38.9927 254.207 38.9927H243.129C242.653 38.9927 242.26 40.0365 242.26 41.3191Z" fill="#FFB64C"/>
<path opacity="0.2" d="M254.211 38.9927C254.693 38.9927 255.081 40.0365 255.081 41.3191C255.081 42.6017 254.693 43.64 254.211 43.64C253.729 43.64 253.342 42.6017 253.342 41.3191C253.342 40.031 253.729 38.9927 254.211 38.9927Z" fill="white"/>
<path d="M253.607 41.3189C253.607 40.0363 253.995 39.2534 254.211 39.2534C254.427 39.2534 254.82 40.0418 254.82 41.3189C254.82 42.5959 254.427 43.3788 254.211 43.3788C253.995 43.3788 253.607 42.6015 253.607 41.3189Z" fill="black"/>
<path d="M238.196 41.8762C238.688 41.6861 239.066 41.224 239.156 40.7025C239.167 40.6348 239.173 40.5593 239.133 40.5032C239.067 40.4095 238.926 40.427 238.815 40.4546C238.083 40.6368 237.352 40.819 236.62 41.0012C236.314 41.0774 235.963 41.1926 235.856 41.4902C235.768 41.7375 235.89 42.007 236.023 42.2336C236.309 42.7215 236.655 43.1734 237.053 43.5752L239.258 43.8605C239.344 43.0674 238.903 42.243 238.196 41.8762Z" fill="#E9B376"/>
<path d="M171.298 98.0088C170.108 97.4113 169.038 96.5994 168.141 95.6137C167.342 94.6645 167.086 93.7909 167.421 93.1426C168.059 91.8743 170.751 92.0663 173.62 93.5738C176.488 95.0813 178.159 97.1717 177.492 98.4386C177.159 99.0812 176.292 99.3687 175.059 99.2471C174.688 99.2089 174.321 99.1433 173.959 99.0506C173.034 98.8111 172.14 98.4613 171.298 98.0088ZM170.781 93.2012C169.355 92.8456 168.295 92.9709 168.039 93.4709C167.847 93.8367 168.085 94.4661 168.673 95.1586C169.508 96.0799 170.507 96.8376 171.619 97.393C172.708 97.9919 173.899 98.3845 175.13 98.5511C176.034 98.6448 176.686 98.4775 176.877 98.1173C177.292 97.3631 175.903 95.559 173.294 94.1882C172.497 93.7624 171.654 93.4311 170.781 93.2012Z" fill="#263238"/>
<path d="M160.322 89.9795C160.612 89.4311 161.29 89.2218 161.837 89.512L186.247 102.338C186.795 102.629 187.006 103.309 186.719 103.86L177.946 120.636L177.943 120.642C177.654 121.19 176.975 121.4 176.428 121.109L152.018 108.283L152.002 108.275C151.46 107.983 151.256 107.306 151.546 106.762L160.319 89.9851L160.322 89.9795Z" fill="#263238"/>
<path opacity="0.1" d="M160.322 89.9795C160.612 89.4311 161.29 89.2218 161.837 89.512L186.247 102.338C186.795 102.629 187.006 103.309 186.719 103.86L177.946 120.636L177.943 120.642C177.654 121.19 176.975 121.4 176.428 121.109L152.018 108.283L152.002 108.275C151.46 107.983 151.256 107.306 151.546 106.762L160.319 89.9851L160.322 89.9795Z" fill="white"/>
<path d="M184.33 102.586C184.62 102.042 185.296 101.837 185.839 102.129L186.247 102.339C186.795 102.629 187.006 103.309 186.719 103.86L177.947 120.637L177.944 120.642C177.654 121.191 176.976 121.4 176.429 121.11L176.02 120.9C175.487 120.597 175.281 119.931 175.549 119.379L184.321 102.602L184.33 102.586Z" fill="#263238"/>
<path d="M186.046 102.234L161.626 89.3996C161.081 89.113 160.407 89.3234 160.121 89.8698L156.043 97.6692L156.04 97.6746C155.811 98.1099 155.978 98.6483 156.413 98.8771L178.838 110.662C179.275 110.892 179.814 110.723 180.044 110.286L184.111 102.507C184.383 101.976 185.023 101.753 185.565 102.001L186.046 102.234Z" fill="#263238"/>
<path opacity="0.2" d="M186.046 102.229L161.627 89.3913C161.082 89.1046 160.408 89.3153 160.122 89.8619L156.043 97.6656L156.04 97.671C155.811 98.1066 155.978 98.6453 156.413 98.8741L178.837 110.662C179.274 110.892 179.814 110.723 180.043 110.285L184.112 102.503C184.384 101.971 185.024 101.748 185.566 101.996L186.046 102.229Z" fill="white"/>
<path d="M169.007 104.131L166.65 108.637C166.565 108.799 166.365 108.861 166.204 108.776L164.388 107.822C164.226 107.737 164.164 107.537 164.249 107.374L166.605 102.869L169.007 104.131Z" fill="#263238"/>
<path d="M166.917 107.754L164.803 106.627C164.642 106.541 164.521 106.394 164.468 106.219C164.415 106.045 164.432 105.858 164.513 105.697L165.039 104.688C165.124 104.526 165.271 104.405 165.446 104.352C165.62 104.294 165.811 104.311 165.972 104.399L168.086 105.526C168.248 105.614 168.37 105.76 168.427 105.935C168.48 106.111 168.461 106.301 168.374 106.462L167.85 107.465C167.767 107.629 167.622 107.752 167.448 107.808C167.326 107.844 167.197 107.847 167.074 107.817C167.019 107.805 166.965 107.783 166.917 107.754ZM165.752 104.686C165.692 104.674 165.631 104.68 165.574 104.702C165.488 104.729 165.416 104.788 165.372 104.867L164.846 105.876C164.806 105.956 164.798 106.048 164.824 106.134C164.849 106.221 164.909 106.294 164.989 106.337L167.102 107.464C167.183 107.509 167.278 107.518 167.366 107.488C167.45 107.46 167.521 107.4 167.562 107.321L168.088 106.313C168.133 106.234 168.141 106.14 168.11 106.054C168.085 105.967 168.025 105.894 167.945 105.851L165.832 104.724L165.747 104.703L165.752 104.686Z" fill="white"/>
<path d="M175.246 86.5991C174.789 86.7197 172.06 89.6046 171.497 90.4386C170.935 91.2726 170.839 91.8365 171.207 92.1603C171.576 92.4842 172.004 92.8118 172.123 92.8195C172.242 92.8272 171.648 93.6891 172.305 94.1815C172.962 94.6739 173.325 94.6073 173.325 94.6073C173.325 94.6073 173.062 95.9107 173.934 96.3269C174.805 96.743 175.219 96.3497 175.365 96.419C175.51 96.4884 176.412 95.0162 176.412 95.0162L177.352 96.6946C177.352 96.6946 177.86 96.2496 178.394 95.3838C178.929 94.5181 179.062 91.9761 179.062 91.9761L178.73 89.6741L179.744 86.4668C179.744 86.4668 175.843 85.6774 175.808 85.7651C175.772 85.8529 175.246 86.5991 175.246 86.5991Z" fill="#E9B376"/>
<path d="M197.146 89.4841C197.146 89.4841 196.028 89.3373 196.495 88.3502C196.963 87.363 198.373 86.2936 198.373 86.2936L198.083 78.0269L198.592 55.802L202.748 55.051L207.312 54.2996L209.343 52.6875L214.558 52.7774L217.015 54.3587L219.679 54.9016C219.653 54.9376 224.183 66.9006 222.25 76.3884C220.316 85.8762 218.988 91.8668 218.725 92.4638C218.193 93.6716 217.235 93.2175 217.235 93.2175L197.146 89.4841Z" fill="#FFB64C"/>
<path opacity="0.7" d="M197.146 89.4841C197.146 89.4841 196.028 89.3373 196.495 88.3502C196.963 87.363 198.234 86.5072 198.234 86.5072L198.083 78.0269L198.338 66.9184L198.592 55.802L202.748 55.051L207.312 54.2996L209.343 52.6875L214.518 52.7236L217.015 54.3587L219.679 54.9016C219.653 54.9376 224.183 66.9006 222.25 76.3884C220.316 85.8762 218.988 91.8668 218.725 92.4638C218.193 93.6716 217.235 93.2175 217.235 93.2175L197.146 89.4841Z" fill="white"/>
<path opacity="0.1" d="M212.305 92.3871C212.298 92.3871 212.291 92.3865 212.283 92.3852C212.209 92.3727 212.159 92.3026 212.172 92.2285C213.618 83.6347 213.538 73.2304 213.467 64.051C213.451 61.8471 213.434 59.7656 213.438 57.7339C213.438 57.659 213.499 57.5981 213.574 57.5981C213.649 57.5981 213.709 57.6592 213.709 57.7344C213.706 59.7648 213.722 61.8458 213.738 64.0488C213.809 73.2395 213.889 83.6565 212.439 92.2736C212.428 92.34 212.371 92.3871 212.305 92.3871Z" fill="#263238"/>
<path opacity="0.2" d="M207.537 54.5703C207.72 54.9752 210.776 59.435 210.776 59.435L213.573 57.7337C213.594 57.7102 211.081 60.1477 211.066 60.1715L210.369 60.1911L207.537 54.5703Z" fill="black"/>
<path opacity="0.2" d="M213.83 57.6974L215.775 58.7017C215.775 58.7017 216.779 56.7294 216.86 56.1791C216.942 55.6288 216.965 54.6924 216.965 54.6924L217.232 54.7096C217.232 54.7096 217.361 56.2593 216.892 57.3694C216.395 58.5449 215.818 59.6736 215.818 59.6736L213.83 57.6974Z" fill="black"/>
<path d="M208.239 43.609C208.239 43.609 203.891 39.7497 204.112 38.4991C204.332 37.2485 205.035 37.6521 205.035 37.6521C205.035 37.6521 203.57 34.5855 205.094 34.1005C206.619 33.6154 206.712 34.1273 206.712 34.1273C206.712 34.1273 206.17 31.6402 207.387 30.9245C208.312 30.3728 208.673 31.5204 208.673 31.5204C208.673 31.5204 210.478 28.8518 212.562 28.9401C213.591 29.0431 214.082 29.7206 213.918 30.5131C213.911 30.5474 213.903 30.5814 213.893 30.6152C213.893 30.6152 218.143 28.8753 220.071 30.0746C221.999 31.2738 219.42 32.4795 219.42 32.4795C219.42 32.4795 223.53 32.1461 224.295 33.8181C224.902 35.1459 223.058 35.9881 223.058 35.9881C223.058 35.9881 223.7 36.2235 224.241 36.7374C225.272 37.7162 224.587 39.5109 223.166 39.529L223.133 39.5294C222.916 39.5306 222.523 39.5689 222.368 39.4149C222.368 39.4149 223.038 40.9196 221.51 41.3622C219.981 41.8049 219.301 40.0254 219.301 40.0254L208.239 43.609Z" fill="#263238"/>
<path d="M209.411 53.3133C209.411 53.3133 209.708 51.1758 208.308 45.9313C208.308 45.9258 208.585 45.8096 208.585 45.804C208.392 45.0706 208.185 44.3923 207.988 43.8039C207.984 43.7869 207.984 43.7812 207.984 43.7812L215.007 48.3358C214.806 49.9995 215.336 53.2333 215.664 54.6011L213.746 57.6899L209.411 53.3133Z" fill="#E9B376"/>
<path opacity="0.2" d="M215.081 50.6824L211.006 49.6724C211.351 50.9564 212.447 52.4926 215.293 52.6751C215.293 52.6751 215.039 51.2408 215.081 50.6824Z" fill="black"/>
<path d="M220.178 36.1161C220.981 37.7832 221.204 41.4176 218.598 40.6071C215.993 39.7966 218.797 33.2505 220.178 36.1161Z" fill="#263238"/>
<path d="M208 40.3158C208.387 44.8467 208.514 47.4099 210.86 49.6629C214.388 53.0517 219.805 50.8935 220.78 46.3247C221.656 42.2124 220.877 35.4936 216.395 33.837C211.98 32.2049 207.614 35.7848 208 40.3158Z" fill="#E9B376"/>
<path d="M214.51 41.4705C214.521 41.9348 214.776 42.3029 215.079 42.2927C215.382 42.2824 215.619 41.8976 215.608 41.4333C215.597 40.9689 215.342 40.6008 215.039 40.611C214.736 40.6213 214.499 41.006 214.51 41.4705Z" fill="#263238"/>
<path d="M219.055 41.4519C219.066 41.9162 219.321 42.2843 219.624 42.2741C219.927 42.2638 220.164 41.8791 220.153 41.4146C220.142 40.9503 219.887 40.5822 219.584 40.5925C219.281 40.6028 219.044 40.9874 219.055 41.4519Z" fill="#263238"/>
<path d="M217.572 41.2295C217.572 41.2295 219.094 43.5016 219.586 44.4298C218.955 45.029 217.838 44.7865 217.838 44.7865L217.572 41.2295Z" fill="#D58745"/>
<path d="M213.448 38.9542C213.521 38.9751 213.603 38.9572 213.661 38.9C214.358 38.2212 215.14 38.3822 215.148 38.3839C215.265 38.4093 215.382 38.3352 215.408 38.2184C215.435 38.1015 215.361 37.986 215.245 37.9603C215.203 37.9511 214.223 37.7489 213.359 38.5915C213.273 38.6755 213.271 38.8128 213.354 38.8981C213.381 38.9257 213.414 38.9443 213.448 38.9542Z" fill="#263238"/>
<path d="M221.034 39.4013C221.073 39.3897 221.11 39.3667 221.139 39.3326C221.216 39.2406 221.206 39.1029 221.115 39.0253C220.206 38.2461 219.251 38.5316 219.206 38.5389C219.092 38.5738 219.026 38.6953 219.06 38.8105C219.093 38.9254 219.212 38.9905 219.326 38.9571C219.365 38.9436 220.104 38.7332 220.834 39.3586C220.891 39.4075 220.966 39.421 221.034 39.4013Z" fill="#263238"/>
<path d="M216.453 47.786C216.412 47.7752 216.467 47.7917 216.453 47.786V47.786Z" fill="#263238"/>
<path d="M217.198 46.0481C216.476 45.801 215.147 45.2826 214.512 44.584C214.512 44.584 214.391 44.7809 214.317 45.0809C214.249 45.3394 214.209 45.6693 214.287 46.0139C214.433 46.6436 214.965 47.333 216.425 47.7762C216.445 47.783 216.449 47.7846 216.453 47.7862L216.468 47.79C216.468 47.79 217.255 48.0115 217.693 46.207C217.693 46.207 217.499 46.1547 217.198 46.0481Z" fill="#263238"/>
<path d="M217.198 46.0481L216.906 46.5316C215.532 46.1107 214.621 45.6295 214.316 45.0808C214.391 44.7808 214.512 44.584 214.512 44.584C215.146 45.2826 216.476 45.801 217.198 46.0481Z" fill="white"/>
<path d="M216.425 47.7764C214.965 47.3331 214.433 46.6438 214.287 46.0142C214.779 46.1845 215.353 46.4446 215.811 46.8285C216.163 47.1207 216.337 47.4598 216.425 47.7764Z" fill="#DC5753"/>
<path d="M219.964 35.5106C219.286 34.8912 218.447 34.4788 217.6 34.1259C216.194 33.5401 214.719 33.0927 213.203 32.9547C211.687 32.8166 210.124 32.9981 208.735 33.623C208.431 33.7597 208.129 33.9229 207.913 34.1769C207.708 34.4179 207.596 34.7229 207.496 35.0237C206.893 36.8538 206.634 38.7973 206.737 40.722L209.273 43.8478C209.668 43.6438 210.085 43.4198 210.306 43.0331C210.512 42.6732 210.512 42.2341 210.484 41.8202C210.456 41.3907 210.405 40.9627 210.331 40.5387C210.728 40.7505 211.222 40.4394 211.451 40.0511C211.794 39.4706 211.789 38.755 211.757 38.0814C212.267 38.2029 212.851 38.0637 213.197 37.669C213.543 37.2742 213.59 36.6226 213.248 36.2242C214.907 36.4872 216.617 36.42 218.251 36.0279C218.134 36.233 218.258 36.4894 218.397 36.6801C218.962 37.4529 219.819 38.0052 220.754 38.199C220.891 38.2274 221.063 38.2357 221.142 38.1198C221.184 38.058 221.186 37.9779 221.183 37.9031C221.15 36.984 220.642 36.1299 219.964 35.5106Z" fill="#263238"/>
<path d="M206.303 44.141C206.693 45.3006 207.583 46.1665 208.492 46.5919C209.858 47.2321 210.802 46.0614 210.639 44.6348C210.493 43.3508 209.606 41.4705 208.13 41.4286C206.675 41.3874 205.858 42.8152 206.303 44.141Z" fill="#E9B376"/>
<path opacity="0.2" d="M209.407 44.307C209.34 44.307 209.282 44.2576 209.272 44.1896C209.222 43.8225 209.076 43.4737 208.85 43.181C208.705 42.9922 208.463 42.752 208.142 42.6811C207.858 42.6176 207.556 42.7255 207.422 42.935C207.382 42.9985 207.299 43.0174 207.235 42.9762C207.171 42.9358 207.153 42.8516 207.193 42.7884C207.39 42.4811 207.805 42.3281 208.201 42.4155C208.602 42.5042 208.892 42.7903 209.065 43.0147C209.319 43.3449 209.484 43.7383 209.541 44.1524C209.551 44.2268 209.5 44.2956 209.425 44.3057C209.419 44.3065 209.413 44.307 209.407 44.307Z" fill="black"/>
<path d="M242.729 46.6362H237.725L237.37 60.2928C237.37 60.2928 228.355 57.2095 226.234 56.3057C224.113 55.402 222.106 54.992 222.106 54.992L221.17 55.5137L223.095 64.01C223.095 64.01 238.256 71.3479 243.332 67.5349C248.407 63.7218 242.729 46.6362 242.729 46.6362Z" fill="#263238"/>
<path opacity="0.2" d="M224.769 64.767C224.706 64.5529 225.476 60.0562 225.476 60.0562L226.665 65.555L224.769 64.767Z" fill="black"/>
<path opacity="0.2" d="M197.823 70.8914L197.758 73.9337C197.758 73.9337 209.436 67.2731 211.372 65.1557C213.871 62.4208 214.146 60.8442 214.146 60.8442L197.823 70.8914Z" fill="black"/>
<path opacity="0.2" d="M195.105 105.559L205.092 109.514C205.092 109.514 209.538 86.801 209.554 85.7582C209.57 84.7153 209.592 81.6982 209.592 81.6982L195.308 103.635L195.105 105.559Z" fill="black"/>
<path d="M198.15 55.6494C197.729 55.6441 184.783 64.2044 182.668 66.4626C180.553 68.7208 174.27 86.7058 174.27 86.7058L179.434 88.3577L186.909 71.872L199.206 66.542C199.206 66.542 202.418 61.2554 202.516 61.0148C202.613 60.7742 198.15 55.6494 198.15 55.6494Z" fill="#263238"/>
<path d="M198.15 55.6492L206.269 53.9563L208.336 53.4863C208.336 53.4863 210.875 76.7688 210.554 78.2462C210.233 79.7237 204.15 107.838 204.15 107.838L190.191 101.996L197.524 84.8401L198.15 55.6492Z" fill="#263238"/>
<path opacity="0.2" d="M208.015 53.5585C208.015 53.5585 204.595 57.8393 205.489 59.3195C206.383 60.7998 207.833 64.0061 207.833 64.0061C207.833 64.0061 206.548 66.128 206.583 67.7312C206.618 69.3344 210.31 73.3555 210.31 73.3555C209.982 67.7254 208.872 60.7148 208.332 53.4863L208.015 53.5585Z" fill="black"/>
<path opacity="0.2" d="M197.907 67.1047V62.9268L194.035 68.7827L197.907 67.1047Z" fill="black"/>
<path opacity="0.2" d="M198.597 89.2954L204.84 91.9253L203.389 94.6814L196.842 91.6486L198.597 89.2954Z" fill="black"/>
<path d="M217.465 54.2236C217.465 54.2236 215.491 74.9404 215.265 76.6467C215.039 78.3529 215.988 105.836 215.988 105.836L226.664 102.761L221.667 85.1481C221.667 85.1481 225.132 64.2052 225.358 59.5385L225.683 57.3855C225.683 57.3855 224.377 55.5822 222.587 55.1096C220.749 54.6243 217.697 54.2709 217.465 54.2236Z" fill="#263238"/>
<path opacity="0.2" d="M217.789 54.2709C217.789 54.2709 221.251 58.5766 220.358 60.0569C219.464 61.5371 218.014 64.7434 218.014 64.7434C218.014 64.7434 219.299 66.8653 219.264 68.4685C219.229 70.0717 215.611 73.3556 215.611 73.3556C216.003 67.8595 216.925 61.4521 217.465 54.2236L217.789 54.2709Z" fill="black"/>
<path opacity="0.2" d="M223.046 90.0098L218.373 91.7365L219.824 94.4926L223.862 92.8855L223.046 90.0098Z" fill="black"/>
<path d="M70.3473 247.249L63.2656 239.004L97.3013 209.625L141.233 210.013L175.632 184.021L215.832 184.348L238.879 171.61L273.705 170.86L295.898 149.227L357.268 114.973L362.548 124.478L302.433 158.032L278.209 181.645L241.781 182.43L218.585 195.25L179.225 194.931L144.823 220.925L101.289 220.541L70.3473 247.249Z" fill="#FFB64C"/>
<path d="M349.561 108.504L364.204 133.771C364.513 133.341 370.256 112.287 370.256 112.287L349.561 108.504Z" fill="#FFB64C"/>
<path opacity="0.3" d="M351.863 117.988L357.29 127.413L359.724 126.04L354.247 116.625L351.863 117.988Z" fill="black"/>
<path d="M212.084 59.1999L213.045 60.9473C213.045 60.9473 196.96 71.3288 182.57 71.3641L181.383 76.2042L186.258 77.4269C186.258 77.4269 208.573 70.4205 214.312 61.1348L215.989 58.936L214.449 57.4058L213.922 57.7029L212.084 59.1999Z" fill="#FFB64C"/>
<path opacity="0.1" d="M329.165 138.619H329.16C329.086 138.617 329.027 138.553 329.029 138.479C329.047 137.982 329.306 137.492 329.706 137.199C330.106 136.907 330.649 136.807 331.127 136.944C331.199 136.964 331.241 137.039 331.22 137.112C331.2 137.183 331.127 137.227 331.053 137.205C330.656 137.094 330.201 137.174 329.866 137.419C329.532 137.664 329.315 138.073 329.301 138.488C329.298 138.561 329.238 138.619 329.165 138.619Z" fill="black"/>
<path d="M351.281 248.35H353.154L349.691 207.776H347.818L351.281 248.35Z" fill="#FFB64C"/>
<path opacity="0.6" d="M351.281 248.35H353.154L349.691 207.776H347.818L351.281 248.35Z" fill="white"/>
<path d="M332.119 248.35H330.246L333.709 207.776H335.582L332.119 248.35Z" fill="#FFB64C"/>
<path opacity="0.6" d="M332.119 248.35H330.246L333.709 207.776H335.582L332.119 248.35Z" fill="white"/>
<path d="M343.624 207.781H305.309C306.92 203.781 309.851 201.33 313.019 201.33H341.045L343.624 207.781Z" fill="#FFB64C"/>
<path d="M325.689 248.35H327.562L324.1 207.776H322.227L325.689 248.35Z" fill="#FFB64C"/>
<path opacity="0.6" d="M325.689 248.35H327.562L324.1 207.776H322.227L325.689 248.35Z" fill="white"/>
<path d="M306.527 248.35H304.654L308.117 207.776H309.99L306.527 248.35Z" fill="#FFB64C"/>
<path opacity="0.6" d="M306.527 248.35H304.654L308.117 207.776H309.99L306.527 248.35Z" fill="white"/>
<path d="M352.18 207.781H331.121C332.955 203.781 336.285 201.33 339.89 201.33H347.343C350.947 201.33 352.723 203.413 352.18 207.781Z" fill="#FFB64C"/>
<path opacity="0.5" d="M352.18 207.781H331.121C332.955 203.781 336.285 201.33 339.89 201.33H347.343C350.947 201.33 352.723 203.413 352.18 207.781Z" fill="black"/>
<path d="M341.882 181.402C340.896 180.097 338.612 176.978 338.323 173.695L338.321 173.667C338.304 173.457 338.293 173.245 338.293 173.034C338.241 171.638 338.249 169.985 338.341 168.002C338.353 167.692 338.372 167.364 338.39 167.036C338.446 165.995 338.526 164.873 338.625 163.653C338.811 161.466 339.076 158.97 339.435 156.133C339.515 155.476 340.132 154.458 340.225 153.764C340.639 150.673 337.828 148.439 334.794 148.563C333.985 148.594 333.125 148.65 332.254 148.736C328.849 149.059 326.056 149.35 323.096 150.056C322.114 150.285 321.1 150.564 320.13 150.843C316.645 151.846 315.038 156.319 314.995 159.918C314.952 163.272 317.298 170.118 318.906 176.132C319.142 179.581 317.263 181.46 317.829 182.662C318.395 183.865 335.028 180.598 341.882 184.694C341.882 184.694 342.933 182.794 341.882 181.402Z" fill="#FFB64C"/>
<path opacity="0.6" d="M341.882 181.402C340.896 180.097 338.612 176.978 338.323 173.695L338.321 173.667C338.304 173.457 338.293 173.245 338.293 173.034C338.241 171.638 338.249 169.985 338.341 168.002C338.353 167.692 338.372 167.364 338.39 167.036C338.446 165.995 338.526 164.873 338.625 163.653C338.811 161.466 339.076 158.97 339.435 156.133C339.515 155.476 340.132 154.458 340.225 153.764C340.639 150.673 337.828 148.439 334.794 148.563C333.985 148.594 333.125 148.65 332.254 148.736C328.849 149.059 326.056 149.35 323.096 150.056C322.114 150.285 321.1 150.564 320.13 150.843C316.645 151.846 315.038 156.319 314.995 159.918C314.952 163.272 317.298 170.118 318.906 176.132C319.142 179.581 317.263 181.46 317.829 182.662C318.395 183.865 335.028 180.598 341.882 184.694C341.882 184.694 342.933 182.794 341.882 181.402Z" fill="white"/>
<path opacity="0.2" d="M339.232 177.043C339.232 177.043 333.362 178.336 330.631 178.46C327.899 178.585 321.989 180.451 321.989 180.451L319.887 181.758L319.146 180.02L322.685 176.811L338.218 173.655C338.408 174.957 339.121 176.782 339.232 177.043Z" fill="black"/>
<path d="M320.377 182.515C325.474 182.005 332.104 181.597 340.733 181.402C340.733 181.402 347.166 196.592 339.537 201.13C337.232 202.501 333.427 203.043 329.24 203.132C324.381 203.236 320.377 199.333 320.377 194.461V182.515Z" fill="#263238"/>
<path d="M337.041 195.026V202.163C330.696 203.997 317.526 203.299 309.697 202.658C306.172 202.37 303.461 199.418 303.461 195.872V190.016C303.461 188.075 304.658 186.339 306.471 185.655C310.266 184.224 317.172 182.092 324.397 182.204C331.402 182.312 337.041 188.003 337.041 195.026Z" fill="#263238"/>
<path d="M307.411 249.499L315.201 246.054L317.664 243.296L318.427 244.335L319.358 243.928C319.792 240.462 318.112 238.841 317.23 238.105C317.167 238.048 317.076 237.985 316.971 237.901C316.936 237.873 316.901 237.845 316.866 237.824C316.852 237.817 316.838 237.803 316.824 237.796C316.789 237.768 316.747 237.74 316.705 237.705C316.698 237.698 316.691 237.698 316.677 237.691V237.684C316.656 237.67 316.635 237.656 316.607 237.642L312.331 239.536C312.331 239.536 312.261 239.76 312.128 240.125C311.701 241.332 310.644 244.082 309.476 245.548C309.427 245.612 309.378 245.675 309.328 245.731C309.188 245.899 309.042 246.047 308.895 246.166C305.619 248.804 307.411 249.499 307.411 249.499Z" fill="#263238"/>
<path d="M309.312 245.71C310.53 246.187 312.252 244.981 313.561 243.402C314.296 242.511 315.003 241.087 315.625 239.936C316.031 239.192 316.402 238.561 316.724 238.259C316.906 238.098 317.074 238.028 317.221 238.098C317.221 238.098 317.214 238.091 317.214 238.084C317.151 238.028 317.06 237.965 316.955 237.88C316.927 237.859 316.892 237.831 316.85 237.803C316.836 237.796 316.822 237.782 316.808 237.775C316.773 237.747 316.731 237.719 316.689 237.684C316.682 237.677 316.675 237.677 316.661 237.67V237.663C316.64 237.649 316.619 237.635 316.591 237.621C316.144 237.284 315.646 236.94 315.646 236.94L311.624 237.95L311.937 239.494C311.489 241.087 310.544 244.118 309.46 245.528C309.411 245.591 309.362 245.654 309.312 245.71Z" fill="#E9B376"/>
<path d="M302.764 215.682C305.247 221.865 309.103 229.743 311.949 239.623C312.004 239.803 312.054 239.982 312.103 240.162C312.159 240.354 312.215 240.54 312.27 240.733L315.209 240.013L315.338 239.501C315.338 239.501 316.353 238.71 316.18 238.531C316.068 238.414 316.143 238.196 316.125 238.01V238.004C315.333 231.114 312.283 205.823 309.258 200.57C309.258 200.57 312.685 201.209 315.283 200.769C317.158 200.453 319.428 187.46 319.428 187.46C319.428 187.46 314.652 186.083 309.752 186.083H309.684C309.684 186.083 300.053 188.939 297.604 191.102C295.303 193.134 294.958 196.465 296.234 200.424C297.405 204.054 299.687 208.021 302.764 215.682Z" fill="#E9B376"/>
<path opacity="0.1" d="M300.012 194.227C300.582 191.98 304.708 189.783 308.971 188.605C309.663 187.706 307.892 186.643 307.892 186.643L316.283 185.882L317.748 186.939L320.252 187.462L318.021 197.512L308.854 199.121L314.653 226.097L315.338 231.426C315.338 231.426 305.517 210.292 303.462 205.798C301.407 201.304 299.023 198.122 300.012 194.227Z" fill="black"/>
<path d="M319.43 187.462C319.43 187.462 306.335 190.243 303.777 192.268C301.599 193.993 301.54 196.245 302.246 198.371C304.198 204.248 311.199 214.049 319.214 242.179L323.807 240.733C323.367 240.732 322.212 226.046 321.871 214.25C321.711 208.686 318.864 203.888 317.751 201.95C317.751 201.95 322.431 202.583 325.029 202.147C328.366 201.586 330.477 190.422 319.43 187.462Z" fill="#E9B376"/>
<path opacity="0.2" d="M318.021 202.478C318.021 202.478 316.283 199.589 314.117 198.371C314.117 198.371 316.783 198.545 318.449 202.034L317.751 201.95L318.021 202.478Z" fill="black"/>
<path d="M325.365 246.789L324.408 246.998L323.613 245.672C323.516 245.51 323.296 245.479 323.158 245.607L320.438 248.133L313.01 249.767C313.01 249.767 311.356 248.014 315.049 246.897C315.225 246.844 315.378 246.705 315.545 246.57C317.372 245.165 319.563 241.293 319.563 241.293L323.964 240.325C323.964 240.325 324.166 240.512 324.464 240.882C325.158 241.747 326.434 243.602 325.365 246.789Z" fill="#263238"/>
<path d="M324.465 240.882L324.468 240.895C323.744 240.374 321.724 243.808 319.999 245.205C318.459 246.449 316.599 247.258 315.545 246.571C317.372 245.165 319.661 240.279 319.661 240.279L323.2 239.501C323.2 239.501 324.167 240.512 324.465 240.882Z" fill="#E9B376"/>
<path d="M300.303 129.705C300.303 129.705 300.006 129.526 299.268 129.741C298.529 129.955 298.767 130.908 298.66 130.875C298.552 130.843 298.069 130.988 297.639 131.151C297.209 131.313 297.108 131.839 297.327 132.757C297.545 133.675 298.98 136.413 299.341 136.67C299.341 136.67 299.24 138.882 299.242 138.971C299.244 139.06 303.76 138.869 303.76 138.869L303.421 135.822L304.47 133.912C304.47 133.912 305.19 131.637 305.006 130.701C304.974 130.537 304.939 130.385 304.902 130.245C304.765 129.729 304.132 129.536 303.724 129.88L303.146 130.368C303.146 130.368 302.985 129.701 302.844 129.226C302.752 128.916 302.492 128.677 302.173 128.636C302.107 128.628 302.041 128.626 301.981 128.632C301.578 128.677 301.587 129.107 301.587 129.107C301.587 129.107 300.908 128.84 300.479 129.506C300.321 129.751 300.303 129.705 300.303 129.705Z" fill="#E9B376"/>
<path opacity="0.1" d="M301.736 134.729C301.684 134.729 301.635 134.699 301.612 134.65C301.51 134.424 301.517 134.144 301.632 133.883C301.717 133.689 301.857 133.506 302.072 133.307C302.284 133.109 302.521 132.937 302.774 132.794C302.442 132.767 302.102 132.691 301.812 132.492C301.633 132.369 301.526 132.226 301.496 132.067C301.439 131.764 301.526 131.467 301.723 131.291C301.976 131.065 302.259 130.853 302.586 130.607C302.798 130.448 303.027 130.277 303.272 130.083C303.331 130.037 303.416 130.046 303.463 130.105C303.51 130.164 303.5 130.25 303.441 130.296C303.193 130.492 302.963 130.665 302.749 130.825C302.426 131.067 302.148 131.276 301.903 131.494C301.752 131.629 301.732 131.852 301.763 132.016C301.783 132.123 301.884 132.212 301.964 132.267C302.329 132.518 302.79 132.544 303.335 132.537C303.409 132.51 303.484 132.486 303.56 132.464C303.615 132.448 303.671 132.467 303.706 132.512C303.74 132.557 303.742 132.618 303.714 132.666C303.629 132.805 303.459 132.808 303.385 132.809C302.968 132.965 302.582 133.203 302.256 133.506C302.069 133.679 301.95 133.834 301.88 133.993C301.798 134.18 301.79 134.384 301.859 134.537C301.891 134.605 301.86 134.686 301.792 134.717C301.774 134.725 301.755 134.729 301.736 134.729Z" fill="#263238"/>
<path opacity="0.1" d="M298.815 133.916C298.604 133.916 298.394 133.797 298.173 133.555C297.981 133.344 297.812 133.111 297.669 132.861C297.626 132.785 297.511 132.583 297.599 132.392C297.63 132.324 297.711 132.294 297.778 132.326C297.847 132.358 297.876 132.438 297.845 132.507C297.825 132.549 297.845 132.621 297.904 132.726C298.037 132.958 298.195 133.175 298.373 133.372C298.551 133.567 298.705 133.658 298.844 133.643C298.984 133.629 299.091 133.511 299.145 133.405C299.217 133.263 299.234 133.09 299.24 132.939C299.26 132.54 299.222 132.143 299.128 131.756C299.094 131.661 299.066 131.562 299.047 131.463C299.032 131.392 299.076 131.322 299.146 131.304C299.219 131.286 299.287 131.326 299.309 131.395C299.339 131.488 299.365 131.582 299.388 131.677C299.485 131.939 299.645 132.177 299.852 132.367C300.005 132.507 300.223 132.61 300.359 132.517C300.46 132.45 300.501 132.303 300.493 132.038C300.47 131.306 300.368 130.576 300.19 129.867C300.171 129.794 300.215 129.72 300.288 129.702C300.358 129.681 300.434 129.727 300.452 129.8C300.636 130.528 300.741 131.278 300.765 132.03C300.772 132.279 300.749 132.584 300.509 132.744C300.234 132.927 299.884 132.763 299.669 132.567C299.61 132.514 299.556 132.457 299.504 132.398C299.518 132.582 299.521 132.767 299.512 132.952C299.503 133.132 299.482 133.34 299.387 133.528C299.277 133.746 299.078 133.894 298.869 133.914C298.851 133.915 298.833 133.916 298.815 133.916Z" fill="#263238"/>
<path opacity="0.1" d="M301.265 132.746C301.179 132.746 301.089 132.731 300.998 132.7C300.806 132.635 300.632 132.51 300.51 132.348C300.465 132.288 300.476 132.203 300.536 132.158C300.596 132.112 300.681 132.124 300.726 132.184C300.816 132.303 300.943 132.395 301.085 132.443C301.157 132.466 301.265 132.49 301.366 132.461C301.448 132.438 301.516 132.38 301.539 132.314C301.563 132.242 301.643 132.206 301.711 132.229C301.782 132.254 301.82 132.331 301.796 132.402C301.744 132.553 301.607 132.676 301.439 132.723C301.384 132.739 301.325 132.746 301.265 132.746Z" fill="#263238"/>
<path opacity="0.1" d="M302.052 131.276C301.985 131.276 301.927 131.226 301.918 131.157C301.818 130.388 301.714 129.927 301.474 129.188C301.45 129.117 301.489 129.04 301.56 129.016C301.632 128.993 301.708 129.032 301.731 129.104C301.978 129.861 302.085 130.333 302.187 131.122C302.196 131.197 302.144 131.265 302.07 131.275C302.064 131.276 302.058 131.276 302.052 131.276Z" fill="#263238"/>
<path d="M304.232 137.162C303.941 137.298 307.463 150.84 307.463 150.84H321.744C321.744 150.84 315.3 159.387 314.994 159.918C314.689 160.449 303.942 160.254 301.327 156.275C298.713 152.296 298.479 137.616 298.479 137.616L304.232 137.162Z" fill="#FFB64C"/>
<path opacity="0.6" d="M304.232 137.162C303.941 137.298 307.463 150.84 307.463 150.84H321.744C321.744 150.84 315.3 159.387 314.994 159.918C314.689 160.449 303.942 160.254 301.327 156.275C298.713 152.296 298.479 137.616 298.479 137.616L304.232 137.162Z" fill="white"/>
<path opacity="0.2" d="M314.996 160.133C314.996 160.133 315.163 157.188 316.691 154.526C316.691 154.526 314.324 157.552 313.969 160.133H314.996Z" fill="black"/>
<path d="M332.041 129.818C333.833 132.654 334.49 134.371 334.77 137.158C335.096 140.415 335.082 143.305 334.394 144.175C333.491 145.318 323.229 146.828 317.442 146.861C317.232 146.862 316.974 145.032 316.974 145.032C316.974 145.032 316.238 146.866 315.966 146.866C314.386 146.868 313.373 146.856 313.373 146.856C313.373 146.856 314.555 144.099 315.707 134.298C316.27 129.511 320.948 127.392 323.74 126.905C328.394 126.092 332.041 129.818 332.041 129.818Z" fill="#263238"/>
<path d="M318.729 139.632C317.095 137.081 315.268 130.087 321.467 127.615C329.206 124.529 332.96 129.393 333.867 134.344C334.774 139.295 332.146 143.191 326.932 143.055C321.717 142.919 319.858 141.396 318.729 139.632Z" fill="#263238"/>
<path d="M331.669 149.038C331.669 149.038 329.928 150.38 327.686 152.317C327.219 152.72 326.705 153.069 326.161 153.359C324.692 154.141 323.353 154.588 322.99 153.878C322.91 153.722 322.848 153.553 322.802 153.376C322.494 152.187 322.62 150.516 323.579 149.751C324.659 148.889 325.181 148.151 324.986 146.984C324.883 146.322 324.644 145.639 324.365 144.975L325.216 143.978L329.664 139.478C329.553 142.483 329.326 147.407 331.669 149.038Z" fill="#E9B376"/>
<path opacity="0.2" d="M325.021 147.24C326.245 146.512 327.587 145.249 327.426 143.806C327.354 143.199 327.224 142.623 327.079 142.254L324.594 145.552C324.798 146.084 324.872 146.435 325.021 147.24Z" fill="black"/>
<path d="M330.923 134.65C330.505 139.231 330.424 141.174 328.065 143.577C324.518 147.19 319.06 145.975 318.12 141.433C317.275 137.346 318.101 130.54 322.588 128.615C327.009 126.718 331.342 130.068 330.923 134.65Z" fill="#E9B376"/>
<path d="M325.192 136.31C325.167 136.771 324.884 137.151 324.56 137.157C324.237 137.164 323.996 136.796 324.021 136.334C324.047 135.873 324.33 135.493 324.653 135.486C324.976 135.48 325.218 135.848 325.192 136.31Z" fill="#263238"/>
<path d="M320.441 136.226C320.416 136.666 320.137 137.029 319.82 137.036C319.502 137.042 319.265 136.691 319.291 136.25C319.316 135.81 319.594 135.447 319.912 135.441C320.23 135.434 320.466 135.785 320.441 136.226Z" fill="#263238"/>
<path d="M325.839 134.618C325.776 134.631 325.711 134.62 325.659 134.583C324.847 134.002 324.006 134.312 323.996 134.316C323.871 134.362 323.738 134.308 323.7 134.19C323.662 134.073 323.733 133.94 323.859 133.892C323.903 133.875 324.959 133.485 325.966 134.206C326.066 134.278 326.079 134.42 325.994 134.525C325.953 134.575 325.897 134.607 325.839 134.618Z" fill="#263238"/>
<path d="M318.826 134.001C318.775 133.977 318.735 133.936 318.716 133.881C318.677 133.769 318.744 133.644 318.865 133.603C320.077 133.191 320.91 133.781 320.945 133.807C321.043 133.879 321.058 134.014 320.978 134.11C320.898 134.206 320.753 134.225 320.655 134.154C320.622 134.131 319.97 133.682 319.006 134.01C318.943 134.032 318.879 134.027 318.826 134.001Z" fill="#263238"/>
<path d="M327.105 130.576C325.651 132.107 326.374 137.889 330.456 138.644C335.159 137.535 331.445 126.007 327.105 130.576Z" fill="#263238"/>
<path d="M321.646 140.505C322.019 141.079 322.466 142.192 322.466 142.192C322.574 142.169 322.682 142.147 322.788 142.119C324.243 141.778 324.806 141.137 324.988 140.531C325.086 140.199 325.067 139.874 325.018 139.617C324.963 139.319 324.857 139.119 324.857 139.119C324.194 139.762 322.862 140.185 322.141 140.381C321.84 140.466 321.646 140.505 321.646 140.505Z" fill="#263238"/>
<path d="M322.141 140.381L322.395 140.872C323.765 140.547 324.686 140.134 325.017 139.617C324.963 139.319 324.857 139.119 324.857 139.119C324.194 139.762 322.862 140.185 322.141 140.381Z" fill="white"/>
<path d="M322.787 142.119C324.242 141.778 324.805 141.138 324.987 140.531C324.496 140.667 323.918 140.885 323.446 141.231C323.084 141.495 322.893 141.815 322.787 142.119Z" fill="#DC5753"/>
<path d="M321.722 135.904C321.722 135.904 320.861 137.969 319.963 138.98C320.547 139.546 321.591 139.249 321.591 139.249L321.722 135.904Z" fill="#D58745"/>
<path d="M323.742 135.269L324.791 135.517C324.316 136.053 323.742 135.269 323.742 135.269Z" fill="#263238"/>
<path d="M319.055 135.223L320.104 135.471C319.628 136.007 319.055 135.223 319.055 135.223Z" fill="#263238"/>
<path d="M322.62 127.633C320.815 128.246 318.898 131.377 318.578 132.582C321.145 133.004 328.063 130.593 328.063 130.593C328.063 130.593 332.68 131.871 330.341 129.525C328.003 127.178 322.62 127.633 322.62 127.633Z" fill="#263238"/>
<path d="M332.305 138.384C331.765 139.324 330.888 139.914 330.084 140.116C328.874 140.42 328.249 138.47 328.662 137.255C329.034 136.161 330.223 135.437 331.4 135.676C332.56 135.911 332.922 137.31 332.305 138.384Z" fill="#E9B376"/>
<path d="M311.467 146.496L311.316 146.27C312.978 145.159 314.421 141.081 315.038 139.34C315.713 137.43 315.975 135.381 316.228 133.4L316.497 133.434C316.242 135.43 315.979 137.494 315.293 139.431C314.615 141.347 313.204 145.334 311.467 146.496Z" fill="#263238"/>
<path opacity="0.2" d="M332.51 157.663L331.769 167.723L320.377 174.518L330.77 172.808L333.937 170.892L335.575 165.235L332.51 157.663Z" fill="black"/>
<path d="M313.179 183.799C313.25 183.07 314.404 180.395 315.109 179.329C315.814 178.262 318.592 175.614 318.592 175.614L321.986 177.517C321.986 177.517 322.105 179.07 321.144 179.896C320.59 180.372 319.995 180.794 319.995 180.794C319.995 180.794 320.151 181.374 320.154 182.023C320.158 182.742 320.012 183.63 319.422 183.602C318.832 183.574 318.614 181.669 318.586 181.394C318.613 181.673 318.777 183.623 317.987 183.691C317.225 183.757 317.099 181.722 317.099 181.722C317.099 181.722 317.059 182.67 317.035 183.155C317.011 183.639 316.526 184.061 316.078 183.522C315.559 182.898 315.513 181.819 315.513 181.819C315.513 181.819 315.102 182.45 314.487 183.825C314.045 184.814 313.118 184.416 313.179 183.799Z" fill="#E9B376"/>
<path opacity="0.1" d="M318.475 181.765L318.611 181.758L318.475 181.758C318.457 181.392 318.439 181.015 318.491 180.642C318.551 180.204 318.699 179.843 318.93 179.568C318.978 179.511 319.064 179.503 319.121 179.551C319.178 179.599 319.186 179.685 319.137 179.743C318.94 179.978 318.813 180.293 318.76 180.679C318.711 181.027 318.729 181.392 318.746 181.745L318.475 181.765Z" fill="black"/>
<path opacity="0.1" d="M317.066 182.152C316.994 182.152 316.934 182.096 316.931 182.023C316.913 181.656 316.894 181.276 316.946 180.899C317.007 180.462 317.154 180.101 317.385 179.826C317.433 179.768 317.519 179.761 317.576 179.809C317.633 179.857 317.641 179.942 317.593 180C317.395 180.236 317.268 180.551 317.215 180.936C317.166 181.288 317.185 181.655 317.202 182.009C317.206 182.084 317.148 182.148 317.073 182.152H317.066Z" fill="black"/>
<path opacity="0.1" d="M315.527 182.017C315.455 182.017 315.395 181.961 315.392 181.888C315.374 181.521 315.355 181.141 315.407 180.764C315.468 180.328 315.615 179.966 315.846 179.691C315.893 179.633 315.979 179.626 316.037 179.674C316.094 179.722 316.102 179.808 316.054 179.865C315.856 180.101 315.729 180.416 315.676 180.802C315.627 181.153 315.645 181.52 315.663 181.874C315.667 181.95 315.609 182.013 315.534 182.017H315.527Z" fill="black"/>
<path d="M332.835 156.712C332.835 157.028 333.846 168.268 333.846 168.268C333.216 169.452 320.251 173.963 318.592 175.614L321.616 178.734C321.616 178.734 337.041 175.614 339.531 173.799C341.656 172.251 341.478 169.534 341.478 165.824C341.478 162.115 340.669 156.712 340.669 156.712H332.835Z" fill="#E9B376"/>
<path d="M334.143 149.777C330.958 151.11 333.389 168.204 333.389 168.204L320.953 173.985L323.315 178.734C323.315 178.734 336.041 176.077 339.899 175.288C343.977 174.454 341.945 165.523 341.482 157.663C341.016 149.765 337.868 148.217 334.143 149.777Z" fill="#FFB64C"/>
<path opacity="0.6" d="M334.143 149.777C330.958 151.11 333.389 168.204 333.389 168.204L320.953 173.985L323.315 178.734C323.315 178.734 336.041 176.077 339.899 175.288C343.977 174.454 341.945 165.523 341.482 157.663C341.016 149.765 337.868 148.217 334.143 149.777Z" fill="white"/>
<path d="M288.361 183.155H304.962C305.249 183.153 305.479 182.965 305.477 182.734C305.476 182.691 305.467 182.648 305.451 182.607L298.065 165.634C297.879 165.149 297.323 164.818 296.692 164.815H280.081C279.8 164.816 279.572 164.999 279.572 165.225C279.572 165.272 279.583 165.319 279.603 165.364L286.988 182.337C287.177 182.82 287.731 183.15 288.361 183.155Z" fill="#263238"/>
<path opacity="0.7" d="M280.081 164.815H296.692C297.323 164.818 297.879 165.149 298.065 165.634L305.451 182.607C305.467 182.648 305.476 182.691 305.477 182.734C305.479 182.965 305.249 183.153 304.962 183.155H288.361C287.731 183.15 287.177 182.82 286.988 182.337L279.603 165.364C279.583 165.319 279.572 165.272 279.572 165.225C279.572 164.999 279.8 164.816 280.081 164.815Z" fill="white"/>
<path d="M290.369 174.363C290.728 175.178 291.455 175.737 291.997 175.623C292.539 175.509 292.684 174.767 292.335 173.95C291.987 173.134 291.252 172.587 290.709 172.701C290.167 172.815 290.006 173.527 290.369 174.363Z" fill="white"/>
<path opacity="0.3" d="M296.594 164.815H296.692C297.323 164.818 297.879 165.149 298.066 165.634L305.451 182.607C305.468 182.648 305.477 182.691 305.477 182.734C305.479 182.965 305.249 183.153 304.963 183.155H304.431L296.594 164.815Z" fill="black"/>
<path d="M321.214 183.155H303.932V181.987H320.049C320.692 181.987 321.214 182.51 321.214 183.155Z" fill="#263238"/>
<path opacity="0.7" d="M321.214 183.155H303.932V181.987H320.049C320.692 181.987 321.214 182.51 321.214 183.155Z" fill="white"/>
<path d="M288.353 247.984H264.357V186.105H265.311V247.002H287.4V186.105H288.353V247.984Z" fill="#263238"/>
<path d="M377.055 183.155H255.672V186.105H377.055V183.155Z" fill="#FFB64C"/>
<path opacity="0.2" d="M377.055 183.155H255.672V186.105H377.055V183.155Z" fill="black"/>
<path opacity="0.2" d="M377.055 183.155H340.846V186.105H377.055V183.155Z" fill="black"/>
<path d="M375.294 248.63H351.299V186.105H352.252V247.638H374.341V186.105H375.294V248.63Z" fill="#263238"/>
<path d="M122.678 119.726C122.678 119.726 128.098 133.324 128.958 133.406C129.818 133.488 140.813 129.193 140.813 129.193L142.523 131.13C142.523 131.13 136.765 138.849 127.649 141.299C126.011 141.74 123.944 139.88 121.973 137.338C121.586 136.844 121.21 136.321 120.833 135.784C118.805 132.77 116.986 129.619 115.389 126.355L122.678 119.726Z" fill="#FFB64C"/>
<path d="M127.131 134.917C126.617 134.771 126.319 134.236 126.465 133.721L130.141 118.225C130.359 117.49 131.019 116.976 131.783 116.946L143.565 116.699C143.693 116.683 143.823 116.693 143.947 116.729C144.461 116.874 144.759 117.41 144.613 117.924L140.937 133.421C140.719 134.156 140.06 134.672 139.295 134.704L127.513 134.946C127.385 134.962 127.255 134.952 127.131 134.917Z" fill="#263238"/>
<path opacity="0.2" d="M127.131 134.917C126.617 134.771 126.319 134.236 126.465 133.721L130.141 118.225C130.359 117.49 131.019 116.976 131.783 116.946L143.565 116.699C143.693 116.683 143.823 116.693 143.947 116.729C144.461 116.874 144.759 117.41 144.613 117.924L140.937 133.421C140.719 134.156 140.06 134.672 139.295 134.704L127.513 134.946C127.385 134.962 127.255 134.952 127.131 134.917Z" fill="white"/>
<path d="M128.34 134.892C127.827 134.746 127.528 134.211 127.673 133.697L131.35 118.2C131.568 117.467 132.225 116.953 132.987 116.917L144.774 116.675C144.902 116.659 145.032 116.669 145.156 116.704C145.67 116.85 145.968 117.385 145.822 117.9L142.141 133.396C141.923 134.129 141.266 134.644 140.504 134.68L128.717 134.922C128.591 134.937 128.463 134.927 128.34 134.892Z" fill="#263238"/>
<path opacity="0.3" d="M128.34 134.892C127.827 134.746 127.528 134.211 127.673 133.697L131.35 118.2C131.568 117.467 132.225 116.953 132.987 116.917L144.774 116.675C144.902 116.659 145.032 116.669 145.156 116.704C145.67 116.85 145.968 117.385 145.822 117.9L142.141 133.396C141.923 134.129 141.266 134.644 140.504 134.68L128.717 134.922C128.591 134.937 128.463 134.927 128.34 134.892Z" fill="white"/>
<path opacity="0.2" d="M138.976 125.758C138.912 125.079 138.311 124.581 137.633 124.646C136.674 124.698 135.856 125.359 135.6 126.287C135.554 126.441 135.539 126.602 135.555 126.761C135.623 127.434 136.223 127.925 136.894 127.856C137.854 127.805 138.673 127.147 138.933 126.22C138.976 126.07 138.991 125.913 138.976 125.758Z" fill="white"/>
<path d="M142.958 126.495C142.726 126.476 141.741 126.965 141.277 126.641C140.813 126.316 141.248 126.05 141.248 126.05C142.098 125.842 143.03 124.776 143.547 125.081C144.064 125.386 144.919 125.769 144.794 126.253C144.652 126.701 144.481 127.14 144.281 127.566C144.416 127.781 144.434 128.05 144.33 128.282C144.223 128.55 143.989 128.745 143.707 128.801C143.869 128.965 143.953 129.19 143.939 129.42C143.9 129.788 142.934 130.273 142.934 130.273C142.934 130.273 143.122 130.849 142.9 131.072C142.523 131.383 142.022 131.497 141.547 131.382C140.982 131.246 140.596 131.052 140.634 130.481C140.673 129.909 141.692 129.909 141.692 129.909C141.692 129.909 139.779 129.328 140.185 128.965C140.591 128.602 142.117 128.646 142.117 128.646C142.117 128.646 139.528 128.132 139.939 127.6C140.349 127.067 142.929 127.212 142.929 127.212C142.929 127.212 143.19 126.515 142.958 126.495Z" fill="#B97964"/>
<path d="M103.768 243.46L107.871 243.275L109.392 232.576L103.141 232.789L103.768 243.46Z" fill="#B97964"/>
<path d="M108.37 241.398H106.911C106.58 241.398 106.275 241.566 106.08 241.833C105.238 242.985 104.606 242.55 103.69 241.466C103.108 241.398 102.952 242.068 102.904 242.248L101.813 246.226C101.718 246.558 101.91 246.905 102.242 247C102.301 247.016 102.362 247.025 102.423 247.024H113.985C115.824 247.024 116.205 245.166 115.448 244.994C112.042 244.239 109.63 243.234 108.577 242.241C108.382 242.067 108.582 241.937 108.37 241.398Z" fill="#263238"/>
<path d="M111.226 242.729C111.38 242.618 111.472 242.441 111.474 242.251C111.487 242.149 111.441 242.049 111.355 241.993C110.898 241.668 109.073 242.523 108.868 242.624C108.845 242.632 108.827 242.65 108.819 242.673C108.804 242.715 108.826 242.761 108.868 242.776C109.317 242.883 109.775 242.942 110.235 242.953C110.581 242.986 110.928 242.907 111.226 242.729ZM111.241 242.132C111.278 242.155 111.297 242.199 111.288 242.242C111.281 242.378 111.215 242.505 111.107 242.59C110.693 242.901 109.692 242.767 109.154 242.667C109.911 242.332 110.988 241.955 111.241 242.132Z" fill="#FFB64C"/>
<path d="M108.93 242.796C109.478 242.566 110.626 241.664 110.565 241.186C110.555 241.086 110.484 240.966 110.236 240.933C109.235 240.818 108.807 242.619 108.807 242.695C108.797 242.726 108.806 242.76 108.83 242.781C108.849 242.787 108.869 242.787 108.888 242.781L108.93 242.796ZM110.202 241.081C110.388 241.1 110.388 241.167 110.388 241.191C110.441 241.482 109.607 242.232 109.011 242.547C109.135 242.127 109.502 241.076 110.136 241.076L110.202 241.081Z" fill="#FFB64C"/>
<path d="M107.833 243.663C107.808 243.663 107.783 243.656 107.761 243.642C107.697 243.602 107.678 243.518 107.718 243.454C108.011 242.989 108.51 242.666 109.054 242.592C109.126 242.585 109.196 242.634 109.207 242.709C109.217 242.783 109.165 242.851 109.091 242.862C108.625 242.925 108.198 243.201 107.948 243.599C107.922 243.64 107.878 243.663 107.833 243.663Z" fill="#FFB64C"/>
<path d="M108.739 244.347C108.714 244.347 108.689 244.34 108.667 244.327C108.604 244.286 108.584 244.202 108.624 244.139C108.917 243.673 109.416 243.351 109.96 243.276C110.031 243.267 110.103 243.318 110.113 243.392C110.123 243.467 110.071 243.535 109.997 243.546C109.531 243.609 109.104 243.886 108.854 244.284C108.828 244.325 108.784 244.347 108.739 244.347Z" fill="#FFB64C"/>
<path d="M109.868 244.923C109.843 244.923 109.818 244.916 109.796 244.902C109.732 244.862 109.713 244.778 109.753 244.714C110.046 244.249 110.545 243.926 111.089 243.851C111.162 243.845 111.231 243.893 111.242 243.967C111.252 244.042 111.2 244.11 111.126 244.121C110.66 244.185 110.233 244.461 109.983 244.859C109.957 244.9 109.913 244.923 109.868 244.923Z" fill="#FFB64C"/>
<path opacity="0.3" d="M108.562 238.409L108.367 239.785L103.547 239.7L103.471 238.409H108.562Z" fill="black"/>
<path d="M120.864 242.402L125.317 241.836L126.299 231.75L120.189 231.579L120.864 242.402Z" fill="#B97964"/>
<path d="M125.544 240.994H124.084C123.754 240.994 123.449 241.161 123.254 241.428C122.412 242.58 121.78 242.145 120.864 241.062C120.282 240.994 120.126 241.663 120.078 241.843L118.987 245.821C118.892 246.153 119.084 246.5 119.416 246.595C119.475 246.612 119.536 246.62 119.597 246.619H131.159C132.998 246.619 133.379 244.761 132.622 244.589C129.216 243.835 126.804 242.83 125.751 241.836C125.555 241.662 125.756 241.532 125.544 240.994Z" fill="#263238"/>
<path d="M128.711 242.125C128.864 242.014 128.956 241.837 128.958 241.647C128.971 241.545 128.925 241.445 128.839 241.389C128.382 241.065 126.557 241.919 126.352 242.02C126.33 242.028 126.312 242.046 126.304 242.069C126.288 242.111 126.31 242.157 126.352 242.173C126.801 242.279 127.259 242.338 127.72 242.349C128.065 242.382 128.413 242.304 128.711 242.125ZM128.725 241.528C128.762 241.551 128.781 241.595 128.773 241.638C128.765 241.775 128.699 241.902 128.592 241.986C128.177 242.297 127.177 242.163 126.638 242.063C127.396 241.728 128.473 241.351 128.725 241.528Z" fill="#FFB64C"/>
<path d="M126.415 242.192C126.963 241.962 128.111 241.06 128.049 240.582C128.039 240.482 127.968 240.363 127.72 240.329C126.72 240.215 126.291 242.015 126.291 242.091C126.281 242.122 126.29 242.156 126.315 242.177C126.333 242.183 126.353 242.183 126.372 242.177L126.415 242.192ZM127.687 240.477C127.873 240.496 127.873 240.563 127.873 240.587C127.925 240.878 127.091 241.628 126.496 241.943C126.62 241.523 126.986 240.472 127.62 240.472L127.687 240.477Z" fill="#FFB64C"/>
<path d="M125.317 243.059C125.292 243.059 125.267 243.052 125.245 243.038C125.182 242.998 125.163 242.914 125.203 242.851C125.495 242.385 125.995 242.062 126.538 241.988C126.611 241.981 126.681 242.03 126.691 242.105C126.701 242.179 126.649 242.248 126.575 242.258C126.11 242.321 125.682 242.597 125.432 242.995C125.406 243.037 125.362 243.059 125.317 243.059Z" fill="#FFB64C"/>
<path d="M126.224 243.743C126.199 243.743 126.174 243.736 126.151 243.722C126.088 243.682 126.069 243.598 126.109 243.535C126.401 243.069 126.901 242.746 127.445 242.672C127.517 242.664 127.587 242.714 127.597 242.789C127.607 242.863 127.555 242.932 127.481 242.942C127.016 243.005 126.589 243.281 126.338 243.679C126.313 243.721 126.269 243.743 126.224 243.743Z" fill="#FFB64C"/>
<path d="M127.352 244.319C127.328 244.319 127.303 244.312 127.28 244.298C127.217 244.258 127.198 244.174 127.238 244.111C127.53 243.645 128.029 243.322 128.573 243.247C128.644 243.241 128.716 243.289 128.726 243.364C128.736 243.438 128.684 243.507 128.61 243.517C128.145 243.581 127.718 243.857 127.467 244.255C127.441 244.297 127.398 244.319 127.352 244.319Z" fill="#FFB64C"/>
<path opacity="0.3" d="M125.71 237.805L125.576 239.185L120.662 239.154L120.578 237.805H125.71Z" fill="black"/>
<path d="M111.419 149.033L122.858 149.086C122.858 149.086 126.855 171.661 126.62 196.973C127.087 211.832 126.713 239.156 126.713 239.156H119.273C119.273 239.156 114.534 216.964 116.431 199.382C115.741 196.35 114.819 191.101 114.276 188.421C112.758 181.198 111.615 173.883 110.854 166.511C109.547 152.693 111.419 149.033 111.419 149.033Z" fill="#263238"/>
<path opacity="0.2" d="M112.433 157.899C112.433 157.899 116.558 178.682 114.278 188.421C112.759 181.198 111.616 173.882 110.855 166.51L112.433 157.899Z" fill="black"/>
<path d="M101.803 143.121C100.805 148.136 96.8924 154.262 96.1009 160.678C94.749 171.635 100.62 185.264 102.157 198.12C99.8369 217.133 103.394 240.189 102.922 239.691L110.391 239.699C110.618 237.998 112.149 212.236 112.909 196.972C113.554 183.614 114.584 150.015 114.584 150.015L101.803 143.121Z" fill="#263238"/>
<path opacity="0.2" d="M122.676 121.527C123.101 123.409 124.096 126.235 124.881 128.241C125.135 128.89 125.247 129.593 125.129 130.28C124.79 132.26 123.084 132.893 122.517 134.471C122.199 135.396 122.015 136.361 121.971 137.338C121.584 136.844 121.208 136.321 120.831 135.783L119.99 132.452L122.676 121.527Z" fill="black"/>
<path d="M121.991 133.227C126.43 130.113 122.957 127.299 123.348 122.684C123.617 119.16 121.163 116.011 117.686 115.42C116.884 115.285 116.054 115.149 115.237 115.043L114.754 114.98C112.575 114.731 110.382 114.628 108.189 114.67C107.387 114.67 106.556 114.67 105.687 114.694C104.817 114.718 103.977 114.747 103.175 114.805C100.394 115 98.2968 117.419 98.4914 120.207C98.5038 120.385 98.5257 120.562 98.5567 120.738L101.524 140.411L97.6836 151.751C109.175 156.964 124.513 153.538 123.925 151.465C122.27 145.636 121.416 137.183 121.991 133.227Z" fill="#FFB64C"/>
<path d="M121.881 95.6375L107.016 92.9995C105.84 93.3094 104.911 94.3753 104.373 95.5909C103.835 96.8064 103.632 98.17 103.457 99.5133C102.988 103.121 102.682 106.901 103.784 110.33C111.187 111.692 118.789 111.671 126.186 110.271C122.947 106.972 123.775 99.9248 121.881 95.6375Z" fill="#263238"/>
<path d="M107.131 114.605C107.131 114.605 108.95 116.091 111.285 118.227C111.771 118.673 112.31 119.061 112.883 119.387C114.428 120.267 115.844 120.786 116.253 120.039C116.344 119.875 116.415 119.696 116.47 119.508C116.835 118.248 116.75 116.459 115.75 115.613C114.622 114.659 114.087 113.855 114.331 112.614C114.46 111.91 114.736 111.188 115.055 110.488L113.744 109.647L109.13 104.705C109.59 107.668 109.683 112.934 107.131 114.605Z" fill="#B97964"/>
<path opacity="0.2" d="M114.283 112.887C112.999 112.072 111.603 110.682 111.819 109.146C111.914 108.499 112.071 107.889 112.237 107.499L114.791 111.097C114.557 111.659 114.467 112.032 114.283 112.887Z" fill="black"/>
<path d="M108.364 99.2598C108.672 104.166 108.699 106.244 111.145 108.881C114.825 112.849 120.691 111.717 121.832 106.895C122.86 102.556 122.183 95.2615 117.449 93.0681C112.785 90.9072 108.056 94.3535 108.364 99.2598Z" fill="#B97964"/>
<path d="M114.897 101.052C114.906 101.571 115.174 102.004 115.495 102.019C115.815 102.035 116.068 101.628 116.058 101.109C116.049 100.591 115.782 100.158 115.461 100.142C115.14 100.126 114.888 100.534 114.897 101.052Z" fill="#263238"/>
<path d="M119.856 101.168C119.866 101.67 120.133 102.09 120.453 102.106C120.773 102.122 121.024 101.727 121.014 101.225C121.004 100.723 120.737 100.302 120.417 100.287C120.097 100.271 119.846 100.665 119.856 101.168Z" fill="#263238"/>
<path d="M113.674 99.2007C113.736 99.2094 113.8 99.193 113.849 99.1498C114.621 98.4733 115.461 98.7425 115.471 98.7457C115.595 98.7859 115.724 98.7183 115.756 98.5908C115.788 98.4634 115.712 98.3265 115.587 98.2842C115.543 98.2699 114.489 97.9308 113.531 98.7707C113.436 98.8545 113.429 99.0074 113.517 99.112C113.559 99.1624 113.616 99.1926 113.674 99.2007Z" fill="#263238"/>
<path d="M121.143 98.7468C121.193 98.7317 121.235 98.6962 121.258 98.6432C121.305 98.5335 121.255 98.3913 121.146 98.3254C120.048 97.6648 119.207 98.1191 119.172 98.1392C119.072 98.195 119.044 98.3332 119.11 98.4483C119.176 98.5632 119.31 98.6111 119.409 98.5561C119.442 98.5378 120.1 98.1964 120.973 98.7219C121.029 98.7558 121.091 98.7629 121.143 98.7468Z" fill="#263238"/>
<path d="M118.152 100.88C118.152 100.88 118.864 102.734 119.693 103.9C119.838 104.104 119.737 104.393 119.5 104.473C118.891 104.678 118.191 104.456 118.191 104.456L118.152 100.88Z" fill="#A24E3F"/>
<path d="M115.275 100.158L116.403 99.9248C116.403 99.9248 115.767 100.745 115.275 100.158Z" fill="#263238"/>
<path d="M120.248 100.3L121.376 100.066C121.376 100.066 120.739 100.886 120.248 100.3Z" fill="#263238"/>
<path d="M109.178 105.864C95.2524 92.9163 114.271 89.7082 114.271 89.7082C122.365 86.1093 121.128 93.7561 121.128 93.7561C123.965 98.1869 118.28 100.461 118.28 100.461C121.005 97.8111 118.072 95.3342 118.072 95.3342C117.782 99.51 113.502 100.331 113.502 100.331C115.773 96.9567 115.154 94.861 115.154 94.861C112.736 101.193 109.21 101.865 109.21 101.865L109.178 105.864Z" fill="#263238"/>
<path d="M106.774 103.206C107.322 104.226 108.241 104.883 109.094 105.123C110.377 105.485 111.103 103.421 110.699 102.111C110.335 100.932 109.087 100.122 107.823 100.341C106.577 100.557 106.147 102.039 106.774 103.206Z" fill="#B97964"/>
<path opacity="0.2" d="M109.512 103.159C109.439 103.159 109.379 103.101 109.376 103.028C109.36 102.597 109.17 102.181 108.854 101.888C108.539 101.594 108.108 101.431 107.682 101.45C107.603 101.446 107.544 101.393 107.541 101.318C107.538 101.244 107.597 101.18 107.672 101.178C108.173 101.162 108.672 101.346 109.039 101.688C109.407 102.031 109.628 102.515 109.648 103.018C109.65 103.093 109.592 103.156 109.517 103.159H109.512Z" fill="black"/>
<path d="M116.642 106.027C115.397 106.027 114.994 104.867 114.99 104.854C114.966 104.783 115.004 104.706 115.075 104.682C115.147 104.657 115.223 104.696 115.247 104.767C115.263 104.816 115.668 105.956 116.987 105.723C117.058 105.708 117.131 105.759 117.144 105.833C117.157 105.907 117.108 105.978 117.034 105.991C116.895 106.016 116.765 106.027 116.642 106.027Z" fill="#263238"/>
<path opacity="0.2" d="M100.394 143.749L99.5918 146.118C99.5918 146.118 110.953 144.138 116.633 139.047C120.677 135.422 120.044 133.895 120.044 133.895L115.464 134.338L100.394 143.749Z" fill="black"/>
<path opacity="0.2" d="M104.78 126.785L104.164 137.054C102.454 138.144 101.321 136.632 101.061 135.07V132.113L104.78 126.785Z" fill="black"/>
<path d="M105.393 125.229C105.393 125.229 101.102 135.882 101.876 136.374C102.65 136.865 115.001 133.478 115.001 133.478L116.948 136.277C116.53 138.118 95.2181 149.714 93.4781 140.014C92.4207 134.121 98.8914 117.862 98.8914 117.862C104.145 115.8 105.393 125.229 105.393 125.229Z" fill="#FFB64C"/>
<path d="M117.133 136.55C118.594 136.666 118.645 134.461 119.404 134.374C119.846 134.332 120.279 134.221 120.688 134.047C120.688 134.047 120.207 135.372 120.688 135.266C121.168 135.16 122.711 135.083 123.091 133.82C123.471 132.558 122.096 129.859 121.784 129.484C121.471 129.108 119.827 129.223 119.827 129.223C119.827 129.223 121.596 128.766 122.567 128.631C123.538 128.496 123.722 127.384 122.368 127.63C121.811 127.731 117.419 127.764 116.943 128.216C116.467 128.669 114.703 133.12 114.703 133.12C114.05 133.496 115.711 137.229 117.133 136.55Z" fill="#B97964"/>
<g opacity="0.3">
<path d="M119.809 129.084C119.359 129.052 118.906 129.081 118.463 129.17C118.397 129.188 118.357 129.257 118.375 129.324C118.391 129.382 118.447 129.421 118.507 129.416C118.926 129.332 119.354 129.303 119.78 129.329C119.939 129.329 119.968 129.093 119.809 129.084Z" fill="black"/>
<path d="M122.073 130.418C122.213 130.491 122.357 130.288 122.218 130.216C121.396 129.777 120.53 130.023 119.699 130.303C119.55 130.351 119.656 130.577 119.805 130.529C120.535 130.283 121.343 130.047 122.073 130.418Z" fill="black"/>
<path d="M122.717 131.507C122.008 131.083 121.133 131.045 120.39 131.406C120.332 131.443 120.314 131.52 120.351 131.579C120.381 131.626 120.438 131.648 120.491 131.632C121.156 131.308 121.938 131.337 122.577 131.71C122.712 131.791 122.856 131.589 122.717 131.507Z" fill="black"/>
<path d="M121.536 133.355C121.6 133.226 121.651 133.09 121.686 132.948C121.719 132.794 121.489 132.707 121.45 132.861C121.348 133.335 121.054 133.745 120.638 133.994C120.499 134.071 120.604 134.297 120.739 134.22H120.724C120.986 134.073 121.203 133.867 121.372 133.626C121.389 133.627 121.403 133.635 121.421 133.627C121.68 133.536 121.968 133.613 122.147 133.82C122.253 133.941 122.44 133.782 122.335 133.661C122.133 133.428 121.833 133.322 121.536 133.355Z" fill="black"/>
</g>
<path d="M67.2949 229.877L69.9842 242.898L75.6423 242.846L74.6052 228.772L67.2949 229.877Z" fill="#E0E0E0"/>
<path d="M70.6581 241.849C71.4168 242.536 73.0467 242.412 73.773 241.827L73.7815 240.761C73.9026 239.861 74.219 239.431 75.1846 239.542C75.6579 239.595 76.2592 240.161 76.6616 241.015C77.383 242.547 78.2109 243.158 78.2109 243.158C78.2109 243.158 82.5419 245.246 84.0921 245.7C85.0172 245.971 86.2542 246.381 86.9276 247.361C87.1198 247.641 87.2945 247.973 87.4472 248.366C87.5726 248.689 87.5795 249.422 87.5797 249.438L76.6751 249.577C76.6751 249.577 75.5542 248.941 75.0821 248.965C74.2415 249.006 73.8745 249.745 73.8745 249.745L69.9097 249.825C69.9097 249.825 69.8255 249.213 69.7044 248.321L69.7034 248.321C69.649 247.92 69.5872 247.462 69.5209 246.978C69.2384 244.903 69.467 242.423 69.3916 241.836C69.2599 240.806 70.6581 241.849 70.6581 241.849Z" fill="#263238"/>
<path d="M80.5431 244.183C80.4933 244.14 80.4179 244.136 80.3618 244.173C80.1042 244.34 79.8899 244.572 79.7469 244.861C79.6716 245.014 79.9108 245.155 79.9869 245.001C80.1139 244.744 80.3014 244.538 80.5263 244.392C80.6015 244.343 80.6119 244.243 80.5452 244.185L80.5431 244.183Z" fill="#FFB64C"/>
<path d="M79.6955 243.74C79.6457 243.697 79.5703 243.693 79.5141 243.73C79.2567 243.897 79.0422 244.129 78.8992 244.418C78.8239 244.571 79.0632 244.712 79.1392 244.558C79.2663 244.301 79.4537 244.095 79.6787 243.949C79.7538 243.9 79.7644 243.8 79.6976 243.742L79.6955 243.74Z" fill="#FFB64C"/>
<path d="M78.8224 243.328C78.7726 243.284 78.6973 243.281 78.6411 243.318C78.3836 243.484 78.1692 243.717 78.0262 244.006C77.9509 244.159 78.1901 244.299 78.2662 244.146C78.3932 243.889 78.5806 243.683 78.8057 243.537C78.8808 243.488 78.8913 243.388 78.8246 243.33L78.8224 243.328Z" fill="#FFB64C"/>
<path opacity="0.2" d="M87.223 247.898C87.3019 248.054 87.3778 248.218 87.448 248.399C87.5733 248.722 87.5803 249.455 87.5805 249.471L76.6759 249.61C76.6759 249.61 75.555 248.974 75.0828 248.997C74.2423 249.038 73.8753 249.778 73.8753 249.778L69.9105 249.858C69.9105 249.858 69.8263 249.245 69.7053 248.354L69.7042 248.354C69.6947 248.284 69.6838 248.203 69.6738 248.13L87.223 247.898Z" fill="white"/>
<path d="M78.6147 243.725L78.5892 243.47C78.5513 243.09 78.5121 242.699 78.5415 242.306C78.576 241.853 78.6997 241.469 78.9088 241.165C79.0643 240.939 79.2562 240.829 79.452 240.829C79.7085 240.842 79.8836 241.065 79.9621 241.27C80.0948 241.616 80.0673 242.034 79.8863 242.418C79.7162 242.779 79.0776 243.337 78.811 243.56L78.6147 243.725ZM79.43 241.1C79.302 241.1 79.1889 241.236 79.1322 241.319C78.9507 241.583 78.8431 241.922 78.8123 242.326C78.7909 242.609 78.8081 242.898 78.8338 243.182C79.1769 242.879 79.5405 242.515 79.6409 242.302C79.7904 241.985 79.815 241.644 79.7087 241.368C79.6632 241.248 79.5651 241.107 79.4387 241.101L79.43 241.1Z" fill="#FFB64C"/>
<path d="M78.9057 243.636L78.6542 243.59C78.3876 243.542 77.4926 243.366 77.1571 243.129C76.8105 242.885 76.5802 242.534 76.5254 242.168C76.4928 241.95 76.5352 241.67 76.752 241.532C76.917 241.428 77.1431 241.436 77.3892 241.555C77.7218 241.717 78.0183 241.99 78.2711 242.366C78.4899 242.693 78.6486 243.053 78.8023 243.402L78.9057 243.636ZM77.0185 241.73C76.9751 241.73 76.9329 241.739 76.8972 241.762C76.7904 241.83 76.7747 242.001 76.7936 242.127C76.8375 242.421 77.027 242.705 77.3132 242.907C77.5061 243.043 78.0008 243.179 78.4481 243.273C78.3304 243.012 78.2032 242.753 78.0458 242.518C77.8203 242.182 77.5596 241.94 77.2708 241.799C77.2088 241.77 77.1105 241.73 77.0185 241.73Z" fill="#FFB64C"/>
<path d="M42.2729 229.076L40.748 242.285L46.1362 244.017L49.5596 230.328L42.2729 229.076Z" fill="#E0E0E0"/>
<path d="M41.5202 241.641C42.1302 242.464 43.7529 242.661 44.5793 242.231L44.7955 241.187C45.09 240.327 45.4839 239.968 46.4094 240.266C46.8632 240.411 47.3424 241.084 47.5704 242.001C47.9792 243.644 48.6718 244.406 48.6718 244.406C48.6718 244.406 52.512 247.302 53.9438 248.051C54.7981 248.498 55.9312 249.143 56.4006 250.236C56.5344 250.548 56.6409 250.908 56.7139 251.324C56.774 251.665 56.6378 252.385 56.6349 252.401L45.9137 250.4C45.9137 250.4 44.9384 249.556 44.4708 249.487C43.6385 249.362 43.1344 250.015 43.1344 250.015L39.2305 249.317C39.2305 249.317 39.2673 248.7 39.3225 247.802L39.3215 247.801C39.3464 247.397 39.3751 246.936 39.4045 246.449C39.5322 244.358 40.2401 241.971 40.2807 241.38C40.3523 240.345 41.5202 241.641 41.5202 241.641Z" fill="#263238"/>
<path d="M50.7597 245.868C50.7194 245.816 50.6461 245.798 50.5839 245.822C50.2988 245.936 50.0432 246.122 49.8466 246.377C49.743 246.512 49.9501 246.697 50.0548 246.561C50.2295 246.334 50.4535 246.169 50.7026 246.07C50.7858 246.036 50.8155 245.941 50.7615 245.871L50.7597 245.868Z" fill="#FFB64C"/>
<path d="M50.0156 245.267C49.9753 245.215 49.902 245.197 49.8398 245.222C49.5547 245.335 49.2991 245.521 49.1025 245.776C48.9989 245.911 49.206 246.096 49.3106 245.96C49.4854 245.733 49.7093 245.568 49.9585 245.469C50.0417 245.436 50.0714 245.34 50.0173 245.27L50.0156 245.267Z" fill="#FFB64C"/>
<path d="M49.2402 244.692C49.1999 244.64 49.1266 244.622 49.0644 244.646C48.7794 244.76 48.5237 244.946 48.3271 245.201C48.2235 245.336 48.4306 245.521 48.5352 245.385C48.7099 245.158 48.9339 244.993 49.1831 244.894C49.2663 244.86 49.2959 244.765 49.2419 244.695L49.2402 244.692Z" fill="#FFB64C"/>
<path opacity="0.2" d="M56.5852 250.821C56.6322 250.989 56.6745 251.165 56.7081 251.356C56.7681 251.697 56.6319 252.417 56.629 252.433L45.9078 250.432C45.9078 250.432 44.9326 249.589 44.465 249.519C43.6326 249.394 43.1285 250.048 43.1285 250.048L39.2246 249.349C39.2246 249.349 39.2615 248.732 39.3166 247.834L39.3157 247.834C39.3201 247.763 39.325 247.682 39.3295 247.608L56.5852 250.821Z" fill="white"/>
<path d="M48.957 245.04L48.9817 244.785C49.0188 244.405 49.0567 244.013 49.1624 243.635C49.2845 243.197 49.4806 242.845 49.7451 242.587C49.9419 242.396 50.1534 242.318 50.3436 242.365C50.5925 242.427 50.7207 242.681 50.7575 242.897C50.8201 243.263 50.7112 243.668 50.4589 244.009C50.2143 244.338 49.4194 244.788 49.1817 244.917L48.957 245.04ZM50.231 242.623C50.1166 242.623 49.9986 242.72 49.9343 242.783C49.7045 243.006 49.5326 243.318 49.4236 243.708C49.3479 243.98 49.3084 244.267 49.2779 244.551C49.6733 244.321 50.1004 244.036 50.2411 243.846C50.4494 243.565 50.5402 243.236 50.4899 242.943C50.4684 242.817 50.4001 242.66 50.2774 242.629C50.262 242.625 50.2467 242.623 50.231 242.623Z" fill="#FFB64C"/>
<path d="M49.2605 245.011L49.0226 244.916C48.6993 244.788 47.9179 244.459 47.6439 244.171C47.3519 243.863 47.1945 243.475 47.2123 243.104C47.2224 242.884 47.3188 242.618 47.5584 242.525C47.7414 242.455 47.9616 242.507 48.1789 242.672C48.4736 242.896 48.711 243.222 48.8853 243.641C49.0372 244.006 49.1222 244.389 49.2049 244.76L49.2605 245.011ZM47.7274 242.766C47.7028 242.766 47.6787 242.77 47.6556 242.779C47.5379 242.824 47.4892 242.989 47.4831 243.116C47.4691 243.413 47.5994 243.729 47.8405 243.983C48.0032 244.154 48.4511 244.381 48.8824 244.565C48.818 244.287 48.7438 244.007 48.6347 243.745C48.4794 243.371 48.2709 243.084 48.0152 242.889C47.9492 242.839 47.8344 242.766 47.7274 242.766Z" fill="#FFB64C"/>
<path d="M77.3072 201.164C77.8521 222.099 76.5202 240.041 76.5202 240.041L68.3877 240.542C68.3877 240.542 63.8068 213.378 65.6567 202.282C65.5692 199.949 62.596 170.776 61.5736 165.261C59.7237 155.362 57.7461 148.571 57.7461 148.571L76.8834 147.6C76.8834 147.6 76.9709 187.985 77.3072 201.164Z" fill="#FFB64C"/>
<path opacity="0.2" d="M77.3072 201.164C77.8521 222.099 76.5202 240.041 76.5202 240.041L68.3877 240.542C68.3877 240.542 63.8068 213.378 65.6567 202.282C65.5692 199.949 62.596 170.776 61.5736 165.261C59.7237 155.362 57.7461 148.571 57.7461 148.571L76.8834 147.6C76.8834 147.6 76.9709 187.985 77.3072 201.164Z" fill="black"/>
<path opacity="0.3" d="M66.4276 157.159C66.4276 157.159 65.8088 180.091 64.7056 192.665C64.1338 185.868 62.6338 171.755 61.6113 166.24L66.4276 157.159Z" fill="black"/>
<path d="M39.2344 240.542L48.0793 242.659C48.0793 242.659 55.1992 214.902 58.5154 201.32C61.7307 186.181 67.7309 148.397 67.7309 148.397L50.7257 145.482C42.5596 158.875 47.1743 192.776 45.728 201.754C41.1108 214.59 39.2344 240.542 39.2344 240.542Z" fill="#FFB64C"/>
<path opacity="0.2" d="M39.2344 240.542L48.0793 242.659C48.0793 242.659 55.1992 214.902 58.5154 201.32C61.7307 186.181 67.7309 148.397 67.7309 148.397L50.7257 145.482C42.5596 158.875 47.1743 192.776 45.728 201.754C41.1108 214.59 39.2344 240.542 39.2344 240.542Z" fill="black"/>
<path d="M70.8002 102.558C71.8058 100.333 74.4169 99.1421 76.6368 100.15C77.6765 100.622 78.4969 101.684 78.9192 102.747L79.0134 102.983C79.5951 104.632 79.8243 106.385 79.686 108.128C79.6457 109.847 79.5919 111.594 79.6188 113.259C79.6457 114.925 79.6188 120.94 79.6726 122.572C79.7264 124.082 82.7736 130.913 85.7266 140.778C85.7866 140.968 85.8608 141.153 85.9486 141.331L86.4934 142.417C86.4934 142.417 85.6795 142.936 84.8454 143.435C84.1701 143.944 83.4304 144.361 82.6458 144.676C82.2072 144.277 81.8448 143.802 81.5763 143.273C79.2219 139.551 71.5334 125.741 71.1298 123.718C70.7329 121.843 70.4571 115.626 70.2822 113.738C70.1073 111.85 69.9728 110.009 69.919 108.148C69.8775 107.214 69.9136 106.278 70.0266 105.35C70.1454 104.384 70.4061 103.441 70.8002 102.551V102.558Z" fill="#263238"/>
<path opacity="0.3" d="M70.8002 102.558C71.8058 100.333 74.4169 99.1421 76.6368 100.15C77.6765 100.622 78.4969 101.684 78.9192 102.747L79.0134 102.983C79.5951 104.632 79.8243 106.385 79.686 108.128C79.6457 109.847 79.5919 111.594 79.6188 113.259C79.6457 114.925 79.6188 120.94 79.6726 122.572C79.7264 124.082 82.7736 130.913 85.7266 140.778C85.7866 140.968 85.8608 141.153 85.9486 141.331L86.4934 142.417C86.4934 142.417 85.6795 142.936 84.8454 143.435C84.1701 143.944 83.4304 144.361 82.6458 144.676C82.2072 144.277 81.8448 143.802 81.5763 143.273C79.2219 139.551 71.5334 125.741 71.1298 123.718C70.7329 121.843 70.4571 115.626 70.2822 113.738C70.1073 111.85 69.9728 110.009 69.919 108.148C69.8775 107.214 69.9136 106.278 70.0266 105.35C70.1454 104.384 70.4061 103.441 70.8002 102.551V102.558Z" fill="black"/>
<path d="M88.7522 135.625H69.0674C68.2708 135.625 67.625 136.272 67.625 137.071V152.281C67.625 153.079 68.2708 153.727 69.0674 153.727H88.7522C89.5488 153.727 90.1946 153.079 90.1946 152.281V137.071C90.1946 136.272 89.5488 135.625 88.7522 135.625Z" fill="#263238"/>
<path opacity="0.3" d="M88.7522 135.625H69.0674C68.2708 135.625 67.625 136.272 67.625 137.071V152.281C67.625 153.079 68.2708 153.727 69.0674 153.727H88.7522C89.5488 153.727 90.1946 153.079 90.1946 152.281V137.071C90.1946 136.272 89.5488 135.625 88.7522 135.625Z" fill="white"/>
<path d="M45.8184 110.433C46.9866 129.433 51.2602 137.408 50.659 152.59C50.659 152.59 74.911 153.265 75.7444 153.265C76.0997 125.294 75.0818 127.375 77.364 109.915C77.5143 104.128 76.3725 100.786 74.0019 100.208L63.1676 96.7153L50.4078 101.583C47.7821 102.217 45.5808 106.687 45.8184 110.433Z" fill="#FFB64C"/>
<path opacity="0.5" d="M45.8184 110.433C46.9866 129.433 51.2602 137.408 50.659 152.59C50.659 152.59 74.911 153.265 75.7444 153.265C76.0997 125.294 75.0818 127.375 77.364 109.915C77.5143 104.128 76.3725 100.786 74.0019 100.208L63.1676 96.7153L50.4078 101.583C47.7821 102.217 45.5808 106.687 45.8184 110.433Z" fill="white"/>
<path d="M70.8713 103.75C71.6286 112.654 70.6043 121.633 67.8535 130.121L69.8715 152.675C70.2684 155.946 72.7485 158.837 74.558 159.012L78.2711 158.705L77.2848 135.255C77.2768 135.318 77.28 135.191 77.2848 135.255C77.4906 133.632 79.4784 111.024 78.8045 105.851C78.3404 102.309 77.2103 100.928 76.4031 100.209C76.0567 99.9076 75.5072 99.8265 75.0636 99.7347C73.651 99.4279 69.3604 98.5722 69.5487 98.6489C69.6052 98.6719 69.7586 98.9786 69.902 99.3724C70.4494 100.876 70.7351 102.149 70.8713 103.75Z" fill="#263238"/>
<path d="M59.2482 160.6C65.3022 161.038 66.5692 158.17 67.41 153.131C67.41 153.131 69.011 135.063 68.6948 131.065C68.6948 131.065 67.332 123.454 65.3728 116.14C63.8125 109.262 60.0081 98.1101 58.9251 98.1963C56.8466 98.347 49.6721 99.8838 47.7793 101.125C46.1111 103.487 48.2453 107.333 48.6421 110.262C49.9067 119.644 49.8152 121.969 50.2928 131.43C50.2928 131.43 42.7905 158.575 43.4093 158.661C43.8802 158.711 54.4185 160.248 59.2482 160.6Z" fill="#263238"/>
<path opacity="0.2" d="M51.6016 139.639H61.9337V140.104C61.9337 141.475 60.8254 142.586 59.4583 142.586H54.0769C52.7099 142.586 51.6016 141.475 51.6016 140.104V139.639Z" fill="white"/>
<path opacity="0.2" d="M77.6248 143.325L76.0381 143.323C74.6707 143.377 73.5169 142.313 73.4551 140.943V140.485L77.4981 140.314L77.6248 143.325Z" fill="white"/>
<path d="M64.8628 73.9659C64.1976 73.6962 62.3133 73.7224 61.6681 74.0717C59.9081 74.8279 58.8893 75.6598 58.59 77.8259C58.3936 78.1807 58.2859 78.5797 58.2774 78.9854C58.2519 79.4046 58.4735 79.7912 58.8364 79.9608C59.5009 79.536 60.2537 79.292 61.024 79.2517C62.5828 79.1454 64.1441 79.1852 65.6893 79.3704C68.5053 79.6699 71.3437 79.7504 74.1813 79.6114C74.7428 79.5905 75.4 79.505 75.6856 78.9973C75.9713 78.4897 75.0952 77.2965 75.3252 77.1693C75.6884 76.9546 76.1528 76.8003 76.2645 76.3857C76.3049 76.2201 76.3056 76.0476 76.2668 75.8837C76.194 75.2823 75.8947 74.7418 75.435 74.3812C74.9442 74.038 74.2715 74.174 73.9197 74.6874C73.9379 74.5119 73.9529 74.3361 73.9646 74.1601C74.0113 73.4603 73.6556 72.805 73.0612 72.4349L73.0545 72.4307C72.3756 72.0081 70.8985 71.9907 70.1697 72.3513C69.4516 72.7123 68.8137 73.2778 68.2408 73.86C67.1315 74.6775 66.8974 74.4624 64.8628 73.9659Z" fill="#263238"/>
<path d="M61.3183 97.8316C61.3183 97.8316 61.6608 95.3659 60.0452 89.3154C60.0457 89.309 60.3644 89.175 60.3648 89.1685C60.1425 88.3225 59.9032 87.5399 59.6766 86.8611C59.6714 86.8415 59.6719 86.835 59.6719 86.835L67.7737 92.0894C67.5414 94.0087 68.1535 97.7394 68.5318 99.3174L66.3185 102.881L61.3183 97.8316Z" fill="#EEC1BB"/>
<path opacity="0.2" d="M67.8595 94.7965L63.1582 93.6313C63.5565 95.1128 64.8204 96.885 68.1043 97.0955C68.1043 97.0955 67.8106 95.4408 67.8595 94.7965Z" fill="black"/>
<path d="M73.7376 77.9925C74.6642 79.9158 74.9206 84.1086 71.9147 83.1736C68.9089 82.2385 72.1446 74.6866 73.7376 77.9925Z" fill="#263238"/>
<path d="M59.6897 82.8374C60.1356 88.0645 60.2819 91.0216 62.9881 93.6207C67.0588 97.5303 73.3085 95.0404 74.4323 89.7696C75.4438 85.0254 74.5448 77.2742 69.3743 75.3631C64.2803 73.4802 59.2437 77.6102 59.6897 82.8374Z" fill="#EEC1BB"/>
<path d="M67.2016 84.1689C67.2144 84.7046 67.5082 85.1293 67.858 85.1174C68.2077 85.1056 68.4809 84.6617 68.4681 84.126C68.4554 83.5903 68.1615 83.1656 67.8118 83.1775C67.4621 83.1893 67.1889 83.6331 67.2016 84.1689Z" fill="#263238"/>
<path d="M72.4438 84.1474C72.4565 84.6831 72.7504 85.1078 73.1001 85.096C73.4499 85.0842 73.723 84.6403 73.7103 84.1045C73.6975 83.5688 73.4037 83.1441 73.054 83.156C72.7041 83.1679 72.431 83.6117 72.4438 84.1474Z" fill="#263238"/>
<path d="M70.7324 83.8916C70.7324 83.8916 72.4877 86.5128 73.0558 87.5836C72.3281 88.275 71.0395 87.9953 71.0395 87.9953L70.7324 83.8916Z" fill="#DF8A8A"/>
<path d="M65.9743 81.2665C66.0582 81.2905 66.1526 81.27 66.2201 81.2039C67.0232 80.4208 67.926 80.6066 67.935 80.6085C68.07 80.6379 68.2045 80.5523 68.2352 80.4176C68.2657 80.2827 68.1805 80.1495 68.0463 80.1198C67.9987 80.1092 66.8675 79.876 65.8712 80.8479C65.7717 80.9449 65.7692 81.1033 65.8655 81.2017C65.8967 81.2336 65.9342 81.2551 65.9743 81.2665Z" fill="#263238"/>
<path d="M74.7271 81.7823C74.7728 81.7689 74.8151 81.7424 74.8484 81.703C74.9378 81.5969 74.926 81.4381 74.8214 81.3486C73.7725 80.4496 72.6701 80.779 72.6189 80.7873C72.4869 80.8276 72.4109 80.9678 72.4495 81.1007C72.4881 81.2333 72.6254 81.3084 72.7569 81.2698C72.8023 81.2542 73.6548 81.0116 74.4966 81.733C74.5625 81.7895 74.6495 81.805 74.7271 81.7823Z" fill="#263238"/>
<path d="M69.4396 91.4555C69.3925 91.443 69.456 91.4622 69.4396 91.4555V91.4555Z" fill="#263238"/>
<path d="M70.3001 89.4504C69.4676 89.1652 67.9337 88.5673 67.2021 87.7612C67.2021 87.7612 67.0622 87.9884 66.9761 88.3345C66.8987 88.6327 66.8515 89.0133 66.9421 89.411C67.1107 90.1374 67.7238 90.9326 69.4085 91.4441C69.4319 91.4519 69.436 91.4536 69.4405 91.4555L69.4576 91.4599C69.4576 91.4599 70.3661 91.7154 70.8718 89.6337C70.8718 89.6337 70.6475 89.5734 70.3001 89.4504Z" fill="#263238"/>
<path d="M70.3005 89.4503L69.9645 90.0082C68.3789 89.5226 67.3277 88.9674 66.9766 88.3344C67.0626 87.9883 67.2026 87.7612 67.2026 87.7612C67.9341 88.5672 69.468 89.1653 70.3005 89.4503Z" fill="white"/>
<path d="M69.4077 91.4442C67.7231 90.9328 67.11 90.1375 66.9414 89.4111C67.5087 89.6077 68.171 89.9077 68.6997 90.3507C69.1053 90.6877 69.306 91.0789 69.4077 91.4442Z" fill="#DC5753"/>
<path d="M73.4921 77.2934C72.7097 76.5788 71.7419 76.1031 70.7646 75.6958C69.1428 75.0201 67.441 74.504 65.6919 74.3447C63.9428 74.1854 62.1398 74.3948 60.5375 75.1158C60.1871 75.2734 59.8384 75.4617 59.5891 75.7547C59.3525 76.0328 58.9241 76.4738 58.8096 76.8209C58.1133 78.9321 57.5912 80.4839 58.2068 84.7856L62.3893 87.7611C62.8454 87.5258 63.2777 87.2811 63.5329 86.8348C63.7703 86.4197 63.1879 85.0057 63.1564 84.5281C63.1237 84.0326 62.8403 83.3882 62.7549 82.899C63.2134 83.1434 63.4062 82.9796 63.6706 82.5316C64.0659 81.8619 64.0611 81.0364 64.0237 80.2591C64.6123 80.3994 65.2852 80.2388 65.6849 79.7834C66.0845 79.328 66.1387 78.5762 65.7439 78.1166C67.6578 78.42 69.631 78.3425 71.5153 77.8901C71.3805 78.1267 71.524 78.4226 71.6846 78.6426C72.3355 79.5341 73.3241 80.1713 74.4033 80.3949C74.5618 80.4276 74.7592 80.4372 74.8507 80.3034C74.8994 80.2322 74.9016 80.1398 74.8984 80.0535C74.8596 78.9932 74.2745 78.0079 73.4921 77.2934Z" fill="#263238"/>
<path d="M57.7321 87.2503C58.1817 88.5881 59.2083 89.587 60.2567 90.0778C61.8335 90.8164 62.9217 89.4657 62.7346 87.8199C62.5661 86.3387 61.5428 84.1694 59.8393 84.1211C58.161 84.0736 57.218 85.7208 57.7321 87.2503Z" fill="#EEC1BB"/>
<path opacity="0.2" d="M61.3112 87.421C61.2447 87.421 61.1864 87.3716 61.1771 87.3036C61.1186 86.8767 60.9487 86.4709 60.6859 86.1301C60.516 85.9096 60.2343 85.6291 59.857 85.5457C59.5208 85.4702 59.1631 85.5983 59.0038 85.8477C58.9633 85.9112 58.8787 85.9295 58.8165 85.8889C58.7534 85.8485 58.7349 85.7643 58.7754 85.7011C58.9972 85.3536 59.4654 85.1799 59.9156 85.2801C60.3721 85.3813 60.7033 85.7077 60.9005 85.9638C61.1922 86.3423 61.3809 86.7925 61.4458 87.2664C61.4561 87.3408 61.4042 87.4096 61.33 87.4197C61.3236 87.4205 61.3176 87.421 61.3112 87.421Z" fill="black"/>
<path opacity="0.3" d="M50.3689 103.72C50.3689 103.72 47.4798 105.817 46.932 112.259C46.3096 119.575 44.8984 137.134 44.8984 138.221C44.8984 139.307 53.515 162.106 53.515 162.106L60.8665 158.676L54.6126 135.963C54.6126 135.963 54.8964 112.826 54.2282 109.699C53.7394 107.411 50.3689 103.72 50.3689 103.72Z" fill="black"/>
<path d="M52.7931 157.497C52.5415 157.95 52.7431 162.3 52.9733 163.377C53.2035 164.455 53.5749 164.959 54.1095 164.913C54.6441 164.867 55.2269 164.777 55.3235 164.689C55.42 164.6 55.6482 165.724 56.5345 165.578C57.4208 165.432 57.6441 165.093 57.6441 165.093C57.6441 165.093 58.4711 166.291 59.4601 165.917C60.449 165.543 60.4536 164.916 60.6184 164.854C60.7832 164.792 60.3084 162.96 60.3084 162.96L60.718 163.067C61.5465 163.282 62.3197 162.535 62.1101 161.703L62.1019 161.67C61.8255 160.59 59.924 158.556 59.924 158.556L57.8594 157.072L56.1022 153.836C56.1022 153.836 52.5208 156.325 52.5629 156.419C52.605 156.514 52.7931 157.497 52.7931 157.497Z" fill="#EEC1BB"/>
<path d="M47.7791 101.125C47.7791 101.125 44.89 103.222 44.3421 109.663C43.7197 116.98 42.3086 134.538 42.3086 135.625C42.3086 136.712 50.9252 159.51 50.9252 159.51L58.2766 156.081L52.0228 133.367C52.0228 133.367 54.0569 109.792 54.5147 107.498C54.9724 105.204 47.7791 101.125 47.7791 101.125Z" fill="#263238"/>
<path opacity="0.3" d="M46.1651 146.747L51.7435 159.783L49.6501 159.511L45.627 148.927L46.1651 146.747Z" fill="black"/>
<path opacity="0.3" d="M66.2108 119.424C65.9464 118.341 65.6663 117.237 65.3724 116.14C64.7701 113.485 63.8332 110.194 62.8476 107.157C62.3532 105.71 61.7279 103.887 61.1165 102.247C60.1704 99.8149 59.3438 98.163 58.9248 98.1963C58.7474 98.2091 58.5215 98.2355 58.2762 98.2675C58.2704 98.3066 57.0829 106.201 58.6417 107.077C60.2043 107.956 61.3477 108.644 61.3477 108.644C61.3477 108.644 60.2805 111.166 60.2805 112.274C60.2805 113.206 64.7842 117.946 66.2108 119.424Z" fill="black"/>
<path opacity="0.3" d="M70.4648 119.424C70.4648 119.424 73.2596 113.016 73.7426 111.295C74.2255 109.573 72.1037 108.175 72.1037 108.175C72.1037 108.175 72.8304 106.776 73.0987 105.808C73.367 104.839 71.4566 98.537 69.4336 98.6489C69.4336 98.6489 69.9488 99.5628 70.3479 101.124C70.7253 102.6 70.9868 104.66 71.0145 106.883C71.0371 108.698 71.1156 111.096 71.0086 113.269C70.8459 116.574 70.4648 119.424 70.4648 119.424Z" fill="black"/>
</svg>
