<svg width="87" height="78" viewBox="0 0 87 78" fill="none" xmlns="http://www.w3.org/2000/svg">
<path d="M-46.9932 25.6389C-44.3498 36.42 -39.0884 46.3828 -31.675 54.6449C-24.2616 62.9069 -14.925 69.2131 -4.49221 73.0049C5.94053 76.7966 17.1474 77.957 28.1357 76.3831C39.124 74.8092 49.5545 70.5496 58.5034 63.9817C67.4523 57.4138 74.6433 48.7403 79.4394 38.7294C84.2355 28.7186 86.4887 17.6794 85.9994 6.58977C85.5102 -4.49988 82.2935 -15.2977 76.6343 -24.8473C70.9752 -34.3968 63.0483 -42.4033 53.5558 -48.1576L39.5595 -25.0686C45.255 -21.616 50.0111 -16.8121 53.4066 -11.0824C56.8021 -5.35262 58.7321 1.12608 59.0257 7.77987C59.3192 14.4337 57.9673 21.0572 55.0897 27.0637C52.212 33.0702 47.8974 38.2743 42.5281 42.215C37.1587 46.1558 30.9004 48.7115 24.3074 49.6559C17.7145 50.6002 10.9903 49.904 4.73069 47.6289C-1.52895 45.3539 -7.13091 41.5701 -11.579 36.6129C-16.027 31.6557 -19.1839 25.678 -20.7699 19.2093L-46.9932 25.6389Z" fill="#FAA500"/>
</svg>
