<svg width="136" height="95" viewBox="0 0 136 95" fill="none" xmlns="http://www.w3.org/2000/svg">
<path d="M130.642 92.3349C134.682 81.9956 136.109 70.8196 134.798 59.7969C133.486 48.7742 129.477 38.245 123.124 29.1419C116.772 20.0389 108.272 12.643 98.3788 7.60943C88.4853 2.57583 77.503 0.059889 66.4048 0.284449C55.3066 0.509011 44.4351 3.46715 34.7533 8.89684C25.0714 14.3265 16.8781 22.0602 10.899 31.4127C4.91988 40.7653 1.3396 51.448 0.475269 62.5148C-0.389059 73.5815 1.48924 84.6906 5.94379 94.8581L30.6744 84.0231C28.0017 77.9226 26.8747 71.2572 27.3933 64.6171C27.9119 57.9771 30.0601 51.5674 33.6475 45.9559C37.235 40.3444 42.151 35.7042 47.9601 32.4464C53.7692 29.1885 60.2921 27.4137 66.951 27.2789C73.6099 27.1442 80.1993 28.6538 86.1354 31.6739C92.0716 34.6941 97.1713 39.1316 100.983 44.5934C104.794 50.0552 107.2 56.3728 107.987 62.9864C108.774 69.6 107.917 76.3056 105.493 82.5092L130.642 92.3349Z" fill="#FAA500"/>
</svg>
