<svg width="237" height="157" viewBox="0 0 237 157" fill="none" xmlns="http://www.w3.org/2000/svg">
<g clip-path="url(#clip0_415_69543)">
<path d="M205.717 42.7033L213.941 48.7953L156.369 83.8273L146.013 103.323L79.9093 127.691L11.0853 173.099H51.5533L94.8373 140.483L160.633 116.419L172.209 95.0953L227.649 57.0193L239.225 65.8553L252.325 33.8673V30.1953L205.717 42.7033Z" fill="#263238" stroke="#263238" stroke-linecap="round" stroke-linejoin="round"/>
<path d="M205.717 39.0273L213.941 45.1193L156.369 80.1513L146.013 99.6473L79.9093 124.015L7.00931 173.099H47.4573L94.8373 136.811L160.633 112.747L172.209 91.4233L227.649 53.3473L239.225 62.1793L252.325 30.1953L205.717 39.0273Z" fill="white" stroke="#263238" stroke-linecap="round" stroke-linejoin="round"/>
<path d="M156.545 108.875L157.893 110.003" stroke="#263238" stroke-linecap="round" stroke-linejoin="round"/>
<path d="M148.449 102.084L154.869 107.472" stroke="#263238" stroke-linecap="round" stroke-linejoin="round"/>
<path d="M158.805 81.0664L163.069 84.1104" stroke="#263238" stroke-linecap="round" stroke-linejoin="round"/>
<path d="M92.7053 135.592L80.4693 126.996" stroke="#263238" stroke-linecap="round" stroke-linejoin="round"/>
<path d="M205.717 42.7033V39.0273L213.941 45.1193L211.233 46.7993L205.717 42.7033Z" fill="white" stroke="#263238" stroke-linecap="round" stroke-linejoin="round"/>
<path d="M239.225 65.8557V62.1797L227.649 53.3477V57.0197L239.225 65.8557Z" fill="white" stroke="#263238" stroke-miterlimit="10"/>
<path d="M99.7653 60.5879L97.3653 65.0999C97.3653 65.0999 97.9453 65.8639 98.1653 65.7399C98.3853 65.6159 99.5653 63.5719 99.5653 63.5719L98.6213 67.0639C98.6213 67.0639 99.0013 67.6679 99.2373 67.4039C99.4733 67.1399 100.333 64.6399 100.549 64.6039C100.765 64.5679 101.273 63.6639 101.273 63.6639L100.401 66.4999C100.401 66.4999 100.073 67.8319 100.653 67.7399C101.233 67.6479 101.273 66.3599 101.273 66.3599L102.505 64.4679L102.045 66.4999C102.045 66.4999 102.845 67.0679 102.969 66.5799C103.093 66.0919 103.529 64.1799 103.529 64.1799C103.529 64.1799 105.529 61.7799 105.761 61.5119C105.993 61.2439 107.173 58.3479 107.173 58.3479L105.389 55.8359L99.7653 60.5879Z" fill="white" stroke="#263238" stroke-linecap="round" stroke-linejoin="round"/>
<path d="M105.057 56.3965L100.305 57.6325C100.305 57.6325 98.8613 61.1525 98.4493 61.7605C98.0373 62.3685 98.5333 62.4845 99.2733 62.1885C100.013 61.8925 101.297 60.2205 101.297 60.2205C101.297 60.2205 103.557 60.5565 104.305 59.3325" fill="white"/>
<path d="M105.057 56.3965L100.305 57.6325C100.305 57.6325 98.8613 61.1525 98.4493 61.7605C98.0373 62.3685 98.5333 62.4845 99.2733 62.1885C100.013 61.8925 101.297 60.2205 101.297 60.2205C101.297 60.2205 103.557 60.5565 104.305 59.3325" stroke="#263238" stroke-linecap="round" stroke-linejoin="round"/>
<path d="M100.769 62.2441L102.809 63.4201" stroke="#263238" stroke-linecap="round" stroke-linejoin="round"/>
<path d="M134.225 17.38L144.109 42.604L144.981 45.336C144.981 45.336 135.465 49.312 133.489 49.628C132.567 49.7537 131.655 49.9476 130.761 50.208L120.805 25.24L124.181 19.864L132.269 16.5L134.225 17.38Z" fill="white" stroke="#263238" stroke-linecap="round" stroke-linejoin="round"/>
<path d="M134.281 30.6211L138.933 45.2651" stroke="#263238" stroke-linecap="round" stroke-linejoin="round"/>
<path d="M131.681 101.096C131.543 102.41 131.336 103.715 131.061 105.008C130.757 106.116 129.789 109.148 129.933 109.94C130.077 110.732 130.849 114.124 131.321 114.376C131.793 114.628 132.497 114.688 132.881 114.376C133.265 114.064 135.217 110.256 135.401 108.928C135.585 107.6 135.461 103.268 135.489 102.928C135.517 102.588 131.681 101.096 131.681 101.096Z" fill="#263238" stroke="#263238" stroke-linecap="round" stroke-linejoin="round"/>
<path d="M173.381 76.3438C173.381 76.3438 176.581 77.8237 177.005 77.8597C177.429 77.8957 181.077 78.2597 181.077 78.2597C181.077 78.2597 184.101 77.6678 184.573 77.9198C185.045 78.1718 184.881 79.2917 184.881 79.2917C184.881 79.2917 178.797 82.5237 177.933 82.7317C177.069 82.9397 176.033 82.5717 175.453 82.7317L174.873 82.8957L175.361 83.7878L171.725 85.7437C171.725 85.7437 170.125 83.9038 170.061 82.8398C169.997 81.7758 169.957 79.9278 169.957 79.9278L169.437 77.7557L173.381 76.3438Z" fill="#263238" stroke="#263238" stroke-linecap="round" stroke-linejoin="round"/>
<path d="M133.389 16.7875C133.389 16.7875 140.189 34.1435 141.477 36.8155C142.765 39.4875 143.909 42.7115 144.901 43.5475C145.893 44.3835 142.345 34.6995 142.009 32.7955C141.673 30.8915 141.725 27.3315 141.725 27.3315L171.613 17.0795L170.493 13.3555L145.533 16.3435C145.533 16.3435 140.453 15.7835 139.389 15.8195C138.325 15.8555 133.389 16.7875 133.389 16.7875Z" fill="#FFB64C"/>
<path d="M135.657 16.377C134.429 16.593 133.389 16.777 133.389 16.777C133.389 16.777 138.149 28.893 140.457 34.437C140.265 31.2462 139.795 28.0782 139.053 24.969C138.227 21.9933 137.089 19.1133 135.657 16.377Z" fill="#FFB64C" stroke="#263238" stroke-linecap="round" stroke-linejoin="round"/>
<path d="M142.641 19.5957L141.725 27.3317L144.109 19.9717" stroke="#263238" stroke-linecap="round" stroke-linejoin="round"/>
<path d="M170.493 13.3562L172.329 13.0762L173.053 16.3282L171.613 17.0762L170.493 13.3562Z" fill="white" stroke="#263238" stroke-linecap="round" stroke-linejoin="round"/>
<path d="M178.913 12.1406C178.913 12.1406 180.453 12.3966 180.421 12.7686C180.389 13.1406 179.841 15.1686 179.841 15.1686C179.103 15.3527 178.331 15.3527 177.593 15.1686C176.621 14.8366 176.305 14.1206 176.549 13.4526C176.793 12.7846 178.913 12.1406 178.913 12.1406Z" fill="white" stroke="#263238" stroke-linecap="round" stroke-linejoin="round"/>
<path d="M177.789 12.8555L179.061 13.3395L178.925 14.8915" stroke="#263238" stroke-linecap="round" stroke-linejoin="round"/>
<path d="M177.321 13.1914L178.077 13.8794C178.122 14.0647 178.122 14.2581 178.077 14.4434" stroke="#263238" stroke-linecap="round" stroke-linejoin="round"/>
<path d="M172.333 13.0756L177.133 11.9836C177.133 11.9836 181.737 10.0676 181.901 10.3316C181.995 10.448 182.041 10.5962 182.028 10.7453C182.015 10.8944 181.946 11.0328 181.833 11.1316C181.561 11.3596 178.205 12.5716 177.809 12.8516C177.413 13.1316 177.165 13.7956 177.449 14.1356C177.617 14.371 177.838 14.5631 178.095 14.6959C178.352 14.8288 178.636 14.8986 178.925 14.8996C179.621 14.8316 181.325 14.6036 181.369 14.8596C181.413 15.1156 181.569 15.4396 180.969 15.6596C180.369 15.8796 179.457 15.7796 179.013 15.8676C178.569 15.9556 176.773 16.4876 176.089 16.4276C175.464 16.3318 174.849 16.1751 174.253 15.9596L173.033 16.3596L172.333 13.0756Z" fill="white" stroke="#263238" stroke-linecap="round" stroke-linejoin="round"/>
<path d="M143.533 42.6572C143.533 42.6572 148.533 52.3772 148.925 52.3852C149.317 52.3932 153.845 48.9812 153.965 48.8252C154.085 48.6692 147.933 45.1532 146.197 43.3452C144.461 41.5372 142.929 39.5332 142.929 39.5332L143.533 42.6572Z" fill="#FFB64C" stroke="#263238" stroke-linecap="round" stroke-linejoin="round"/>
<path d="M144.981 45.3359L147.381 49.5199C147.381 49.5199 159.929 48.0759 164.181 47.7919C168.433 47.5079 169.933 47.9599 169.933 47.9599L174.157 76.3319L167.409 79.3239L161.101 58.0999C161.101 58.0999 147.053 61.9279 145.001 62.1599C143.971 62.252 142.951 62.4354 141.953 62.7079C141.953 62.7079 138.081 88.9279 137.785 92.3919C137.489 95.8559 137.513 102.192 137.513 102.192L135.569 104.056C135.569 104.056 131.373 101.828 131.169 101.484C130.965 101.14 128.837 68.9719 128.837 68.9719L128.037 56.4039L130.757 50.2239L144.981 45.3359Z" fill="#FFB64C"/>
<path d="M132.313 51.0639L145.573 46.5039L144.981 45.3359L132.125 49.7039L132.313 51.0639Z" fill="#263238" stroke="#263238" stroke-linecap="round" stroke-linejoin="round"/>
<path d="M137.885 47.7244L138.505 49.2084L141.477 48.1564L140.917 46.7324L137.885 47.7244Z" fill="white" stroke="#263238" stroke-linecap="round" stroke-linejoin="round"/>
<path d="M135.073 75.1921L135.045 73.5801" stroke="#263238" stroke-linecap="round" stroke-linejoin="round"/>
<path d="M135.569 104.041L135.101 76.8887" stroke="#263238" stroke-linecap="round" stroke-linejoin="round"/>
<path d="M141.953 62.6916C141.953 62.6916 142.733 57.2996 144.333 54.0996" stroke="#263238" stroke-linecap="round" stroke-linejoin="round"/>
<path d="M145.133 51.5918C145.133 51.5918 142.809 55.3918 142.453 56.2198" stroke="#263238" stroke-linecap="round" stroke-linejoin="round"/>
<path d="M165.357 56.741L166.513 56.377" stroke="#263238" stroke-linecap="round" stroke-linejoin="round"/>
<path d="M161.101 58.0852L164.165 57.1172" stroke="#263238" stroke-linecap="round" stroke-linejoin="round"/>
<path d="M130.333 26.5435L133.729 28.6915L134.797 23.7035L130.965 22.5195L130.333 26.5435Z" fill="#263238" stroke="#263238" stroke-linecap="round" stroke-linejoin="round"/>
<path d="M131.861 24.5011L128.965 30.8611L125.121 20.5891L133.389 16.7891L137.941 25.4051L131.861 24.5011Z" fill="white" stroke="#263238" stroke-linecap="round" stroke-linejoin="round"/>
<path d="M106.257 54.752L104.689 56.3919L107.185 59.196L107.993 57.928L106.257 54.752Z" stroke="#263238" stroke-linecap="round" stroke-linejoin="round"/>
<path d="M124.181 19.8644L114.733 27.3004L113.781 46.7484L105.781 55.1484L108.125 58.7084L119.725 49.5444L121.301 38.4684L123.497 44.7884L120.957 60.2364C122.707 60.9273 124.497 61.511 126.317 61.9844C128.977 62.6404 132.377 62.2164 132.377 62.2164L132.961 43.6684L125.513 19.5684L124.181 19.8644Z" fill="#FFB64C"/>
<path d="M124.557 47.7441L131.365 48.4001V51.0201L124.425 49.9721" fill="#FFB64C"/>
<path d="M124.557 47.7441L131.365 48.4001V51.0201L124.425 49.9721" stroke="#263238" stroke-linecap="round" stroke-linejoin="round"/>
<path d="M125.497 19.5488L124.181 19.8648L122.457 21.2208C123.252 24.1992 124.282 27.1097 125.537 29.9248C126.985 33.1248 129.725 36.8288 131.537 39.1248L125.497 19.5488Z" fill="#FFB64C" stroke="#263238" stroke-linecap="round" stroke-linejoin="round"/>
<path d="M133.729 28.6914L127.097 34.2914L114.789 32.6634L108.961 37.2434L107.705 40.2114L112.717 41.0114L117.445 35.9074C117.445 35.9074 126.953 37.6554 127.469 37.4834C127.985 37.3114 133.069 30.3834 133.069 30.3834L133.729 28.6914Z" fill="#263238" stroke="#263238" stroke-linecap="round" stroke-linejoin="round"/>
<path d="M119.765 7.09626C119.765 7.09626 118.057 7.58826 117.269 6.56826C116.481 5.54826 115.961 4.22826 116.657 4.44826C117.245 4.67188 117.807 4.95749 118.333 5.30026C118.333 5.30026 118.065 2.90026 118.629 2.78026C119.193 2.66026 119.429 3.72426 119.429 3.72426C119.429 3.72426 121.885 1.94826 124.629 1.62426C127.373 1.30026 131.429 2.84426 132.021 3.44826C132.613 4.05226 132.217 9.50426 132.101 9.89226C131.985 10.2803 131.753 11.2123 131.329 11.4923C130.905 11.7723 129.921 12.1643 129.405 11.7243C128.889 11.2843 128.941 10.6523 128.001 10.4923C127.061 10.3323 124.757 10.2923 124.605 9.32426C124.453 8.35626 125.469 6.62026 124.517 6.61626C123.565 6.61226 121.189 7.44426 120.553 7.46826C119.917 7.49226 119.765 7.09626 119.765 7.09626Z" fill="#263238" stroke="#263238" stroke-linecap="round" stroke-linejoin="round"/>
<path d="M119.765 7.09711V11.9451L120.733 13.2211L120.333 17.7971L122.333 17.6491C122.333 17.6491 123.665 21.5771 124.053 21.6891C124.441 21.8011 126.121 20.7531 126.121 20.7531C126.121 20.7531 131.581 24.7171 131.837 24.5011C132.093 24.2851 133.153 17.4651 133.333 17.2411C133.513 17.0171 132.533 13.4411 132.533 13.4411C132.533 13.4411 133.309 11.8411 133.093 10.6411C132.877 9.44111 132.493 9.31711 132.493 9.31711C132.493 9.31711 131.657 8.84911 131.381 9.31711C131.105 9.78511 130.265 11.2091 130.265 11.2091L129.045 9.67311C129.045 9.67311 125.577 9.37711 125.617 8.90111C125.657 8.42511 126.417 6.03311 126.201 5.77311C125.985 5.51311 121.873 5.70111 119.765 7.09711Z" fill="white" stroke="#263238" stroke-linecap="round" stroke-linejoin="round"/>
<path d="M124.465 12.8451C124.625 13.2451 124.593 13.6451 124.393 13.7171C124.193 13.7891 123.901 13.5371 123.737 13.1371C123.573 12.7371 123.609 12.3371 123.809 12.2691C124.009 12.2011 124.301 12.4451 124.465 12.8451Z" fill="#263238"/>
<path d="M121.605 12.3836C121.605 12.3836 122.765 14.8356 123.469 15.0276C124.173 15.2196 126.169 14.7996 126.425 14.1036C126.681 13.4076 125.977 10.9316 125.977 10.9316L121.605 12.3836Z" stroke="#263238" stroke-linecap="round" stroke-linejoin="round"/>
<path d="M125.977 10.9331L131.417 9.28906" stroke="#263238" stroke-linecap="round" stroke-linejoin="round"/>
<path d="M121.605 12.3848L118.153 13.7888C118.153 13.7888 118.933 15.3608 120.257 15.1448" stroke="#263238" stroke-linecap="round" stroke-linejoin="round"/>
<path d="M124.733 17.1611C124.733 17.1611 126.645 16.9331 127.057 15.2051" stroke="#263238" stroke-linecap="round" stroke-linejoin="round"/>
<path d="M126.145 20.7517C126.145 20.7517 129.029 18.7717 129.381 18.4757C129.733 18.1797 130.089 17.0957 130.089 17.0957C130.089 17.0957 129.689 20.3957 129.417 21.0957C129.145 21.7957 128.837 22.5477 128.837 22.5477L126.145 20.7517Z" fill="#263238" stroke="#263238" stroke-linecap="round" stroke-linejoin="round"/>
<path d="M132.569 13.4395C132.569 13.4395 132.125 14.6595 131.401 14.7275" stroke="#263238" stroke-linecap="round" stroke-linejoin="round"/>
<path d="M122.677 11.3012C122.914 10.9447 123.255 10.6709 123.655 10.5182C124.054 10.3654 124.491 10.3413 124.905 10.4492" stroke="#263238" stroke-linecap="round" stroke-linejoin="round"/>
<path d="M89.0493 68.6648L89.9333 66.3408L91.7733 64.6008C91.7733 64.6008 92.4133 63.4368 92.8013 63.6728C93.1893 63.9088 92.9613 64.1608 92.8013 64.6208C92.5093 65.1114 92.1513 65.5596 91.7373 65.9528C91.7373 65.9528 95.3373 63.5528 95.5373 63.5008C95.7373 63.4488 96.3373 63.8368 96.0173 64.2208C95.6973 64.6048 93.2733 66.2208 93.2733 66.2208L97.2173 64.4568C97.2173 64.4568 97.5333 65.5008 97.1053 65.7328C96.6773 65.9648 94.4533 67.4728 94.4533 67.4728C94.4533 67.4728 96.1853 67.0088 96.6773 66.7808C97.1693 66.5528 97.3773 67.3168 97.0173 67.5568C96.6573 67.7968 94.4413 69.1568 94.4413 69.1568C94.4413 69.1568 96.5853 68.6608 96.4933 68.9248C96.4013 69.1888 96.4533 69.3968 95.8333 69.5448C95.2133 69.6928 92.7413 70.8368 92.7413 70.8368L89.3373 71.8328L89.0493 68.6648Z" fill="white" stroke="#263238" stroke-linecap="round" stroke-linejoin="round"/>
<path d="M87.8053 69.4801L89.0533 68.6641L90.5373 71.9001L88.7613 73.0041L87.8053 69.4801Z" fill="white" stroke="#263238" stroke-linecap="round" stroke-linejoin="round"/>
<path d="M41.1333 99.1355C41.1333 99.1355 41.4813 103.384 41.4453 103.808C41.4093 104.232 43.2453 106.18 43.7173 106.504C44.1893 106.828 45.8773 106.332 45.8773 106.332C45.8773 106.332 47.7333 103.848 47.5813 103.132C47.5057 102.716 47.2844 102.342 46.9573 102.076L44.6653 99.9275L43.9333 99.0195L41.1333 99.1355Z" fill="white" stroke="#263238" stroke-linecap="round" stroke-linejoin="round"/>
<path d="M44.3653 103.988L43.4173 105.048C43.4173 105.048 43.8573 105.732 44.2973 105.624L44.7333 105.52" stroke="#263238" stroke-linecap="round" stroke-linejoin="round"/>
<path d="M43.9333 99.0195C43.9333 99.0195 46.3333 101.152 46.8093 101.336C47.0092 101.426 47.1764 101.576 47.288 101.765C47.3997 101.954 47.4504 102.173 47.4333 102.392C46.6891 103.169 45.8868 103.888 45.0333 104.544C44.5773 104.864 44.1693 104.612 44.3653 103.988C44.5613 103.364 45.0013 102.388 45.0013 102.388C45.0013 102.388 44.0653 102.448 43.8453 101.716" fill="white"/>
<path d="M43.9333 99.0195C43.9333 99.0195 46.3333 101.152 46.8093 101.336C47.0092 101.426 47.1764 101.576 47.288 101.765C47.3997 101.954 47.4504 102.173 47.4333 102.392C46.6891 103.169 45.8868 103.888 45.0333 104.544C44.5773 104.864 44.1693 104.612 44.3653 103.988C44.5613 103.364 45.0013 102.388 45.0013 102.388C45.0013 102.388 44.0653 102.448 43.8453 101.716" stroke="#263238" stroke-linecap="round" stroke-linejoin="round"/>
<path d="M40.9453 97.1934L41.1373 99.1374C41.1373 99.1374 42.1533 99.7974 42.8733 99.7174C43.4499 99.599 44.0011 99.3797 44.5013 99.0694L45.0853 97.7294L40.9453 97.1934Z" fill="white" stroke="#263238" stroke-linecap="round" stroke-linejoin="round"/>
<path d="M81.2133 126.416C81.2133 126.416 79.8693 131.248 79.8533 132.252C79.8982 133.317 79.9997 134.378 80.1573 135.432C80.1573 135.432 80.5573 135.832 81.5693 135.696C82.2918 135.641 82.9942 135.433 83.6293 135.084C83.8613 134.888 83.8333 133.524 83.8333 133.524C83.8333 133.524 84.8253 133.68 85.5293 133.812C86.2333 133.944 88.5413 133.012 89.4373 132.568C90.3333 132.124 92.0093 130.996 92.2373 130.084C92.4653 129.172 91.8373 128.76 91.5613 128.736C91.2853 128.712 87.7653 128.696 86.9893 128.556C86.2133 128.416 84.8893 127.088 84.8373 126.868C84.7853 126.648 81.2133 126.416 81.2133 126.416Z" fill="#263238" stroke="#263238" stroke-linecap="round" stroke-linejoin="round"/>
<path d="M62.2813 145.665L62.4493 147.901C62.4493 147.901 64.0493 149.977 64.5453 150.233C65.0413 150.489 66.0973 150.509 66.1853 151.161C66.2733 151.813 66.4613 152.117 65.9413 152.361C65.4213 152.605 63.3453 153.357 62.5533 153.361C61.7613 153.365 60.3133 152.737 60.3133 152.737L60.0973 153.581C59.6332 153.758 59.1375 153.837 58.6413 153.813C58.0646 153.804 57.4925 153.707 56.9453 153.525C56.9453 153.525 56.6013 151.705 56.7573 150.725C56.9133 149.745 57.5573 147.125 57.5573 147.125L58.1173 144.805L62.2813 145.665Z" fill="#263238" stroke="#263238" stroke-linecap="round" stroke-linejoin="round"/>
<path d="M53.8533 100.013L55.6733 103.813L60.7333 122.185L57.6853 145.221C57.6853 145.221 58.8253 146.105 59.7493 146.185C60.6733 146.265 62.9693 146.101 62.9693 146.101L68.3413 121.765L69.2413 103.765L83.2733 104.325L80.4733 127.001C80.4733 127.001 82.2213 127.437 82.8733 127.489C83.8657 127.447 84.8544 127.341 85.8333 127.173C85.8333 127.173 92.4173 98.8887 92.6133 98.2607C92.702 98.0717 92.7446 97.8645 92.7376 97.6559C92.7307 97.4473 92.6744 97.2433 92.5733 97.0607C92.3933 96.6847 76.2893 92.8047 76.2893 92.8047C76.2893 92.8047 57.4013 100.317 53.8533 100.013Z" fill="#FFB64C"/>
<path d="M53.8773 62.7131C53.8773 62.7131 49.0773 65.5771 48.7613 66.5571C48.4453 67.5371 41.8453 83.5971 41.7893 84.2651C41.7333 84.9331 40.5333 97.9251 40.5333 97.9251C41.1937 98.1836 41.8848 98.3557 42.5893 98.4371C43.5893 98.5211 45.0853 97.7291 45.0853 97.7291L48.0133 84.1291L53.2653 77.7011L54.7973 83.3731L51.1333 100.681C51.1333 100.681 57.2773 102.465 63.7293 100.681C70.1813 98.8971 77.5093 92.7091 77.5093 92.7091C77.5093 92.7091 73.7453 85.6691 72.7093 84.2371C71.6733 82.8051 70.7773 81.3011 70.7773 81.3011L70.8693 78.2851C70.8693 78.2851 76.4053 84.2171 77.0093 84.0171C77.6133 83.8171 89.4573 72.9931 89.4573 72.9931L87.8253 69.4931L77.0453 74.7851C77.0453 74.7851 71.6333 62.4811 70.4973 62.0491C69.3613 61.6171 66.8653 61.3171 66.8653 61.3171C66.8653 61.3171 59.1093 59.4691 53.8773 62.7131Z" fill="#FFB64C"/>
<path d="M61.7333 41.5611C62.2133 42.1118 62.6243 42.719 62.9573 43.3691C63.5773 44.5371 63.7333 45.7971 64.6773 46.2731C65.6213 46.7491 66.9373 46.6731 66.9013 47.1171C66.8653 47.5611 66.1213 48.5611 66.1213 48.5611C66.1213 48.5611 67.2133 52.6531 66.9573 53.3611C66.7013 54.0691 63.4813 55.6212 63.4813 55.6212V59.2972L58.7253 59.6772C57.9276 57.6576 57.2727 55.5845 56.7653 53.4731C56.2053 50.8011 58.8293 49.2571 58.7653 46.1051C58.7013 42.9531 59.2493 41.2252 59.9173 41.0852C60.5853 40.9452 61.7333 41.5611 61.7333 41.5611Z" fill="white" stroke="#263238" stroke-linecap="round" stroke-linejoin="round"/>
<path d="M63.7773 46.3597C63.9373 46.7597 63.9173 47.1597 63.7333 47.2197C63.5493 47.2797 63.2693 47.0277 63.1093 46.6277C62.9493 46.2277 62.9693 45.8277 63.1533 45.7637C63.3373 45.6997 63.6173 45.9557 63.7773 46.3597Z" fill="#263238"/>
<path d="M62.4533 45.4242C62.4533 45.4242 62.3893 44.6242 63.1613 44.8282" stroke="#263238" stroke-linecap="round" stroke-linejoin="round"/>
<path d="M66.5013 50.2324C66.3431 50.4019 66.1374 50.5196 65.9112 50.5703C65.685 50.6209 65.4487 50.6022 65.2333 50.5164" stroke="#263238" stroke-linecap="round" stroke-linejoin="round"/>
<path d="M61.0813 43.0765C61.0813 43.0765 62.1293 45.3965 61.5973 46.9925C61.2452 48.0128 60.7653 48.9845 60.1693 49.8845C60.1693 49.8845 59.1173 51.4365 59.2933 52.4365C59.4693 53.4365 60.5253 57.1965 60.8373 57.4205L61.1453 57.6445L61.8053 58.3565C61.8053 58.3565 58.3413 60.4885 54.5653 60.9525C50.7893 61.4165 48.3053 60.4805 47.8093 60.1765C47.4853 59.9735 47.1752 59.749 46.8813 59.5045C46.8813 59.5045 48.8053 56.1925 48.8413 52.7045C48.8773 49.2165 47.8133 47.1045 48.8413 44.0485C49.8693 40.9925 57.6973 39.4285 57.6973 39.4285C57.6973 39.4285 58.0573 38.2765 59.5573 38.4045C61.0573 38.5325 62.5573 41.6805 62.5573 41.6805L61.0813 43.0765Z" fill="#263238" stroke="#263238" stroke-linecap="round" stroke-linejoin="round"/>
<path d="M60.6613 51.0449C60.6613 51.0449 59.4933 49.3689 58.8533 50.6929C58.2133 52.0169 60.2613 54.1569 61.3013 53.5249" fill="white"/>
<path d="M60.6613 51.0449C60.6613 51.0449 59.4933 49.3689 58.8533 50.6929C58.2133 52.0169 60.2613 54.1569 61.3013 53.5249" stroke="#263238" stroke-linecap="round" stroke-linejoin="round"/>
<path d="M59.0773 58.8762C59.0773 58.8762 62.8853 58.5322 63.5493 58.5882C64.2133 58.6442 65.8053 59.7042 65.8053 59.7042L65.6973 60.9562C65.6973 60.9562 62.0053 59.9682 59.9533 60.3802C57.9013 60.7922 54.9693 61.7002 54.9693 61.7002L55.5573 59.7322C55.5573 59.7322 57.5613 58.9002 59.0773 58.8762Z" fill="white" stroke="#263238" stroke-linecap="round" stroke-linejoin="round"/>
<path d="M53.8773 62.7118L54.5653 60.9518C54.5653 60.9518 59.5853 59.7238 61.5413 59.5078C63.247 59.3598 64.9607 59.6807 66.4973 60.4358C67.0144 60.717 67.4206 61.1655 67.6493 61.7078C67.6493 61.7078 63.6973 60.7838 60.2173 61.2398C58.0624 61.5302 55.9397 62.0231 53.8773 62.7118Z" fill="#FFB64C" stroke="#263238" stroke-linecap="round" stroke-linejoin="round"/>
<path d="M70.8493 78.2725L65.8173 73.3005C65.8173 73.3005 64.6893 71.7765 65.3253 69.2285" stroke="#263238" stroke-linecap="round" stroke-linejoin="round"/>
<path d="M53.2653 77.6888L50.3053 70.1328" stroke="#263238" stroke-linecap="round" stroke-linejoin="round"/>
</g>
<defs>
<clipPath id="clip0_415_69543">
<rect width="236" height="157" fill="white" transform="translate(0.333313)"/>
</clipPath>
</defs>
</svg>
