<svg width="964" height="139" viewBox="0 0 964 139" fill="none" xmlns="http://www.w3.org/2000/svg">
<rect width="171" height="136" transform="translate(0.5)" fill="white"/>
<path d="M61.1816 3.54545H64.1731L68.7328 11.4801H68.9203L73.4799 3.54545H76.4714L70.139 14.1477V21H67.514V14.1477L61.1816 3.54545ZM81.6313 21.2642C80.4041 21.2642 79.333 20.983 78.4183 20.4205C77.5035 19.858 76.7933 19.071 76.2876 18.0597C75.7819 17.0483 75.5291 15.8665 75.5291 14.5142C75.5291 13.1562 75.7819 11.9687 76.2876 10.9517C76.7933 9.93466 77.5035 9.14489 78.4183 8.58239C79.333 8.01989 80.4041 7.73864 81.6313 7.73864C82.8586 7.73864 83.9296 8.01989 84.8444 8.58239C85.7592 9.14489 86.4694 9.93466 86.9751 10.9517C87.4808 11.9687 87.7336 13.1562 87.7336 14.5142C87.7336 15.8665 87.4808 17.0483 86.9751 18.0597C86.4694 19.071 85.7592 19.858 84.8444 20.4205C83.9296 20.983 82.8586 21.2642 81.6313 21.2642ZM81.6399 19.125C82.4353 19.125 83.0944 18.9148 83.6171 18.4943C84.1399 18.0739 84.5262 17.5142 84.7762 16.8153C85.0319 16.1165 85.1597 15.3466 85.1597 14.5057C85.1597 13.6705 85.0319 12.9034 84.7762 12.2045C84.5262 11.5 84.1399 10.9347 83.6171 10.5085C83.0944 10.0824 82.4353 9.86932 81.6399 9.86932C80.8387 9.86932 80.1739 10.0824 79.6455 10.5085C79.1228 10.9347 78.7336 11.5 78.4779 12.2045C78.2279 12.9034 78.1029 13.6705 78.1029 14.5057C78.1029 15.3466 78.2279 16.1165 78.4779 16.8153C78.7336 17.5142 79.1228 18.0739 79.6455 18.4943C80.1739 18.9148 80.8387 19.125 81.6399 19.125ZM98.3907 15.571V7.90909H100.948V21H98.4418V18.733H98.3055C98.0043 19.4318 97.5214 20.0142 96.8566 20.4801C96.1975 20.9403 95.3765 21.1705 94.3935 21.1705C93.5526 21.1705 92.8083 20.9858 92.1606 20.6165C91.5185 20.2415 91.0128 19.6875 90.6435 18.9545C90.2799 18.2216 90.0981 17.3153 90.0981 16.2358V7.90909H92.6464V15.929C92.6464 16.821 92.8935 17.5312 93.3878 18.0597C93.8822 18.5881 94.5242 18.8523 95.314 18.8523C95.7913 18.8523 96.2657 18.733 96.7373 18.4943C97.2145 18.2557 97.6094 17.8949 97.9219 17.4119C98.2401 16.929 98.3964 16.3153 98.3907 15.571ZM103.892 21V7.90909H106.355V9.98864H106.491C106.73 9.28409 107.15 8.73011 107.752 8.3267C108.36 7.91761 109.048 7.71307 109.815 7.71307C109.974 7.71307 110.161 7.71875 110.377 7.73011C110.599 7.74148 110.772 7.75568 110.897 7.77273V10.2102C110.795 10.1818 110.613 10.1506 110.352 10.1165C110.09 10.0767 109.829 10.0568 109.568 10.0568C108.965 10.0568 108.428 10.1847 107.957 10.4403C107.491 10.6903 107.122 11.0398 106.849 11.4886C106.576 11.9318 106.44 12.4375 106.44 13.0057V21H103.892Z" fill="black"/>
<path d="M57.1971 56.3125H49.7312C49.5948 55.3466 49.3164 54.4886 48.896 53.7386C48.4755 52.9773 47.9357 52.3295 47.2766 51.7955C46.6176 51.2614 45.8562 50.8523 44.9926 50.5682C44.1403 50.2841 43.2141 50.142 42.2141 50.142C40.4073 50.142 38.8335 50.5909 37.4926 51.4886C36.1516 52.375 35.1119 53.6705 34.3732 55.375C33.6346 57.0682 33.2653 59.125 33.2653 61.5455C33.2653 64.0341 33.6346 66.125 34.3732 67.8182C35.1232 69.5114 36.1687 70.7898 37.5096 71.6534C38.8505 72.517 40.4016 72.9489 42.163 72.9489C43.1516 72.9489 44.0664 72.8182 44.9073 72.5568C45.7596 72.2955 46.5153 71.9148 47.1744 71.4148C47.8335 70.9034 48.3789 70.2841 48.8107 69.5568C49.2539 68.8295 49.5607 68 49.7312 67.0682L57.1971 67.1023C57.0039 68.7045 56.521 70.25 55.7482 71.7386C54.9869 73.2159 53.9585 74.5398 52.663 75.7102C51.3789 76.8693 49.8448 77.7898 48.0607 78.4716C46.288 79.142 44.2823 79.4773 42.0437 79.4773C38.9301 79.4773 36.146 78.7727 33.6914 77.3636C31.2482 75.9545 29.3164 73.9148 27.896 71.2443C26.4869 68.5739 25.7823 65.3409 25.7823 61.5455C25.7823 57.7386 26.4982 54.5 27.9301 51.8295C29.3619 49.1591 31.3051 47.125 33.7596 45.7273C36.2141 44.3182 38.9755 43.6136 42.0437 43.6136C44.0664 43.6136 45.9414 43.8977 47.6687 44.4659C49.4073 45.0341 50.9471 45.8636 52.288 46.9545C53.6289 48.0341 54.7198 49.358 55.5607 50.9261C56.413 52.4943 56.9585 54.2898 57.1971 56.3125ZM67.4615 52.8182L72.2684 61.9716L77.1945 52.8182H84.6434L77.0581 65.9091L84.8479 79H77.4331L72.2684 69.9489L67.1888 79H59.6888L67.4615 65.9091L59.9615 52.8182H67.4615ZM120.212 61.5455C120.212 65.3523 119.49 68.5909 118.047 71.2614C116.615 73.9318 114.661 75.9716 112.183 77.3807C109.717 78.7784 106.945 79.4773 103.865 79.4773C100.763 79.4773 97.9788 78.7727 95.5129 77.3636C93.047 75.9545 91.0981 73.9148 89.6663 71.2443C88.2345 68.5739 87.5186 65.3409 87.5186 61.5455C87.5186 57.7386 88.2345 54.5 89.6663 51.8295C91.0981 49.1591 93.047 47.125 95.5129 45.7273C97.9788 44.3182 100.763 43.6136 103.865 43.6136C106.945 43.6136 109.717 44.3182 112.183 45.7273C114.661 47.125 116.615 49.1591 118.047 51.8295C119.49 54.5 120.212 57.7386 120.212 61.5455ZM112.729 61.5455C112.729 59.0795 112.359 57 111.621 55.3068C110.894 53.6136 109.865 52.3295 108.536 51.4545C107.206 50.5795 105.649 50.142 103.865 50.142C102.081 50.142 100.524 50.5795 99.1947 51.4545C97.8652 52.3295 96.8311 53.6136 96.0924 55.3068C95.3652 57 95.0015 59.0795 95.0015 61.5455C95.0015 64.0114 95.3652 66.0909 96.0924 67.7841C96.8311 69.4773 97.8652 70.7614 99.1947 71.6364C100.524 72.5114 102.081 72.9489 103.865 72.9489C105.649 72.9489 107.206 72.5114 108.536 71.6364C109.865 70.7614 110.894 69.4773 111.621 67.7841C112.359 66.0909 112.729 64.0114 112.729 61.5455ZM146.367 60.2841L139.719 60.6932C139.605 60.125 139.361 59.6136 138.986 59.1591C138.611 58.6932 138.117 58.3239 137.503 58.0511C136.901 57.767 136.179 57.625 135.338 57.625C134.213 57.625 133.265 57.8636 132.492 58.3409C131.719 58.8068 131.333 59.4318 131.333 60.2159C131.333 60.8409 131.583 61.3693 132.083 61.8011C132.583 62.233 133.441 62.5795 134.657 62.8409L139.395 63.7955C141.941 64.3182 143.838 65.1591 145.088 66.3182C146.338 67.4773 146.963 69 146.963 70.8864C146.963 72.6023 146.458 74.108 145.446 75.4034C144.446 76.6989 143.071 77.7102 141.321 78.4375C139.583 79.1534 137.577 79.5114 135.304 79.5114C131.838 79.5114 129.077 78.7898 127.02 77.3466C124.975 75.892 123.776 73.9148 123.424 71.4148L130.566 71.0398C130.782 72.0966 131.304 72.9034 132.134 73.4602C132.963 74.0057 134.026 74.2784 135.321 74.2784C136.594 74.2784 137.617 74.0341 138.39 73.5455C139.174 73.0455 139.571 72.4034 139.583 71.6193C139.571 70.9602 139.293 70.4205 138.747 70C138.202 69.5682 137.361 69.2386 136.225 69.0114L131.691 68.108C129.134 67.5966 127.23 66.7102 125.98 65.4489C124.742 64.1875 124.122 62.5795 124.122 60.625C124.122 58.9432 124.577 57.4943 125.486 56.2784C126.407 55.0625 127.696 54.125 129.355 53.4659C131.026 52.8068 132.98 52.4773 135.219 52.4773C138.526 52.4773 141.128 53.1761 143.026 54.5739C144.935 55.9716 146.049 57.875 146.367 60.2841Z" fill="#065D75"/>
<path d="M18.0837 111.696C17.9474 110.486 17.3849 109.548 16.3962 108.884C15.4076 108.21 14.1633 107.874 12.6633 107.874C11.5894 107.874 10.6605 108.044 9.87636 108.385C9.09227 108.717 8.4829 109.178 8.04824 109.766C7.6221 110.345 7.40903 111.006 7.40903 111.747C7.40903 112.369 7.55392 112.906 7.84369 113.358C8.14199 113.81 8.52977 114.189 9.00704 114.496C9.49284 114.794 10.0127 115.045 10.5667 115.25C11.1207 115.446 11.6534 115.608 12.1647 115.736L14.7215 116.401C15.5568 116.605 16.4133 116.882 17.2911 117.232C18.169 117.581 18.9829 118.041 19.7329 118.612C20.4829 119.183 21.088 119.891 21.5482 120.734C22.017 121.578 22.2514 122.588 22.2514 123.764C22.2514 125.247 21.8678 126.564 21.1008 127.714C20.3423 128.865 19.2386 129.773 17.7897 130.438C16.3494 131.102 14.6065 131.435 12.561 131.435C10.6008 131.435 8.90477 131.124 7.47295 130.501C6.04113 129.879 4.9204 128.997 4.11074 127.855C3.30108 126.705 2.85363 125.341 2.76841 123.764H6.73148C6.80818 124.71 7.115 125.499 7.65193 126.129C8.19738 126.751 8.89199 127.216 9.73574 127.523C10.588 127.821 11.5212 127.97 12.5355 127.97C13.6519 127.97 14.6448 127.795 15.5141 127.446C16.392 127.088 17.0823 126.594 17.5852 125.963C18.088 125.324 18.3394 124.578 18.3394 123.726C18.3394 122.95 18.1178 122.315 17.6747 121.821C17.24 121.327 16.6477 120.918 15.8977 120.594C15.1562 120.27 14.3167 119.984 13.3792 119.737L10.2855 118.893C8.18886 118.322 6.52693 117.483 5.29966 116.375C4.08091 115.267 3.47153 113.801 3.47153 111.977C3.47153 110.469 3.88062 109.152 4.6988 108.027C5.51699 106.902 6.62494 106.028 8.02267 105.406C9.4204 104.776 10.9971 104.46 12.7528 104.46C14.5255 104.46 16.0894 104.771 17.4445 105.393C18.8082 106.016 19.882 106.872 20.6661 107.963C21.4502 109.045 21.8593 110.29 21.8934 111.696H18.0837ZM35.1113 111.364V114.432H24.3854V111.364H35.1113ZM27.2618 106.659H31.0843V125.234C31.0843 125.976 31.1951 126.534 31.4167 126.909C31.6383 127.276 31.9238 127.527 32.2732 127.663C32.6311 127.791 33.0189 127.855 33.4365 127.855C33.7434 127.855 34.0118 127.834 34.2419 127.791C34.4721 127.749 34.651 127.714 34.7789 127.689L35.4692 130.847C35.2476 130.932 34.9323 131.017 34.5232 131.102C34.1141 131.196 33.6027 131.247 32.9891 131.256C31.9834 131.273 31.0459 131.094 30.1766 130.719C29.3073 130.344 28.6042 129.764 28.0672 128.98C27.5303 128.196 27.2618 127.212 27.2618 126.027V106.659ZM38.6196 131V111.364H42.3142V114.483H42.5187C42.8767 113.426 43.5074 112.595 44.4108 111.99C45.3227 111.376 46.354 111.07 47.5045 111.07C47.7432 111.07 48.0244 111.078 48.3483 111.095C48.6807 111.112 48.9406 111.134 49.1281 111.159V114.815C48.9747 114.773 48.702 114.726 48.3099 114.675C47.9179 114.615 47.5259 114.585 47.1338 114.585C46.2304 114.585 45.425 114.777 44.7176 115.161C44.0187 115.536 43.4648 116.06 43.0557 116.733C42.6466 117.398 42.442 118.156 42.442 119.009V131H38.6196ZM57.2547 131.435C56.0104 131.435 54.8854 131.205 53.8797 130.744C52.874 130.276 52.0772 129.598 51.4891 128.712C50.9095 127.825 50.6198 126.739 50.6198 125.452C50.6198 124.344 50.8328 123.432 51.259 122.716C51.6851 122 52.2604 121.433 52.9848 121.016C53.7093 120.598 54.5189 120.283 55.4138 120.07C56.3087 119.857 57.2206 119.695 58.1496 119.584C59.3257 119.447 60.2803 119.337 61.0132 119.251C61.7462 119.158 62.2789 119.009 62.6112 118.804C62.9436 118.599 63.1098 118.267 63.1098 117.807V117.717C63.1098 116.601 62.7945 115.736 62.1638 115.122C61.5416 114.509 60.6127 114.202 59.3769 114.202C58.0899 114.202 57.0757 114.487 56.3343 115.058C55.6013 115.621 55.0942 116.247 54.813 116.938L51.2206 116.119C51.6468 114.926 52.2689 113.963 53.0871 113.23C53.9138 112.489 54.8641 111.952 55.938 111.619C57.0118 111.278 58.1411 111.108 59.3257 111.108C60.1098 111.108 60.9408 111.202 61.8186 111.389C62.705 111.568 63.5317 111.901 64.2987 112.386C65.0743 112.872 65.7093 113.567 66.2036 114.47C66.6979 115.365 66.9451 116.528 66.9451 117.96V131H63.2121V128.315H63.0587C62.8115 128.81 62.4408 129.295 61.9465 129.773C61.4522 130.25 60.8172 130.646 60.0416 130.962C59.2661 131.277 58.3371 131.435 57.2547 131.435ZM58.0857 128.366C59.1425 128.366 60.0459 128.158 60.7959 127.74C61.5544 127.322 62.1297 126.777 62.5218 126.104C62.9223 125.422 63.1226 124.693 63.1226 123.918V121.386C62.9862 121.523 62.722 121.651 62.33 121.77C61.9465 121.881 61.5076 121.979 61.0132 122.064C60.5189 122.141 60.0374 122.213 59.5686 122.281C59.0999 122.341 58.7078 122.392 58.3925 122.435C57.651 122.528 56.9735 122.686 56.3598 122.908C55.7547 123.129 55.2689 123.449 54.9024 123.866C54.5445 124.276 54.3655 124.821 54.3655 125.503C54.3655 126.449 54.7149 127.165 55.4138 127.651C56.1127 128.128 57.0033 128.366 58.0857 128.366ZM80.4825 111.364V114.432H69.7567V111.364H80.4825ZM72.6331 106.659H76.4555V125.234C76.4555 125.976 76.5663 126.534 76.7879 126.909C77.0095 127.276 77.295 127.527 77.6444 127.663C78.0024 127.791 78.3902 127.855 78.8078 127.855C79.1146 127.855 79.3831 127.834 79.6132 127.791C79.8433 127.749 80.0223 127.714 80.1501 127.689L80.8405 130.847C80.6189 130.932 80.3035 131.017 79.8944 131.102C79.4854 131.196 78.974 131.247 78.3604 131.256C77.3547 131.273 76.4172 131.094 75.5479 130.719C74.6785 130.344 73.9754 129.764 73.4385 128.98C72.9015 128.196 72.6331 127.212 72.6331 126.027V106.659ZM92.243 131.396C90.3083 131.396 88.6421 130.983 87.2444 130.156C85.8552 129.321 84.7813 128.149 84.0228 126.641C83.2728 125.124 82.8978 123.347 82.8978 121.31C82.8978 119.298 83.2728 117.526 84.0228 115.991C84.7813 114.457 85.8382 113.26 87.1933 112.399C88.5569 111.538 90.1507 111.108 91.9745 111.108C93.0825 111.108 94.1563 111.291 95.1961 111.658C96.2359 112.024 97.1691 112.599 97.9958 113.384C98.8225 114.168 99.4745 115.186 99.9518 116.439C100.429 117.683 100.668 119.196 100.668 120.977V122.332H85.0583V119.469H96.922C96.922 118.463 96.7174 117.572 96.3083 116.797C95.8992 116.013 95.3239 115.395 94.5825 114.943C93.8495 114.491 92.9887 114.266 92.0001 114.266C90.9262 114.266 89.9887 114.53 89.1876 115.058C88.395 115.578 87.7813 116.26 87.3467 117.104C86.9205 117.939 86.7075 118.847 86.7075 119.827V122.064C86.7075 123.376 86.9376 124.493 87.3978 125.413C87.8666 126.334 88.5186 127.037 89.3538 127.523C90.189 128 91.1649 128.239 92.2813 128.239C93.0058 128.239 93.6663 128.136 94.2629 127.932C94.8595 127.719 95.3751 127.403 95.8097 126.986C96.2444 126.568 96.5768 126.053 96.8069 125.439L100.425 126.091C100.135 127.156 99.6151 128.089 98.8651 128.891C98.1237 129.683 97.1904 130.301 96.0654 130.744C94.9489 131.179 93.6748 131.396 92.243 131.396ZM112.422 138.773C110.862 138.773 109.52 138.568 108.395 138.159C107.278 137.75 106.366 137.209 105.659 136.536C104.952 135.862 104.423 135.125 104.074 134.324L107.359 132.969C107.589 133.344 107.896 133.74 108.28 134.158C108.672 134.584 109.2 134.946 109.865 135.244C110.538 135.543 111.403 135.692 112.46 135.692C113.909 135.692 115.106 135.338 116.052 134.631C116.998 133.932 117.471 132.815 117.471 131.281V127.42H117.229C116.998 127.838 116.666 128.303 116.231 128.814C115.805 129.325 115.217 129.768 114.467 130.143C113.717 130.518 112.741 130.706 111.54 130.706C109.989 130.706 108.591 130.344 107.346 129.619C106.111 128.886 105.131 127.808 104.406 126.385C103.69 124.953 103.332 123.193 103.332 121.105C103.332 119.017 103.686 117.227 104.393 115.736C105.109 114.244 106.089 113.102 107.334 112.31C108.578 111.509 109.989 111.108 111.565 111.108C112.784 111.108 113.768 111.312 114.518 111.722C115.268 112.122 115.852 112.591 116.27 113.128C116.696 113.665 117.024 114.138 117.254 114.547H117.535V111.364H121.281V131.435C121.281 133.122 120.889 134.507 120.105 135.589C119.321 136.672 118.26 137.473 116.922 137.993C115.592 138.513 114.092 138.773 112.422 138.773ZM112.383 127.536C113.483 127.536 114.412 127.28 115.17 126.768C115.937 126.249 116.517 125.507 116.909 124.544C117.31 123.572 117.51 122.409 117.51 121.054C117.51 119.733 117.314 118.57 116.922 117.564C116.53 116.558 115.954 115.774 115.196 115.212C114.437 114.641 113.5 114.355 112.383 114.355C111.233 114.355 110.274 114.653 109.507 115.25C108.74 115.838 108.16 116.639 107.768 117.653C107.385 118.668 107.193 119.801 107.193 121.054C107.193 122.341 107.389 123.47 107.781 124.442C108.173 125.413 108.753 126.172 109.52 126.717C110.295 127.263 111.25 127.536 112.383 127.536ZM125.688 131V111.364H129.51V131H125.688ZM127.618 108.334C126.953 108.334 126.382 108.112 125.905 107.669C125.436 107.217 125.202 106.68 125.202 106.058C125.202 105.428 125.436 104.891 125.905 104.447C126.382 103.996 126.953 103.77 127.618 103.77C128.283 103.77 128.85 103.996 129.318 104.447C129.796 104.891 130.034 105.428 130.034 106.058C130.034 106.68 129.796 107.217 129.318 107.669C128.85 108.112 128.283 108.334 127.618 108.334ZM148.647 116.158L145.182 116.771C145.038 116.328 144.807 115.906 144.492 115.506C144.185 115.105 143.768 114.777 143.239 114.521C142.711 114.266 142.05 114.138 141.258 114.138C140.175 114.138 139.272 114.381 138.547 114.866C137.823 115.344 137.461 115.962 137.461 116.72C137.461 117.376 137.704 117.905 138.19 118.305C138.675 118.706 139.459 119.034 140.542 119.29L143.661 120.006C145.468 120.423 146.815 121.067 147.701 121.936C148.587 122.805 149.03 123.935 149.03 125.324C149.03 126.5 148.69 127.548 148.008 128.469C147.334 129.381 146.393 130.097 145.182 130.616C143.981 131.136 142.587 131.396 141.002 131.396C138.803 131.396 137.009 130.928 135.62 129.99C134.231 129.044 133.378 127.702 133.063 125.963L136.758 125.401C136.988 126.364 137.461 127.092 138.177 127.587C138.893 128.072 139.826 128.315 140.976 128.315C142.229 128.315 143.231 128.055 143.981 127.536C144.731 127.007 145.106 126.364 145.106 125.605C145.106 124.991 144.876 124.476 144.415 124.058C143.964 123.641 143.269 123.325 142.332 123.112L139.008 122.384C137.175 121.966 135.82 121.301 134.942 120.389C134.073 119.477 133.638 118.322 133.638 116.925C133.638 115.766 133.962 114.751 134.61 113.882C135.258 113.013 136.153 112.335 137.295 111.849C138.437 111.355 139.745 111.108 141.219 111.108C143.342 111.108 145.012 111.568 146.231 112.489C147.449 113.401 148.255 114.624 148.647 116.158ZM160.976 131.396C159.042 131.396 157.375 130.983 155.978 130.156C154.588 129.321 153.515 128.149 152.756 126.641C152.006 125.124 151.631 123.347 151.631 121.31C151.631 119.298 152.006 117.526 152.756 115.991C153.515 114.457 154.571 113.26 155.927 112.399C157.29 111.538 158.884 111.108 160.708 111.108C161.816 111.108 162.89 111.291 163.929 111.658C164.969 112.024 165.902 112.599 166.729 113.384C167.556 114.168 168.208 115.186 168.685 116.439C169.162 117.683 169.401 119.196 169.401 120.977V122.332H153.792V119.469H165.655C165.655 118.463 165.451 117.572 165.042 116.797C164.633 116.013 164.057 115.395 163.316 114.943C162.583 114.491 161.722 114.266 160.733 114.266C159.66 114.266 158.722 114.53 157.921 115.058C157.128 115.578 156.515 116.26 156.08 117.104C155.654 117.939 155.441 118.847 155.441 119.827V122.064C155.441 123.376 155.671 124.493 156.131 125.413C156.6 126.334 157.252 127.037 158.087 127.523C158.922 128 159.898 128.239 161.015 128.239C161.739 128.239 162.4 128.136 162.996 127.932C163.593 127.719 164.108 127.403 164.543 126.986C164.978 126.568 165.31 126.053 165.54 125.439L169.158 126.091C168.868 127.156 168.348 128.089 167.598 128.891C166.857 129.683 165.924 130.301 164.799 130.744C163.682 131.179 162.408 131.396 160.976 131.396Z" fill="black"/>
<rect width="135" height="136" transform="translate(411.5)" fill="white"/>
<path d="M454.182 3.54545H457.173L461.733 11.4801H461.92L466.48 3.54545H469.471L463.139 14.1477V21H460.514V14.1477L454.182 3.54545ZM474.631 21.2642C473.404 21.2642 472.333 20.983 471.418 20.4205C470.503 19.858 469.793 19.071 469.288 18.0597C468.782 17.0483 468.529 15.8665 468.529 14.5142C468.529 13.1562 468.782 11.9687 469.288 10.9517C469.793 9.93466 470.503 9.14489 471.418 8.58239C472.333 8.01989 473.404 7.73864 474.631 7.73864C475.859 7.73864 476.93 8.01989 477.844 8.58239C478.759 9.14489 479.469 9.93466 479.975 10.9517C480.481 11.9687 480.734 13.1562 480.734 14.5142C480.734 15.8665 480.481 17.0483 479.975 18.0597C479.469 19.071 478.759 19.858 477.844 20.4205C476.93 20.983 475.859 21.2642 474.631 21.2642ZM474.64 19.125C475.435 19.125 476.094 18.9148 476.617 18.4943C477.14 18.0739 477.526 17.5142 477.776 16.8153C478.032 16.1165 478.16 15.3466 478.16 14.5057C478.16 13.6705 478.032 12.9034 477.776 12.2045C477.526 11.5 477.14 10.9347 476.617 10.5085C476.094 10.0824 475.435 9.86932 474.64 9.86932C473.839 9.86932 473.174 10.0824 472.646 10.5085C472.123 10.9347 471.734 11.5 471.478 12.2045C471.228 12.9034 471.103 13.6705 471.103 14.5057C471.103 15.3466 471.228 16.1165 471.478 16.8153C471.734 17.5142 472.123 18.0739 472.646 18.4943C473.174 18.9148 473.839 19.125 474.64 19.125ZM491.391 15.571V7.90909H493.948V21H491.442V18.733H491.305C491.004 19.4318 490.521 20.0142 489.857 20.4801C489.198 20.9403 488.376 21.1705 487.394 21.1705C486.553 21.1705 485.808 20.9858 485.161 20.6165C484.519 20.2415 484.013 19.6875 483.644 18.9545C483.28 18.2216 483.098 17.3153 483.098 16.2358V7.90909H485.646V15.929C485.646 16.821 485.894 17.5312 486.388 18.0597C486.882 18.5881 487.524 18.8523 488.314 18.8523C488.791 18.8523 489.266 18.733 489.737 18.4943C490.215 18.2557 490.609 17.8949 490.922 17.4119C491.24 16.929 491.396 16.3153 491.391 15.571ZM496.892 21V7.90909H499.355V9.98864H499.491C499.73 9.28409 500.15 8.73011 500.752 8.3267C501.36 7.91761 502.048 7.71307 502.815 7.71307C502.974 7.71307 503.161 7.71875 503.377 7.73011C503.599 7.74148 503.772 7.75568 503.897 7.77273V10.2102C503.795 10.1818 503.613 10.1506 503.352 10.1165C503.09 10.0767 502.829 10.0568 502.568 10.0568C501.965 10.0568 501.428 10.1847 500.957 10.4403C500.491 10.6903 500.122 11.0398 499.849 11.4886C499.576 11.9318 499.44 12.4375 499.44 13.0057V21H496.892Z" fill="black"/>
<path d="M416.771 79V44.0909H430.544C433.191 44.0909 435.447 44.5966 437.311 45.608C439.174 46.608 440.595 48 441.572 49.7841C442.561 51.5568 443.055 53.6023 443.055 55.9205C443.055 58.2386 442.555 60.2841 441.555 62.0568C440.555 63.8295 439.106 65.2102 437.208 66.1989C435.322 67.1875 433.038 67.6818 430.356 67.6818H421.578V61.767H429.163C430.583 61.767 431.754 61.5227 432.674 61.0341C433.606 60.5341 434.299 59.8466 434.754 58.9716C435.22 58.0852 435.453 57.0682 435.453 55.9205C435.453 54.7614 435.22 53.75 434.754 52.8864C434.299 52.0114 433.606 51.3352 432.674 50.858C431.743 50.3693 430.561 50.125 429.129 50.125H424.152V79H416.771ZM465.827 54.1307C465.69 52.7557 465.105 51.6875 464.071 50.9261C463.037 50.1648 461.633 49.7841 459.861 49.7841C458.656 49.7841 457.639 49.9545 456.81 50.2955C455.98 50.625 455.344 51.0852 454.9 51.6761C454.469 52.267 454.253 52.9375 454.253 53.6875C454.23 54.3125 454.361 54.858 454.645 55.3239C454.94 55.7898 455.344 56.1932 455.855 56.5341C456.366 56.8636 456.957 57.1534 457.628 57.4034C458.298 57.642 459.014 57.8466 459.775 58.017L462.912 58.767C464.435 59.108 465.832 59.5625 467.105 60.1307C468.378 60.6989 469.48 61.3977 470.412 62.2273C471.344 63.0568 472.065 64.0341 472.577 65.1591C473.099 66.2841 473.366 67.5739 473.378 69.0284C473.366 71.1648 472.821 73.017 471.741 74.5852C470.673 76.142 469.128 77.3523 467.105 78.2159C465.094 79.0682 462.668 79.4943 459.827 79.4943C457.008 79.4943 454.554 79.0625 452.463 78.1989C450.383 77.3352 448.758 76.0568 447.588 74.3636C446.429 72.6591 445.821 70.5511 445.764 68.0398H452.906C452.986 69.2102 453.321 70.1875 453.912 70.9716C454.514 71.7443 455.315 72.3295 456.315 72.7273C457.327 73.1136 458.469 73.3068 459.741 73.3068C460.991 73.3068 462.077 73.125 462.997 72.7614C463.929 72.3977 464.65 71.892 465.162 71.2443C465.673 70.5966 465.929 69.8523 465.929 69.0114C465.929 68.2273 465.696 67.5682 465.23 67.0341C464.775 66.5 464.105 66.0455 463.219 65.6705C462.344 65.2955 461.27 64.9545 459.997 64.6477L456.196 63.6932C453.253 62.9773 450.929 61.858 449.224 60.3352C447.52 58.8125 446.673 56.7614 446.685 54.1818C446.673 52.0682 447.236 50.2216 448.372 48.642C449.52 47.0625 451.094 45.8295 453.094 44.9432C455.094 44.0568 457.366 43.6136 459.912 43.6136C462.503 43.6136 464.764 44.0568 466.696 44.9432C468.639 45.8295 470.15 47.0625 471.23 48.642C472.31 50.2216 472.866 52.0511 472.9 54.1307H465.827ZM477.382 44.0909H486.484L496.098 67.5455H496.507L506.121 44.0909H515.223V79H508.064V56.2784H507.774L498.74 78.8295H493.865L484.831 56.1932H484.541V79H477.382V44.0909ZM541.992 60.2841L535.344 60.6932C535.23 60.125 534.986 59.6136 534.611 59.1591C534.236 58.6932 533.742 58.3239 533.128 58.0511C532.526 57.767 531.804 57.625 530.963 57.625C529.838 57.625 528.89 57.8636 528.117 58.3409C527.344 58.8068 526.958 59.4318 526.958 60.2159C526.958 60.8409 527.208 61.3693 527.708 61.8011C528.208 62.233 529.066 62.5795 530.282 62.8409L535.02 63.7955C537.566 64.3182 539.463 65.1591 540.713 66.3182C541.963 67.4773 542.588 69 542.588 70.8864C542.588 72.6023 542.083 74.108 541.071 75.4034C540.071 76.6989 538.696 77.7102 536.946 78.4375C535.208 79.1534 533.202 79.5114 530.929 79.5114C527.463 79.5114 524.702 78.7898 522.645 77.3466C520.6 75.892 519.401 73.9148 519.049 71.4148L526.191 71.0398C526.407 72.0966 526.929 72.9034 527.759 73.4602C528.588 74.0057 529.651 74.2784 530.946 74.2784C532.219 74.2784 533.242 74.0341 534.015 73.5455C534.799 73.0455 535.196 72.4034 535.208 71.6193C535.196 70.9602 534.918 70.4205 534.373 70C533.827 69.5682 532.986 69.2386 531.85 69.0114L527.316 68.108C524.759 67.5966 522.855 66.7102 521.605 65.4489C520.367 64.1875 519.748 62.5795 519.748 60.625C519.748 58.9432 520.202 57.4943 521.111 56.2784C522.032 55.0625 523.321 54.125 524.98 53.4659C526.651 52.8068 528.605 52.4773 530.844 52.4773C534.151 52.4773 536.753 53.1761 538.651 54.5739C540.56 55.9716 541.674 57.875 541.992 60.2841Z" fill="#065D75"/>
<path d="M414.594 104.818H419.388L427.724 125.17H428.03L436.366 104.818H441.16V131H437.401V112.054H437.158L429.437 130.962H426.317L418.596 112.041H418.353V131H414.594V104.818ZM451.591 131.435C450.346 131.435 449.221 131.205 448.216 130.744C447.21 130.276 446.413 129.598 445.825 128.712C445.245 127.825 444.956 126.739 444.956 125.452C444.956 124.344 445.169 123.432 445.595 122.716C446.021 122 446.596 121.433 447.321 121.016C448.045 120.598 448.855 120.283 449.75 120.07C450.645 119.857 451.557 119.695 452.486 119.584C453.662 119.447 454.616 119.337 455.349 119.251C456.082 119.158 456.615 119.009 456.947 118.804C457.28 118.599 457.446 118.267 457.446 117.807V117.717C457.446 116.601 457.13 115.736 456.5 115.122C455.878 114.509 454.949 114.202 453.713 114.202C452.426 114.202 451.412 114.487 450.67 115.058C449.937 115.621 449.43 116.247 449.149 116.938L445.557 116.119C445.983 114.926 446.605 113.963 447.423 113.23C448.25 112.489 449.2 111.952 450.274 111.619C451.348 111.278 452.477 111.108 453.662 111.108C454.446 111.108 455.277 111.202 456.155 111.389C457.041 111.568 457.868 111.901 458.635 112.386C459.41 112.872 460.045 113.567 460.54 114.47C461.034 115.365 461.281 116.528 461.281 117.96V131H457.548V128.315H457.395C457.147 128.81 456.777 129.295 456.282 129.773C455.788 130.25 455.153 130.646 454.378 130.962C453.602 131.277 452.673 131.435 451.591 131.435ZM452.422 128.366C453.478 128.366 454.382 128.158 455.132 127.74C455.89 127.322 456.466 126.777 456.858 126.104C457.258 125.422 457.459 124.693 457.459 123.918V121.386C457.322 121.523 457.058 121.651 456.666 121.77C456.282 121.881 455.843 121.979 455.349 122.064C454.855 122.141 454.373 122.213 453.905 122.281C453.436 122.341 453.044 122.392 452.728 122.435C451.987 122.528 451.309 122.686 450.696 122.908C450.091 123.129 449.605 123.449 449.238 123.866C448.88 124.276 448.701 124.821 448.701 125.503C448.701 126.449 449.051 127.165 449.75 127.651C450.449 128.128 451.339 128.366 452.422 128.366ZM469.475 119.341V131H465.652V111.364H469.321V114.56H469.564C470.016 113.52 470.723 112.685 471.686 112.054C472.658 111.423 473.881 111.108 475.355 111.108C476.693 111.108 477.865 111.389 478.871 111.952C479.877 112.506 480.657 113.332 481.211 114.432C481.764 115.531 482.041 116.891 482.041 118.51V131H478.219V118.97C478.219 117.547 477.848 116.435 477.107 115.634C476.365 114.824 475.347 114.419 474.051 114.419C473.165 114.419 472.377 114.611 471.686 114.994C471.005 115.378 470.463 115.94 470.063 116.682C469.671 117.415 469.475 118.301 469.475 119.341ZM492.162 131.435C490.918 131.435 489.793 131.205 488.787 130.744C487.782 130.276 486.985 129.598 486.397 128.712C485.817 127.825 485.527 126.739 485.527 125.452C485.527 124.344 485.74 123.432 486.167 122.716C486.593 122 487.168 121.433 487.892 121.016C488.617 120.598 489.427 120.283 490.321 120.07C491.216 119.857 492.128 119.695 493.057 119.584C494.233 119.447 495.188 119.337 495.921 119.251C496.654 119.158 497.187 119.009 497.519 118.804C497.851 118.599 498.017 118.267 498.017 117.807V117.717C498.017 116.601 497.702 115.736 497.071 115.122C496.449 114.509 495.52 114.202 494.285 114.202C492.998 114.202 491.983 114.487 491.242 115.058C490.509 115.621 490.002 116.247 489.721 116.938L486.128 116.119C486.554 114.926 487.177 113.963 487.995 113.23C488.821 112.489 489.772 111.952 490.846 111.619C491.919 111.278 493.049 111.108 494.233 111.108C495.017 111.108 495.848 111.202 496.726 111.389C497.613 111.568 498.439 111.901 499.206 112.386C499.982 112.872 500.617 113.567 501.111 114.47C501.606 115.365 501.853 116.528 501.853 117.96V131H498.12V128.315H497.966C497.719 128.81 497.348 129.295 496.854 129.773C496.36 130.25 495.725 130.646 494.949 130.962C494.174 131.277 493.245 131.435 492.162 131.435ZM492.993 128.366C494.05 128.366 494.954 128.158 495.704 127.74C496.462 127.322 497.037 126.777 497.429 126.104C497.83 125.422 498.03 124.693 498.03 123.918V121.386C497.894 121.523 497.63 121.651 497.238 121.77C496.854 121.881 496.415 121.979 495.921 122.064C495.427 122.141 494.945 122.213 494.476 122.281C494.008 122.341 493.615 122.392 493.3 122.435C492.559 122.528 491.881 122.686 491.267 122.908C490.662 123.129 490.177 123.449 489.81 123.866C489.452 124.276 489.273 124.821 489.273 125.503C489.273 126.449 489.623 127.165 490.321 127.651C491.02 128.128 491.911 128.366 492.993 128.366ZM514.457 138.773C512.897 138.773 511.555 138.568 510.43 138.159C509.313 137.75 508.402 137.209 507.694 136.536C506.987 135.862 506.458 135.125 506.109 134.324L509.394 132.969C509.625 133.344 509.931 133.74 510.315 134.158C510.707 134.584 511.235 134.946 511.9 135.244C512.573 135.543 513.438 135.692 514.495 135.692C515.944 135.692 517.142 135.338 518.088 134.631C519.034 133.932 519.507 132.815 519.507 131.281V127.42H519.264C519.034 127.838 518.701 128.303 518.267 128.814C517.84 129.325 517.252 129.768 516.502 130.143C515.752 130.518 514.777 130.706 513.575 130.706C512.024 130.706 510.626 130.344 509.382 129.619C508.146 128.886 507.166 127.808 506.441 126.385C505.725 124.953 505.367 123.193 505.367 121.105C505.367 119.017 505.721 117.227 506.429 115.736C507.144 114.244 508.125 113.102 509.369 112.31C510.613 111.509 512.024 111.108 513.6 111.108C514.819 111.108 515.804 111.312 516.554 111.722C517.304 112.122 517.887 112.591 518.305 113.128C518.731 113.665 519.059 114.138 519.289 114.547H519.571V111.364H523.316V131.435C523.316 133.122 522.924 134.507 522.14 135.589C521.356 136.672 520.295 137.473 518.957 137.993C517.627 138.513 516.127 138.773 514.457 138.773ZM514.419 127.536C515.518 127.536 516.447 127.28 517.206 126.768C517.973 126.249 518.552 125.507 518.944 124.544C519.345 123.572 519.545 122.409 519.545 121.054C519.545 119.733 519.349 118.57 518.957 117.564C518.565 116.558 517.99 115.774 517.231 115.212C516.473 114.641 515.535 114.355 514.419 114.355C513.268 114.355 512.309 114.653 511.542 115.25C510.775 115.838 510.196 116.639 509.804 117.653C509.42 118.668 509.228 119.801 509.228 121.054C509.228 122.341 509.424 123.47 509.816 124.442C510.208 125.413 510.788 126.172 511.555 126.717C512.331 127.263 513.285 127.536 514.419 127.536ZM536.186 131.396C534.251 131.396 532.585 130.983 531.187 130.156C529.798 129.321 528.724 128.149 527.966 126.641C527.216 125.124 526.841 123.347 526.841 121.31C526.841 119.298 527.216 117.526 527.966 115.991C528.724 114.457 529.781 113.26 531.136 112.399C532.5 111.538 534.093 111.108 535.917 111.108C537.025 111.108 538.099 111.291 539.139 111.658C540.179 112.024 541.112 112.599 541.939 113.384C542.765 114.168 543.417 115.186 543.895 116.439C544.372 117.683 544.611 119.196 544.611 120.977V122.332H529.001V119.469H540.865C540.865 118.463 540.66 117.572 540.251 116.797C539.842 116.013 539.267 115.395 538.525 114.943C537.792 114.491 536.932 114.266 535.943 114.266C534.869 114.266 533.932 114.53 533.13 115.058C532.338 115.578 531.724 116.26 531.289 117.104C530.863 117.939 530.65 118.847 530.65 119.827V122.064C530.65 123.376 530.88 124.493 531.341 125.413C531.809 126.334 532.461 127.037 533.297 127.523C534.132 128 535.108 128.239 536.224 128.239C536.949 128.239 537.609 128.136 538.206 127.932C538.802 127.719 539.318 127.403 539.753 126.986C540.187 126.568 540.52 126.053 540.75 125.439L544.368 126.091C544.078 127.156 543.558 128.089 542.808 128.891C542.066 129.683 541.133 130.301 540.008 130.744C538.892 131.179 537.618 131.396 536.186 131.396Z" fill="black"/>
<rect width="177" height="136" transform="translate(786.5)" fill="white"/>
<path d="M850.182 3.54545H853.173L857.733 11.4801H857.92L862.48 3.54545H865.471L859.139 14.1477V21H856.514V14.1477L850.182 3.54545ZM870.631 21.2642C869.404 21.2642 868.333 20.983 867.418 20.4205C866.503 19.858 865.793 19.071 865.288 18.0597C864.782 17.0483 864.529 15.8665 864.529 14.5142C864.529 13.1562 864.782 11.9687 865.288 10.9517C865.793 9.93466 866.503 9.14489 867.418 8.58239C868.333 8.01989 869.404 7.73864 870.631 7.73864C871.859 7.73864 872.93 8.01989 873.844 8.58239C874.759 9.14489 875.469 9.93466 875.975 10.9517C876.481 11.9687 876.734 13.1562 876.734 14.5142C876.734 15.8665 876.481 17.0483 875.975 18.0597C875.469 19.071 874.759 19.858 873.844 20.4205C872.93 20.983 871.859 21.2642 870.631 21.2642ZM870.64 19.125C871.435 19.125 872.094 18.9148 872.617 18.4943C873.14 18.0739 873.526 17.5142 873.776 16.8153C874.032 16.1165 874.16 15.3466 874.16 14.5057C874.16 13.6705 874.032 12.9034 873.776 12.2045C873.526 11.5 873.14 10.9347 872.617 10.5085C872.094 10.0824 871.435 9.86932 870.64 9.86932C869.839 9.86932 869.174 10.0824 868.646 10.5085C868.123 10.9347 867.734 11.5 867.478 12.2045C867.228 12.9034 867.103 13.6705 867.103 14.5057C867.103 15.3466 867.228 16.1165 867.478 16.8153C867.734 17.5142 868.123 18.0739 868.646 18.4943C869.174 18.9148 869.839 19.125 870.64 19.125ZM887.391 15.571V7.90909H889.948V21H887.442V18.733H887.305C887.004 19.4318 886.521 20.0142 885.857 20.4801C885.198 20.9403 884.376 21.1705 883.394 21.1705C882.553 21.1705 881.808 20.9858 881.161 20.6165C880.519 20.2415 880.013 19.6875 879.644 18.9545C879.28 18.2216 879.098 17.3153 879.098 16.2358V7.90909H881.646V15.929C881.646 16.821 881.894 17.5312 882.388 18.0597C882.882 18.5881 883.524 18.8523 884.314 18.8523C884.791 18.8523 885.266 18.733 885.737 18.4943C886.215 18.2557 886.609 17.8949 886.922 17.4119C887.24 16.929 887.396 16.3153 887.391 15.571ZM892.892 21V7.90909H895.355V9.98864H895.491C895.73 9.28409 896.15 8.73011 896.752 8.3267C897.36 7.91761 898.048 7.71307 898.815 7.71307C898.974 7.71307 899.161 7.71875 899.377 7.73011C899.599 7.74148 899.772 7.75568 899.897 7.77273V10.2102C899.795 10.1818 899.613 10.1506 899.352 10.1165C899.09 10.0767 898.829 10.0568 898.568 10.0568C897.965 10.0568 897.428 10.1847 896.957 10.4403C896.491 10.6903 896.122 11.0398 895.849 11.4886C895.576 11.9318 895.44 12.4375 895.44 13.0057V21H892.892Z" fill="black"/>
<path d="M789.789 79V44.0909H813.312V50.1761H797.17V58.4943H812.102V64.5795H797.17V72.9148H813.38V79H789.789ZM824.152 52.8182L828.958 61.9716L833.884 52.8182H841.333L833.748 65.9091L841.538 79H834.123L828.958 69.9489L823.879 79H816.379L824.152 65.9091L816.652 52.8182H824.152ZM844.686 88.8182V52.8182H851.845V57.2159H852.169C852.487 56.5114 852.947 55.7955 853.549 55.0682C854.163 54.3295 854.959 53.7159 855.936 53.2273C856.924 52.7273 858.152 52.4773 859.618 52.4773C861.527 52.4773 863.288 52.9773 864.902 53.9773C866.515 54.9659 867.805 56.4602 868.771 58.4602C869.737 60.4489 870.22 62.9432 870.22 65.9432C870.22 68.8636 869.748 71.3295 868.805 73.3409C867.873 75.3409 866.601 76.858 864.987 77.892C863.385 78.9148 861.589 79.4261 859.601 79.4261C858.192 79.4261 856.993 79.1932 856.004 78.7273C855.027 78.2614 854.226 77.6761 853.601 76.9716C852.976 76.2557 852.498 75.5341 852.169 74.8068H851.947V88.8182H844.686ZM851.794 65.9091C851.794 67.4659 852.01 68.8239 852.442 69.983C852.873 71.142 853.498 72.0455 854.317 72.6932C855.135 73.3295 856.129 73.6477 857.299 73.6477C858.481 73.6477 859.481 73.3239 860.299 72.6761C861.118 72.017 861.737 71.108 862.157 69.9489C862.589 68.7784 862.805 67.4318 862.805 65.9091C862.805 64.3977 862.595 63.0682 862.174 61.9205C861.754 60.7727 861.135 59.875 860.317 59.2273C859.498 58.5795 858.493 58.2557 857.299 58.2557C856.118 58.2557 855.118 58.5682 854.299 59.1932C853.493 59.8182 852.873 60.7045 852.442 61.8523C852.01 63 851.794 64.3523 851.794 65.9091ZM886.033 79.5114C883.339 79.5114 881.021 78.9659 879.078 77.875C877.146 76.7727 875.658 75.2159 874.612 73.2045C873.567 71.1818 873.044 68.7898 873.044 66.0284C873.044 63.3352 873.567 60.9716 874.612 58.9375C875.658 56.9034 877.129 55.3182 879.027 54.1818C880.936 53.0455 883.175 52.4773 885.743 52.4773C887.47 52.4773 889.078 52.7557 890.567 53.3125C892.067 53.858 893.374 54.6818 894.487 55.7841C895.612 56.8864 896.487 58.2727 897.112 59.9432C897.737 61.6023 898.05 63.5455 898.05 65.7727V67.767H875.942V63.267H891.214C891.214 62.2216 890.987 61.2955 890.533 60.4886C890.078 59.6818 889.447 59.0511 888.641 58.5966C887.845 58.1307 886.919 57.8977 885.862 57.8977C884.76 57.8977 883.783 58.1534 882.93 58.6648C882.089 59.1648 881.43 59.8409 880.953 60.6932C880.476 61.5341 880.232 62.4716 880.22 63.5057V67.7841C880.22 69.0795 880.459 70.1989 880.936 71.142C881.425 72.0852 882.112 72.8125 882.999 73.3239C883.885 73.8352 884.936 74.0909 886.152 74.0909C886.959 74.0909 887.697 73.9773 888.368 73.75C889.038 73.5227 889.612 73.1818 890.089 72.7273C890.567 72.2727 890.93 71.7159 891.18 71.0568L897.896 71.5C897.555 73.1136 896.857 74.5227 895.8 75.7273C894.754 76.9205 893.402 77.8523 891.743 78.5227C890.095 79.1818 888.192 79.5114 886.033 79.5114ZM901.828 79V52.8182H908.868V57.3864H909.141C909.618 55.7614 910.419 54.5341 911.544 53.7045C912.669 52.8636 913.965 52.4432 915.431 52.4432C915.794 52.4432 916.186 52.4659 916.607 52.5114C917.027 52.5568 917.397 52.6193 917.715 52.6989V59.142C917.374 59.0398 916.902 58.9489 916.3 58.8693C915.698 58.7898 915.147 58.75 914.647 58.75C913.578 58.75 912.624 58.983 911.783 59.4489C910.953 59.9034 910.294 60.5398 909.806 61.358C909.328 62.1761 909.09 63.1193 909.09 64.1875V79H901.828ZM935.748 52.8182V58.2727H919.981V52.8182H935.748ZM923.56 46.5455H930.821V70.9545C930.821 71.625 930.924 72.1477 931.128 72.5227C931.333 72.8864 931.617 73.142 931.981 73.2898C932.356 73.4375 932.787 73.5114 933.276 73.5114C933.617 73.5114 933.958 73.483 934.299 73.4261C934.64 73.358 934.901 73.3068 935.083 73.2727L936.225 78.6761C935.861 78.7898 935.35 78.9205 934.691 79.0682C934.032 79.2273 933.231 79.3239 932.287 79.358C930.537 79.4261 929.003 79.1932 927.685 78.6591C926.378 78.125 925.361 77.2955 924.634 76.1705C923.907 75.0455 923.549 73.625 923.56 71.9091V46.5455ZM960.974 60.2841L954.326 60.6932C954.212 60.125 953.968 59.6136 953.593 59.1591C953.218 58.6932 952.724 58.3239 952.11 58.0511C951.508 57.767 950.786 57.625 949.945 57.625C948.82 57.625 947.871 57.8636 947.099 58.3409C946.326 58.8068 945.94 59.4318 945.94 60.2159C945.94 60.8409 946.19 61.3693 946.69 61.8011C947.19 62.233 948.048 62.5795 949.263 62.8409L954.002 63.7955C956.548 64.3182 958.445 65.1591 959.695 66.3182C960.945 67.4773 961.57 69 961.57 70.8864C961.57 72.6023 961.065 74.108 960.053 75.4034C959.053 76.6989 957.678 77.7102 955.928 78.4375C954.19 79.1534 952.184 79.5114 949.911 79.5114C946.445 79.5114 943.684 78.7898 941.627 77.3466C939.582 75.892 938.383 73.9148 938.031 71.4148L945.173 71.0398C945.388 72.0966 945.911 72.9034 946.741 73.4602C947.57 74.0057 948.633 74.2784 949.928 74.2784C951.201 74.2784 952.224 74.0341 952.996 73.5455C953.781 73.0455 954.178 72.4034 954.19 71.6193C954.178 70.9602 953.9 70.4205 953.354 70C952.809 69.5682 951.968 69.2386 950.832 69.0114L946.298 68.108C943.741 67.5966 941.837 66.7102 940.587 65.4489C939.349 64.1875 938.729 62.5795 938.729 60.625C938.729 58.9432 939.184 57.4943 940.093 56.2784C941.013 55.0625 942.303 54.125 943.962 53.4659C945.633 52.8068 947.587 52.4773 949.826 52.4773C953.133 52.4773 955.735 53.1761 957.633 54.5739C959.542 55.9716 960.656 57.875 960.974 60.2841Z" fill="#065D75"/>
<path d="M811.025 131V104.818H827.439V108.219H814.975V116.196H826.583V119.584H814.975V127.599H827.593V131H811.025ZM834.706 111.364L839.04 119.009L843.412 111.364H847.593L841.469 121.182L847.644 131H843.463L839.04 123.662L834.63 131H830.436L836.547 121.182L830.513 111.364H834.706ZM858.487 131.396C856.552 131.396 854.886 130.983 853.488 130.156C852.099 129.321 851.025 128.149 850.267 126.641C849.517 125.124 849.142 123.347 849.142 121.31C849.142 119.298 849.517 117.526 850.267 115.991C851.025 114.457 852.082 113.26 853.437 112.399C854.801 111.538 856.395 111.108 858.219 111.108C859.327 111.108 860.4 111.291 861.44 111.658C862.48 112.024 863.413 112.599 864.24 113.384C865.067 114.168 865.719 115.186 866.196 116.439C866.673 117.683 866.912 119.196 866.912 120.977V122.332H851.302V119.469H863.166C863.166 118.463 862.961 117.572 862.552 116.797C862.143 116.013 861.568 115.395 860.827 114.943C860.094 114.491 859.233 114.266 858.244 114.266C857.17 114.266 856.233 114.53 855.432 115.058C854.639 115.578 854.025 116.26 853.591 117.104C853.165 117.939 852.952 118.847 852.952 119.827V122.064C852.952 123.376 853.182 124.493 853.642 125.413C854.111 126.334 854.763 127.037 855.598 127.523C856.433 128 857.409 128.239 858.525 128.239C859.25 128.239 859.91 128.136 860.507 127.932C861.104 127.719 861.619 127.403 862.054 126.986C862.488 126.568 862.821 126.053 863.051 125.439L866.669 126.091C866.379 127.156 865.859 128.089 865.109 128.891C864.368 129.683 863.434 130.301 862.309 130.744C861.193 131.179 859.919 131.396 858.487 131.396ZM878.704 131.396C876.804 131.396 875.167 130.966 873.795 130.105C872.431 129.236 871.383 128.038 870.65 126.513C869.917 124.987 869.551 123.24 869.551 121.271C869.551 119.277 869.926 117.517 870.676 115.991C871.426 114.457 872.483 113.26 873.846 112.399C875.21 111.538 876.816 111.108 878.666 111.108C880.157 111.108 881.487 111.385 882.654 111.939C883.822 112.484 884.764 113.251 885.48 114.24C886.204 115.229 886.635 116.384 886.771 117.705H883.051C882.846 116.784 882.377 115.991 881.645 115.327C880.92 114.662 879.949 114.33 878.73 114.33C877.664 114.33 876.731 114.611 875.93 115.173C875.137 115.727 874.52 116.52 874.076 117.551C873.633 118.574 873.412 119.784 873.412 121.182C873.412 122.614 873.629 123.849 874.064 124.889C874.498 125.929 875.112 126.734 875.904 127.305C876.706 127.876 877.647 128.162 878.73 128.162C879.454 128.162 880.11 128.03 880.699 127.766C881.295 127.493 881.794 127.105 882.194 126.602C882.603 126.099 882.889 125.494 883.051 124.787H886.771C886.635 126.057 886.221 127.19 885.531 128.188C884.841 129.185 883.916 129.969 882.757 130.54C881.606 131.111 880.255 131.396 878.704 131.396ZM902.578 122.857V111.364H906.413V131H902.654V127.599H902.45C901.998 128.648 901.274 129.521 900.276 130.22C899.288 130.911 898.056 131.256 896.582 131.256C895.32 131.256 894.204 130.979 893.232 130.425C892.269 129.862 891.511 129.031 890.957 127.932C890.411 126.832 890.139 125.473 890.139 123.854V111.364H893.961V123.393C893.961 124.732 894.332 125.797 895.073 126.589C895.815 127.382 896.778 127.778 897.963 127.778C898.678 127.778 899.39 127.599 900.097 127.241C900.813 126.884 901.406 126.342 901.874 125.618C902.352 124.893 902.586 123.973 902.578 122.857ZM919.995 111.364V114.432H909.269V111.364H919.995ZM912.146 106.659H915.968V125.234C915.968 125.976 916.079 126.534 916.3 126.909C916.522 127.276 916.808 127.527 917.157 127.663C917.515 127.791 917.903 127.855 918.32 127.855C918.627 127.855 918.896 127.834 919.126 127.791C919.356 127.749 919.535 127.714 919.663 127.689L920.353 130.847C920.131 130.932 919.816 131.017 919.407 131.102C918.998 131.196 918.486 131.247 917.873 131.256C916.867 131.273 915.93 131.094 915.06 130.719C914.191 130.344 913.488 129.764 912.951 128.98C912.414 128.196 912.146 127.212 912.146 126.027V106.659ZM931.755 131.396C929.821 131.396 928.155 130.983 926.757 130.156C925.368 129.321 924.294 128.149 923.535 126.641C922.785 125.124 922.41 123.347 922.41 121.31C922.41 119.298 922.785 117.526 923.535 115.991C924.294 114.457 925.351 113.26 926.706 112.399C928.069 111.538 929.663 111.108 931.487 111.108C932.595 111.108 933.669 111.291 934.709 111.658C935.748 112.024 936.682 112.599 937.508 113.384C938.335 114.168 938.987 115.186 939.464 116.439C939.942 117.683 940.18 119.196 940.18 120.977V122.332H924.571V119.469H936.434C936.434 118.463 936.23 117.572 935.821 116.797C935.412 116.013 934.836 115.395 934.095 114.943C933.362 114.491 932.501 114.266 931.513 114.266C930.439 114.266 929.501 114.53 928.7 115.058C927.907 115.578 927.294 116.26 926.859 117.104C926.433 117.939 926.22 118.847 926.22 119.827V122.064C926.22 123.376 926.45 124.493 926.91 125.413C927.379 126.334 928.031 127.037 928.866 127.523C929.702 128 930.677 128.239 931.794 128.239C932.518 128.239 933.179 128.136 933.775 127.932C934.372 127.719 934.888 127.403 935.322 126.986C935.757 126.568 936.089 126.053 936.319 125.439L939.937 126.091C939.648 127.156 939.128 128.089 938.378 128.891C937.636 129.683 936.703 130.301 935.578 130.744C934.461 131.179 933.187 131.396 931.755 131.396Z" fill="black"/>
<path d="M216.952 120.824C246.797 132.086 279.76 131.866 309.451 120.204C339.143 108.543 363.446 86.2719 377.649 57.7094L357.588 47.7334C345.857 71.3243 325.784 89.7187 301.261 99.3502C276.738 108.982 249.512 109.164 224.862 99.8621L216.952 120.824Z" fill="#FAA500"/>
<path d="M756.309 122.157C742.782 93.2676 719.009 70.4307 689.601 58.0736C660.193 45.7165 627.243 44.7196 597.142 55.2763L604.556 76.4186C629.418 67.6995 656.632 68.5228 680.922 78.729C705.211 88.9352 724.846 107.797 736.018 131.658L756.309 122.157Z" fill="#FAA500"/>
</svg>
