<svg width="116" height="20" viewBox="0 0 116 20" fill="none" xmlns="http://www.w3.org/2000/svg">
<path d="M10.392 0.245289L13.2457 6.04671L19.625 6.97723C19.706 6.98927 19.782 7.02367 19.8445 7.07657C19.9069 7.12946 19.9534 7.19874 19.9786 7.27662C20.0038 7.35449 20.0068 7.43785 19.9872 7.51732C19.9676 7.5968 19.9262 7.66922 19.8677 7.72643L15.2525 12.2412L16.3421 18.6175C16.3562 18.6981 16.3473 18.781 16.3167 18.8568C16.286 18.9327 16.2347 18.9984 16.1685 19.0466C16.1024 19.0947 16.0241 19.1234 15.9425 19.1293C15.8609 19.1353 15.7793 19.1182 15.7068 19.0801L10.0007 16.0703L4.29446 19.081C4.22211 19.1192 4.14048 19.1364 4.05885 19.1306C3.97722 19.1247 3.89887 19.0961 3.83269 19.048C3.76652 18.9998 3.71518 18.9341 3.68451 18.8582C3.65383 18.7823 3.64506 18.6994 3.65918 18.6188L4.74885 12.2412L0.132324 7.72643C0.0737885 7.66922 0.0323896 7.5968 0.0127894 7.51732C-0.00681083 7.43785 -0.00383386 7.35449 0.0213851 7.27662C0.046604 7.19874 0.0930633 7.12946 0.155531 7.07657C0.217998 7.02367 0.293992 6.98927 0.374956 6.97723L6.75426 6.04671L9.60931 0.245289C9.64492 0.171772 9.70051 0.109772 9.76972 0.0663905C9.83893 0.0230087 9.91897 0 10.0007 0C10.0823 0 10.1624 0.0230087 10.2316 0.0663905C10.3008 0.109772 10.3564 0.171772 10.392 0.245289Z" fill="#FAA500"/>
<path d="M34.392 0.245289L37.2457 6.04671L43.625 6.97723C43.706 6.98927 43.782 7.02367 43.8445 7.07657C43.9069 7.12946 43.9534 7.19874 43.9786 7.27662C44.0038 7.35449 44.0068 7.43785 43.9872 7.51732C43.9676 7.5968 43.9262 7.66922 43.8677 7.72643L39.2525 12.2412L40.3421 18.6175C40.3562 18.6981 40.3473 18.781 40.3167 18.8568C40.286 18.9327 40.2347 18.9984 40.1685 19.0466C40.1024 19.0947 40.0241 19.1234 39.9425 19.1293C39.8609 19.1353 39.7793 19.1182 39.7068 19.0801L34.0007 16.0703L28.2945 19.081C28.2221 19.1192 28.1405 19.1364 28.0589 19.1306C27.9772 19.1247 27.8989 19.0961 27.8327 19.048C27.7665 18.9998 27.7152 18.9341 27.6845 18.8582C27.6538 18.7823 27.6451 18.6994 27.6592 18.6188L28.7488 12.2412L24.1323 7.72643C24.0738 7.66922 24.0324 7.5968 24.0128 7.51732C23.9932 7.43785 23.9962 7.35449 24.0214 7.27662C24.0466 7.19874 24.0931 7.12946 24.1555 7.07657C24.218 7.02367 24.294 6.98927 24.375 6.97723L30.7543 6.04671L33.6093 0.245289C33.6449 0.171772 33.7005 0.109772 33.7697 0.0663905C33.8389 0.0230087 33.919 0 34.0007 0C34.0823 0 34.1624 0.0230087 34.2316 0.0663905C34.3008 0.109772 34.3564 0.171772 34.392 0.245289Z" fill="#FAA500"/>
<path d="M58.392 0.245289L61.2457 6.04671L67.625 6.97723C67.706 6.98927 67.782 7.02367 67.8445 7.07657C67.9069 7.12946 67.9534 7.19874 67.9786 7.27662C68.0038 7.35449 68.0068 7.43785 67.9872 7.51732C67.9676 7.5968 67.9262 7.66922 67.8677 7.72643L63.2525 12.2412L64.3421 18.6175C64.3562 18.6981 64.3473 18.781 64.3167 18.8568C64.286 18.9327 64.2347 18.9984 64.1685 19.0466C64.1024 19.0947 64.0241 19.1234 63.9425 19.1293C63.8609 19.1353 63.7793 19.1182 63.7068 19.0801L58.0007 16.0703L52.2945 19.081C52.2221 19.1192 52.1405 19.1364 52.0589 19.1306C51.9772 19.1247 51.8989 19.0961 51.8327 19.048C51.7665 18.9998 51.7152 18.9341 51.6845 18.8582C51.6538 18.7823 51.6451 18.6994 51.6592 18.6188L52.7488 12.2412L48.1323 7.72643C48.0738 7.66922 48.0324 7.5968 48.0128 7.51732C47.9932 7.43785 47.9962 7.35449 48.0214 7.27662C48.0466 7.19874 48.0931 7.12946 48.1555 7.07657C48.218 7.02367 48.294 6.98927 48.375 6.97723L54.7543 6.04671L57.6093 0.245289C57.6449 0.171772 57.7005 0.109772 57.7697 0.0663905C57.8389 0.0230087 57.919 0 58.0007 0C58.0823 0 58.1624 0.0230087 58.2316 0.0663905C58.3008 0.109772 58.3564 0.171772 58.392 0.245289Z" fill="#FAA500"/>
<path d="M82.392 0.245289L85.2457 6.04671L91.625 6.97723C91.706 6.98927 91.782 7.02367 91.8445 7.07657C91.9069 7.12946 91.9534 7.19874 91.9786 7.27662C92.0038 7.35449 92.0068 7.43785 91.9872 7.51732C91.9676 7.5968 91.9262 7.66922 91.8677 7.72643L87.2525 12.2412L88.3421 18.6175C88.3562 18.6981 88.3473 18.781 88.3167 18.8568C88.286 18.9327 88.2347 18.9984 88.1685 19.0466C88.1024 19.0947 88.0241 19.1234 87.9425 19.1293C87.8609 19.1353 87.7793 19.1182 87.7068 19.0801L82.0007 16.0703L76.2945 19.081C76.2221 19.1192 76.1405 19.1364 76.0589 19.1306C75.9772 19.1247 75.8989 19.0961 75.8327 19.048C75.7665 18.9998 75.7152 18.9341 75.6845 18.8582C75.6538 18.7823 75.6451 18.6994 75.6592 18.6188L76.7488 12.2412L72.1323 7.72643C72.0738 7.66922 72.0324 7.5968 72.0128 7.51732C71.9932 7.43785 71.9962 7.35449 72.0214 7.27662C72.0466 7.19874 72.0931 7.12946 72.1555 7.07657C72.218 7.02367 72.294 6.98927 72.375 6.97723L78.7543 6.04671L81.6093 0.245289C81.6449 0.171772 81.7005 0.109772 81.7697 0.0663905C81.8389 0.0230087 81.919 0 82.0007 0C82.0823 0 82.1624 0.0230087 82.2316 0.0663905C82.3008 0.109772 82.3564 0.171772 82.392 0.245289Z" fill="#FAA500"/>
<path d="M106.392 0.245289L109.246 6.04671L115.625 6.97723C115.706 6.98927 115.782 7.02367 115.844 7.07657C115.907 7.12946 115.953 7.19874 115.979 7.27662C116.004 7.35449 116.007 7.43785 115.987 7.51732C115.968 7.5968 115.926 7.66922 115.868 7.72643L111.252 12.2412L112.342 18.6175C112.356 18.6981 112.347 18.781 112.317 18.8568C112.286 18.9327 112.235 18.9984 112.169 19.0466C112.102 19.0947 112.024 19.1234 111.942 19.1293C111.861 19.1353 111.779 19.1182 111.707 19.0801L106.001 16.0703L100.294 19.081C100.222 19.1192 100.14 19.1364 100.059 19.1306C99.9772 19.1247 99.8989 19.0961 99.8327 19.048C99.7665 18.9998 99.7152 18.9341 99.6845 18.8582C99.6538 18.7823 99.6451 18.6994 99.6592 18.6188L100.749 12.2412L96.1323 7.72643C96.0738 7.66922 96.0324 7.5968 96.0128 7.51732C95.9932 7.43785 95.9962 7.35449 96.0214 7.27662C96.0466 7.19874 96.0931 7.12946 96.1555 7.07657C96.218 7.02367 96.294 6.98927 96.375 6.97723L102.754 6.04671L105.609 0.245289C105.645 0.171772 105.701 0.109772 105.77 0.0663905C105.839 0.0230087 105.919 0 106.001 0C106.082 0 106.162 0.0230087 106.232 0.0663905C106.301 0.109772 106.356 0.171772 106.392 0.245289Z" fill="#FAA500"/>
</svg>
