<svg width="48" height="48" viewBox="0 0 48 48" fill="none" xmlns="http://www.w3.org/2000/svg">
<rect x="0.5" y="0.5" width="47" height="47" rx="23.5" stroke="#000D14" stroke-opacity="0.156863"/>
<path d="M24.0027 22.8457L19.6929 27.3287C19.5745 27.4521 19.4162 27.52 19.2474 27.52C19.0786 27.52 18.9204 27.4521 18.8018 27.3287L18.4244 26.9358C18.3056 26.8126 18.2402 26.6479 18.2402 26.4723C18.2402 26.2967 18.3056 26.1322 18.4244 26.0088L23.5555 20.6712C23.6745 20.5473 23.8334 20.4795 24.0024 20.48C24.1721 20.4795 24.3308 20.5472 24.4499 20.6712L29.5761 26.0039C29.6949 26.1272 29.7602 26.2918 29.7602 26.4674C29.7602 26.643 29.6949 26.8075 29.5761 26.931L29.1987 27.3237C28.953 27.5792 28.5531 27.5792 28.3075 27.3237L24.0027 22.8457Z" fill="#000506" fill-opacity="0.890196"/>
</svg>
