<svg width="130" height="258" viewBox="0 0 130 258" fill="none" xmlns="http://www.w3.org/2000/svg">
<path d="M0.5 226L0.5 182C0.5 177.582 4.08172 174 8.5 174H46.5C50.9183 174 54.5 177.582 54.5 182V226H0.5Z" fill="#FAA500"/>
<path d="M22.6925 241.129H21.1413C21.0817 240.798 20.9706 240.506 20.8082 240.254C20.6458 240.002 20.447 239.789 20.2116 239.613C19.9763 239.437 19.7128 239.305 19.4212 239.215C19.1328 239.126 18.8262 239.081 18.5014 239.081C17.9148 239.081 17.3894 239.228 16.9254 239.523C16.4647 239.818 16.1001 240.251 15.8317 240.821C15.5665 241.391 15.4339 242.087 15.4339 242.909C15.4339 243.738 15.5665 244.437 15.8317 245.007C16.1001 245.577 16.4664 246.008 16.9304 246.3C17.3944 246.591 17.9164 246.737 18.4964 246.737C18.8179 246.737 19.1229 246.694 19.4112 246.608C19.7029 246.518 19.9664 246.388 20.2017 246.215C20.437 246.043 20.6359 245.832 20.7983 245.584C20.964 245.332 21.0784 245.044 21.1413 244.719L22.6925 244.724C22.6096 245.224 22.4489 245.685 22.2102 246.106C21.9749 246.523 21.6716 246.885 21.3004 247.19C20.9325 247.491 20.5116 247.725 20.0376 247.891C19.5637 248.056 19.0466 248.139 18.4865 248.139C17.6049 248.139 16.8194 247.93 16.13 247.513C15.4406 247.092 14.897 246.49 14.4993 245.708C14.1049 244.926 13.9077 243.993 13.9077 242.909C13.9077 241.822 14.1065 240.889 14.5043 240.11C14.902 239.328 15.4455 238.728 16.1349 238.31C16.8243 237.889 17.6082 237.679 18.4865 237.679C19.0268 237.679 19.5305 237.757 19.9979 237.913C20.4685 238.065 20.8911 238.29 21.2656 238.589C21.6402 238.884 21.95 239.245 22.1953 239.673C22.4406 240.097 22.6063 240.582 22.6925 241.129ZM25.5847 240.364L27.2701 243.337L28.9703 240.364H30.5961L28.2147 244.182L30.6159 248H28.9902L27.2701 245.146L25.5549 248H23.9242L26.3006 244.182L23.954 240.364H25.5847ZM41.0861 242.909C41.0861 243.996 40.8873 244.931 40.4895 245.713C40.0918 246.492 39.5466 247.092 38.8539 247.513C38.1645 247.93 37.3806 248.139 36.5023 248.139C35.6207 248.139 34.8335 247.93 34.1408 247.513C33.4514 247.092 32.9078 246.49 32.5101 245.708C32.1124 244.926 31.9135 243.993 31.9135 242.909C31.9135 241.822 32.1124 240.889 32.5101 240.11C32.9078 239.328 33.4514 238.728 34.1408 238.31C34.8335 237.889 35.6207 237.679 36.5023 237.679C37.3806 237.679 38.1645 237.889 38.8539 238.31C39.5466 238.728 40.0918 239.328 40.4895 240.11C40.8873 240.889 41.0861 241.822 41.0861 242.909ZM39.5648 242.909C39.5648 242.08 39.4306 241.383 39.1621 240.816C38.897 240.246 38.5324 239.815 38.0684 239.523C37.6077 239.228 37.0856 239.081 36.5023 239.081C35.9157 239.081 35.392 239.228 34.9313 239.523C34.4706 239.815 34.106 240.246 33.8375 240.816C33.5724 241.383 33.4398 242.08 33.4398 242.909C33.4398 243.738 33.5724 244.437 33.8375 245.007C34.106 245.574 34.4706 246.005 34.9313 246.3C35.392 246.591 35.9157 246.737 36.5023 246.737C37.0856 246.737 37.6077 246.591 38.0684 246.3C38.5324 246.005 38.897 245.574 39.1621 245.007C39.4306 244.437 39.5648 243.738 39.5648 242.909Z" fill="black"/>
<path d="M75.5 226L75.5 32C75.5 27.5817 79.0817 24 83.5 24H121.5C125.918 24 129.5 27.5817 129.5 32V226H75.5Z" fill="#2750E2"/>
<path d="M86.5424 248V237.818H90.2711C90.9937 237.818 91.5919 237.937 92.0659 238.176C92.5398 238.411 92.8945 238.731 93.1298 239.136C93.3651 239.537 93.4828 239.989 93.4828 240.493C93.4828 240.917 93.4049 241.275 93.2491 241.567C93.0933 241.855 92.8845 242.087 92.6227 242.263C92.3642 242.435 92.0791 242.561 91.7676 242.641V242.74C92.1056 242.757 92.4354 242.866 92.7569 243.068C93.0817 243.267 93.3502 243.55 93.5623 243.918C93.7744 244.286 93.8805 244.734 93.8805 245.261C93.8805 245.781 93.7579 246.248 93.5126 246.663C93.2707 247.074 92.8961 247.4 92.389 247.642C91.8819 247.881 91.234 248 90.4451 248H86.5424ZM88.0787 246.683H90.296C91.0318 246.683 91.5588 246.54 91.877 246.255C92.1951 245.97 92.3542 245.614 92.3542 245.186C92.3542 244.865 92.273 244.57 92.1106 244.301C91.9482 244.033 91.7162 243.819 91.4146 243.66C91.1163 243.501 90.7617 243.421 90.3507 243.421H88.0787V246.683ZM88.0787 242.223H90.1369C90.4816 242.223 90.7915 242.157 91.0666 242.024C91.345 241.892 91.5654 241.706 91.7278 241.467C91.8935 241.225 91.9764 240.94 91.9764 240.612C91.9764 240.191 91.8289 239.838 91.5339 239.553C91.2389 239.268 90.7865 239.126 90.1767 239.126H88.0787V242.223ZM95.5833 248V240.364H97.0698V248H95.5833ZM96.334 239.185C96.0755 239.185 95.8534 239.099 95.6678 238.927C95.4855 238.751 95.3944 238.542 95.3944 238.3C95.3944 238.055 95.4855 237.846 95.6678 237.674C95.8534 237.498 96.0755 237.411 96.334 237.411C96.5925 237.411 96.8129 237.498 96.9952 237.674C97.1808 237.846 97.2736 238.055 97.2736 238.3C97.2736 238.542 97.1808 238.751 96.9952 238.927C96.8129 239.099 96.5925 239.185 96.334 239.185ZM102.271 251.023C101.665 251.023 101.143 250.943 100.705 250.784C100.271 250.625 99.9164 250.415 99.6413 250.153C99.3662 249.891 99.1607 249.604 99.0249 249.293L100.303 248.766C100.392 248.911 100.511 249.066 100.661 249.228C100.813 249.394 101.018 249.535 101.277 249.651C101.539 249.767 101.875 249.825 102.286 249.825C102.85 249.825 103.315 249.687 103.683 249.412C104.051 249.14 104.235 248.706 104.235 248.109V246.608H104.141C104.051 246.77 103.922 246.951 103.753 247.15C103.587 247.349 103.358 247.521 103.067 247.667C102.775 247.813 102.396 247.886 101.928 247.886C101.325 247.886 100.781 247.745 100.298 247.463C99.817 247.178 99.4358 246.759 99.1541 246.205C98.8757 245.648 98.7365 244.964 98.7365 244.152C98.7365 243.34 98.8741 242.644 99.1491 242.064C99.4276 241.484 99.8087 241.04 100.293 240.732C100.777 240.42 101.325 240.264 101.938 240.264C102.412 240.264 102.795 240.344 103.087 240.503C103.378 240.659 103.605 240.841 103.768 241.05C103.933 241.259 104.061 241.442 104.151 241.602H104.26V240.364H105.717V248.169C105.717 248.825 105.564 249.364 105.259 249.785C104.954 250.206 104.542 250.517 104.021 250.719C103.504 250.922 102.921 251.023 102.271 251.023ZM102.256 246.653C102.684 246.653 103.045 246.553 103.34 246.354C103.638 246.152 103.864 245.864 104.016 245.489C104.172 245.112 104.25 244.659 104.25 244.132C104.25 243.618 104.174 243.166 104.021 242.775C103.869 242.384 103.645 242.079 103.35 241.86C103.055 241.638 102.691 241.527 102.256 241.527C101.809 241.527 101.436 241.643 101.138 241.875C100.839 242.104 100.614 242.415 100.462 242.81C100.313 243.204 100.238 243.645 100.238 244.132C100.238 244.633 100.314 245.072 100.467 245.45C100.619 245.827 100.844 246.122 101.143 246.335C101.444 246.547 101.816 246.653 102.256 246.653ZM111.182 246.011V244.768L115.581 237.818H116.561V239.648H115.939L112.792 244.629V244.709H118.823V246.011H111.182ZM116.009 248V245.634L116.019 245.067V237.818H117.476V248H116.009Z" fill="black"/>
<path d="M24.3383 153.818L26.9633 158.054H27.0429L29.6679 153.818H31.1196L27.9179 158.909L31.1196 164H29.6679L27.0429 159.844H26.9633L24.3383 164H22.8866L26.1679 158.909L22.8866 153.818H24.3383Z" fill="black"/>
<path d="M94.5134 3.81818V14H93.2805V5.1108H93.2208L90.735 6.76136V5.50852L93.2805 3.81818H94.5134ZM100.763 14.1392C100.014 14.1392 99.3756 13.9354 98.8486 13.5277C98.3216 13.1167 97.9189 12.5218 97.6405 11.7429C97.3621 10.9607 97.2229 10.0161 97.2229 8.90909C97.2229 7.80871 97.3621 6.86908 97.6405 6.0902C97.9223 5.308 98.3266 4.71141 98.8536 4.30043C99.3839 3.88613 100.02 3.67898 100.763 3.67898C101.505 3.67898 102.14 3.88613 102.667 4.30043C103.197 4.71141 103.601 5.308 103.88 6.0902C104.162 6.86908 104.302 7.80871 104.302 8.90909C104.302 10.0161 104.163 10.9607 103.885 11.7429C103.606 12.5218 103.204 13.1167 102.677 13.5277C102.15 13.9354 101.512 14.1392 100.763 14.1392ZM100.763 13.0455C101.505 13.0455 102.082 12.6875 102.493 11.9716C102.904 11.2557 103.109 10.2348 103.109 8.90909C103.109 8.02746 103.015 7.27675 102.826 6.65696C102.64 6.03717 102.372 5.56487 102.021 5.24006C101.672 4.91525 101.253 4.75284 100.763 4.75284C100.027 4.75284 99.4519 5.11577 99.0376 5.84162C98.6233 6.56416 98.4161 7.58665 98.4161 8.90909C98.4161 9.79072 98.5089 10.5398 98.6945 11.1562C98.8801 11.7727 99.1469 12.2417 99.4949 12.5632C99.8463 12.8847 100.269 13.0455 100.763 13.0455ZM106.967 3.81818L109.592 8.05398H109.672L112.297 3.81818H113.748L110.547 8.90909L113.748 14H112.297L109.672 9.84375H109.592L106.967 14H105.516L108.797 8.90909L105.516 3.81818H106.967Z" fill="black"/>
</svg>
