<svg width="300" height="300" viewBox="0 0 300 300" fill="none" xmlns="http://www.w3.org/2000/svg">
<path d="M27 290.514H27.156H27.636H29.508L36.762 290.4L63.822 290.31L63.63 290.508C63.63 282.966 63.63 274.404 63.582 265.002V264.762H63.822L106.098 264.714L105.804 265.002C105.804 257.466 105.804 249.54 105.804 241.386V241.08H153.414L153.102 241.392C153.102 232.134 153.102 223.08 153.102 214.302V213.996H153.408L201.048 214.032L200.778 214.302C200.808 197.334 200.826 182.37 200.85 170.016V169.8H201.048L230.976 169.896L238.962 169.944L241.02 169.974H241.542C241.602 169.966 241.662 169.966 241.722 169.974H241.542H241.02H238.962L230.976 170.028L201.048 170.124L201.252 169.92C201.252 182.274 201.294 197.238 201.324 214.206V214.476H201.048L153.408 214.512L153.714 214.206C153.714 222.984 153.714 232.038 153.714 241.296V241.608H145.476H106.098L106.398 241.308C106.398 249.462 106.398 257.388 106.398 264.924V265.212H106.11L63.834 265.17L64.08 264.924C64.08 274.326 64.044 282.888 64.032 290.43V290.628H63.834L36.774 290.538L29.52 290.484H27.648H27.168C27.1144 290.505 27.0574 290.515 27 290.514Z" fill="#263238"/>
<path d="M38.8012 260.556C39.5033 260.887 40.1311 261.358 40.6466 261.938C41.1622 262.519 41.555 263.198 41.8012 263.934C42.2834 265.407 42.419 266.972 42.1972 268.506C41.8612 271.476 40.1752 274.47 38.3632 276.84C35.8612 274.662 35.2912 270.84 35.1172 268.908C34.8472 265.83 36.2332 260.1 38.8252 260.556" fill="#FAA500"/>
<path d="M41.2443 281.736C41.0742 280.888 41.1312 280.011 41.4094 279.192C41.6875 278.373 42.177 277.643 42.8283 277.074C43.4891 276.518 44.2537 276.1 45.0777 275.842C45.9017 275.585 46.7687 275.494 47.6283 275.574C48.0272 275.569 48.4224 275.651 48.7862 275.815C49.15 275.979 49.4736 276.22 49.7343 276.522C49.9285 276.841 50.0343 277.206 50.0406 277.579C50.047 277.952 49.9536 278.321 49.7703 278.646C49.3909 279.29 48.8515 279.826 48.2043 280.2C46.0383 281.556 43.6923 282.474 41.2443 281.736Z" fill="#FAA500"/>
<path d="M38.041 290.838C38.0507 290.635 38.0808 290.434 38.131 290.238C38.209 289.812 38.311 289.26 38.431 288.594C38.7097 286.758 39.2831 284.979 40.129 283.326C41.0113 281.677 42.3158 280.291 43.909 279.312C44.3943 279.025 44.9119 278.798 45.451 278.634C45.5963 278.586 45.7447 278.548 45.895 278.52C45.9466 278.511 45.9994 278.511 46.051 278.52C45.3333 278.767 44.6419 279.084 43.987 279.468C42.4485 280.468 41.1875 281.84 40.321 283.458C39.4897 285.076 38.9033 286.809 38.581 288.6C38.431 289.29 38.305 289.848 38.209 290.232C38.1722 290.439 38.1159 290.642 38.041 290.838Z" fill="#263238"/>
<path d="M38.1293 265.014C38.1527 265.1 38.1648 265.189 38.1653 265.278C38.1653 265.476 38.1653 265.734 38.2073 266.046C38.2433 266.712 38.2853 267.672 38.3213 268.86C38.3993 271.26 38.4593 274.524 38.4413 278.154C38.4233 281.784 38.3393 285.072 38.2433 287.448C38.1893 288.648 38.1473 289.596 38.1053 290.262C38.1053 290.574 38.0633 290.826 38.0513 291.024C38.0499 291.115 38.0398 291.205 38.0213 291.294C38.0085 291.204 38.0085 291.113 38.0213 291.024C38.0213 290.826 38.0213 290.574 38.0213 290.256C38.0213 289.566 38.0573 288.612 38.0873 287.442C38.1473 285.042 38.2133 281.784 38.2253 278.154C38.2373 274.524 38.2253 271.242 38.1653 268.866C38.1653 267.696 38.1653 266.742 38.1233 266.046C38.1233 265.734 38.1233 265.482 38.1233 265.284C38.12 265.194 38.122 265.104 38.1293 265.014Z" fill="#263238"/>
<path d="M36.9182 283.542C36.6163 281.745 35.8906 280.046 34.8013 278.585C33.712 277.124 32.2904 275.944 30.6542 275.142C29.8202 274.746 28.7282 274.482 28.0442 275.106C27.3602 275.73 27.5102 276.84 27.8462 277.704C28.5773 279.494 29.8222 281.028 31.4239 282.112C33.0256 283.196 34.9123 283.781 36.8462 283.794" fill="#FAA500"/>
<path d="M31.057 277.95C31.2416 278.012 31.4203 278.09 31.591 278.184C31.7967 278.279 31.997 278.385 32.191 278.502C32.413 278.646 32.683 278.778 32.953 278.982C33.2543 279.184 33.5447 279.403 33.823 279.636C34.1478 279.901 34.4583 280.184 34.753 280.482C35.4255 281.168 36.0174 281.929 36.517 282.75C37.005 283.578 37.3956 284.46 37.681 285.378C37.8024 285.772 37.9006 286.173 37.975 286.578C38.0448 286.937 38.0949 287.299 38.125 287.664C38.167 287.994 38.155 288.3 38.167 288.564C38.1834 288.79 38.1834 289.016 38.167 289.242C38.1656 289.443 38.1456 289.644 38.107 289.842C38.053 289.842 38.143 289.014 37.993 287.7C37.957 287.343 37.8989 286.988 37.819 286.638C37.7383 286.233 37.6361 285.832 37.513 285.438C37.2202 284.539 36.832 283.674 36.355 282.858C35.8608 282.054 35.2836 281.304 34.633 280.62C34.327 280.314 34.033 280.02 33.733 279.774C33.433 279.528 33.133 279.306 32.887 279.108C31.801 278.34 31.039 277.992 31.057 277.95Z" fill="#263238"/>
<path d="M176.148 48.5279L181.392 46.0199C182.843 41.5788 185.902 37.8407 189.968 35.5405C194.035 33.2403 198.815 32.5444 203.368 33.5895C207.922 34.6346 211.92 37.3452 214.576 41.1884C217.233 45.0316 218.356 49.7294 217.724 54.3585C217.093 58.9876 214.753 63.2131 211.164 66.2044C207.575 69.1958 202.997 70.7365 198.33 70.5239C193.663 70.3112 189.244 68.3606 185.942 65.0553C182.64 61.75 180.694 57.3292 180.486 52.6619L176.148 48.5279Z" fill="white"/>
<path d="M176.148 48.528L176.412 48.798L177.222 49.59C177.96 50.31 179.022 51.36 180.438 52.716C180.451 52.7274 180.467 52.7337 180.483 52.7337C180.5 52.7337 180.516 52.7274 180.528 52.716H180.402C180.522 55.827 181.417 58.8588 183.006 61.536C183.503 62.3783 184.065 63.1807 184.686 63.936C185.361 64.7283 186.096 65.4684 186.882 66.15C188.608 67.6484 190.595 68.8159 192.744 69.594C195.211 70.4826 197.835 70.8481 200.451 70.6673C203.066 70.4866 205.615 69.7634 207.936 68.544C210.501 67.1914 212.714 65.2579 214.398 62.898C216.185 60.441 217.335 57.5798 217.746 54.57L217.896 53.418L217.932 52.266V51.666L217.896 51.066L217.83 49.926C217.788 49.548 217.716 49.176 217.662 48.798C217.614 48.4243 217.544 48.0536 217.452 47.688C217.287 46.9571 217.074 46.2376 216.816 45.534C215.431 41.6635 212.815 38.3541 209.368 36.113C205.922 33.8718 201.836 32.8225 197.736 33.126C195.449 33.2969 193.212 33.8846 191.136 34.86C190.192 35.3047 189.283 35.8223 188.418 36.408C187.631 36.978 186.878 37.593 186.162 38.25C183.909 40.4005 182.232 43.0826 181.284 46.05V46.014L177.378 47.928L176.394 48.42L176.07 48.582C176.07 48.582 176.196 48.534 176.424 48.426L177.444 47.952L181.338 46.152C181.347 46.1494 181.355 46.1448 181.361 46.1385C181.367 46.1322 181.372 46.1245 181.374 46.116C182.346 43.192 184.028 40.555 186.27 38.442C186.983 37.7994 187.732 37.1984 188.514 36.642C189.371 36.0698 190.27 35.5623 191.202 35.124C194.599 33.5531 198.389 33.0403 202.081 33.6524C205.772 34.2645 209.195 35.9731 211.902 38.556C213.979 40.5197 215.585 42.9278 216.6 45.6C216.844 46.293 217.044 47.0004 217.2 47.718C217.289 48.0798 217.357 48.4464 217.404 48.816C217.458 49.182 217.53 49.548 217.566 49.92L217.632 51.048L217.668 51.612V52.176L217.632 53.31L217.488 54.444C217.082 57.4065 215.953 60.2234 214.2 62.646C212.541 64.9667 210.366 66.8707 207.846 68.208C205.561 69.4126 203.05 70.1295 200.473 70.3134C197.897 70.4972 195.31 70.144 192.876 69.276C190.754 68.5135 188.79 67.3686 187.08 65.898C186.301 65.227 185.573 64.499 184.902 63.72C184.283 62.9861 183.723 62.2036 183.228 61.38C181.642 58.7334 180.732 55.7374 180.576 52.656C180.576 52.6476 180.575 52.6393 180.571 52.6316C180.568 52.6239 180.563 52.617 180.557 52.6113C180.55 52.6056 180.543 52.6014 180.535 52.5987C180.527 52.5961 180.519 52.5952 180.51 52.596C180.497 52.5967 180.483 52.6018 180.473 52.6104C180.462 52.619 180.454 52.6307 180.45 52.644L180.558 52.614L177.318 49.572L176.472 48.786L176.148 48.528Z" fill="#263238"/>
<path d="M199.224 63.7861C205.324 63.7861 210.27 58.8406 210.27 52.7401C210.27 46.6396 205.324 41.6941 199.224 41.6941C193.123 41.6941 188.178 46.6396 188.178 52.7401C188.178 58.8406 193.123 63.7861 199.224 63.7861Z" fill="#FAA500"/>
<path opacity="0.3" d="M199.224 63.7861C205.324 63.7861 210.27 58.8406 210.27 52.7401C210.27 46.6396 205.324 41.6941 199.224 41.6941C193.123 41.6941 188.178 46.6396 188.178 52.7401C188.178 58.8406 193.123 63.7861 199.224 63.7861Z" fill="black"/>
<path d="M203.404 61.7336C209.051 59.4246 211.757 52.9752 209.448 47.3285C207.139 41.6818 200.689 38.9761 195.043 41.2851C189.396 43.594 186.69 50.0434 188.999 55.6901C191.308 61.3368 197.757 64.0425 203.404 61.7336Z" fill="#FAA500"/>
<path d="M204.459 56.7541C207.348 53.865 207.348 49.1809 204.459 46.2918C201.57 43.4027 196.886 43.4027 193.997 46.2918C191.108 49.1809 191.108 53.865 193.997 56.7541C196.886 59.6432 201.57 59.6432 204.459 56.7541Z" fill="white"/>
<path d="M199.223 55.1401C201.222 55.1401 202.841 53.5202 202.841 51.5221C202.841 49.5239 201.222 47.9041 199.223 47.9041C197.225 47.9041 195.605 49.5239 195.605 51.5221C195.605 53.5202 197.225 55.1401 199.223 55.1401Z" fill="#FAA500"/>
<path d="M206.923 43.4341L206.623 41.0761L209.023 38.5081L209.197 41.0521L206.923 43.4341Z" fill="#455A64"/>
<path d="M212.071 41.5559L209.641 41.3579L207.199 43.7039L209.641 43.9679L212.071 41.5559Z" fill="#455A64"/>
<path opacity="0.3" d="M199.711 51.468L208.159 45C207.84 44.5424 207.485 44.111 207.097 43.71L199.711 50.892V51.468Z" fill="black"/>
<path d="M209.293 40.6981L205.855 44.1361L200.401 49.5901L199.147 50.8441C199.097 50.9277 199.077 51.0255 199.089 51.122C199.102 51.2184 199.145 51.3081 199.214 51.3768C199.283 51.4456 199.373 51.4895 199.469 51.5017C199.566 51.5138 199.663 51.4936 199.747 51.4441L203.209 48.0001L208.663 42.5461L209.917 41.2921C210.313 40.8961 209.695 40.2841 209.317 40.6921L209.293 40.6981Z" fill="#263238"/>
<path d="M145.885 57.174L148.201 31.8C148.561 25.458 152.557 20.4 158.881 20.928L159.481 21.012C162.303 21.4194 164.868 22.8738 166.667 25.0861C168.465 27.2983 169.366 30.1063 169.189 32.952C168.841 38.448 168.391 44.508 167.935 47.418C166.945 53.4 160.801 53.472 160.801 53.472C160.801 53.472 160.387 57.15 160.201 58.932L159.439 63.072L156.343 61.506L145.885 57.174Z" fill="#FFBF9D"/>
<path d="M160.799 53.262C158.014 52.8509 155.404 51.6494 153.281 49.8C153.281 49.8 154.517 54.6001 160.613 54.9301L160.799 53.262Z" fill="#FF9A6C"/>
<path d="M166.481 38.142C166.45 38.3668 166.332 38.5703 166.153 38.7093C165.973 38.8483 165.747 38.9117 165.521 38.886C165.411 38.8793 165.303 38.8504 165.204 38.8012C165.105 38.752 165.017 38.6834 164.944 38.5995C164.872 38.5156 164.818 38.4181 164.784 38.3127C164.75 38.2073 164.738 38.0963 164.747 37.986C164.777 37.7614 164.894 37.5573 165.072 37.4173C165.25 37.2772 165.476 37.2122 165.701 37.236C165.813 37.2428 165.921 37.2718 166.021 37.3214C166.121 37.3709 166.21 37.4399 166.283 37.5244C166.355 37.6088 166.41 37.707 166.445 37.8131C166.479 37.9192 166.491 38.031 166.481 38.142Z" fill="#263238"/>
<path d="M167.496 35.196C167.37 35.292 166.788 34.716 165.864 34.596C164.94 34.476 164.19 34.83 164.106 34.698C164.022 34.566 164.202 34.458 164.526 34.284C164.967 34.062 165.467 33.9843 165.954 34.062C166.433 34.121 166.881 34.3312 167.232 34.662C167.49 34.932 167.556 35.148 167.496 35.196Z" fill="#263238"/>
<path d="M158.4 37.05C158.386 37.1627 158.35 37.2715 158.294 37.3702C158.237 37.469 158.162 37.5556 158.073 37.6253C157.983 37.695 157.88 37.7462 157.771 37.7762C157.661 37.8062 157.547 37.8143 157.434 37.8C157.323 37.794 157.215 37.7657 157.115 37.7168C157.016 37.6678 156.927 37.5992 156.855 37.5151C156.783 37.4311 156.728 37.3332 156.695 37.2275C156.661 37.1218 156.649 37.0104 156.66 36.9C156.689 36.6747 156.805 36.4697 156.983 36.3293C157.162 36.1889 157.388 36.1245 157.614 36.15C157.725 36.156 157.834 36.1843 157.934 36.2331C158.034 36.2819 158.124 36.3503 158.197 36.4341C158.27 36.518 158.326 36.6157 158.361 36.7215C158.396 36.8273 158.409 36.939 158.4 37.05Z" fill="#263238"/>
<path d="M158.401 34.0981C158.275 34.1941 157.693 33.6181 156.769 33.4981C155.845 33.3781 155.095 33.7321 155.011 33.6061C154.927 33.4801 155.107 33.3601 155.437 33.1861C155.877 32.9684 156.373 32.8909 156.859 32.9641C157.338 33.0269 157.787 33.2365 158.143 33.5641C158.401 33.8401 158.443 34.0561 158.401 34.0981Z" fill="#263238"/>
<path d="M160.68 41.6939C161.19 41.617 161.707 41.5989 162.222 41.6399C162.462 41.6399 162.696 41.6399 162.756 41.4839C162.81 41.2419 162.791 40.9893 162.702 40.7579C162.558 40.1579 162.414 39.5219 162.258 38.8559C161.658 36.1499 161.262 33.9419 161.37 33.9179C161.478 33.8939 162.054 36.0659 162.654 38.7719C162.798 39.4379 162.936 40.0739 163.062 40.6799C163.176 40.9856 163.176 41.3222 163.062 41.6279C163.015 41.7059 162.952 41.7724 162.876 41.8223C162.8 41.8722 162.714 41.9042 162.624 41.9159C162.488 41.931 162.351 41.931 162.216 41.9159C161.696 41.911 161.179 41.8364 160.68 41.6939Z" fill="#263238"/>
<path d="M159.103 31.2421C158.941 31.4641 158.077 31.0861 156.985 30.9001C155.893 30.7141 154.957 30.7561 154.885 30.4981C154.849 30.3781 155.065 30.1921 155.485 30.0541C156.028 29.891 156.602 29.8601 157.159 29.9641C157.712 30.0563 158.238 30.2738 158.695 30.6001C159.037 30.8881 159.175 31.1401 159.103 31.2421Z" fill="#263238"/>
<path d="M167.928 32.4781C167.712 32.6641 166.98 32.3461 166.074 32.2201C165.168 32.0941 164.376 32.1421 164.232 31.8961C164.166 31.7821 164.316 31.5841 164.676 31.4281C165.171 31.2392 165.708 31.1874 166.23 31.2781C166.752 31.3436 167.246 31.5511 167.658 31.8781C167.952 32.1541 168.03 32.4001 167.928 32.4781Z" fill="#263238"/>
<path d="M148.037 36.096C147.941 36.036 144.071 34.296 143.609 38.412C143.147 42.528 147.401 42.162 147.419 42.048C147.437 41.934 148.037 36.096 148.037 36.096Z" fill="#FFBF9D"/>
<path d="M146.334 40.338C146.334 40.338 146.256 40.38 146.124 40.422C145.944 40.4757 145.751 40.4585 145.584 40.374C145.335 40.1739 145.143 39.9112 145.03 39.6128C144.916 39.3144 144.883 38.991 144.936 38.676C144.966 38.3207 145.075 37.9766 145.254 37.668C145.307 37.5438 145.389 37.4342 145.493 37.3485C145.598 37.2629 145.721 37.2037 145.854 37.176C145.939 37.1618 146.027 37.1789 146.1 37.224C146.174 37.2692 146.229 37.3395 146.256 37.422C146.298 37.542 146.256 37.62 146.256 37.632C146.256 37.644 146.352 37.572 146.34 37.398C146.325 37.2933 146.277 37.1963 146.202 37.122C146.151 37.0722 146.091 37.0332 146.025 37.0075C145.959 36.9817 145.888 36.9696 145.818 36.972C145.643 36.9851 145.475 37.0434 145.33 37.1412C145.184 37.2391 145.067 37.3731 144.99 37.53C144.775 37.8681 144.646 38.253 144.612 38.652C144.546 39.492 144.888 40.32 145.464 40.56C145.571 40.6045 145.687 40.6244 145.804 40.6182C145.92 40.6119 146.033 40.5798 146.136 40.524C146.31 40.434 146.346 40.344 146.334 40.338Z" fill="#FF9A6C"/>
<path d="M178.087 28.116C178.032 27.8746 177.891 27.6613 177.691 27.516C177.23 27.2439 176.707 27.097 176.173 27.09C174.856 26.9151 173.596 26.4432 172.489 25.71C172.921 25.5545 173.326 25.3317 173.689 25.05C174.073 24.7684 174.373 24.3869 174.556 23.9469C174.739 23.5069 174.798 23.0252 174.727 22.554C174.715 22.4661 174.685 22.3817 174.637 22.3071C174.589 22.2324 174.526 22.1692 174.451 22.122C174.187 22.008 173.923 22.242 173.713 22.434C173.436 22.7302 173.086 22.9471 172.698 23.0621C172.31 23.1771 171.898 23.186 171.505 23.088C170.957 22.9882 170.438 22.7668 169.987 22.44C169.969 22.4191 169.953 22.3971 169.939 22.374L169.381 21.666C168.001 19.92 166.801 18.696 165.469 18C163.166 16.8506 160.594 16.3507 158.029 16.554C155.857 16.872 153.769 18.354 153.229 20.49C152.161 19.356 150.391 19.164 148.885 19.578H148.849C147.181 19.968 146.077 21.558 145.417 23.142C145.381 23.226 145.351 23.316 145.315 23.4C144.676 24.2054 143.853 24.8453 142.915 25.266C142.753 25.338 142.561 25.428 142.525 25.602C142.519 25.6908 142.536 25.7796 142.575 25.8596C142.614 25.9396 142.673 26.008 142.747 26.058C143.111 26.3651 143.539 26.5865 144.001 26.706C143.815 27.0822 143.594 27.4398 143.341 27.774C143.125 28.056 142.873 28.374 142.993 28.734C143.05 28.8606 143.146 28.9661 143.267 29.036C143.387 29.1058 143.526 29.1366 143.665 29.124C143.941 29.0962 144.209 29.0103 144.451 28.872L143.767 30.072C144.338 30.2375 144.94 30.2663 145.525 30.156C145.693 31.722 145.627 34.584 145.903 35.664C146.995 35.808 147.277 35.718 147.811 35.964C148.501 36.282 148.081 37.524 149.059 37.266C149.551 37.14 150.487 35.424 150.703 34.956C152.123 31.8528 152.859 28.4807 152.863 25.068C153.61 24.4412 154.472 23.9645 155.401 23.664L155.323 23.718C157.081 23.328 159.061 22.968 160.579 23.94C161.779 24.702 162.343 26.076 163.153 27.216C163.832 28.2472 164.722 29.1226 165.765 29.7845C166.807 30.4464 167.978 30.8798 169.201 31.056C169.231 32.91 168.961 35.904 168.853 37.62L170.701 34.374C170.839 34.188 170.959 33.996 171.079 33.81L171.115 33.75C171.297 33.4328 171.497 33.1263 171.715 32.832C171.898 32.9857 172.128 33.0736 172.367 33.0819C172.606 33.0902 172.841 33.0183 173.035 32.8777C173.229 32.737 173.37 32.5357 173.436 32.3057C173.502 32.0757 173.49 31.8301 173.401 31.608C173.28 31.3862 173.126 31.1839 172.945 31.008C173.131 31.2322 173.372 31.405 173.644 31.51C173.916 31.615 174.21 31.6488 174.499 31.608C174.786 31.554 175.047 31.4075 175.244 31.1908C175.44 30.9741 175.559 30.6992 175.585 30.408C175.584 30.2099 175.532 30.0154 175.433 29.8438C175.334 29.6722 175.192 29.5296 175.021 29.43C175.765 29.5746 176.535 29.4953 177.235 29.202C177.703 29.022 178.201 28.674 178.087 28.116Z" fill="#263238"/>
<path d="M155.059 21.384C154.824 21.5302 154.599 21.6926 154.387 21.87C153.843 22.3957 153.444 23.0529 153.229 23.778C153.068 24.2716 152.957 24.7802 152.899 25.296C152.833 25.854 152.809 26.46 152.779 27.096C152.761 27.7632 152.701 28.4285 152.599 29.088C152.54 29.4378 152.456 29.7827 152.347 30.12C152.248 30.4824 152.06 30.8144 151.801 31.086C151.682 31.1918 151.537 31.2651 151.382 31.2987C151.226 31.3324 151.065 31.3252 150.913 31.278C150.623 31.1863 150.37 31.0031 150.193 30.756C149.917 30.2657 149.776 29.7107 149.785 29.148L149.911 29.178C149.676 29.6187 149.379 30.0229 149.029 30.378C148.693 30.7047 148.243 30.8877 147.775 30.888C147.562 30.8822 147.355 30.8201 147.175 30.708C147.004 30.5936 146.873 30.4305 146.797 30.24C146.728 30.0647 146.705 29.8746 146.731 29.688C146.758 29.5126 146.847 29.3528 146.983 29.238L147.037 29.304C146.63 29.6763 146.15 29.9584 145.627 30.132C145.447 30.192 145.303 30.222 145.207 30.246C145.157 30.2539 145.106 30.2539 145.057 30.246L145.201 30.204C145.291 30.174 145.435 30.138 145.609 30.072C146.117 29.8849 146.582 29.5972 146.977 29.226L147.037 29.286C146.923 29.403 146.848 29.5522 146.822 29.7132C146.796 29.8743 146.821 30.0395 146.893 30.186C146.966 30.3529 147.085 30.4962 147.235 30.6C147.404 30.6992 147.596 30.753 147.793 30.756C148.228 30.7483 148.645 30.5744 148.957 30.27C149.295 29.9246 149.582 29.5327 149.809 29.106L149.917 28.926V29.136C149.912 29.6731 150.046 30.2023 150.307 30.672C150.465 30.8949 150.693 31.0593 150.955 31.14C151.083 31.1818 151.22 31.1888 151.352 31.1603C151.483 31.1319 151.605 31.069 151.705 30.978C151.947 30.7235 152.12 30.4118 152.209 30.072C152.318 29.7429 152.402 29.4059 152.461 29.064C152.565 28.4087 152.627 27.7474 152.647 27.084C152.683 26.484 152.713 25.848 152.779 25.284C152.845 24.7596 152.964 24.243 153.133 23.742C153.358 23.0098 153.772 22.3498 154.333 21.828C154.548 21.6397 154.793 21.4895 155.059 21.384Z" fill="#455A64"/>
<path d="M173.13 29.4001L173.076 29.4361L172.914 29.5321C172.826 29.5842 172.734 29.6284 172.638 29.6641C172.524 29.7121 172.398 29.7721 172.248 29.8201C171.393 30.0934 170.484 30.1511 169.602 29.9881C168.289 29.7489 167.072 29.1365 166.098 28.2241C164.928 27.0966 163.999 25.7432 163.368 24.2461C163.014 23.4601 162.768 22.6681 162.42 21.9301C162.138 21.2108 161.754 20.5358 161.28 19.9261C160.85 19.38 160.291 18.9491 159.654 18.6721C159.364 18.5512 159.056 18.4802 158.742 18.4621C158.454 18.444 158.166 18.4663 157.884 18.5281C157.397 18.63 156.936 18.8346 156.534 19.1281C156.231 19.3556 155.966 19.6289 155.748 19.9381C155.572 20.2109 155.433 20.5053 155.334 20.8141C155.334 20.8141 155.334 20.8141 155.334 20.7481L155.382 20.5681C155.457 20.3365 155.56 20.1149 155.688 19.9081C155.901 19.5861 156.167 19.3022 156.474 19.0681C156.878 18.7517 157.347 18.5284 157.848 18.4141C158.14 18.3509 158.438 18.3247 158.736 18.3361C159.061 18.3571 159.381 18.4279 159.684 18.5461C160.359 18.8307 160.949 19.283 161.4 19.8601C161.898 20.4711 162.302 21.1525 162.6 21.8821C162.918 22.6321 163.2 23.4181 163.548 24.1981C164.16 25.6757 165.062 27.016 166.2 28.1401C167.154 29.0417 168.344 29.6535 169.632 29.9041C170.499 30.0735 171.395 30.0302 172.242 29.7781C172.545 29.6681 172.841 29.5419 173.13 29.4001Z" fill="#455A64"/>
<path d="M174.001 26.8141C173.925 26.864 173.845 26.9062 173.761 26.9401C173.542 27.0426 173.315 27.1269 173.083 27.1921C172.737 27.2942 172.384 27.3685 172.027 27.4141C171.147 27.5188 170.255 27.4454 169.405 27.1981C169.058 27.1 168.721 26.9715 168.397 26.8141C168.177 26.7092 167.967 26.5868 167.767 26.4481C167.688 26.4041 167.615 26.3496 167.551 26.2861C167.551 26.2861 167.881 26.4781 168.439 26.7181C168.761 26.8611 169.094 26.9794 169.435 27.0721C169.854 27.1807 170.281 27.255 170.713 27.2941C171.146 27.3304 171.582 27.3304 172.015 27.2941C172.367 27.2586 172.716 27.1964 173.059 27.1081C173.629 26.9461 174.001 26.7901 174.001 26.8141Z" fill="#455A64"/>
<path d="M160.302 44.52C160.266 44.364 159.252 44.646 158.292 43.974C157.332 43.302 157.146 42.174 157.002 42.216C156.858 42.258 156.87 42.516 157.002 42.972C157.157 43.5706 157.518 44.0954 158.022 44.454C158.506 44.7956 159.104 44.9375 159.69 44.85C160.104 44.772 160.326 44.586 160.302 44.52Z" fill="#263238"/>
<path d="M132.204 53.4839C130.977 53.0047 129.634 52.9058 128.35 53.2C127.066 53.4943 125.9 54.1681 125.004 55.1339C121.818 58.5479 110.082 81.3659 108.534 85.6739C105.996 92.7539 111.474 98.8079 116.034 99.0539C120.594 99.2999 138.438 93.5639 138.438 93.5639L134.55 83.3279L123.15 84.2339L132 66.4979L132.204 53.4839Z" fill="#455A64"/>
<path d="M151.717 73.5719C151.717 73.5719 156.109 95.8319 158.197 97.6319C160.285 99.4319 176.797 106.83 176.797 106.83L181.747 98.7839L168.601 90.7859L168.541 73.8839C168.403 69.1199 166.495 66.1319 164.311 64.5359L151.717 73.5719Z" fill="#455A64"/>
<path d="M161.004 58.3979L158.004 62.2439L156.18 57.4799L145.686 50.6699L142.626 53.6039C142.626 53.6039 130.86 53.8319 130.098 54.4079C128.406 55.6859 125.298 74.7419 125.298 74.7419L119.334 110.682C118.83 112.122 123.834 113.13 126.732 113.838L153.432 117.66C153.432 117.66 156.612 118.416 157.512 116.46C158.238 114.882 159.756 98.2859 161.292 89.2199C161.7 86.8199 162.066 78.2519 162.066 78.2519L165.036 64.9979L161.82 62.5979L161.004 58.3979Z" fill="#455A64"/>
<path d="M127.296 76.0439C127.18 76.4791 127.011 76.8983 126.792 77.292C126.438 78.048 125.934 79.0919 125.364 80.2079C124.794 81.3239 124.254 82.3559 123.858 83.0879C123.671 83.4978 123.433 83.8827 123.15 84.2339C123.275 83.8008 123.446 83.3824 123.66 82.9859C124.008 82.2299 124.512 81.1859 125.082 80.0699C125.652 78.9539 126.192 77.9279 126.588 77.1959C126.782 76.7873 127.019 76.4011 127.296 76.0439Z" fill="#263238"/>
<path d="M155.579 57.5999C155.256 58.0243 154.903 58.4253 154.523 58.7999C153.839 59.5259 152.861 60.5399 151.709 61.7159L151.619 61.8059L151.511 61.7279C150.767 61.1639 149.963 60.5279 149.111 59.8379C147.269 58.3019 145.691 56.8379 144.581 55.6979C144.029 55.1459 143.591 54.6839 143.297 54.3539C143.13 54.1983 142.985 54.0207 142.865 53.8259C143.052 53.9554 143.225 54.1042 143.381 54.2699L144.737 55.5419C145.877 56.6099 147.479 58.0679 149.315 59.5979C150.131 60.2819 150.929 60.9239 151.661 61.4999H151.469C152.639 60.3359 153.647 59.3519 154.367 58.6619C154.742 58.2758 155.147 57.9206 155.579 57.5999Z" fill="#263238"/>
<path d="M163.704 70.2839C163.685 71.92 163.562 73.5532 163.338 75.1739C163.221 76.807 162.997 78.4305 162.666 80.0339C162.685 78.3959 162.807 76.7606 163.032 75.1379C163.148 73.5068 163.373 71.8853 163.704 70.2839Z" fill="#263238"/>
<path d="M175.711 96.0839C175.711 96.0839 178.987 90.5699 179.677 90.7919C180.367 91.0139 180.721 92.4359 180.307 93.4919C179.893 94.5479 178.735 98.7839 178.735 98.7839L175.711 96.0839Z" fill="#FFBF9D"/>
<path d="M176.801 192.048L173.549 206.718C173.549 206.718 187.547 213.876 187.211 216.642L158.357 212.442L162.491 189.372L176.801 192.048Z" fill="#455A64"/>
<g opacity="0.6">
<path d="M164.91 203.844C164.617 203.879 164.347 204.021 164.153 204.243C163.958 204.464 163.851 204.749 163.854 205.044C163.878 205.342 164.017 205.618 164.24 205.816C164.464 206.014 164.755 206.118 165.054 206.106C165.362 206.069 165.646 205.919 165.851 205.686C166.056 205.452 166.167 205.151 166.164 204.84C166.106 204.54 165.937 204.272 165.689 204.093C165.442 203.913 165.135 203.835 164.832 203.874" fill="white"/>
</g>
<g opacity="0.6">
<path d="M158.357 212.436L158.777 210.108L186.497 215.148C186.769 215.344 186.987 215.605 187.131 215.907C187.276 216.208 187.343 216.542 187.325 216.876L158.357 212.436Z" fill="white"/>
</g>
<path d="M174.043 206.658C174.013 206.796 173.299 206.73 172.531 207.054C171.763 207.378 171.283 207.9 171.163 207.822C171.043 207.744 171.403 206.97 172.363 206.622C173.323 206.274 174.097 206.538 174.043 206.658Z" fill="#263238"/>
<path d="M176.821 208.458C176.821 208.596 176.179 208.722 175.591 209.226C175.003 209.73 174.757 210.336 174.619 210.3C174.481 210.264 174.535 209.46 175.273 208.848C176.011 208.236 176.839 208.32 176.821 208.458Z" fill="#263238"/>
<path d="M177.864 212.4C177.732 212.4 177.666 211.674 178.164 210.972C178.662 210.27 179.364 210.084 179.418 210.216C179.472 210.348 178.974 210.678 178.572 211.26C178.17 211.842 178.008 212.4 177.864 212.4Z" fill="#263238"/>
<path d="M174.415 203.232C174.331 203.352 173.725 203.04 172.921 202.944C172.117 202.848 171.457 202.992 171.409 202.854C171.361 202.716 172.039 202.332 172.987 202.452C173.935 202.572 174.505 203.136 174.415 203.232Z" fill="#263238"/>
<g opacity="0.3">
<path d="M176.154 194.952L175.578 197.568L161.514 194.844L161.928 192.468L176.154 194.952Z" fill="black"/>
</g>
<path d="M130.921 218.586L129.061 233.496C129.061 233.496 143.671 239.31 143.593 242.1L114.469 240.6L116.401 217.26L130.921 218.586Z" fill="#455A64"/>
<g opacity="0.6">
<path d="M120.193 231.444C119.907 231.506 119.654 231.67 119.48 231.905C119.307 232.14 119.225 232.431 119.251 232.722C119.299 233.011 119.458 233.27 119.692 233.445C119.927 233.621 120.22 233.699 120.511 233.664C120.815 233.6 121.085 233.426 121.268 233.174C121.451 232.922 121.534 232.611 121.501 232.302C121.415 232.008 121.22 231.757 120.956 231.602C120.691 231.447 120.377 231.399 120.079 231.468" fill="white"/>
</g>
<g opacity="0.6">
<path d="M114.469 240.6L114.667 238.248L142.735 240.648C143.024 240.819 143.267 241.06 143.441 241.348C143.614 241.636 143.714 241.962 143.731 242.298L114.469 240.6Z" fill="white"/>
</g>
<path d="M129.54 233.4C129.54 233.538 128.808 233.538 128.07 233.934C127.332 234.33 126.906 234.894 126.786 234.822C126.666 234.75 126.942 233.958 127.842 233.496C128.742 233.034 129.6 233.262 129.54 233.4Z" fill="#263238"/>
<path d="M132.473 234.924C132.473 235.062 131.873 235.248 131.327 235.806C130.781 236.364 130.595 237.006 130.457 236.964C130.319 236.922 130.295 236.136 130.973 235.458C131.651 234.78 132.485 234.786 132.473 234.924Z" fill="#263238"/>
<path d="M133.884 238.722C133.752 238.722 133.614 238.014 134.052 237.27C134.49 236.526 135.174 236.274 135.252 236.4C135.33 236.526 134.856 236.898 134.508 237.516C134.16 238.134 134.028 238.722 133.884 238.722Z" fill="#263238"/>
<path d="M129.6 229.944C129.534 230.07 128.898 229.818 128.094 229.8C127.29 229.782 126.636 229.98 126.576 229.854C126.516 229.728 127.176 229.254 128.106 229.302C129.036 229.35 129.672 229.842 129.6 229.944Z" fill="#263238"/>
<g opacity="0.3">
<path d="M130.549 221.538L130.219 224.196L115.963 222.798L116.155 220.398L130.549 221.538Z" fill="black"/>
</g>
<path d="M116.801 42.909C117.477 36.8127 113.084 31.3225 106.987 30.6462C100.891 29.9699 95.4008 34.3637 94.7245 40.46C94.0482 46.5563 98.442 52.0465 104.538 52.7228C110.635 53.399 116.125 49.0053 116.801 42.909Z" fill="#FAA500"/>
<path d="M240.924 170.016L229.842 144.288L116.328 36.4741L101.346 53.0281L214.26 160.026L240.924 170.016Z" fill="#FAA500"/>
<g opacity="0.7">
<path d="M214.26 160.026C214.434 158.928 215.388 158.16 216.432 158.55C215.866 157.674 215.589 156.643 215.64 155.601C215.69 154.56 216.067 153.56 216.715 152.744C217.363 151.927 218.251 151.334 219.254 151.049C220.257 150.763 221.324 150.799 222.306 151.152C222.096 150.144 222.158 149.098 222.484 148.122C222.811 147.145 223.392 146.273 224.166 145.594C224.94 144.916 225.881 144.455 226.892 144.259C227.903 144.063 228.948 144.14 229.92 144.48L240.924 170.016L214.26 160.026Z" fill="white"/>
</g>
<path d="M236.466 159.666C236.466 159.666 231.24 158.466 230.004 165.924L240.924 170.016L236.466 159.666Z" fill="#263238"/>
<path opacity="0.3" d="M222.306 151.152L109.752 45.2101L116.832 36.9841L229.842 144.288L229.92 144.48C229.107 144.19 228.239 144.091 227.382 144.192C226.252 144.323 225.182 144.772 224.298 145.488C223.221 146.365 222.5 147.604 222.27 148.974C222.147 149.696 222.159 150.435 222.306 151.152Z" fill="black"/>
<path opacity="0.3" d="M216.431 158.55L103.235 51L101.357 53.178L214.259 159.978C214.306 159.542 214.513 159.139 214.84 158.847C215.167 158.555 215.591 158.396 216.029 158.4C216.168 158.438 216.302 158.488 216.431 158.55Z" fill="black"/>
<path d="M228.263 152.754C228.238 152.708 228.204 152.667 228.163 152.634C228.121 152.601 228.074 152.576 228.023 152.562C227.879 152.52 227.725 152.534 227.59 152.601C227.456 152.668 227.351 152.782 227.297 152.922C227.151 153.383 227.151 153.877 227.297 154.338C227.367 154.626 227.527 154.884 227.753 155.076C227.874 155.185 228.021 155.261 228.179 155.297C228.338 155.332 228.503 155.327 228.659 155.28C228.825 155.21 228.974 155.106 229.097 154.975C229.22 154.844 229.314 154.688 229.373 154.518C229.52 154.145 229.613 153.753 229.649 153.354C229.758 152.472 229.683 151.577 229.427 150.726C229.366 150.501 229.258 150.292 229.11 150.112C228.962 149.932 228.778 149.786 228.569 149.682C228.34 149.604 228.096 149.583 227.857 149.622C227.619 149.66 227.393 149.757 227.201 149.904C226.826 150.265 226.527 150.697 226.321 151.175C226.115 151.653 226.006 152.168 226.001 152.688C225.919 153.703 226.117 154.721 226.574 155.631C227.031 156.541 227.73 157.308 228.593 157.848C228.789 157.952 229.006 158.01 229.227 158.017C229.449 158.025 229.669 157.981 229.871 157.89C230.251 157.698 230.58 157.418 230.831 157.074C231.29 156.449 231.654 155.76 231.911 155.028C232.284 153.962 232.443 152.832 232.379 151.704C232.349 151.302 232.307 150.996 232.271 150.792C232.235 150.588 232.223 150.474 232.223 150.474C232.334 150.866 232.406 151.268 232.439 151.674C232.528 152.813 232.383 153.959 232.013 155.04C231.759 155.786 231.395 156.49 230.933 157.128C230.67 157.492 230.325 157.788 229.925 157.992C229.704 158.092 229.464 158.14 229.221 158.133C228.979 158.126 228.742 158.063 228.527 157.95C227.635 157.401 226.911 156.615 226.438 155.68C225.965 154.745 225.759 153.697 225.845 152.652C225.883 152.105 226.002 151.568 226.199 151.056C226.379 150.546 226.699 150.096 227.123 149.76C227.335 149.597 227.585 149.49 227.849 149.448C228.113 149.406 228.383 149.431 228.635 149.52C228.864 149.63 229.066 149.789 229.227 149.985C229.389 150.18 229.506 150.409 229.571 150.654C229.83 151.527 229.904 152.445 229.787 153.348C229.75 153.761 229.651 154.165 229.493 154.548C229.427 154.733 229.322 154.902 229.185 155.044C229.049 155.186 228.884 155.297 228.701 155.37C228.528 155.418 228.345 155.421 228.171 155.38C227.996 155.339 227.834 155.255 227.699 155.136C227.463 154.925 227.297 154.646 227.225 154.338C227.087 153.859 227.103 153.349 227.273 152.88C227.336 152.731 227.452 152.612 227.598 152.544C227.745 152.476 227.911 152.466 228.065 152.514C228.245 152.616 228.263 152.76 228.263 152.754Z" fill="white"/>
<path d="M225.366 163.932C225.366 163.932 225.504 163.644 225.642 163.092C225.823 162.304 225.843 161.488 225.702 160.692C225.485 159.517 225.131 158.371 224.646 157.278C224.028 155.935 223.635 154.5 223.482 153.03C223.415 151.537 223.791 150.057 224.562 148.776C225.192 147.737 226.071 146.871 227.118 146.256C227.818 145.839 228.582 145.543 229.38 145.38C229.67 145.316 229.965 145.278 230.262 145.266L230.04 145.308C229.89 145.308 229.668 145.368 229.392 145.434C228.609 145.623 227.86 145.933 227.172 146.352C226.15 146.969 225.294 147.829 224.682 148.854C223.935 150.11 223.572 151.558 223.638 153.018C223.788 154.471 224.173 155.889 224.778 157.218C225.261 158.322 225.608 159.48 225.81 160.668C225.938 161.467 225.901 162.284 225.702 163.068C225.63 163.37 225.517 163.661 225.366 163.932Z" fill="white"/>
<path d="M219.18 162C219.682 161.75 220.074 161.323 220.278 160.8C220.685 159.499 220.887 158.143 220.878 156.78C220.91 155.416 220.818 154.053 220.602 152.706C220.518 152.19 220.434 151.776 220.38 151.506C220.339 151.359 220.313 151.208 220.302 151.056C220.302 151.056 220.356 151.212 220.44 151.494C220.524 151.776 220.614 152.19 220.71 152.694C221.094 154.791 221.142 156.936 220.854 159.048C220.788 159.666 220.637 160.272 220.404 160.848C220.24 161.24 219.97 161.579 219.624 161.826C219.488 161.911 219.337 161.97 219.18 162Z" fill="white"/>
<path d="M217.35 152.112C217.496 152.383 217.612 152.669 217.698 152.964C217.963 153.672 218.066 154.431 217.998 155.184C217.965 155.565 217.848 155.934 217.655 156.264C217.462 156.594 217.198 156.877 216.882 157.092C216.689 157.218 216.473 157.306 216.246 157.35C216.09 157.38 216 157.35 216 157.35C216.292 157.273 216.569 157.149 216.822 156.984C217.112 156.767 217.353 156.492 217.529 156.175C217.705 155.859 217.811 155.509 217.842 155.148C217.904 154.419 217.82 153.685 217.596 152.988C217.497 152.701 217.414 152.409 217.35 152.112Z" fill="white"/>
<path d="M228.9 165.6L228.852 165.474C228.822 165.39 228.774 165.27 228.732 165.114C228.668 164.921 228.639 164.717 228.648 164.514C228.681 164.241 228.778 163.98 228.93 163.752C229.298 163.164 229.699 162.597 230.13 162.054C230.617 161.362 231.046 160.632 231.414 159.87C232.065 158.474 232.6 157.027 233.016 155.544C233.166 155.052 233.298 154.608 233.418 154.2C233.46 154.032 233.514 153.868 233.58 153.708C233.559 153.88 233.525 154.051 233.478 154.218C233.4 154.536 233.28 155.004 233.124 155.574C232.732 157.074 232.206 158.536 231.552 159.942C231.183 160.712 230.745 161.447 230.244 162.138C229.776 162.774 229.308 163.302 229.008 163.806C228.873 163.991 228.781 164.204 228.741 164.43C228.7 164.656 228.711 164.887 228.774 165.108C228.828 165.269 228.87 165.433 228.9 165.6Z" fill="white"/>
<path d="M111.757 31.805L95.9663 47.6898C95.7444 47.913 95.7454 48.2739 95.9687 48.4958L100.866 53.3646C101.09 53.5866 101.451 53.5855 101.673 53.3622L117.463 37.4775C117.685 37.2543 117.684 36.8934 117.461 36.6714L112.563 31.8027C112.34 31.5807 111.979 31.5818 111.757 31.805Z" fill="#E0E0E0"/>
<path d="M117.468 37.4819C117.497 37.4395 117.523 37.3954 117.546 37.3499C117.581 37.283 117.602 37.2094 117.607 37.1341C117.612 37.0587 117.602 36.983 117.576 36.9119C117.516 36.7199 117.282 36.5759 117.078 36.3539L116.328 35.6279L114.276 33.6299L112.998 32.3999L112.656 32.0579C112.563 31.9407 112.441 31.8498 112.302 31.7939C112.236 31.774 112.166 31.769 112.098 31.7794C112.029 31.7898 111.964 31.8152 111.906 31.8539C111.804 31.9319 111.672 32.0879 111.552 32.2019C107.58 36.2159 102.12 41.7359 96.0843 47.8019C96.0152 47.8715 95.973 47.9634 95.9653 48.0612C95.9576 48.159 95.9849 48.2564 96.0423 48.3359C96.1803 48.4979 96.4023 48.7019 96.5823 48.8819L97.7043 49.9979L99.8883 52.1999L100.956 53.2619C101.018 53.3315 101.1 53.3791 101.191 53.3975C101.282 53.4159 101.377 53.4041 101.46 53.3639C101.5 53.3429 101.536 53.3166 101.568 53.2859L101.7 53.1539L101.958 52.8959L103.974 50.8739L111 43.8659L115.734 39.1739L117 37.9079L117.342 37.5899L117.468 37.4819C117.44 37.528 117.405 37.5704 117.366 37.6079L117.042 37.9559L115.8 39.2579L111.138 44.0219C109.152 46.0259 106.8 48.4079 104.19 51.0539C103.536 51.7139 102.87 52.3919 102.18 53.0819L101.922 53.3399L101.796 53.4719C101.74 53.5278 101.675 53.5744 101.604 53.6099C101.464 53.6779 101.306 53.6995 101.153 53.6714C101 53.6434 100.859 53.5672 100.752 53.4539L99.6843 52.3919L97.4943 50.2199L96.3723 49.1039C96.1803 48.9059 96.0063 48.7559 95.7723 48.5039C95.6746 48.3631 95.6289 48.1927 95.6432 48.0219C95.6574 47.8511 95.7306 47.6906 95.8503 47.5679L111.384 32.0099C111.507 31.8786 111.637 31.7544 111.774 31.6379C111.862 31.5808 111.961 31.5436 112.065 31.5291C112.169 31.5146 112.274 31.5231 112.374 31.5539C112.543 31.6251 112.691 31.7363 112.806 31.8779L113.142 32.2199L114.402 33.4919L116.418 35.5319L117.15 36.2759C117.348 36.5039 117.576 36.6539 117.642 36.8759C117.665 36.9548 117.672 37.0376 117.662 37.1191C117.651 37.2007 117.624 37.2792 117.582 37.3499C117.557 37.4033 117.517 37.4489 117.468 37.4819Z" fill="#263238"/>
<path d="M97.873 46.0081C98.9157 46.7937 99.8947 47.6604 100.801 48.6001C101.781 49.4678 102.692 50.4106 103.525 51.4201C102.477 50.6363 101.494 49.7695 100.585 48.8281C99.6087 47.9604 98.7019 47.0175 97.873 46.0081Z" fill="#263238"/>
<path d="M103.697 39.7681C104.789 40.5702 105.831 41.4378 106.817 42.3661C107.868 43.2147 108.869 44.1221 109.817 45.0841C108.671 44.3619 107.598 43.53 106.613 42.6001C105.556 41.7485 104.579 40.8005 103.697 39.7681Z" fill="#263238"/>
<path d="M116.574 38.3159C115.506 37.5338 114.502 36.667 113.574 35.7239C112.565 34.8565 111.627 33.9116 110.766 32.8979C111.832 33.6847 112.835 34.5533 113.766 35.4959C114.773 36.3623 115.712 37.3051 116.574 38.3159Z" fill="#263238"/>
<path d="M152.832 72.858C152.832 72.858 147.486 73.458 145.884 73.662C144.282 73.866 142.128 74.328 141.378 75.6C141.072 76.116 136.386 82.974 136.386 82.974L134.586 83.478L137.448 91.35L142.29 88.95C142.29 88.95 143.934 87.102 145.248 85.35C146.562 83.598 146.958 82.95 146.958 82.95C146.958 82.95 151.758 83.172 152.724 82.35C152.875 82.1793 152.975 81.969 153.011 81.7437C153.047 81.5184 153.018 81.2875 152.928 81.078L147.708 80.622C147.708 80.622 153.384 80.622 154.308 79.98C154.385 79.9245 154.46 79.8643 154.53 79.8C154.648 79.6732 154.727 79.5145 154.756 79.3435C154.785 79.1726 154.764 78.9968 154.694 78.8379C154.625 78.679 154.51 78.5439 154.365 78.4494C154.219 78.3549 154.049 78.305 153.876 78.306L147.762 78.264C147.762 78.264 154.782 77.628 154.962 76.842C154.986 76.7151 155.002 76.5868 155.01 76.458C155.018 76.3391 155 76.2199 154.959 76.1081C154.918 75.9963 154.853 75.8945 154.77 75.8091C154.687 75.7237 154.587 75.6567 154.476 75.6124C154.366 75.5681 154.247 75.5476 154.128 75.552L148.398 75.732C148.398 75.732 153.942 74.85 153.996 74.07C154.104 72.6 152.832 72.858 152.832 72.858Z" fill="#FFBF9D"/>
<path d="M116.604 88.068C117.346 86.9875 118.317 86.0841 119.449 85.4224C120.58 84.7606 121.844 84.3569 123.15 84.24L134.814 82.998L138.306 93.918L121.554 98.28" fill="#455A64"/>
<path d="M121.554 98.28C121.652 98.2277 121.757 98.1893 121.866 98.166L122.79 97.902L126.264 96.954L138.264 93.774L138.162 93.966L136.068 87.438C135.588 85.932 135.12 84.438 134.664 83.046L134.826 83.154L127.11 83.952L123.798 84.294C122.848 84.3444 121.91 84.5219 121.008 84.822C119.716 85.2589 118.543 85.9855 117.576 86.946C116.904 87.63 116.634 88.086 116.604 88.068C116.661 87.9529 116.727 87.8425 116.802 87.738C117.011 87.4329 117.244 87.144 117.498 86.874C118.451 85.8632 119.632 85.094 120.942 84.63C121.855 84.3062 122.807 84.1045 123.774 84.03L127.08 83.664L134.796 82.824H134.922L134.958 82.944C135.414 84.354 135.882 85.824 136.362 87.33C137.094 89.616 137.796 91.818 138.444 93.858L138.492 94.014L138.342 94.05L126.342 97.122L122.85 97.986L121.908 98.208C121.792 98.2435 121.674 98.2676 121.554 98.28Z" fill="#263238"/>
<path d="M179.148 95.898C179.148 95.898 182.502 94.752 183.39 95.358C183.945 95.7517 184.364 96.307 184.59 96.948C184.59 96.948 186.642 96.948 186.03 99.102C186.03 99.102 187.83 99.468 187.284 101.562C187.284 101.562 188.604 101.526 187.974 103.266C187.344 105.006 184.65 108.462 184.032 108.924C182.754 109.89 182.4 108.36 182.712 107.724C183.024 107.088 184.8 103.8 184.8 103.8C184.8 103.8 181.746 108.6 180.714 107.802C180.114 107.346 180.252 106.638 181.032 105.228C181.572 104.25 182.562 102.318 182.562 102.318L180.162 105.282C180.063 105.408 179.93 105.503 179.778 105.555C179.626 105.607 179.462 105.615 179.306 105.576C179.15 105.537 179.009 105.454 178.899 105.337C178.789 105.22 178.715 105.074 178.686 104.916C178.643 104.611 178.685 104.299 178.806 104.016C179.303 102.882 179.906 101.797 180.606 100.776L178.656 102.69C178.553 102.793 178.429 102.872 178.293 102.924C178.156 102.975 178.011 102.997 177.865 102.989C177.72 102.98 177.578 102.941 177.448 102.874C177.319 102.807 177.205 102.714 177.114 102.6C176.979 102.449 176.893 102.26 176.866 102.059C176.84 101.858 176.874 101.653 176.964 101.472C177.498 100.398 180.474 97.272 180.474 97.272L179.148 95.898Z" fill="#FFBF9D"/>
<path d="M121.362 111.654C121.362 111.654 118.578 125.634 121.41 131.724C124.242 137.814 131.67 140.724 139.41 143.124C149.736 146.286 167.58 156.108 167.58 156.108C167.58 156.108 165.27 166.308 163.746 172.38C162.282 178.23 158.19 199.524 158.19 199.524L176.964 202.116L190.35 153.942C190.35 153.942 194.088 144.048 185.964 139.14C179.004 134.94 154.392 118.32 154.392 118.32L152.484 113.91L121.362 111.654Z" fill="#263238"/>
<path d="M121.704 128.298L125.196 136.308L120.444 174.348C120.444 174.348 116.376 186.852 115.476 193.452C114.576 200.052 112.59 226.632 112.59 226.632H130.992C130.992 226.632 133.848 194.292 139.392 184.578C143.742 176.928 146.694 163.614 146.874 162.744C147.054 161.874 153.474 140.544 153.474 140.544L144.474 122.046L121.704 128.298Z" fill="#263238"/>
<path d="M174.06 151.65C172.873 152.232 171.719 152.879 170.604 153.588C169.557 154.388 168.556 155.246 167.604 156.156C167.783 155.803 168.02 155.482 168.306 155.208C168.948 154.507 169.667 153.879 170.448 153.336C171.228 152.791 172.067 152.336 172.95 151.98C173.298 151.808 173.674 151.696 174.06 151.65Z" fill="#455A64"/>
<path d="M176.951 202.11L176.621 202.08L175.655 201.96L171.929 201.474L158.165 199.626H158.051V199.512C159.113 193.95 160.385 187.332 161.897 179.976C162.275 178.134 162.671 176.25 163.097 174.33L164.471 168.456C165.413 164.466 166.385 160.326 167.381 156.078L167.459 156.246C166.085 155.496 164.597 154.71 163.097 153.924C158.897 151.74 154.793 149.724 150.755 147.84C146.894 146.015 142.92 144.438 138.857 143.118C134.957 141.918 131.267 140.568 128.111 138.72C126.575 137.848 125.163 136.775 123.911 135.528C122.758 134.369 121.831 133.006 121.175 131.508C120.635 130.127 120.301 128.673 120.185 127.194C120.119 126.498 120.059 125.82 120.053 125.166C120.047 124.512 120.053 123.87 120.053 123.252C120.093 121.15 120.243 119.051 120.503 116.964C120.707 115.248 120.923 113.922 121.103 113.028C121.187 112.584 121.253 112.248 121.301 112.008C121.349 111.768 121.379 111.666 121.379 111.666C121.379 111.666 121.379 111.786 121.331 112.014C121.283 112.242 121.241 112.614 121.169 113.034C121.031 113.934 120.833 115.266 120.647 116.982C120.461 118.698 120.275 120.804 120.251 123.258C120.251 123.858 120.251 124.506 120.287 125.154C120.323 125.802 120.359 126.48 120.431 127.17C120.552 128.627 120.887 130.059 121.427 131.418C122.075 132.888 122.993 134.223 124.133 135.354C125.372 136.581 126.768 137.639 128.285 138.498C131.423 140.298 135.095 141.636 138.989 142.842C143.066 144.157 147.054 145.732 150.929 147.558C154.973 149.418 159.107 151.464 163.289 153.648C164.795 154.434 166.289 155.22 167.657 155.976L167.765 156.03L167.735 156.144C166.733 160.398 165.755 164.544 164.813 168.528L163.433 174.396C162.995 176.31 162.599 178.194 162.233 180.03C160.709 187.38 159.413 193.998 158.321 199.554L158.231 199.428L171.977 201.372L175.697 201.912L176.663 202.056C176.843 202.08 176.951 202.11 176.951 202.11Z" fill="#455A64"/>
</svg>
