<svg width="237" height="157" viewBox="0 0 237 157" fill="none" xmlns="http://www.w3.org/2000/svg">
<g clip-path="url(#clip0_415_69439)">
<path d="M27.6486 46.0223C27.64 46.2661 27.5601 46.5019 27.4187 46.7005C27.2774 46.899 27.0809 47.0516 26.8538 47.1392C26.6266 47.2267 26.3787 47.2455 26.141 47.193C25.9033 47.1405 25.6862 47.0192 25.5168 46.8441C25.3474 46.669 25.233 46.4478 25.188 46.2082C25.1431 45.9685 25.1694 45.7208 25.2638 45.496C25.3581 45.2712 25.5164 45.0791 25.7188 44.9437C25.9213 44.8083 26.159 44.7355 26.4024 44.7344C26.7373 44.7421 27.0557 44.8815 27.2889 45.1225C27.5221 45.3634 27.6513 45.6867 27.6486 46.0223Z" fill="white"/>
<path d="M41.3479 31.9137C41.6083 31.9009 41.8665 31.9667 42.0893 32.1024C42.3121 32.2381 42.4892 32.4376 42.5978 32.6751C42.7064 32.9127 42.7415 33.1773 42.6985 33.435C42.6556 33.6927 42.5366 33.9316 42.3569 34.1209C42.1771 34.3102 41.945 34.4411 41.6903 34.497C41.4356 34.5528 41.17 34.5309 40.9278 34.4341C40.6857 34.3373 40.478 34.17 40.3316 33.9538C40.1852 33.7376 40.1068 33.4825 40.1065 33.2212C40.1019 33.0536 40.1305 32.8867 40.1905 32.7302C40.2505 32.5736 40.3407 32.4305 40.4561 32.309C40.5714 32.1875 40.7096 32.09 40.8626 32.0222C41.0157 31.9543 41.1806 31.9175 41.3479 31.9137Z" fill="white"/>
<path d="M56.2836 28.2557C56.5441 28.242 56.8028 28.3069 57.0262 28.442C57.2496 28.5771 57.4275 28.7761 57.5368 29.0135C57.6462 29.2509 57.682 29.5157 57.6396 29.7737C57.5973 30.0317 57.4787 30.271 57.2992 30.4608C57.1197 30.6506 56.8876 30.7821 56.6328 30.8383C56.378 30.8946 56.1122 30.873 55.8697 30.7764C55.6273 30.6798 55.4193 30.5125 55.2727 30.2963C55.126 30.08 55.0474 29.8247 55.0471 29.5632C55.0392 29.2259 55.1647 28.8991 55.3964 28.6541C55.628 28.4092 55.9469 28.266 56.2836 28.2557Z" fill="white"/>
<path d="M71.2242 38.5348C71.4846 38.522 71.7429 38.5878 71.9656 38.7235C72.1884 38.8592 72.3655 39.0587 72.4741 39.2962C72.5827 39.5338 72.6178 39.7984 72.5748 40.0561C72.5319 40.3138 72.4129 40.5527 72.2332 40.742C72.0535 40.9312 71.8213 41.0622 71.5666 41.1181C71.3119 41.1739 71.0463 41.152 70.8041 41.0552C70.562 40.9584 70.3543 40.7911 70.2079 40.5749C70.0615 40.3587 69.9831 40.1035 69.9828 39.8423C69.9783 39.6747 70.0068 39.5078 70.0668 39.3513C70.1268 39.1947 70.217 39.0516 70.3324 38.9301C70.4477 38.8086 70.5859 38.7111 70.7389 38.6433C70.892 38.5754 71.0569 38.5386 71.2242 38.5348Z" fill="white"/>
<path d="M87.3964 23.0361C87.384 23.279 87.3007 23.5129 87.157 23.7089C87.0133 23.9049 86.8153 24.0544 86.5877 24.1389C86.3601 24.2233 86.1127 24.2391 85.8762 24.1841C85.6397 24.1292 85.4245 24.006 85.2572 23.8297C85.0899 23.6535 84.9778 23.432 84.9349 23.1926C84.8919 22.9532 84.9199 22.7064 85.0154 22.4828C85.111 22.2592 85.2699 22.0686 85.4724 21.9345C85.6749 21.8005 85.9123 21.7288 86.155 21.7285C86.4925 21.7375 86.8127 21.8802 87.0454 22.1253C87.278 22.3703 87.4043 22.6979 87.3964 23.0361Z" fill="white"/>
<path d="M102.337 46.0223C102.348 46.1919 102.323 46.3619 102.266 46.5217C102.209 46.6816 102.119 46.828 102.003 46.9519C101.887 47.0757 101.747 47.1744 101.591 47.2419C101.435 47.3094 101.268 47.3442 101.098 47.3442C100.928 47.3442 100.761 47.3094 100.605 47.2419C100.449 47.1744 100.309 47.0757 100.193 46.9519C100.077 46.828 99.9875 46.6816 99.9301 46.5217C99.8726 46.3619 99.8485 46.1919 99.8591 46.0223C99.8575 45.6911 99.9838 45.3722 100.211 45.1321C100.439 44.8921 100.751 44.7495 101.081 44.7344C101.248 44.7363 101.413 44.7711 101.566 44.8369C101.72 44.9027 101.859 44.9981 101.975 45.1177C102.092 45.2373 102.184 45.3787 102.246 45.5339C102.308 45.6892 102.339 45.8551 102.337 46.0223Z" fill="white"/>
<path d="M175.3 8.1131L176.933 7.37363L176.59 5.41477L174.792 5.27275C174.564 4.67057 174.263 4.09833 173.897 3.56855L174.816 1.99657L173.414 0.591083L171.845 1.53133C170.937 0.917818 169.912 0.500834 168.834 0.307048L168.38 -1.5H166.391L165.926 0.316844C165.315 0.435294 164.72 0.624274 164.152 0.880013L162.725 -0.349168L161.102 0.757584L161.777 2.51566C161.352 2.96002 160.981 3.45316 160.672 3.98481L158.805 3.79872L158.136 5.66453L159.68 6.77128C159.604 7.20618 159.566 7.64703 159.568 8.08861C159.558 8.27294 159.558 8.45766 159.568 8.64199L157.935 9.56265L158.453 11.4725H160.296C160.558 12.0538 160.897 12.5973 161.303 13.0886L160.506 14.7487L162.031 16.022L163.497 14.9691C164.057 15.2924 164.655 15.5457 165.276 15.7233L165.584 17.4911L167.539 17.6576L168.135 15.9779C168.782 15.9197 169.419 15.7815 170.032 15.5666L171.278 16.83L173.003 15.8506L172.514 14.1317C173.015 13.6995 173.46 13.2059 173.839 12.6625L175.584 12.9809L176.419 11.1787L175.051 10.072C175.216 9.43223 175.3 8.774 175.3 8.1131ZM172.368 8.1131C172.368 9.09522 172.077 10.0553 171.533 10.8719C170.988 11.6885 170.214 12.325 169.308 12.7008C168.403 13.0767 167.406 13.175 166.445 12.9834C165.484 12.7918 164.601 12.3188 163.908 11.6244C163.215 10.9299 162.743 10.0451 162.551 9.08186C162.36 8.11861 162.458 7.12017 162.833 6.21281C163.209 5.30544 163.844 4.5299 164.659 3.98426C165.474 3.43862 166.432 3.14739 167.412 3.14739C168.721 3.14609 169.977 3.66512 170.904 4.59058C171.831 5.51604 172.354 6.77233 172.358 8.08372L172.368 8.1131Z" fill="#263238"/>
<path opacity="0.1" d="M175.857 7.85883L176.219 7.69233C176.421 7.60325 176.587 7.44829 176.69 7.25268C176.793 7.05706 176.827 6.8323 176.786 6.61496L176.713 6.17421C176.677 5.95625 176.568 5.75685 176.405 5.60838C176.242 5.45992 176.033 5.37111 175.813 5.35639L175.378 5.3221C175.206 5.30926 175.04 5.25082 174.897 5.15275C174.755 5.05467 174.641 4.92047 174.567 4.76383C174.45 4.51408 174.323 4.27412 174.186 4.03906C174.1 3.89016 174.055 3.72127 174.055 3.54934C174.055 3.37742 174.1 3.20852 174.186 3.05963L174.411 2.67765C174.52 2.48656 174.564 2.26489 174.536 2.04649C174.507 1.82808 174.409 1.62493 174.254 1.46805L173.941 1.15464C173.786 0.995943 173.581 0.894944 173.361 0.868244C173.141 0.841545 172.918 0.890733 172.729 1.00772L172.343 1.23789C172.195 1.32385 172.026 1.36911 171.855 1.36911C171.683 1.36911 171.514 1.32385 171.366 1.23789C170.742 0.878489 170.073 0.605045 169.377 0.42496C169.206 0.380531 169.05 0.290608 168.926 0.164728C168.802 0.0388483 168.715 -0.118293 168.673 -0.290023L168.56 -0.745457C168.509 -0.964585 168.384 -1.15921 168.205 -1.29657C168.027 -1.43393 167.808 -1.50564 167.583 -1.49962H167.143C166.919 -1.50588 166.7 -1.43487 166.522 -1.29847C166.344 -1.16208 166.218 -0.968572 166.166 -0.750352L166.044 -0.260637C166.001 -0.0924917 165.915 0.0613918 165.794 0.185289C165.673 0.309186 165.521 0.398651 165.354 0.444549C165.11 0.513109 164.866 0.586567 164.636 0.674716C164.472 0.734869 164.294 0.749787 164.123 0.717917C163.951 0.686048 163.79 0.60856 163.658 0.493523L163.267 0.155619C163.103 0.0113461 162.896 -0.073783 162.678 -0.0862079C162.46 -0.0986327 162.244 -0.0376383 162.065 0.0870596L161.718 0.32212C161.531 0.446668 161.392 0.632019 161.326 0.846974C161.259 1.06193 161.268 1.29337 161.352 1.50233L161.528 1.96267C161.592 2.12467 161.611 2.30083 161.585 2.473C161.558 2.64516 161.486 2.8071 161.376 2.9421C161.22 3.12884 161.073 3.32334 160.936 3.52485C160.837 3.67068 160.7 3.78681 160.54 3.86095C160.38 3.9351 160.203 3.96448 160.027 3.94601L159.538 3.90194C159.318 3.87739 159.096 3.92846 158.909 4.04679C158.722 4.16512 158.58 4.34369 158.507 4.55325L158.351 4.9842C158.275 5.18781 158.269 5.4109 158.333 5.61835C158.398 5.82581 158.53 6.00586 158.708 6.13014L159.157 6.44845C159.299 6.54811 159.411 6.68356 159.483 6.84099C159.555 6.99843 159.585 7.17222 159.568 7.34463C159.54 7.59996 159.527 7.85666 159.529 8.11348C159.523 8.28203 159.475 8.44644 159.39 8.59181C159.304 8.73718 159.184 8.85892 159.04 8.94599L158.581 9.20065C158.382 9.30458 158.225 9.47365 158.136 9.67956C158.047 9.88548 158.032 10.1158 158.092 10.3319L158.204 10.7579C158.26 10.9734 158.387 11.1636 158.564 11.2971C158.742 11.4306 158.96 11.4995 159.182 11.4925H159.67C159.843 11.491 160.014 11.5355 160.164 11.6215C160.314 11.7076 160.439 11.832 160.526 11.9822C160.658 12.2173 160.799 12.4426 160.951 12.6629C161.048 12.8053 161.106 12.9708 161.119 13.1428C161.132 13.3148 161.099 13.4871 161.024 13.6424L160.824 14.0586C160.725 14.2577 160.697 14.4844 160.744 14.7015C160.791 14.9187 160.911 15.1133 161.083 15.2535L161.42 15.5376C161.588 15.6818 161.8 15.7647 162.021 15.7727C162.242 15.7807 162.459 15.7133 162.637 15.5816L162.984 15.3368C163.124 15.2362 163.289 15.1747 163.46 15.1583C163.632 15.142 163.805 15.1715 163.962 15.2437C164.209 15.3613 164.463 15.469 164.724 15.5669C164.884 15.6272 165.026 15.7285 165.135 15.8609C165.244 15.9932 165.316 16.1519 165.345 16.3211L165.418 16.7471C165.454 16.9651 165.562 17.1645 165.725 17.313C165.889 17.4614 166.097 17.5502 166.317 17.565L166.767 17.6041C166.986 17.6246 167.205 17.5705 167.39 17.4505C167.574 17.3305 167.713 17.1517 167.783 16.943L167.92 16.5611C167.978 16.3961 168.079 16.2497 168.212 16.1369C168.345 16.0241 168.506 15.949 168.678 15.9195C168.954 15.8759 169.229 15.817 169.499 15.7432C169.666 15.6987 169.841 15.6993 170.008 15.7449C170.174 15.7905 170.326 15.8795 170.447 16.0028L170.735 16.2966C170.888 16.4541 171.089 16.5557 171.306 16.585C171.523 16.6143 171.744 16.5696 171.933 16.4582L172.319 16.2378C172.517 16.1339 172.674 15.9648 172.763 15.7589C172.852 15.553 172.868 15.3227 172.808 15.1066L172.7 14.7246C172.649 14.5541 172.645 14.3728 172.689 14.2002C172.733 14.0276 172.823 13.8703 172.949 13.7452C173.15 13.5444 173.345 13.3338 173.526 13.1135C173.638 12.9796 173.783 12.8782 173.948 12.8197C174.112 12.7611 174.288 12.7476 174.46 12.7805L174.851 12.8539C175.067 12.8967 175.292 12.8648 175.488 12.7634C175.684 12.6621 175.84 12.4972 175.931 12.2956L176.116 11.8941C176.213 11.6929 176.238 11.4648 176.187 11.2475C176.136 11.0302 176.013 10.8368 175.838 10.6992L175.545 10.4592C175.41 10.3526 175.305 10.2123 175.242 10.0524C175.178 9.89247 175.158 9.71863 175.183 9.54834C175.231 9.25655 175.262 8.96223 175.276 8.66686C175.292 8.49236 175.354 8.32534 175.456 8.18321C175.559 8.04109 175.697 7.92907 175.857 7.85883ZM172.348 8.11348C172.348 9.0956 172.058 10.0557 171.513 10.8723C170.968 11.6889 170.194 12.3253 169.289 12.7012C168.383 13.077 167.387 13.1754 166.426 12.9838C165.464 12.7922 164.581 12.3192 163.888 11.6248C163.195 10.9303 162.723 10.0455 162.532 9.08224C162.341 8.11899 162.439 7.12055 162.814 6.21319C163.189 5.30582 163.824 4.53028 164.639 3.98464C165.454 3.43901 166.412 3.14778 167.392 3.14778C168.701 3.14647 169.957 3.6655 170.884 4.59096C171.812 5.51642 172.335 6.77271 172.338 8.0841L172.348 8.11348Z" fill="white"/>
<path d="M197.806 32.8055L200.348 31.6547L199.805 28.6086L197.005 28.3834C196.652 27.4427 196.179 26.5521 195.597 25.734L197.039 23.2854L194.859 21.116L192.416 22.5851C191.013 21.6164 189.42 20.9586 187.743 20.6557L187.04 17.8496H183.951L183.227 20.6753C182.274 20.866 181.346 21.165 180.461 21.5665L178.247 19.6566L175.72 21.3804L176.771 24.1131C176.103 24.8064 175.525 25.5814 175.051 26.4196L172.143 26.1258L171.097 29.0347L173.502 30.6703C173.383 31.3527 173.326 32.0443 173.331 32.7369C173.311 33.0223 173.311 33.3086 173.331 33.5939L170.789 35.0239L171.596 38.0014H174.464C174.881 38.8985 175.405 39.742 176.023 40.5136L174.787 43.0797L177.157 45.0728L179.445 43.3539C180.315 43.8578 181.244 44.251 182.211 44.5244L182.67 47.2961L185.749 47.5704L186.673 44.9553C187.681 44.8545 188.674 44.6343 189.63 44.2991L191.585 46.2579L194.263 44.7104L193.525 42.0415C194.304 41.3872 194.997 40.6369 195.587 39.8084L198.3 40.2981L199.605 37.497L197.474 35.7732C197.703 34.8009 197.815 33.8045 197.806 32.8055ZM193.237 32.8055C193.237 34.3339 192.784 35.8279 191.937 37.0988C191.09 38.3696 189.885 39.3601 188.476 39.945C187.067 40.5298 185.516 40.6829 184.02 40.3847C182.524 40.0865 181.15 39.3505 180.071 38.2698C178.993 37.1891 178.258 35.8121 177.96 34.3131C177.663 32.8141 177.816 31.2603 178.399 29.8482C178.983 28.4362 179.971 27.2293 181.24 26.3801C182.508 25.531 183.999 25.0778 185.524 25.0778C187.561 25.0778 189.516 25.8852 190.961 27.3238C192.406 28.7625 193.224 30.7155 193.237 32.7565V32.8055Z" fill="#263238"/>
<path opacity="0.1" d="M197.806 32.8055L200.348 31.6547L199.805 28.6086L197.005 28.3834C196.652 27.4427 196.179 26.5521 195.597 25.734L197.039 23.2854L194.859 21.116L192.416 22.5851C191.013 21.6164 189.42 20.9586 187.743 20.6557L187.04 17.8496H183.951L183.227 20.6753C182.274 20.866 181.346 21.165 180.461 21.5665L178.247 19.6566L175.72 21.3804L176.771 24.1131C176.103 24.8064 175.525 25.5814 175.051 26.4196L172.143 26.1258L171.097 29.0347L173.502 30.6703C173.383 31.3527 173.326 32.0443 173.331 32.7369C173.311 33.0223 173.311 33.3086 173.331 33.5939L170.789 35.0239L171.596 38.0014H174.464C174.881 38.8985 175.405 39.742 176.023 40.5136L174.787 43.0797L177.157 45.0728L179.445 43.3539C180.315 43.8578 181.244 44.251 182.211 44.5244L182.67 47.2961L185.749 47.5704L186.673 44.9553C187.681 44.8545 188.674 44.6343 189.63 44.2991L191.585 46.2579L194.263 44.7104L193.525 42.0415C194.304 41.3872 194.997 40.6369 195.587 39.8084L198.3 40.2981L199.605 37.497L197.474 35.7732C197.703 34.8009 197.815 33.8045 197.806 32.8055ZM193.237 32.8055C193.237 34.3339 192.784 35.8279 191.937 37.0988C191.09 38.3696 189.885 39.3601 188.476 39.945C187.067 40.5298 185.516 40.6829 184.02 40.3847C182.524 40.0865 181.15 39.3505 180.071 38.2698C178.993 37.1891 178.258 35.8121 177.96 34.3131C177.663 32.8141 177.816 31.2603 178.399 29.8482C178.983 28.4362 179.971 27.2293 181.24 26.3801C182.508 25.531 183.999 25.0778 185.524 25.0778C187.561 25.0778 189.516 25.8852 190.961 27.3238C192.406 28.7625 193.224 30.7155 193.237 32.7565V32.8055Z" fill="white"/>
<path d="M61.9822 78.2356L63.9372 77.3541L63.5315 75.0328L61.3957 74.8614C61.1268 74.146 60.7706 73.4667 60.3352 72.8389L61.4251 70.9731L59.7585 69.3081L57.9013 70.4246C56.8227 69.6928 55.6047 69.1925 54.3238 68.9555L53.7861 66.8203H51.3865L50.8342 68.9702C50.1088 69.1126 49.4021 69.3377 48.7277 69.6411L47.0367 68.1719L45.1111 69.4844L45.9126 71.5705C45.4048 72.1015 44.9648 72.6937 44.6028 73.3335L42.3889 73.1376L41.5873 75.356L43.4103 76.6587C43.3215 77.1746 43.279 77.6974 43.2832 78.2209C43.2686 78.4394 43.2686 78.6586 43.2832 78.8771L41.3283 79.9642L41.9441 82.2365H44.1288C44.4554 82.9263 44.8711 83.5701 45.3653 84.1513L44.422 86.1102L46.2303 87.6185L47.9751 86.3746C48.6379 86.7575 49.3454 87.0569 50.0815 87.2659L50.4481 89.3668L52.794 89.5627L53.5027 87.5695C54.271 87.4999 55.0277 87.3354 55.7557 87.0798L57.2219 88.5734L59.2697 87.4079L58.693 85.3805C59.2882 84.8767 59.817 84.2991 60.2668 83.6616L62.3341 84.0436L63.3116 81.9035L61.689 80.5911C61.8838 79.8211 61.9823 79.0299 61.9822 78.2356ZM58.4975 78.2356C58.4975 79.3978 58.1536 80.534 57.5091 81.5004C56.8647 82.4668 55.9488 83.22 54.8771 83.6648C53.8054 84.1096 52.6262 84.226 51.4886 83.9992C50.3509 83.7725 49.3059 83.2128 48.4857 82.3909C47.6655 81.5691 47.1069 80.522 46.8806 79.382C46.6543 78.2421 46.7705 77.0605 47.2144 75.9867C47.6582 74.9129 48.41 73.9951 49.3744 73.3494C50.3389 72.7036 51.4728 72.359 52.6327 72.359C54.184 72.359 55.672 72.9747 56.7712 74.0715C57.8703 75.1683 58.4911 76.6567 58.4975 78.2111V78.2356Z" fill="#263238"/>
<path opacity="0.1" d="M62.6323 77.9271L63.0623 77.7312C63.3003 77.6233 63.4957 77.4391 63.6178 77.2078C63.7399 76.9764 63.7817 76.7109 63.7368 76.4531L63.6439 75.934C63.6019 75.6746 63.4739 75.4369 63.2806 75.2592C63.0874 75.0816 62.84 74.9743 62.5785 74.9546L62.0898 74.9105C61.8832 74.8986 61.6836 74.8314 61.5117 74.716C61.3398 74.6006 61.2019 74.4412 61.1123 74.2543C60.98 73.9581 60.8298 73.6703 60.6627 73.3924C60.5583 73.2133 60.5033 73.0096 60.5033 72.8023C60.5033 72.5949 60.5583 72.3912 60.6627 72.2122L60.9315 71.7567C61.0626 71.5313 61.1155 71.2687 61.0819 71.01C61.0483 70.7513 60.9301 70.511 60.7457 70.3268L60.3743 69.9546C60.189 69.7684 59.9467 69.6498 59.6862 69.6178C59.4258 69.5859 59.1621 69.6424 58.9374 69.7783L58.4829 70.0525C58.3042 70.1571 58.1009 70.2122 57.894 70.2122C57.687 70.2122 57.4838 70.1571 57.3051 70.0525C56.5666 69.6194 55.7723 69.2898 54.9445 69.0731C54.7423 69.0191 54.5584 68.9114 54.4122 68.7614C54.266 68.6115 54.1628 68.4248 54.1136 68.221L53.9768 67.6823C53.9125 67.4273 53.7651 67.2011 53.5579 67.0396C53.3507 66.8782 53.0956 66.7907 52.8331 66.791H52.3102C52.0486 66.7912 51.7944 66.8783 51.5875 67.0387C51.3805 67.1991 51.2325 67.4237 51.1666 67.6774L51.0199 68.2504C50.9711 68.4503 50.8696 68.6335 50.726 68.7808C50.5825 68.9281 50.4021 69.0341 50.2037 69.0878C49.9154 69.1661 49.6319 69.2543 49.3485 69.362C49.1539 69.4306 48.9447 69.4463 48.7421 69.4076C48.5395 69.3689 48.3508 69.2771 48.195 69.1416L47.7063 68.745C47.5097 68.5758 47.2631 68.4761 47.0043 68.461C46.7456 68.446 46.4891 68.5165 46.2743 68.6617L45.8687 68.9409C45.6482 69.0902 45.4848 69.3099 45.4049 69.5643C45.325 69.8186 45.3335 70.0925 45.4288 70.3414L45.639 70.885C45.7152 71.0762 45.7386 71.2844 45.7068 71.4878C45.675 71.6911 45.5891 71.8822 45.4581 72.0408C45.2773 72.266 45.1014 72.4962 44.9401 72.7362C44.8204 72.9073 44.657 73.0431 44.467 73.1292C44.2769 73.2154 44.0673 73.2488 43.86 73.2259L43.2882 73.1671C43.0269 73.1406 42.7642 73.2023 42.5419 73.3425C42.3197 73.4827 42.1505 73.6933 42.0614 73.9409L41.8757 74.4306C41.7886 74.6729 41.783 74.9371 41.8598 75.1829C41.9366 75.4287 42.0915 75.6426 42.3009 75.792L42.8336 76.174C43.0013 76.2911 43.135 76.4507 43.2208 76.6366C43.3067 76.8224 43.3418 77.0278 43.3224 77.2317C43.2923 77.536 43.2792 77.8418 43.2833 78.1475C43.2748 78.3474 43.2162 78.5419 43.1128 78.7131C43.0095 78.8843 42.8647 79.0267 42.6919 79.1269L42.1494 79.4306C41.9202 79.5598 41.7404 79.7618 41.6386 80.0048C41.5368 80.2479 41.5188 80.5179 41.5874 80.7724L41.7242 81.2621C41.7927 81.5122 41.9411 81.733 42.1468 81.8904C42.3525 82.0479 42.6041 82.1334 42.863 82.1338H43.4299C43.6368 82.1321 43.8403 82.1862 44.0192 82.2905C44.1981 82.3947 44.3456 82.5453 44.4465 82.7263C44.5955 83.0023 44.7586 83.2704 44.9352 83.5295C45.0529 83.698 45.1232 83.8951 45.1386 84.1001C45.1541 84.3052 45.1142 84.5107 45.0232 84.695L44.7886 85.1847C44.6744 85.4219 44.6427 85.6906 44.6985 85.9479C44.7543 86.2053 44.8944 86.4365 45.0965 86.6049L45.4972 86.9379C45.6999 87.1109 45.9549 87.2104 46.221 87.2202C46.4871 87.2299 46.7487 87.1495 46.9634 86.9918L47.374 86.6979C47.5427 86.5762 47.7407 86.5017 47.9477 86.4819C48.1547 86.4621 48.3631 86.4978 48.5518 86.5853C48.8457 86.7313 49.1475 86.8605 49.456 86.9722C49.6473 87.0425 49.8164 87.1626 49.9461 87.3201C50.0758 87.4776 50.1614 87.6668 50.194 87.8683L50.2819 88.358C50.3248 88.6171 50.453 88.8543 50.6461 89.0318C50.8392 89.2093 51.0861 89.3169 51.3474 89.3375L51.8801 89.3864C52.1393 89.407 52.398 89.3413 52.6162 89.1997C52.8344 89.058 53 88.8483 53.0873 88.6029L53.2486 88.1475C53.3174 87.9517 53.4369 87.7777 53.5949 87.6435C53.753 87.5092 53.9438 87.4195 54.1478 87.3835C54.4775 87.3326 54.8039 87.2623 55.1253 87.1729C55.3229 87.1223 55.5303 87.1246 55.7268 87.1796C55.9232 87.2346 56.1017 87.3404 56.2445 87.4864L56.5866 87.8341C56.7696 88.0184 57.0082 88.1371 57.2653 88.1716C57.5225 88.2061 57.7839 88.1546 58.0088 88.025L58.4682 87.7655C58.6963 87.6354 58.8745 87.4328 58.9746 87.1897C59.0746 86.9466 59.0908 86.677 59.0205 86.4237L58.8983 85.9683C58.8405 85.77 58.8372 85.5597 58.8888 85.3597C58.9404 85.1597 59.045 84.9774 59.1916 84.8321C59.4323 84.5925 59.6606 84.3408 59.8758 84.0779C60.0093 83.9197 60.1824 83.8 60.3774 83.7312C60.5724 83.6623 60.7822 83.6468 60.9852 83.6862L61.474 83.7694C61.7303 83.8167 61.9951 83.7775 62.2268 83.6579C62.4585 83.5382 62.6441 83.3449 62.7544 83.1083L62.9744 82.6186C63.0855 82.3792 63.1136 82.1094 63.0543 81.8521C62.995 81.5948 62.8516 81.3647 62.6469 81.1984L62.295 80.9144C62.1353 80.7884 62.0115 80.6225 61.936 80.4334C61.8605 80.2443 61.836 80.0386 61.8649 79.837C61.9241 79.4904 61.9617 79.1404 61.9773 78.789C62.0091 78.6031 62.0853 78.4277 62.1993 78.2776C62.3133 78.1275 62.4619 78.0073 62.6323 77.9271ZM58.4731 78.2357C58.4731 79.3979 58.1292 80.5341 57.4847 81.5005C56.8403 82.4669 55.9243 83.2201 54.8527 83.6649C53.781 84.1097 52.6018 84.2261 51.4641 83.9993C50.3265 83.7726 49.2815 83.2129 48.4613 82.391C47.6411 81.5692 47.0825 80.5221 46.8562 79.3821C46.6299 78.2422 46.746 77.0606 47.1899 75.9868C47.6338 74.913 48.3855 73.9952 49.35 73.3495C50.3145 72.7037 51.4484 72.3591 52.6083 72.3591C54.1595 72.3591 55.6476 72.9748 56.7467 74.0716C57.8459 75.1684 58.4667 76.6568 58.4731 78.2112V78.2357Z" fill="white"/>
<path d="M200.236 103.2C206.825 100.516 209.996 92.9888 207.317 86.3867C204.639 79.7845 197.127 76.6079 190.538 79.2914C183.949 81.975 180.779 89.5025 183.457 96.1046C186.135 102.707 193.647 105.883 200.236 103.2Z" fill="#263238"/>
<path d="M206.647 92.2547C207.633 86.1364 203.483 80.375 197.377 79.3862C191.271 78.3974 185.522 82.5556 184.535 88.6739C183.548 94.7921 187.698 100.554 193.804 101.542C199.91 102.531 205.66 98.3729 206.647 92.2547Z" fill="white" stroke="#263238" stroke-width="1.00285" stroke-miterlimit="10"/>
<path d="M188.149 93.2897L195.392 91.228V81.0762" stroke="#263238" stroke-width="2" stroke-miterlimit="10"/>
<path d="M57.3592 133.514H193.814" stroke="#263238" stroke-miterlimit="10"/>
<path d="M123.333 141.605L130.669 158.501L154.886 155.406L140.83 141.605H123.333Z" fill="white" stroke="#263238" stroke-linecap="round" stroke-linejoin="round"/>
<path d="M149.417 140.141L165.951 152.374L139.901 155.895L128.973 140.434L149.417 140.141Z" fill="white" stroke="#263238" stroke-linecap="round" stroke-linejoin="round"/>
<path d="M55.4528 147.722L66.5373 137.473H110.646L93.2466 148.956L55.4528 147.722Z" fill="white" stroke="#263238" stroke-linecap="round" stroke-linejoin="round"/>
<path d="M92.797 150.474L52.9261 148.261L47.7797 133.173L42.9119 118.902L84.1366 120.582L90.8665 143.819L92.797 150.474Z" fill="white" stroke="#263238" stroke-linecap="round" stroke-linejoin="round"/>
<path d="M92.797 150.473L52.9261 148.26L47.7797 133.172C54.3385 133.926 60.9462 132.903 72.3923 134.763C82.4163 136.384 87.895 140.258 90.8665 143.818L92.797 150.473Z" fill="#263238" stroke="#263238" stroke-miterlimit="10"/>
<path d="M110.646 137.789V139.2L93.1538 150.375L83.0663 121.061L84.5911 120.375L93.8966 148.259L110.646 137.789Z" fill="white" stroke="#263238" stroke-miterlimit="10"/>
<path d="M84.8208 120.273L83.0663 121.062L43.2442 118.677L45.292 117.678L84.7769 120.131L84.8208 120.273Z" fill="white" stroke="#263238" stroke-miterlimit="10"/>
<path d="M84.8208 120.273L84.7769 120.131L84.7084 119.876L45.3067 117.428H45.2432L42.6235 118.706L42.6773 118.887L83.0516 121.301H83.1103L84.8844 120.503L84.8208 120.273ZM83.0174 120.812L44.1875 118.49L45.3653 117.927L84.1171 120.332L83.0174 120.812Z" fill="#263238"/>
<path d="M93.8966 148.26L93.1537 150.375" stroke="#263238" stroke-miterlimit="10"/>
<path d="M185.745 129.088H162.97C162.97 129.088 162.97 135.214 166.185 143.231C166.185 144.769 169.866 145.998 174.406 145.998C178.946 145.998 182.622 144.759 182.622 143.231C182.631 143.156 182.631 143.08 182.622 143.006C185.71 135.097 185.745 129.088 185.745 129.088Z" fill="white" stroke="#263238" stroke-linecap="round" stroke-linejoin="round"/>
<path d="M174.435 132.414C180.751 132.414 185.872 130.925 185.872 129.089C185.872 127.252 180.751 125.764 174.435 125.764C168.119 125.764 162.999 127.252 162.999 129.089C162.999 130.925 168.119 132.414 174.435 132.414Z" fill="white" stroke="#263238" stroke-linecap="round" stroke-linejoin="round"/>
<path d="M174.435 126.307C180.105 126.307 184.699 127.555 184.699 129.088C184.699 130.621 180.105 131.87 174.435 131.87C168.766 131.87 164.172 130.626 164.172 129.088C164.172 127.551 168.766 126.307 174.435 126.307Z" fill="white" stroke="#263238" stroke-linecap="round" stroke-linejoin="round"/>
<path d="M165.14 130.262C166.782 131.213 170.32 131.859 174.425 131.859C178.531 131.859 182.079 131.213 183.711 130.262C182.074 129.322 178.526 128.666 174.425 128.666C170.325 128.666 166.782 129.322 165.14 130.262Z" fill="#263238" stroke="#263238" stroke-linecap="round" stroke-linejoin="round"/>
<path d="M169.651 130.528C169.651 130.528 166.674 123.089 167.549 121.101C168.424 119.113 171.263 119.367 172.26 121.351C173.257 123.334 173.727 130.778 173.727 130.778C173.727 130.778 170.765 131.772 169.651 130.528Z" fill="#FFB64C" stroke="#263238" stroke-linecap="round" stroke-linejoin="round"/>
<path d="M172.255 131.272C172.255 131.272 169.9 118.133 170.516 115.645C171.131 113.158 174.235 112.291 176.459 114.152C178.682 116.013 177.837 125.445 177.837 126.806C177.837 128.167 177.715 131.027 177.715 131.027C175.95 131.597 174.064 131.682 172.255 131.272Z" fill="#FFB64C" stroke="#263238" stroke-linecap="round" stroke-linejoin="round"/>
<path d="M177.079 131.028C177.079 131.028 175.242 125.935 176.341 123.951C177.441 121.968 179.679 122.712 179.679 124.324C179.679 125.935 179.806 129.789 179.557 130.651C179.308 131.513 177.949 131.772 177.079 131.028Z" fill="#FFB64C" stroke="#263238" stroke-linecap="round" stroke-linejoin="round"/>
<path d="M174.357 130.925C171.258 119.171 173.868 113.295 173.868 113.295C173.868 113.295 177.578 119.749 175.598 130.925" stroke="#263238" stroke-linecap="round" stroke-linejoin="round"/>
<path d="M169.279 120.852C169.279 120.852 166.43 120.979 171.136 130.778" stroke="#263238" stroke-linecap="round" stroke-linejoin="round"/>
<path d="M138.171 122.862C140.797 126.023 142.597 129.787 143.41 133.817H104.375C104.375 133.817 105.142 126.912 107.537 122.862C109.932 118.813 138.171 122.862 138.171 122.862Z" fill="#263238"/>
<path d="M156.992 69.9388C155.365 68.597 141.284 62.7596 141.284 62.7596C140.532 58.2444 138.059 56.0407 138.059 56.0407C138.059 56.0407 129.53 53.5579 126.818 55.6636C125.194 56.912 123.82 58.4553 122.766 60.2131C111.315 59.4834 107.454 63.3081 107.454 63.3081C107.454 63.3081 103.398 80.311 100.91 89.165C99.3953 94.5446 97.3726 99.7673 94.8693 104.762C94.8693 104.762 91.1842 110.433 93.7598 113.504C96.3355 116.574 107.381 116.628 107.381 116.628L105.367 127.725C105.367 127.725 108.397 130.174 120.582 133.019C132.766 135.864 142.682 128.474 142.682 128.474L138.45 117.559C142.848 116.667 149.5 111.8 149.5 111.8C156.103 102.005 158.38 75.9035 158.546 73.9643C158.713 72.025 158.615 71.2806 156.992 69.9388ZM140.375 104.762C140.375 104.762 138.318 103.538 138.259 103.509L138.171 100.081L146.416 90.7762L140.375 104.762Z" fill="#FFB64C"/>
<path d="M119.58 108.661C119.58 108.661 117.043 112.246 116.647 114.969C118.441 115.087 120.242 115.023 122.023 114.778C124.79 114.367 126.065 114.675 128.123 109.979L130.029 109.949C130.029 109.949 132.531 113.681 136.309 112.888C136.309 112.888 137.086 113.529 138.42 112.917L134.188 107.53C134.188 107.53 139.799 112.569 141.68 110.131L134.682 105.336C134.682 105.336 138.205 105.943 140.023 106.913C141.842 107.883 142.511 105.635 142.511 105.635L136.705 103.01C136.705 103.01 132.262 103.368 131.202 102.981C130.141 102.594 129.472 102.08 128.69 102.844C127.908 103.608 122.234 108.431 122.234 108.431L119.58 108.661Z" fill="white"/>
<path d="M116.809 114.997C116.809 114.997 124.276 114.997 125.567 114.047C126.857 113.097 128.118 109.978 128.118 109.978L130.024 109.948C130.024 109.948 133.704 113.817 136.304 112.887C136.304 112.887 130.068 106.241 128.973 105.859" stroke="#263238" stroke-width="0.985658" stroke-linecap="round" stroke-linejoin="round"/>
<path d="M136.074 112.628C136.388 112.911 136.782 113.09 137.202 113.138C137.622 113.186 138.046 113.102 138.415 112.897C138.415 112.897 131.945 104.895 130.518 104.66" stroke="#263238" stroke-width="0.985658" stroke-linecap="round" stroke-linejoin="round"/>
<path d="M120.029 108.461L122.233 108.427C122.233 108.427 127.028 104.784 127.913 103.598C128.797 102.413 129.833 102.271 130.488 102.781C131.143 103.29 136.705 103.006 136.705 103.006L142.506 105.621C142.506 105.621 141.695 107.462 140.395 107.031C139.095 106.6 136.167 105.317 134.677 105.322" stroke="#263238" stroke-width="0.985658" stroke-linecap="round" stroke-linejoin="round"/>
<path d="M133.23 104.229C133.23 104.229 136.964 107.084 138.606 108.146C140.248 109.209 141.68 110.105 141.68 110.105C141.68 110.105 140.273 111.109 138.904 110.546C137.536 109.983 132.893 106.564 132.893 106.564" stroke="#263238" stroke-width="0.985658" stroke-linecap="round" stroke-linejoin="round"/>
<path d="M116.916 115.865C116.916 115.865 117.356 110.022 121.139 107.721L115.328 106.707C115.328 106.707 111.418 111.08 111.555 115.684L116.916 115.865Z" fill="white"/>
<path d="M124.78 66.7708C124.78 66.7708 123.929 59.0089 126.803 55.6445C121.785 60.0816 118.532 66.1826 117.639 72.8286C117.639 72.8286 122.497 67.1969 124.78 66.7708Z" fill="white"/>
<path d="M108.564 105.507L105.416 100.732C105.382 100.682 105.331 100.645 105.273 100.628C105.214 100.612 105.151 100.617 105.096 100.644C105.041 100.67 104.997 100.715 104.972 100.771C104.948 100.827 104.944 100.889 104.962 100.948C105.334 102.155 105.865 103.308 106.54 104.376L102.968 101.384C102.905 101.331 102.827 101.299 102.745 101.295C102.663 101.29 102.581 101.311 102.513 101.356C102.444 101.402 102.392 101.468 102.364 101.545C102.336 101.622 102.333 101.707 102.357 101.785C102.694 102.868 103.383 104.464 104.663 105.414L108.564 105.507Z" fill="white" stroke="#263238" stroke-miterlimit="10"/>
<path d="M138.059 56.0371C138.059 56.0371 140.39 58.089 140.84 60.4445C141.289 62.8001 142.037 67.3005 142.037 67.3005L136.822 77.8C136.822 77.8 133.758 70.2682 129.002 68.3436C129.017 68.3143 137.057 63.4661 138.059 56.0371Z" fill="white"/>
<path d="M138.059 56.0415C138.459 56.6046 142.35 55.6252 142.873 55.5028C145.874 54.7878 148.806 53.2746 150.482 50.5812C152.706 47.0111 151.993 43.3481 151.04 39.5332C150.341 36.7369 149.573 33.9602 148.791 31.208C148.107 28.7595 147.726 26.164 146.69 23.8623C145.194 20.547 142.78 17.6332 139.452 16.0857C130.351 11.8741 117.62 18.6077 114.326 21.3109C111.032 24.0141 110.782 31.8594 118.763 36.3305C126.745 40.8015 138.039 55.9974 138.059 56.0415Z" fill="#263238"/>
<path d="M120.948 26.502C120.948 26.502 117.752 29.1023 117.649 30.5911C117.547 32.0798 118.03 33.6812 117.845 36.5411C117.659 39.401 117.126 44.5528 119.629 47.9612C119.629 47.9612 121.334 52.0112 126.495 54.117L126.803 55.6645C126.803 55.6645 124.716 60.0425 124.614 63.7056C124.545 66.2913 125.176 68.6566 129.467 68.2844C135.366 64.7829 137.853 56.9328 137.853 56.9328L135.986 47.8878L136.475 43.3579C136.475 43.3579 139.246 43.5734 140.077 41.1738C140.077 41.1738 141.695 33.2943 135.845 38.8819C128.548 36.972 123.592 32.3932 120.948 26.502Z" fill="white"/>
<path d="M123.03 45.5772C123.748 45.9401 124.571 46.0379 125.354 45.8535C126.137 45.669 126.83 45.214 127.311 44.5684" stroke="#263238" stroke-width="0.75" stroke-linecap="round" stroke-linejoin="round"/>
<path d="M122.38 36.7852C122.38 36.7852 121.535 41.7362 121.843 42.9213C121.843 42.9213 122.59 43.8175 124.369 43.5873" stroke="#263238" stroke-linecap="round" stroke-linejoin="round"/>
<path d="M120.948 26.502C120.948 26.502 118.363 28.9505 117.434 31.0318C117.665 32.86 117.802 34.6988 117.845 36.5411C117.845 38.833 116.809 42.9074 118.969 46.8741C121.129 50.8408 125.782 54.6654 128.45 54.5283C131.119 54.3912 135.894 51.6831 136.734 44.1023C136.734 44.1023 141.358 43.5832 141.133 41.5068C141.113 41.5215 145.165 34.45 120.948 26.502Z" stroke="#263238" stroke-linecap="round" stroke-linejoin="round"/>
<path d="M137.853 56.9332L135.791 48.0645" stroke="#263238" stroke-linecap="round" stroke-linejoin="round"/>
<path d="M124.78 66.7715C125.055 67.101 125.386 67.3795 125.757 67.5942C126.872 68.2357 128.174 68.4726 129.442 68.2651" stroke="#263238" stroke-linecap="round" stroke-linejoin="round"/>
<path d="M126.495 54.1172C126.588 54.6363 126.803 55.6647 126.803 55.6647L126.637 55.9389" stroke="#263238" stroke-linecap="round" stroke-linejoin="round"/>
<path d="M122.292 37.2422C122.419 39.7299 120.958 41.8259 119.027 41.9287C117.097 42.0316 115.421 40.0923 115.293 37.6045C115.166 35.1168 116.633 33.0208 118.563 32.918C120.494 32.8151 122.165 34.7544 122.292 37.2422Z" stroke="#263238" stroke-width="0.75" stroke-linecap="round" stroke-linejoin="round"/>
<path d="M127.327 41.059C129.26 40.9596 130.723 38.8623 130.596 36.3746C130.468 33.8869 128.798 31.9509 126.865 32.0504C124.932 32.1498 123.469 34.2471 123.596 36.7348C123.724 39.2225 125.394 41.1585 127.327 41.059Z" stroke="#263238" stroke-width="0.75" stroke-linecap="round" stroke-linejoin="round"/>
<path d="M127.473 103.421L114.849 95.6194C114.813 95.5888 114.788 95.5475 114.778 95.5017C114.767 95.4559 114.771 95.4079 114.79 95.3647C114.814 95.3129 114.857 95.2725 114.91 95.2523C114.963 95.2321 115.022 95.2338 115.074 95.257L127.702 103.068C127.726 103.082 127.746 103.101 127.762 103.123C127.778 103.145 127.789 103.17 127.795 103.196C127.801 103.223 127.801 103.25 127.796 103.277C127.791 103.304 127.781 103.329 127.766 103.352C127.748 103.385 127.721 103.413 127.688 103.432C127.656 103.451 127.618 103.461 127.58 103.46C127.541 103.459 127.503 103.445 127.473 103.421Z" fill="#263238"/>
<path d="M120.836 100.949L113.993 96.9331C113.944 96.9044 113.908 96.8574 113.894 96.8023C113.879 96.7473 113.887 96.6886 113.915 96.6392C113.946 96.5926 113.994 96.5595 114.048 96.5468C114.103 96.534 114.16 96.5426 114.208 96.5707L121.051 100.586C121.074 100.6 121.095 100.617 121.111 100.639C121.128 100.66 121.14 100.684 121.146 100.71C121.153 100.736 121.155 100.764 121.151 100.79C121.147 100.817 121.138 100.842 121.124 100.865C121.105 100.898 121.078 100.925 121.046 100.944C121.013 100.963 120.976 100.973 120.938 100.973C120.903 100.975 120.867 100.966 120.836 100.949Z" fill="#263238"/>
<path d="M151.284 80.8217C151.234 80.7964 151.196 80.7526 151.177 80.6996C151.159 80.6465 151.162 80.5885 151.186 80.5377C152.984 77.1475 154.997 73.8761 157.212 70.7434C157.244 70.6974 157.292 70.6655 157.347 70.6546C157.402 70.6436 157.459 70.6544 157.505 70.6846C157.549 70.717 157.579 70.7653 157.588 70.8192C157.597 70.8731 157.585 70.9285 157.554 70.9736C155.347 74.0837 153.344 77.3341 151.558 80.7042C151.541 80.742 151.513 80.7741 151.479 80.7967C151.444 80.8193 151.403 80.8314 151.362 80.8315L151.284 80.8217Z" fill="#263238"/>
<path d="M121.119 107.721C121.119 107.721 116.994 110.693 116.897 115.865H111.569C111.531 114.15 111.863 112.447 112.543 110.873C113.223 109.299 114.234 107.891 115.509 106.746L121.119 107.721Z" stroke="#263238" stroke-linecap="round" stroke-linejoin="round"/>
<path d="M115.509 106.747C115.509 106.747 104.194 104.259 99.5611 106.032" stroke="#263238" stroke-linecap="round" stroke-linejoin="round"/>
<path d="M104.434 105.311C104.434 105.311 102.699 103.2 102.186 101.638C102.16 101.559 102.16 101.474 102.187 101.396C102.214 101.318 102.266 101.25 102.335 101.205C102.404 101.159 102.486 101.137 102.569 101.143C102.651 101.149 102.73 101.182 102.792 101.236L106.54 104.371C105.919 103.258 105.354 102.113 104.849 100.943C104.815 100.869 104.81 100.785 104.836 100.707C104.861 100.63 104.914 100.565 104.985 100.525C105.056 100.486 105.14 100.474 105.219 100.494C105.298 100.513 105.366 100.561 105.411 100.629L108.901 105.629" stroke="#263238" stroke-linecap="round" stroke-linejoin="round"/>
<path d="M121.945 84.9194C121.945 84.9194 123.876 78.034 126.598 74.082" stroke="#263238" stroke-linecap="round" stroke-linejoin="round"/>
<path d="M129.687 68.2398C129.687 68.2398 136.607 63.5533 138.059 56.0312C138.059 56.0312 140.502 58.2839 140.991 61.0606C141.48 63.8373 142.037 67.2604 142.037 67.2604L136.612 78.181C136.612 78.181 133.509 70.135 130.674 69.4249" stroke="#263238" stroke-linecap="round" stroke-linejoin="round"/>
<path d="M126.803 55.6641C126.803 55.6641 123.9 58.8374 124.78 66.7904C124.78 66.7904 119.233 70.1351 117.512 73.3868C117.512 73.3868 120.67 58.906 126.803 55.6641Z" stroke="#263238" stroke-linecap="round" stroke-linejoin="round"/>
<path d="M122.219 36.5566H123.592" stroke="#263238" stroke-width="0.75" stroke-linecap="round" stroke-linejoin="round"/>
<path d="M117.639 39.1406C117.639 39.1406 114.99 45.2621 116.173 50.6636C117.356 56.0652 126.823 55.6636 126.823 55.6636L126.515 54.1161C126.515 54.1161 116.53 49.3414 117.639 39.1406Z" fill="#263238"/>
<path d="M123.074 21.0996C123.074 21.0996 127.908 34.0819 139.691 35.4629" stroke="#263238" stroke-width="0.75" stroke-linecap="round" stroke-linejoin="round"/>
<path d="M126.495 19.1914C126.495 19.1914 134.589 30.9935 145.443 31.4098" stroke="#263238" stroke-width="0.75" stroke-linecap="round" stroke-linejoin="round"/>
<path d="M125.718 37.4232C125.718 37.4232 126.696 36.243 129.017 36.9335" stroke="#263238" stroke-linecap="round" stroke-linejoin="round"/>
<path d="M121.329 38.0199C120.93 37.6807 120.452 37.4481 119.94 37.3436C119.427 37.2392 118.896 37.2663 118.397 37.4224" stroke="#263238" stroke-linecap="round" stroke-linejoin="round"/>
<path d="M127.932 38.8136C128.31 38.8136 128.616 38.2852 128.616 37.6333C128.616 36.9815 128.31 36.4531 127.932 36.4531C127.554 36.4531 127.248 36.9815 127.248 37.6333C127.248 38.2852 127.554 38.8136 127.932 38.8136Z" fill="#263238"/>
<path d="M121.207 38.4951C121.207 39.0337 120.953 39.4745 120.64 39.4745C120.327 39.4745 120.078 39.0435 120.078 38.4951C120.078 37.9466 120.332 37.5156 120.64 37.5156C120.948 37.5156 121.207 37.9613 121.207 38.4951Z" fill="#263238"/>
<path d="M124.369 34.5277C124.369 34.5277 125.801 32.6031 128.616 33.5482" stroke="#263238" stroke-linecap="round" stroke-linejoin="round"/>
<path d="M120.63 34.528C120.63 34.528 119.067 33.0981 117.806 34.2538" stroke="#263238" stroke-linecap="round" stroke-linejoin="round"/>
</g>
<defs>
<clipPath id="clip0_415_69439">
<rect width="236" height="157" fill="white" transform="translate(0.666656)"/>
</clipPath>
</defs>
</svg>
