<svg width="130" height="132" viewBox="0 0 130 132" fill="none" xmlns="http://www.w3.org/2000/svg">
<path d="M129.852 40.8354C125.367 30.6811 118.448 21.7895 109.706 14.9482C100.965 8.10688 90.6707 3.52703 79.7363 1.61432C68.8019 -0.298399 57.5645 0.515063 47.0196 3.98264C36.4747 7.45022 26.9477 13.4649 19.2825 21.4939C11.6173 29.5229 6.05049 39.3183 3.07523 50.0126C0.09997 60.7069 -0.19195 71.9699 2.22534 82.8039C4.64265 93.638 9.69455 103.709 16.9335 112.124C24.1725 120.539 33.3752 127.039 43.7264 131.048L53.478 105.871C47.2673 103.465 41.7457 99.5654 37.4023 94.5162C33.0589 89.4671 30.0278 83.4247 28.5774 76.9242C27.127 70.4238 27.3021 63.666 29.0873 57.2494C30.8725 50.8329 34.2125 44.9556 38.8116 40.1382C43.4108 35.3208 49.127 31.712 55.4539 29.6315C61.7809 27.5509 68.5233 27.0628 75.084 28.2105C81.6446 29.3581 87.821 32.106 93.066 36.2108C98.3109 40.3156 102.463 45.6505 105.153 51.7431L129.852 40.8354Z" fill="#FAA500"/>
</svg>
