<svg width="184" height="184" viewBox="0 0 184 184" fill="none" xmlns="http://www.w3.org/2000/svg">
<path d="M92 157.342C131.406 157.342 163.351 155.477 163.351 153.176C163.351 150.876 131.406 149.01 92 149.01C52.5936 149.01 20.6484 150.876 20.6484 153.176C20.6484 155.477 52.5936 157.342 92 157.342Z" fill="#F5F5F5"/>
<path d="M105.834 68.1316L105.381 68.7314C105.234 68.9228 105.08 69.0994 104.929 69.2871C104.631 69.6551 104.311 70.0231 103.994 70.3616C103.344 71.0734 102.657 71.7514 101.937 72.393C101.569 72.7205 101.201 73.0407 100.793 73.3535C100.384 73.6663 99.9682 73.9644 99.5192 74.2588C98.5119 74.9431 97.3902 75.4416 96.2072 75.7308L96.0784 75.7602C95.9576 75.7883 95.8344 75.8043 95.7104 75.808C95.1101 75.8287 94.5122 75.7234 93.9551 75.4989C93.5655 75.3446 93.195 75.1458 92.8511 74.9064C92.3187 74.5314 91.8255 74.1036 91.3791 73.6295C90.6224 72.8236 89.9378 71.953 89.333 71.0277C88.7552 70.1445 88.229 69.254 87.7579 68.345C87.2775 67.4361 86.8451 66.5025 86.4626 65.5482C86.3279 65.2246 86.3132 64.8636 86.4209 64.5301C86.5286 64.1966 86.7518 63.9125 87.0503 63.7289C87.3489 63.5452 87.7031 63.4741 88.0493 63.5284C88.3956 63.5826 88.7111 63.7586 88.9392 64.0247L88.9723 64.0615L90.8675 66.2032C91.5042 66.9098 92.1408 67.6053 92.7885 68.2567C93.3892 68.8781 94.0309 69.4584 94.7095 69.9936C94.9678 70.1991 95.248 70.3755 95.5448 70.5199C95.6059 70.5528 95.6741 70.5705 95.7436 70.5714C95.7436 70.5714 95.6589 70.5015 95.4307 70.5015L94.9266 70.5824C95.4227 70.3307 95.8892 70.0246 96.3176 69.6698C96.8964 69.1918 97.4504 68.6845 97.9773 68.15C98.5256 67.5869 99.0813 66.9981 99.6223 66.3872L100.425 65.4636L101.19 64.562L101.282 64.4552C101.782 63.8852 102.483 63.5301 103.238 63.4639C103.994 63.3977 104.745 63.6255 105.337 64.0999C105.928 64.5743 106.314 65.2587 106.414 66.0104C106.513 66.7622 106.319 67.5233 105.871 68.1352L105.834 68.1316Z" fill="#263238"/>
<path d="M87.0214 64.6283C85.6009 64.8491 84.2504 62.5454 84.2504 62.5454L83.1868 61.2795C83.0144 61.073 82.9199 60.8125 82.9199 60.5435C82.9199 60.2745 83.0144 60.014 83.1868 59.8075L84.1032 58.7403C84.2027 58.6249 84.3242 58.5304 84.4607 58.4625C84.5971 58.3945 84.7457 58.3544 84.8978 58.3445C85.0498 58.3345 85.2024 58.355 85.3465 58.4046C85.4906 58.4543 85.6234 58.5321 85.7371 58.6336L86.9552 59.7376C87.1726 59.933 87.3458 60.1726 87.463 60.4404L87.9377 61.5444C88.1362 62.0023 88.2007 62.5071 88.1239 63.0002C88.047 63.4933 87.8319 63.9545 87.5035 64.3302L87.4152 64.4332C87.3081 64.5387 87.1701 64.607 87.0214 64.6283Z" fill="#FFC3BD"/>
<path d="M121.661 117.333C119.861 104.004 119.151 96.096 117.981 89.4683L106.643 89.2991C106.643 89.2991 111.732 110.555 114.153 119.232C116.575 127.91 130.272 149.46 130.272 149.46L133.282 147.671C133.282 147.671 124.899 127.428 121.661 117.333Z" fill="#263238"/>
<path d="M128.259 152.808C128.259 152.808 130.526 150.037 130.489 149.099L132.984 147.627L134.357 150.369L133.153 151.105L132.785 150.99L132.524 151.476C131.28 152.212 129.278 153.338 128.347 153.511C128.274 153.411 128.228 153.294 128.213 153.171C128.197 153.048 128.213 152.924 128.259 152.808Z" fill="#263238"/>
<path d="M117.489 62.6338C113.481 62.137 107.752 62.1812 103.91 62.8472C102.95 63.0216 102.07 63.4931 101.393 64.1951C100.716 64.897 100.277 65.7939 100.138 66.7591C99.3282 72.5588 100.024 82.6972 100.543 92.8871C109.312 95.89 118.575 92.8466 118.575 92.8466C118.895 90.7858 118.177 84.0404 117.691 80.4413C118.427 76.7208 119.951 72.4631 120.967 67.5245C121.088 66.9724 121.093 66.401 120.98 65.847C120.867 65.293 120.64 64.7687 120.312 64.308C119.985 63.8472 119.564 63.4602 119.078 63.1719C118.592 62.8835 118.05 62.7002 117.489 62.6338Z" fill="#263238"/>
<path d="M107.155 62.4572C106.613 63.0843 106.273 63.8602 106.179 64.6836C105.767 67.0388 106.235 70.6709 107.475 74.833C108.663 71.4805 111.221 67.0424 112.796 64.4664C113.532 63.2447 114.058 62.4388 114.106 62.3652C111.816 61.8303 109.43 61.8619 107.155 62.4572Z" fill="#FAA500"/>
<path d="M113.521 54.9756L108.957 58.7181C109.546 60.2895 109.734 61.9234 107.154 62.5527C106.51 63.4065 107.647 64.3927 108.715 64.8269C110.437 64.6135 112.862 64.0394 113.911 62.6189C113.58 61.4561 113.079 57.2977 113.521 54.9756Z" fill="#FFC3BD"/>
<path d="M107.625 63.8813C107.815 64.4293 108.14 64.9205 108.571 65.3091C109.266 65.3091 110.286 64.5253 110.286 64.5253C110.286 64.5253 109.892 63.4213 109.34 63.1968C107.927 63.5427 107.625 63.8813 107.625 63.8813Z" fill="white"/>
<path d="M109.215 64.8271C109.106 64.7448 108.982 64.6851 108.85 64.6516C108.718 64.6181 108.581 64.6115 108.446 64.632C107.533 65.9311 106.952 67.944 106.389 70.2698C106.658 71.8114 107.02 73.3353 107.474 74.833C107.984 73.4492 108.576 72.0974 109.248 70.785C108.991 68.808 108.98 66.8068 109.215 64.8271Z" fill="white"/>
<path opacity="0.2" d="M111.618 56.5359L108.957 58.7144C109.101 59.0781 109.208 59.4554 109.277 59.8405C110.308 59.9141 111.743 58.8727 111.809 57.9306C111.831 57.4579 111.766 56.9852 111.618 56.5359Z" fill="black"/>
<path d="M106.684 48.7823C105.212 49.6361 105.973 50.4861 105.973 50.4861C105.973 50.4861 105.344 52.1789 106.18 53.3455C110.095 48.6572 106.684 48.7823 106.684 48.7823Z" fill="#263238"/>
<path d="M114.176 52.4217C113.761 55.2848 113.661 56.9813 112.086 58.3281C109.709 60.3485 106.264 58.6961 105.83 55.7521C105.425 53.1099 106.172 48.8705 109.091 47.9837C109.736 47.7902 110.421 47.7636 111.08 47.9063C111.738 48.0489 112.35 48.3562 112.858 48.7994C113.366 49.2426 113.753 49.8073 113.984 50.4408C114.214 51.0742 114.281 51.7557 114.176 52.4217Z" fill="#FFC3BD"/>
<path d="M114.111 54.2102C112.271 54.4015 112.613 51.3729 113.242 50.7767C111.446 50.8099 111.792 49.6102 112.013 49.1686C109.021 49.7979 106.905 49.9303 105.555 48.4326C104.554 47.3286 103.49 48.5651 103.174 47.4095C103.91 47.8033 105.238 45.8345 106.136 46.6515C107.034 47.4684 107.928 44.6127 109.286 45.8345C111.126 47.4721 115.954 43.0119 115.513 47.9284C118.034 50.0518 114.644 51.395 114.865 53.6508C114.173 54.6849 114.111 54.2102 114.111 54.2102Z" fill="#263238"/>
<path d="M114.545 48.5392C114.5 48.5389 114.458 48.5228 114.424 48.4939C114.39 48.4649 114.368 48.4249 114.361 48.381C114.355 48.3327 114.368 48.2839 114.397 48.2453C114.427 48.2066 114.471 48.1813 114.519 48.1749C115.115 48.0173 115.636 47.6551 115.991 47.1519C116.098 47.0023 116.169 46.8307 116.2 46.6498C116.231 46.4689 116.222 46.2833 116.171 46.1068C116.159 46.0594 116.165 46.0091 116.189 45.9665C116.214 45.9239 116.253 45.8923 116.3 45.8786C116.323 45.8719 116.347 45.8698 116.371 45.8725C116.395 45.8751 116.418 45.8825 116.439 45.8942C116.46 45.9058 116.478 45.9215 116.493 45.9403C116.508 45.9591 116.518 45.9807 116.525 46.0037C116.588 46.231 116.601 46.4694 116.562 46.7021C116.523 46.9348 116.434 47.1562 116.3 47.3506C115.888 47.9473 115.269 48.3706 114.563 48.5392H114.545Z" fill="#263238"/>
<path d="M115.147 54.6444C114.876 55.2502 114.376 55.7239 113.756 55.9618C112.932 56.271 112.435 55.5497 112.597 54.729C112.744 53.993 113.333 52.9479 114.209 52.9921C114.397 53.0044 114.579 53.0632 114.738 53.1632C114.898 53.2632 115.03 53.4014 115.123 53.5652C115.216 53.7291 115.267 53.9135 115.272 54.1018C115.276 54.2902 115.233 54.4766 115.147 54.6444Z" fill="#FFC3BD"/>
<path d="M109.881 52.5248C109.859 52.7603 109.719 52.9406 109.568 52.9259C109.417 52.9112 109.303 52.7088 109.325 52.4732C109.347 52.2377 109.483 52.0611 109.638 52.0758C109.792 52.0905 109.899 52.2929 109.881 52.5248Z" fill="#263238"/>
<path d="M107.088 52.4585C107.066 52.694 106.926 52.8707 106.775 52.8559C106.624 52.8412 106.51 52.6425 106.532 52.407C106.554 52.1715 106.69 51.9948 106.845 52.0059C106.999 52.0169 107.088 52.223 107.088 52.4585Z" fill="#263238"/>
<path d="M107.921 52.7712C107.583 53.4628 107.149 54.1032 106.633 54.6738C106.783 54.8036 106.959 54.8991 107.15 54.9538C107.341 55.0084 107.541 55.0209 107.737 54.9903L107.921 52.7712Z" fill="#ED847E"/>
<path d="M110.839 51.822C110.862 51.8276 110.886 51.8276 110.909 51.822C110.943 51.8081 110.97 51.7814 110.985 51.7476C110.999 51.7139 111 51.6758 110.986 51.6417C110.909 51.4356 110.784 51.2507 110.622 51.1023C110.459 50.9539 110.264 50.8461 110.052 50.7879C110.034 50.7841 110.016 50.7839 109.998 50.7873C109.98 50.7906 109.963 50.7975 109.948 50.8074C109.933 50.8173 109.92 50.8301 109.91 50.8451C109.9 50.8601 109.893 50.8769 109.89 50.8946C109.882 50.9307 109.889 50.9684 109.909 50.9994C109.929 51.0304 109.96 51.0523 109.996 51.0602C110.165 51.1079 110.319 51.1948 110.447 51.3138C110.575 51.4328 110.673 51.5805 110.732 51.7447C110.743 51.7652 110.758 51.7829 110.776 51.7963C110.795 51.8098 110.817 51.8186 110.839 51.822Z" fill="#263238"/>
<path d="M106.046 51.5642C106.068 51.5713 106.091 51.573 106.114 51.5691C106.136 51.5653 106.157 51.556 106.175 51.5421C106.311 51.4343 106.47 51.3607 106.64 51.3274C106.809 51.2941 106.984 51.3021 107.15 51.3507C107.168 51.3571 107.186 51.36 107.204 51.3591C107.222 51.3583 107.24 51.3538 107.257 51.3459C107.273 51.338 107.288 51.3269 107.3 51.3132C107.312 51.2995 107.321 51.2835 107.327 51.2661C107.339 51.2319 107.337 51.1944 107.322 51.1614C107.307 51.1285 107.28 51.1027 107.246 51.0895C107.037 51.0264 106.815 51.0146 106.6 51.0549C106.385 51.0953 106.182 51.1866 106.01 51.3213C105.98 51.3433 105.96 51.3762 105.955 51.4128C105.949 51.4493 105.958 51.4865 105.98 51.5164C105.998 51.5375 106.021 51.5539 106.046 51.5642Z" fill="#263238"/>
<path d="M114.11 62.3613C114.062 62.4349 113.539 63.2408 112.8 64.4626C112.049 65.1549 111.128 65.6372 110.132 65.861C110.283 65.3679 109.841 63.7045 109.352 63.193C110.976 63.2143 112.589 62.9323 114.11 62.3613Z" fill="#FAA500"/>
<path opacity="0.3" d="M114.11 62.3613C114.062 62.4349 113.539 63.2408 112.8 64.4626C112.049 65.1549 111.128 65.6372 110.132 65.861C110.283 65.3679 109.841 63.7045 109.352 63.193C110.976 63.2143 112.589 62.9323 114.11 62.3613Z" fill="white"/>
<path d="M109.341 63.1967C108.813 63.4268 108.338 63.7617 107.944 64.1812C107.55 64.6006 107.245 65.0957 107.048 65.6366C106.844 65.5481 106.661 65.4175 106.512 65.2532C106.362 65.0889 106.249 64.8947 106.18 64.6834C106.273 63.8601 106.613 63.0841 107.155 62.457C107.42 62.7956 108.148 63.1305 109.341 63.1967Z" fill="#FAA500"/>
<path opacity="0.3" d="M109.341 63.1967C108.813 63.4268 108.338 63.7617 107.944 64.1812C107.55 64.6006 107.245 65.0957 107.048 65.6366C106.844 65.5481 106.661 65.4175 106.512 65.2532C106.362 65.0889 106.249 64.8947 106.18 64.6834C106.273 63.8601 106.613 63.0841 107.155 62.457C107.42 62.7956 108.148 63.1305 109.341 63.1967Z" fill="white"/>
<path d="M120.281 64.3413C121.017 65.1803 121.646 65.9863 122.287 66.8437C122.927 67.7011 123.531 68.5659 124.105 69.4823C124.707 70.4126 125.255 71.3772 125.746 72.3711C126.013 72.9054 126.253 73.4532 126.464 74.0123C126.716 74.67 126.9 75.352 127.012 76.0474L127.041 76.2277C127.1 76.5988 127.064 76.9788 126.935 77.3317C126.514 78.4436 125.912 79.4782 125.154 80.3935C124.822 80.8086 124.467 81.2042 124.09 81.5784C123.722 81.9464 123.354 82.3144 122.986 82.6272C122.231 83.2716 121.435 83.8677 120.605 84.412C119.782 84.9621 118.921 85.454 118.029 85.884C117.716 86.062 117.349 86.1194 116.997 86.0452C116.645 85.9711 116.333 85.7705 116.118 85.4815C115.904 85.1925 115.803 84.835 115.834 84.4766C115.866 84.1181 116.027 83.7836 116.288 83.5362L116.355 83.4663C116.925 82.848 117.554 82.1819 118.121 81.5306C118.688 80.8792 119.254 80.2168 119.759 79.5471C120.252 78.9149 120.7 78.2483 121.098 77.5525C121.431 76.9872 121.679 76.3759 121.834 75.7383L121.757 77.0079C121.654 76.7116 121.531 76.4226 121.389 76.1431C121.209 75.7971 121.021 75.4071 120.778 75.0391C120.535 74.6711 120.303 74.2773 120.042 73.8946C119.781 73.5119 119.519 73.1218 119.243 72.7354C118.688 71.9663 118.114 71.1861 117.521 70.417L115.755 68.1391L115.718 68.0912C115.239 67.4872 115.015 66.7192 115.096 65.9523C115.177 65.1854 115.556 64.4809 116.151 63.9902C116.745 63.4995 117.509 63.2617 118.277 63.3281C119.046 63.3944 119.757 63.7595 120.259 64.345L120.281 64.3413Z" fill="#263238"/>
<path d="M117.76 85.2694C117.768 85.1107 117.72 84.9542 117.624 84.8278L116.821 83.7238C116.745 83.6179 116.64 83.5359 116.519 83.4877C116.398 83.4394 116.265 83.4269 116.137 83.4515L114.996 83.6649C113.89 83.8752 112.842 84.3207 111.923 84.9713L111.621 85.1847C111.497 85.2728 111.392 85.3849 111.311 85.5143C111.231 85.6437 111.177 85.7879 111.153 85.9383C111.129 86.0888 111.135 86.2426 111.171 86.3906C111.208 86.5386 111.273 86.6779 111.364 86.8003L112.199 87.93C112.36 88.1484 112.594 88.3023 112.858 88.3643C113.123 88.4263 113.4 88.3924 113.642 88.2686L115.114 87.5105C115.114 87.5105 117.675 86.7046 117.76 85.2694Z" fill="#FFC3BD"/>
<path d="M117.132 83.0689C116.597 82.9987 116.055 83.0099 115.524 83.102C115.196 83.9447 116.587 86.4802 117.301 86.9218C117.757 86.8151 118.795 85.9246 118.795 85.9246C118.184 85.1113 117.551 83.6908 117.132 83.0689Z" fill="#FAA500"/>
<path d="M88.9748 64.0322C88.9864 63.4935 88.9157 62.9561 88.7651 62.4388C87.8929 62.2069 85.5267 63.8666 85.166 64.6247C85.3206 65.0663 86.3215 66.001 86.3215 66.001C87.0649 65.3018 88.4044 64.5143 88.9748 64.0322Z" fill="#FAA500"/>
<path d="M130.14 149.651L133.54 147.756L132.764 145.651L128.984 148.212L130.14 149.651Z" fill="#FAA500"/>
<path d="M110.523 118.533C111.332 105.086 112.885 96.0848 112.237 89.4608L100.914 89.2915C100.914 89.2915 102.062 110.636 102.754 119.512C103.446 128.388 107.273 150.335 107.273 150.335H110.776C110.776 150.335 111.752 128.94 110.523 118.533Z" fill="#263238"/>
<path d="M101.591 152.197C101.591 152.197 107.284 150.968 107.645 150.144H110.548L110.64 153.206H108.274L107.987 152.926L107.545 153.206C106.099 153.206 102.305 153.151 101.385 152.838C101.357 152.722 101.362 152.602 101.398 152.489C101.435 152.376 101.501 152.275 101.591 152.197Z" fill="#263238"/>
<path d="M107.096 150.442L110.996 150.549L111.177 148.341L106.65 148.613L107.096 150.442Z" fill="#FAA500"/>
<path d="M108.817 55.833C108.667 55.8381 108.517 55.8307 108.368 55.8109C108.358 55.8092 108.348 55.8054 108.34 55.7998C108.331 55.7941 108.324 55.7867 108.318 55.778C108.313 55.7693 108.309 55.7596 108.307 55.7494C108.306 55.7393 108.307 55.7289 108.309 55.7189C108.313 55.6981 108.325 55.6794 108.342 55.667C108.359 55.6546 108.38 55.6495 108.401 55.6527C108.737 55.7009 109.08 55.6734 109.404 55.5722C109.728 55.4709 110.025 55.2985 110.274 55.0676C110.28 55.0577 110.288 55.0492 110.298 55.0428C110.308 55.0364 110.318 55.0322 110.33 55.0306C110.341 55.0289 110.353 55.0299 110.364 55.0333C110.375 55.0368 110.385 55.0427 110.394 55.0506C110.402 55.0584 110.409 55.0681 110.413 55.0789C110.417 55.0896 110.419 55.1012 110.418 55.1127C110.417 55.1242 110.414 55.1354 110.408 55.1454C110.402 55.1554 110.394 55.164 110.385 55.1706C109.962 55.5773 109.403 55.8132 108.817 55.833Z" fill="#263238"/>
<path d="M131.281 114.364H128.234V114.732H131.281V114.364Z" fill="#FAA500"/>
<path d="M140.382 114.364H133.537V114.732H140.382V114.364Z" fill="#FAA500"/>
<path d="M142.608 99.4521H99.9202L93.0386 112.167C92.9696 112.295 92.9348 112.439 92.9377 112.584C92.9405 112.73 92.9809 112.872 93.0549 112.998C93.1289 113.123 93.234 113.227 93.3601 113.3C93.4862 113.373 93.629 113.412 93.7746 113.414H142.608L146.097 106.422L142.608 99.4521Z" fill="#FAA500"/>
<path d="M94.7502 37.8452C102.128 38.5233 109.018 41.829 114.163 47.1603C119.309 52.4916 122.368 59.4937 122.784 66.8914C122.791 67.032 122.832 67.1687 122.905 67.2891C122.978 67.4095 123.08 67.5097 123.201 67.5807C123.323 67.6517 123.46 67.6911 123.601 67.6954C123.741 67.6997 123.881 67.6688 124.006 67.6053L129.191 65.0293C129.384 64.9296 129.598 64.8776 129.815 64.8776C130.032 64.8776 130.246 64.9296 130.439 65.0293L135.528 67.5722C135.66 67.6385 135.807 67.6691 135.955 67.661C136.102 67.6529 136.245 67.6063 136.369 67.526C136.493 67.4456 136.593 67.3342 136.661 67.2029C136.728 67.0716 136.76 66.9249 136.754 66.7773C136.295 55.6775 131.735 45.1426 123.956 37.2113C116.177 29.2801 105.732 24.5166 94.6435 23.8428L91.1953 30.7391L94.7502 37.8452Z" fill="#FAA500"/>
<path opacity="0.6" d="M94.7502 37.8452C102.128 38.5233 109.018 41.829 114.163 47.1603C119.309 52.4916 122.368 59.4937 122.784 66.8914C122.791 67.032 122.832 67.1687 122.905 67.2891C122.978 67.4095 123.08 67.5097 123.201 67.5807C123.323 67.6517 123.46 67.6911 123.601 67.6954C123.741 67.6997 123.881 67.6688 124.006 67.6053L129.191 65.0293C129.384 64.9296 129.598 64.8776 129.815 64.8776C130.032 64.8776 130.246 64.9296 130.439 65.0293L135.528 67.5722C135.66 67.6385 135.807 67.6691 135.955 67.661C136.102 67.6529 136.245 67.6063 136.369 67.526C136.493 67.4456 136.593 67.3342 136.661 67.2029C136.728 67.0716 136.76 66.9249 136.754 66.7773C136.295 55.6775 131.735 45.1426 123.956 37.2113C116.177 29.2801 105.732 24.5166 94.6435 23.8428L91.1953 30.7391L94.7502 37.8452Z" fill="white"/>
<path d="M61.217 65.8021C61.8952 58.4232 65.2015 51.5335 70.5335 46.3878C75.8655 41.2422 82.8686 38.1832 90.2669 37.7679C90.4068 37.76 90.5425 37.7175 90.6619 37.6443C90.7812 37.571 90.8806 37.4693 90.951 37.3482C91.0214 37.2271 91.0606 37.0905 91.0652 36.9505C91.0698 36.8105 91.0395 36.6716 90.9772 36.5461L88.3828 31.361C88.2864 31.1665 88.2363 30.9525 88.2363 30.7354C88.2363 30.5184 88.2864 30.3043 88.3828 30.1098L90.9293 25.0241C90.9946 24.8917 91.0244 24.7446 91.0156 24.5973C91.0068 24.45 90.9598 24.3075 90.8792 24.1838C90.7986 24.0602 90.6872 23.9596 90.556 23.8921C90.4248 23.8245 90.2782 23.7923 90.1308 23.7986C79.0366 24.2665 68.5095 28.829 60.5827 36.6049C52.6559 44.3808 47.8919 54.8184 47.2109 65.9015L54.0962 69.3497L61.217 65.8021Z" fill="#FAA500"/>
<path opacity="0.4" d="M61.217 65.8021C61.8952 58.4232 65.2015 51.5335 70.5335 46.3878C75.8655 41.2422 82.8686 38.1832 90.2669 37.7679C90.4068 37.76 90.5425 37.7175 90.6619 37.6443C90.7812 37.571 90.8806 37.4693 90.951 37.3482C91.0214 37.2271 91.0606 37.0905 91.0652 36.9505C91.0698 36.8105 91.0395 36.6716 90.9772 36.5461L88.3828 31.361C88.2864 31.1665 88.2363 30.9525 88.2363 30.7354C88.2363 30.5184 88.2864 30.3043 88.3828 30.1098L90.9293 25.0241C90.9946 24.8917 91.0244 24.7446 91.0156 24.5973C91.0068 24.45 90.9598 24.3075 90.8792 24.1838C90.7986 24.0602 90.6872 23.9596 90.556 23.8921C90.4248 23.8245 90.2782 23.7923 90.1308 23.7986C79.0366 24.2665 68.5095 28.829 60.5827 36.6049C52.6559 44.3808 47.8919 54.8184 47.2109 65.9015L54.0962 69.3497L61.217 65.8021Z" fill="white"/>
<path d="M89.1741 99.3305C81.7957 98.6534 74.906 95.3485 69.7598 90.0179C64.6136 84.6873 61.5532 77.6856 61.1361 70.288C61.1295 70.1479 61.088 70.0118 61.0154 69.8918C60.9428 69.7719 60.8414 69.6719 60.7205 69.601C60.5995 69.5301 60.4628 69.4905 60.3227 69.4858C60.1826 69.4811 60.0435 69.5114 59.9181 69.574L54.7366 72.15C54.5415 72.2487 54.326 72.3004 54.1073 72.3009C53.8911 72.2999 53.6781 72.2482 53.4854 72.15L48.3923 69.6072C48.2602 69.542 48.1135 69.5123 47.9665 69.521C47.8195 69.5296 47.6773 69.5763 47.5537 69.6564C47.4302 69.7365 47.3296 69.8474 47.2617 69.9781C47.1939 70.1088 47.1612 70.2549 47.1669 70.402C47.6028 81.2564 51.9789 91.58 59.4765 99.4409H37.9043L41.4371 106.51L38.0294 113.344H89.2771L92.7363 106.437L89.1741 99.3305Z" fill="#FAA500"/>
<path opacity="0.2" d="M89.1741 99.3305C81.7957 98.6534 74.906 95.3485 69.7598 90.0179C64.6136 84.6873 61.5532 77.6856 61.1361 70.288C61.1295 70.1479 61.088 70.0118 61.0154 69.8918C60.9428 69.7719 60.8414 69.6719 60.7205 69.601C60.5995 69.5301 60.4628 69.4905 60.3227 69.4858C60.1826 69.4811 60.0435 69.5114 59.9181 69.574L54.7366 72.15C54.5415 72.2487 54.326 72.3004 54.1073 72.3009C53.8911 72.2999 53.6781 72.2482 53.4854 72.15L48.3923 69.6072C48.2602 69.542 48.1135 69.5123 47.9665 69.521C47.8195 69.5296 47.6773 69.5763 47.5537 69.6564C47.4302 69.7365 47.3296 69.8474 47.2617 69.9781C47.1939 70.1088 47.1612 70.2549 47.1669 70.402C47.6028 81.2564 51.9789 91.58 59.4765 99.4409H37.9043L41.4371 106.51L38.0294 113.344H89.2771L92.7363 106.437L89.1741 99.3305Z" fill="white"/>
<path d="M122.706 71.3701C122.027 78.7477 118.721 85.6361 113.39 90.7809C108.059 95.9257 101.057 98.9846 93.6597 99.4006C93.5195 99.4079 93.3834 99.45 93.2635 99.523C93.1437 99.596 93.0439 99.6977 92.973 99.8188C92.9022 99.94 92.8627 100.077 92.8579 100.217C92.8531 100.357 92.8833 100.497 92.9458 100.622L95.5218 105.807C95.6181 106.001 95.6682 106.215 95.6682 106.431C95.6682 106.648 95.6181 106.861 95.5218 107.055L92.9789 112.144C92.9126 112.276 92.882 112.423 92.8901 112.571C92.8982 112.718 92.9448 112.861 93.0251 112.985C93.1055 113.109 93.2169 113.21 93.3482 113.277C93.4795 113.345 93.6263 113.377 93.7738 113.37C104.872 112.911 115.406 108.352 123.337 100.575C131.268 92.7973 136.033 82.3545 136.708 71.267L129.812 67.8188L122.706 71.3701Z" fill="#FAA500"/>
<path opacity="0.8" d="M122.706 71.3701C122.027 78.7477 118.721 85.6361 113.39 90.7809C108.059 95.9257 101.057 98.9846 93.6597 99.4006C93.5195 99.4079 93.3834 99.45 93.2635 99.523C93.1437 99.596 93.0439 99.6977 92.973 99.8188C92.9022 99.94 92.8627 100.077 92.8579 100.217C92.8531 100.357 92.8833 100.497 92.9458 100.622L95.5218 105.807C95.6181 106.001 95.6682 106.215 95.6682 106.431C95.6682 106.648 95.6181 106.861 95.5218 107.055L92.9789 112.144C92.9126 112.276 92.882 112.423 92.8901 112.571C92.8982 112.718 92.9448 112.861 93.0251 112.985C93.1055 113.109 93.2169 113.21 93.3482 113.277C93.4795 113.345 93.6263 113.377 93.7738 113.37C104.872 112.911 115.406 108.352 123.337 100.575C131.268 92.7973 136.033 82.3545 136.708 71.267L129.812 67.8188L122.706 71.3701Z" fill="white"/>
<path d="M91.6502 67.8408L89.6372 62.0816L86.5754 62.3649C85.8491 61.2917 84.9828 60.3202 83.9994 59.4761L84.6287 56.4659L79.1198 53.8163L77.1546 56.1825C75.88 55.9354 74.5778 55.8611 73.2833 55.9617L71.6015 53.3857L65.8423 55.3987L66.1257 58.4605C65.0525 59.1868 64.081 60.0531 63.2369 61.0365L60.223 60.4072L57.5734 65.9051L59.9433 67.8702C59.6961 69.1449 59.6219 70.4471 59.7225 71.7416L57.1465 73.4233L59.1594 79.1825L62.2175 78.8992C62.9441 79.9733 63.8104 80.946 64.7935 81.7917L64.1642 84.8019L69.6622 87.4515L71.6273 85.0816C72.9007 85.3287 74.2017 85.403 75.495 85.3024L77.1804 87.8784L82.9396 85.8654L82.6562 82.8073C83.7284 82.0796 84.6997 81.2134 85.545 80.2313L88.5553 80.8606L91.2049 75.3627L88.8386 73.4013C89.0857 72.1266 89.16 70.8244 89.0594 69.5299L91.6502 67.8408ZM76.621 76.9819C75.3665 77.4207 74.0099 77.4775 72.723 77.1453C71.4361 76.813 70.2767 76.1066 69.3913 75.1154C68.5059 74.1241 67.9343 72.8926 67.7488 71.5765C67.5634 70.2604 67.7724 68.9188 68.3495 67.7215C68.9265 66.5242 69.8456 65.5249 70.9906 64.85C72.1356 64.1751 73.455 63.8549 74.782 63.9299C76.109 64.0049 77.3839 64.4718 78.4456 65.2714C79.5072 66.071 80.3079 67.1675 80.7463 68.4222C81.3331 70.1044 81.2283 71.9507 80.4548 73.5556C79.6813 75.1605 78.3024 76.3929 76.621 76.9819Z" fill="#FAA500"/>
<path d="M54.5002 71.4803C54.3273 71.7526 54.1322 72.1096 53.9151 72.4297C53.698 72.7499 53.525 73.0995 53.3373 73.4417C52.9693 74.1225 52.6013 74.8144 52.2554 75.5172C51.5622 76.9195 50.9479 78.3594 50.4154 79.8302C50.1836 80.4116 50.4154 80.0657 50.1468 79.7014C50.0217 79.5505 49.9407 79.5542 49.9849 79.58C50.067 79.6261 50.1567 79.6572 50.2498 79.672C50.9344 79.7852 51.6307 79.8099 52.3217 79.7456C53.8489 79.6536 55.4644 79.4217 57.0321 79.1678H57.0394C57.2401 79.1341 57.4461 79.1758 57.6179 79.2849C57.7896 79.394 57.915 79.5627 57.9698 79.7587C58.0246 79.9546 58.005 80.1639 57.9148 80.3463C57.8245 80.5287 57.67 80.6712 57.481 80.7465C55.9136 81.4003 54.2869 81.9019 52.6234 82.2443C52.1965 82.3252 51.7586 82.3952 51.2986 82.4393C50.8093 82.49 50.316 82.49 49.8266 82.4393C49.5127 82.406 49.2039 82.3356 48.9066 82.2296C48.4546 82.0692 48.0593 81.7801 47.7695 81.3979C47.5932 81.1558 47.468 80.8803 47.4015 80.5883C47.3439 80.3337 47.3265 80.0717 47.35 79.8118C47.3681 79.6149 47.405 79.4202 47.4604 79.2304L47.5487 78.9212C48.0047 77.2786 48.5854 75.6731 49.2857 74.1188C49.6316 73.3424 50.0217 72.5769 50.4228 71.8299C50.6289 71.4545 50.8423 71.0865 51.0631 70.7259C51.2913 70.3579 51.5047 70.0083 51.7991 69.6219C52.0527 69.2809 52.4277 69.0504 52.8465 68.9782C53.2653 68.906 53.6959 68.9975 54.049 69.2339C54.4022 69.4703 54.651 69.8335 54.7439 70.2482C54.8368 70.6629 54.7667 71.0974 54.5481 71.4619L54.5002 71.4803Z" fill="#7F3E3B"/>
<path d="M60.7532 80.8312L59.9841 81.4679C59.8425 81.5871 59.6742 81.6704 59.4935 81.7107C59.3129 81.7511 59.1252 81.7473 58.9463 81.6997L57.2498 81.2544C56.9161 81.1657 56.6084 80.9985 56.3523 80.7668C56.0963 80.5351 55.8993 80.2455 55.7778 79.9223L55.627 79.5175C56.8266 78.373 58.9647 78.016 58.9647 78.016L59.5646 77.8504C59.6865 77.8119 59.815 77.798 59.9424 77.8096C60.0698 77.8212 60.1936 77.8581 60.3067 77.918C60.4197 77.978 60.5197 78.0598 60.6007 78.1588C60.6818 78.2577 60.7424 78.3718 60.779 78.4944L61.147 79.6757C61.2022 79.8857 61.1944 80.1073 61.1243 80.3129C61.0543 80.5184 60.9252 80.6987 60.7532 80.8312Z" fill="#7F3E3B"/>
<path d="M56.6232 59.2737C57.1531 61.2278 57.8008 64.7937 56.5312 66.1111C56.5312 66.1111 55.556 67.9511 61.3152 67.6457C65.3632 67.4396 62.5995 66.1111 62.5995 66.1111C60.3915 65.5886 60.3179 63.973 60.5865 62.4569L56.6232 59.2737Z" fill="#7F3E3B"/>
<path d="M48.1294 140.999L44.3942 139.623C44.0667 142.508 42.8965 146.913 42.8965 146.913L45.5166 148.017C45.5166 148.017 47.261 142.754 48.1294 140.999Z" fill="#7F3E3B"/>
<path d="M46.1284 152.352C44.1302 150.88 44.2884 150.961 43.1844 150.1C42.246 149.364 41.9369 149.316 41.1751 148.731C40.5385 148.245 40.9691 147.627 41.6388 147.009C41.8927 146.777 42.2129 146.519 42.5772 146.184C42.6796 146.091 42.8113 146.036 42.9496 146.03C43.088 146.023 43.2243 146.065 43.3353 146.148L45.6758 147.859C45.7613 147.922 45.8308 148.005 45.8787 148.1C45.9266 148.195 45.9516 148.301 45.9518 148.407C45.964 148.975 46.0916 149.534 46.327 150.051C46.5623 150.568 46.9004 151.032 47.3207 151.414C48.3143 152.352 46.927 152.937 46.1284 152.352Z" fill="#263238"/>
<path d="M64.3106 86.8479C64.3106 86.8479 60.3767 107.106 57.3186 116.546C54.117 126.482 49.4361 137.496 47.3127 143.954C46.654 144.039 44.7735 143.255 43.8535 142.482C43.8535 142.482 45.2556 125.554 50.0543 116.796C49.5759 91.2418 54.4335 86.8479 54.4335 86.8479H64.3106Z" fill="#FAA500"/>
<path opacity="0.3" d="M64.3106 86.8479C64.3106 86.8479 60.3767 107.106 57.3186 116.546C54.117 126.482 49.4361 137.496 47.3127 143.954C46.654 144.039 44.7735 143.255 43.8535 142.482C43.8535 142.482 45.2556 125.554 50.0543 116.796C49.5759 91.2418 54.4335 86.8479 54.4335 86.8479H64.3106Z" fill="black"/>
<path opacity="0.2" d="M57.0028 94.4287L61.0508 102.157C60.1235 106.205 59.0931 110.426 58.1068 113.855C55.1739 105.616 57.0028 94.4287 57.0028 94.4287Z" fill="black"/>
<path d="M48.1233 142.736C47.9986 143.177 47.91 143.628 47.8583 144.083C47.8544 144.122 47.8417 144.159 47.8212 144.193C47.8007 144.226 47.7729 144.254 47.74 144.275C47.707 144.296 47.6697 144.309 47.6309 144.313C47.5921 144.318 47.5529 144.313 47.5161 144.3C46.0809 143.932 44.2041 142.828 43.5895 142.46C43.5346 142.428 43.4901 142.381 43.4614 142.324C43.4327 142.267 43.421 142.203 43.4276 142.14L43.5932 140.845C43.6001 140.805 43.6161 140.768 43.6398 140.735C43.6635 140.703 43.6944 140.677 43.73 140.658C43.7655 140.64 43.8049 140.63 43.845 140.629C43.8851 140.628 43.9248 140.636 43.9612 140.653L47.9061 142.361C47.981 142.387 48.0439 142.44 48.0837 142.509C48.1234 142.577 48.1375 142.658 48.1233 142.736Z" fill="#263238"/>
<path d="M67.5821 142.732L63.9941 142.997C64.5829 145.86 65.1975 150.379 65.1975 150.379H68.0458C68.0458 150.379 67.538 144.694 67.5821 142.732Z" fill="#7F3E3B"/>
<path d="M71.0609 153.206C68.5843 153.206 68.7609 153.169 67.3809 153.121C66.1886 153.081 65.9089 153.228 64.9448 153.206C64.1462 153.206 64.1756 152.426 64.4259 151.542C64.5179 151.204 64.654 150.806 64.7939 150.324C64.8304 150.187 64.9111 150.066 65.0236 149.98C65.136 149.893 65.2739 149.846 65.4158 149.846H68.3156C68.4194 149.844 68.5219 149.869 68.6139 149.917C68.7058 149.965 68.7842 150.036 68.8419 150.122C69.1571 150.575 69.5673 150.955 70.0439 151.234C70.5205 151.513 71.0522 151.685 71.6019 151.738C72.9193 151.918 72.0508 153.206 71.0609 153.206Z" fill="#263238"/>
<path d="M67.3664 86.8479C67.3664 86.8479 67.8153 104.512 68.2164 115.497C68.6176 126.482 67.7564 145.923 67.7564 145.923C67.6755 146.457 64.875 146.243 64.4003 145.923C64.4003 145.923 59.0459 130.173 61.0883 116.546C53.9196 98.8815 55.9878 87.2821 55.9878 87.2821L67.3664 86.8479Z" fill="#FAA500"/>
<path opacity="0.3" d="M67.3664 86.8479C67.3664 86.8479 67.8153 104.512 68.2164 115.497C68.6176 126.482 67.7564 145.923 67.7564 145.923C67.6755 146.457 64.875 146.243 64.4003 145.923C64.4003 145.923 59.0459 130.173 61.0883 116.546C53.9196 98.8815 55.9878 87.2821 55.9878 87.2821L67.3664 86.8479Z" fill="black"/>
<path d="M68.1394 144.429C68.1394 144.797 68.1725 145.441 68.2056 145.901C68.2099 145.977 68.1849 146.053 68.1357 146.112C68.0865 146.17 68.0167 146.208 67.9406 146.217C66.7068 146.319 65.4662 146.305 64.2349 146.177C64.1757 146.172 64.1197 146.148 64.0758 146.108C64.0318 146.068 64.0024 146.015 63.992 145.956L63.7418 144.657C63.7319 144.613 63.7319 144.568 63.7417 144.525C63.7514 144.481 63.7707 144.44 63.7982 144.405C63.8257 144.37 63.8606 144.341 63.9005 144.321C63.9403 144.301 63.9842 144.29 64.0288 144.289L67.8523 144.134C67.8912 144.132 67.9302 144.138 67.9665 144.152C68.0029 144.167 68.0357 144.188 68.0629 144.216C68.0902 144.244 68.1111 144.278 68.1242 144.314C68.1374 144.351 68.1426 144.39 68.1394 144.429Z" fill="#263238"/>
<path d="M55.1258 83.7494C55.065 84.7826 54.9422 85.8112 54.7578 86.8296H67.233L67.3655 83.6538C67.3655 83.6538 57.7386 83.1091 55.1258 83.7494Z" fill="#7F3E3B"/>
<path d="M68.5659 70.7812C68.6407 72.6999 68.6112 74.6212 68.4775 76.5367C68.3745 79.0391 68.8455 79.65 68.4775 83.7495C67.1086 84.5481 58.1036 84.5186 53.6766 83.9446C53.9452 80.4007 54.2727 78.0124 51.8734 70.0378C51.3177 68.1978 52.5579 66.413 54.5414 66.2217C55.0713 66.1738 55.6454 66.1297 56.2084 66.1039C58.2314 65.9676 60.2612 65.9676 62.2841 66.1039C62.9428 66.1591 63.6273 66.2401 64.2823 66.3247C66.6302 66.6338 68.4923 68.5658 68.5659 70.7812Z" fill="#263238"/>
<path d="M86.7878 80.0731L86.291 79.2083C86.1972 79.0485 86.067 78.9133 85.9109 78.8135C85.7549 78.7137 85.5774 78.6523 85.3931 78.6342L83.6488 78.4686C83.3056 78.4362 82.9597 78.486 82.6397 78.614C82.3197 78.742 82.0348 78.9445 81.8088 79.2046L81.5254 79.5358C82.2614 81.0078 84.1456 82.1118 84.1456 82.1118L84.6497 82.4798C84.751 82.5576 84.8667 82.6146 84.9901 82.6475C85.1135 82.6803 85.2423 82.6884 85.3688 82.6713C85.4954 82.6542 85.6173 82.6122 85.7276 82.5478C85.8379 82.4833 85.9343 82.3977 86.0113 82.2958L86.7473 81.3059C86.876 81.1278 86.9486 80.9153 86.9558 80.6957C86.963 80.4761 86.9045 80.2593 86.7878 80.0731Z" fill="#7F3E3B"/>
<path d="M69.7028 71.6754L69.8647 71.9256C69.9346 72.0324 70.0009 72.1428 70.0818 72.2532C70.2364 72.474 70.4093 72.6911 70.586 72.9082C70.952 73.3471 71.3402 73.7672 71.7489 74.1668C72.1647 74.5679 72.6026 74.958 73.0626 75.3296C73.5226 75.7013 74.0047 76.0657 74.4941 76.3895L74.2071 76.257C74.8853 76.5029 75.5756 76.7141 76.2753 76.89C77.0113 77.0777 77.7473 77.258 78.4833 77.442L80.7391 77.9792C81.4935 78.1632 82.2516 78.3472 83.0023 78.5276C83.2002 78.5742 83.3738 78.6923 83.4899 78.8592C83.606 79.0261 83.6564 79.23 83.6313 79.4317C83.6061 79.6334 83.5074 79.8188 83.3539 79.9521C83.2005 80.0855 83.0032 80.1574 82.7999 80.1541C82.0013 80.1541 81.2175 80.1173 80.43 80.0805C79.6425 80.0437 78.8549 79.9738 78.0637 79.9002C77.2725 79.8266 76.485 79.7309 75.6901 79.6058C74.8574 79.4895 74.0336 79.3161 73.2245 79.0869C73.1502 79.0658 73.0786 79.0362 73.0111 78.9986L72.9338 78.9545C72.6357 78.7815 72.334 78.6159 72.0359 78.4392C71.7378 78.2626 71.4434 78.0713 71.1601 77.8689C70.5776 77.4743 70.0219 77.0416 69.4967 76.5735C68.9588 76.0999 68.457 75.587 67.9953 75.0389C67.7634 74.7593 67.5389 74.4722 67.3255 74.1631C67.2188 74.0122 67.1121 73.8503 67.0127 73.6847C66.9612 73.6 66.9133 73.5191 66.8618 73.4234C66.8103 73.3277 66.7698 73.2615 66.6925 73.0996C66.506 72.7202 66.4724 72.2836 66.5986 71.8801C66.7248 71.4766 67.0012 71.1371 67.3706 70.9315C67.7401 70.726 68.1744 70.6703 68.5838 70.7759C68.9931 70.8814 69.3463 71.1402 69.5703 71.4988L69.7028 71.6754Z" fill="#7F3E3B"/>
<path d="M64.8263 66.5049C67.2551 67.1489 69.338 69.2318 72.1863 73.3423C71.7888 75.0204 68.1383 76.9598 68.1383 76.9598C68.1383 76.9598 60.5354 69.3863 64.8263 66.5049Z" fill="#263238"/>
<path d="M62.9829 55.6452C63.0712 55.8991 63.281 56.0647 63.4466 56.0132C63.6122 55.9617 63.671 55.7225 63.579 55.4685C63.487 55.2146 63.281 55.0453 63.1154 55.1005C62.9498 55.1557 62.8909 55.3913 62.9829 55.6452Z" fill="#263238"/>
<path d="M63.0488 55.1338L63.5898 54.7878C63.5898 54.7878 63.4499 55.3509 63.0488 55.1338Z" fill="#263238"/>
<path d="M63.1738 56.1199C63.6048 56.6354 64.0994 57.0941 64.6458 57.4852C64.5475 57.615 64.4208 57.7207 64.2754 57.7941C64.13 57.8674 63.9697 57.9065 63.8068 57.9084L63.1738 56.1199Z" fill="#630F0F"/>
<path d="M62.5955 53.5365C62.6144 53.5332 62.6323 53.5258 62.6482 53.5151C62.664 53.5043 62.6774 53.4903 62.6875 53.474C62.7076 53.4377 62.7126 53.3951 62.7016 53.3552C62.6906 53.3153 62.6644 53.2813 62.6286 53.2605C62.4149 53.1242 62.1729 53.0384 61.921 53.0097C61.6691 52.981 61.414 53.0102 61.175 53.0949C61.1567 53.1031 61.1403 53.115 61.1268 53.1299C61.1134 53.1448 61.1032 53.1623 61.097 53.1814C61.0907 53.2005 61.0885 53.2206 61.0906 53.2406C61.0926 53.2606 61.0988 53.2799 61.1088 53.2973C61.1285 53.3343 61.1612 53.3628 61.2006 53.377C61.2401 53.3913 61.2834 53.3904 61.3222 53.3746C61.512 53.3098 61.7139 53.2891 61.9129 53.314C62.1118 53.3388 62.3024 53.4086 62.4704 53.5181C62.5082 53.5402 62.553 53.5468 62.5955 53.5365Z" fill="#263238"/>
<path d="M54.2643 57.0841C55.4787 60.0575 55.9276 61.3382 57.9958 62.4606C61.1054 64.146 64.5094 62.2214 64.2113 58.9977C63.9464 56.0979 62.0033 51.726 58.6104 51.3543C57.8842 51.2509 57.1436 51.3435 56.4653 51.6225C55.787 51.9015 55.1956 52.3567 54.7523 52.9411C54.309 53.5255 54.0301 54.2177 53.9443 54.9462C53.8585 55.6746 53.969 56.4127 54.2643 57.0841Z" fill="#7F3E3B"/>
<path d="M61.1689 57.0142C62.1662 59.2001 62.0374 65.3973 56.4695 63.4763C50.9017 61.5553 51.2918 58.5341 52.7895 56.1163C49.7683 53.4115 53.6727 51.2661 57.2607 50.2909C60.8487 49.3157 63.9988 50.1915 61.1689 57.0142Z" fill="#263238"/>
<path d="M55.7155 56.823C55.8123 57.2836 55.7701 57.7626 55.5944 58.1992C55.4187 58.6358 55.1174 59.0105 54.7286 59.2757C54.3397 59.5409 53.8809 59.6847 53.4103 59.689C52.9396 59.6932 52.4783 59.5576 52.0848 59.2994C51.6913 59.0412 51.3833 58.6719 51.1998 58.2385C51.0163 57.8051 50.9656 57.3269 51.0541 56.8647C51.1427 56.4024 51.3664 55.9768 51.697 55.6418C52.0276 55.3069 52.4503 55.0775 52.9113 54.983C53.5268 54.8587 54.1665 54.9822 54.6915 55.3267C55.2166 55.6712 55.5845 56.2089 55.7155 56.823Z" fill="#FAA500"/>
<path d="M53.9672 60.6757C55.0712 58.4677 54.1733 55.7225 52.4621 53.9487C49.2237 50.5889 44.7341 52.7969 45.9853 56.1199C47.4573 60.0833 39.6999 64.157 44.2226 66.5049C48.6386 68.8049 55.9986 64.7495 53.9304 60.7567C53.9415 60.7199 53.9562 60.7199 53.9672 60.6757Z" fill="#263238"/>
<path d="M59.9324 57.1761C60.0918 57.4414 60.3053 57.6702 60.5589 57.8478C60.8124 58.0253 61.1005 58.1475 61.4044 58.2065C62.1404 58.3242 62.3833 57.4705 62.0558 56.6461C61.7577 55.9101 61.0106 54.9717 60.3151 55.2293C59.6196 55.4869 59.4908 56.4769 59.9324 57.1761Z" fill="#7F3E3B"/>
<path d="M54.4043 66.24C52.2258 66.5749 51.3536 67.2373 49.5762 71.6128C50.3821 73.243 54.1614 74.807 54.1614 74.807C54.1614 74.807 56.6712 69.1546 54.4043 66.24Z" fill="#263238"/>
<path d="M67.3881 87.7863C62.925 88.2788 58.4207 88.2689 53.9598 87.7568C53.9133 87.7496 53.8692 87.7318 53.8307 87.7047C53.7923 87.6777 53.7606 87.6421 53.7382 87.6008C53.7158 87.5595 53.7032 87.5135 53.7014 87.4666C53.6996 87.4196 53.7087 87.3728 53.7279 87.33C53.8383 87.0724 53.9451 86.8148 54.0518 86.5572C54.0751 86.5006 54.1159 86.4529 54.1682 86.4211C54.2205 86.3893 54.2815 86.3751 54.3425 86.3805C58.6327 86.8534 62.9618 86.8534 67.2519 86.3805C67.2901 86.3775 67.3286 86.3821 67.365 86.394C67.4014 86.4058 67.4351 86.4248 67.4642 86.4498C67.4933 86.4748 67.5171 86.5052 67.5344 86.5394C67.5516 86.5736 67.562 86.6109 67.5647 86.6492C67.5905 86.9178 67.6199 87.1828 67.6457 87.4514C67.6551 87.5298 67.6335 87.6088 67.5853 87.6714C67.5371 87.734 67.4663 87.7753 67.3881 87.7863Z" fill="#263238"/>
</svg>
